<svg width="514" height="514" viewBox="0 0 514 514" fill="none" xmlns="http://www.w3.org/2000/svg">
<path fill-rule="evenodd" clip-rule="evenodd" d="M0.14502 188.855L188.855 0.145139L279.016 90.3065L239.177 130.145L190.952 81.9194L81.9192 190.952L180.468 289.5L289.5 180.468L329.339 140.629L513.855 325.145L325.145 513.855L232.887 421.597L272.726 381.758L320.952 429.984L429.984 320.952L331.435 222.403L222.403 331.436L182.564 371.274L0.14502 188.855Z" fill="#CC0033"/>
<path fill-rule="evenodd" clip-rule="evenodd" d="M0.206521 325.084L0.14502 325.146L188.855 513.856L371.274 331.436L331.435 291.597L289.5 333.533L190.952 432.081L83.9545 325.084L0.206521 325.084ZM222.403 182.565L320.952 84.0167L425.774 188.84L513.839 188.84L325.145 0.14575L140.629 184.662L180.468 224.501L222.403 182.565Z" fill="#82BE28"/>
</svg>
