<svg width="237" height="238" viewBox="0 0 237 238" fill="none" xmlns="http://www.w3.org/2000/svg">
<path fill-rule="evenodd" clip-rule="evenodd" d="M24.8062 93.9628L93.5002 25.2687L126.321 58.0892L111.819 72.5913L94.2634 55.0362L54.5736 94.726L90.4471 130.6L130.137 90.9097L144.639 76.4076L211.807 143.575L143.113 212.269L109.529 178.685L124.031 164.183L141.586 181.738L181.276 142.049L145.402 106.175L105.712 145.865L91.2104 160.367L24.8062 93.9628Z" fill="#CC0033"/>
<path fill-rule="evenodd" clip-rule="evenodd" d="M24.8285 143.553L24.8062 143.575L93.5002 212.269L159.904 145.865L145.402 131.363L130.137 146.628L94.2634 182.502L55.3144 143.553L24.8285 143.553ZM105.712 91.6732L141.586 55.7996L179.744 93.9572L211.801 93.9572L143.113 25.2689L75.945 92.4364L90.4471 106.938L105.712 91.6732Z" fill="#82BE28"/>
</svg>
