<svg width="158" height="19" viewBox="0 0 158 19" fill="none" xmlns="http://www.w3.org/2000/svg">
<path d="M153.424 5.90479C154.815 5.90479 155.921 6.35878 156.744 7.26677C157.581 8.16057 158 9.39487 158 10.9697V17.9073H154.382V11.4591C154.382 10.6646 154.176 10.0475 153.765 9.60768C153.354 9.16787 152.8 8.94797 152.105 8.94797C151.41 8.94797 150.857 9.16787 150.445 9.60768C150.034 10.0475 149.828 10.6646 149.828 11.4591V17.9073H146.189V6.03247H149.828V7.60727C150.197 7.08234 150.693 6.6709 151.318 6.37297C151.942 6.06085 152.644 5.90479 153.424 5.90479Z" fill="black"/>
<path d="M138.044 18.0775C136.881 18.0775 135.831 17.8292 134.895 17.3327C133.973 16.8361 133.242 16.1267 132.703 15.2045C132.178 14.2824 131.916 13.2041 131.916 11.9698C131.916 10.7497 132.185 9.67858 132.724 8.7564C133.263 7.82004 134.001 7.10358 134.937 6.60702C135.874 6.11046 136.924 5.86218 138.087 5.86218C139.25 5.86218 140.3 6.11046 141.237 6.60702C142.173 7.10358 142.911 7.82004 143.45 8.7564C143.989 9.67858 144.259 10.7497 144.259 11.9698C144.259 13.1899 143.982 14.2682 143.429 15.2045C142.889 16.1267 142.145 16.8361 141.194 17.3327C140.258 17.8292 139.208 18.0775 138.044 18.0775ZM138.044 14.9279C138.74 14.9279 139.328 14.6725 139.811 14.1618C140.307 13.651 140.556 12.9204 140.556 11.9698C140.556 11.0193 140.314 10.2886 139.832 9.77789C139.364 9.26715 138.782 9.01177 138.087 9.01177C137.378 9.01177 136.789 9.26715 136.321 9.77789C135.853 10.2744 135.618 11.0051 135.618 11.9698C135.618 12.9204 135.845 13.651 136.299 14.1618C136.768 14.6725 137.349 14.9279 138.044 14.9279Z" fill="black"/>
<path d="M128.193 4.79819C127.555 4.79819 127.03 4.61376 126.618 4.24489C126.221 3.86183 126.022 3.39365 126.022 2.84034C126.022 2.27285 126.221 1.80467 126.618 1.43579C127.03 1.05274 127.555 0.861206 128.193 0.861206C128.817 0.861206 129.328 1.05274 129.725 1.43579C130.137 1.80467 130.343 2.27285 130.343 2.84034C130.343 3.39365 130.137 3.86183 129.725 4.24489C129.328 4.61376 128.817 4.79819 128.193 4.79819ZM130.002 6.03249V17.9073H126.363V6.03249H130.002Z" fill="black"/>
<path d="M124.336 14.8216V17.9073H122.484C121.165 17.9073 120.136 17.5881 119.398 16.9497C118.661 16.2971 118.292 15.2401 118.292 13.7788V9.05443H116.845V6.03252H118.292V3.13831H121.931V6.03252H124.314V9.05443H121.931V13.8214C121.931 14.1761 122.016 14.4314 122.186 14.5875C122.357 14.7436 122.64 14.8216 123.038 14.8216H124.336Z" fill="black"/>
<path d="M115.103 6.03247V17.9073H111.464V16.2899C111.095 16.8149 110.592 17.2405 109.953 17.5668C109.329 17.8789 108.634 18.035 107.868 18.035C106.96 18.035 106.158 17.8363 105.463 17.4391C104.768 17.0277 104.229 16.4389 103.846 15.6728C103.463 14.9067 103.271 14.0058 103.271 12.9701V6.03247H106.889V12.4806C106.889 13.2751 107.094 13.8923 107.506 14.3321C107.917 14.7719 108.471 14.9918 109.166 14.9918C109.875 14.9918 110.436 14.7719 110.847 14.3321C111.258 13.8923 111.464 13.2751 111.464 12.4806V6.03247H115.103Z" fill="black"/>
<path d="M100.74 2.1593V17.9073H97.1011V2.1593H100.74Z" fill="black"/>
<path d="M88.9571 18.0775C87.7937 18.0775 86.7438 17.8292 85.8075 17.3327C84.8853 16.8361 84.1546 16.1267 83.6155 15.2045C83.0906 14.2824 82.8281 13.2041 82.8281 11.9698C82.8281 10.7497 83.0977 9.67858 83.6368 8.7564C84.1759 7.82004 84.9137 7.10358 85.85 6.60702C86.7864 6.11046 87.8363 5.86218 88.9996 5.86218C90.163 5.86218 91.2128 6.11046 92.1492 6.60702C93.0856 7.10358 93.8233 7.82004 94.3624 8.7564C94.9016 9.67858 95.1711 10.7497 95.1711 11.9698C95.1711 13.1899 94.8945 14.2682 94.3412 15.2045C93.802 16.1267 93.0572 16.8361 92.1067 17.3327C91.1703 17.8292 90.1204 18.0775 88.9571 18.0775ZM88.9571 14.9279C89.6522 14.9279 90.241 14.6725 90.7234 14.1618C91.2199 13.651 91.4682 12.9204 91.4682 11.9698C91.4682 11.0193 91.227 10.2886 90.7447 9.77789C90.2765 9.26715 89.6948 9.01177 88.9996 9.01177C88.2903 9.01177 87.7015 9.26715 87.2333 9.77789C86.7651 10.2744 86.531 11.0051 86.531 11.9698C86.531 12.9204 86.758 13.651 87.212 14.1618C87.6802 14.6725 88.2619 14.9279 88.9571 14.9279Z" fill="black"/>
<path d="M75.8637 18.0563C74.7713 18.0563 73.7924 17.879 72.9269 17.5243C72.0615 17.1696 71.3663 16.6447 70.8414 15.9495C70.3307 15.2543 70.0611 14.4172 70.0327 13.4383H73.9059C73.9626 13.9916 74.1541 14.4172 74.4804 14.7152C74.8068 14.9989 75.2324 15.1408 75.7573 15.1408C76.2964 15.1408 76.722 15.0202 77.0342 14.779C77.3463 14.5237 77.5024 14.1761 77.5024 13.7363C77.5024 13.3674 77.3747 13.0624 77.1193 12.8212C76.8781 12.58 76.5731 12.3814 76.2042 12.2253C75.8495 12.0692 75.3388 11.8919 74.672 11.6933C73.7072 11.3953 72.9198 11.0974 72.3098 10.7995C71.6997 10.5015 71.1748 10.0617 70.735 9.48005C70.2952 8.89837 70.0753 8.13935 70.0753 7.20298C70.0753 5.81262 70.5789 4.72729 71.5862 3.94699C72.5935 3.15249 73.9059 2.75525 75.5232 2.75525C77.169 2.75525 78.4955 3.15249 79.5028 3.94699C80.5101 4.72729 81.0492 5.81972 81.1201 7.22426H77.1831C77.1548 6.74189 76.9774 6.36593 76.6511 6.09637C76.3248 5.81262 75.9063 5.67075 75.3955 5.67075C74.9557 5.67075 74.601 5.79134 74.3315 6.03253C74.0619 6.25952 73.9271 6.59292 73.9271 7.03273C73.9271 7.5151 74.1541 7.89107 74.6081 8.16063C75.0621 8.43019 75.7715 8.72103 76.7362 9.03315C77.701 9.35946 78.4813 9.67158 79.0771 9.96951C79.6872 10.2674 80.2121 10.7002 80.6519 11.2677C81.0918 11.8352 81.3117 12.5658 81.3117 13.4596C81.3117 14.3108 81.0918 15.0841 80.6519 15.7792C80.2263 16.4744 79.6021 17.0277 78.7792 17.4392C77.9563 17.8506 76.9845 18.0563 75.8637 18.0563Z" fill="black"/>
<path d="M50.7817 11.9486C50.7817 10.7284 51.0087 9.6573 51.4627 8.73512C51.9309 7.81294 52.5622 7.10358 53.3567 6.60702C54.1512 6.11046 55.0379 5.86218 56.0169 5.86218C56.8539 5.86218 57.5846 6.03243 58.2088 6.37293C58.8472 6.71342 59.3367 7.16032 59.6772 7.71363V6.03243H63.3163V17.9072H59.6772V16.226C59.3225 16.7793 58.826 17.2262 58.1875 17.5667C57.5633 17.9072 56.8326 18.0775 55.9956 18.0775C55.0308 18.0775 54.1512 17.8292 53.3567 17.3327C52.5622 16.8219 51.9309 16.1054 51.4627 15.1833C51.0087 14.2469 50.7817 13.1687 50.7817 11.9486ZM59.6772 11.9698C59.6772 11.0618 59.4218 10.3454 58.9111 9.82045C58.4145 9.29552 57.8045 9.03305 57.0809 9.03305C56.3574 9.03305 55.7402 9.29552 55.2295 9.82045C54.7329 10.3312 54.4846 11.0406 54.4846 11.9486C54.4846 12.8565 54.7329 13.5801 55.2295 14.1192C55.7402 14.6442 56.3574 14.9066 57.0809 14.9066C57.8045 14.9066 58.4145 14.6442 58.9111 14.1192C59.4218 13.5943 59.6772 12.8778 59.6772 11.9698Z" fill="black"/>
<path d="M46.0414 8.01161C46.467 7.35899 46.999 6.84824 47.6375 6.47937C48.2759 6.09632 48.9853 5.90479 49.7656 5.90479V9.75665H48.7654C47.8574 9.75665 47.1764 9.95527 46.7224 10.3525C46.2684 10.7356 46.0414 11.4166 46.0414 12.3955V17.9073H42.4023V6.03247H46.0414V8.01161Z" fill="black"/>
<path d="M36.9389 8.01161C37.3645 7.35899 37.8965 6.84824 38.5349 6.47937C39.1734 6.09632 39.8827 5.90479 40.663 5.90479V9.75665H39.6628C38.7548 9.75665 38.0738 9.95527 37.6199 10.3525C37.1659 10.7356 36.9389 11.4166 36.9389 12.3955V17.9073H33.2998V6.03247H36.9389V8.01161Z" fill="black"/>
<path d="M31.3803 11.7783C31.3803 12.1188 31.359 12.4735 31.3164 12.8424H23.0807C23.1374 13.5801 23.3715 14.1476 23.7829 14.5448C24.2086 14.9279 24.7264 15.1194 25.3365 15.1194C26.2444 15.1194 26.8758 14.7364 27.2305 13.9703H31.1036C30.905 14.7506 30.5432 15.4528 30.0183 16.0771C29.5075 16.7013 28.862 17.1908 28.0817 17.5455C27.3014 17.9001 26.4289 18.0775 25.4641 18.0775C24.3008 18.0775 23.2651 17.8292 22.3571 17.3327C21.4491 16.8361 20.7398 16.1267 20.229 15.2045C19.7183 14.2824 19.4629 13.2041 19.4629 11.9698C19.4629 10.7355 19.7112 9.6573 20.2077 8.73512C20.7185 7.81294 21.4278 7.10358 22.3358 6.60702C23.2438 6.11046 24.2866 5.86218 25.4641 5.86218C26.6133 5.86218 27.6348 6.10337 28.5286 6.58574C29.4224 7.06811 30.1176 7.75619 30.6141 8.65C31.1249 9.5438 31.3803 10.5866 31.3803 11.7783ZM27.6561 10.8207C27.6561 10.1964 27.4433 9.69986 27.0177 9.33099C26.592 8.96212 26.06 8.77768 25.4216 8.77768C24.8115 8.77768 24.2937 8.95502 23.8681 9.30971C23.4566 9.66439 23.2013 10.168 23.1019 10.8207H27.6561Z" fill="black"/>
<path d="M15.7405 4.79819C15.1021 4.79819 14.5771 4.61376 14.1657 4.24489C13.7684 3.86183 13.5698 3.39365 13.5698 2.84034C13.5698 2.27285 13.7684 1.80467 14.1657 1.43579C14.5771 1.05274 15.1021 0.861206 15.7405 0.861206C16.3647 0.861206 16.8755 1.05274 17.2727 1.43579C17.6842 1.80467 17.8899 2.27285 17.8899 2.84034C17.8899 3.39365 17.6842 3.86183 17.2727 4.24489C16.8755 4.61376 16.3647 4.79819 15.7405 4.79819ZM17.5494 6.03249V17.9073H13.9103V6.03249H17.5494Z" fill="black"/>
<path d="M6.2226 18.0563C5.13017 18.0563 4.15125 17.879 3.28582 17.5243C2.42039 17.1696 1.72521 16.6447 1.20028 15.9495C0.689536 15.2543 0.419976 14.4172 0.391602 13.4383H4.26475C4.3215 13.9916 4.51303 14.4172 4.83933 14.7152C5.16564 14.9989 5.59126 15.1408 6.11619 15.1408C6.65531 15.1408 7.08093 15.0202 7.39306 14.779C7.70518 14.5237 7.86124 14.1761 7.86124 13.7363C7.86124 13.3674 7.73355 13.0624 7.47818 12.8212C7.237 12.58 6.93197 12.3814 6.5631 12.2253C6.20841 12.0692 5.69767 11.8919 5.03086 11.6933C4.06612 11.3953 3.27873 11.0974 2.66867 10.7995C2.05861 10.5015 1.53368 10.0617 1.09388 9.48005C0.654067 8.89837 0.434164 8.13935 0.434164 7.20298C0.434164 5.81262 0.937814 4.72729 1.94512 3.94699C2.95242 3.15249 4.26475 2.75525 5.8821 2.75525C7.52784 2.75525 8.85435 3.15249 9.86165 3.94699C10.869 4.72729 11.4081 5.81972 11.479 7.22426H7.54202C7.51365 6.74189 7.33631 6.36593 7.01 6.09637C6.68369 5.81262 6.26516 5.67075 5.75442 5.67075C5.31461 5.67075 4.95993 5.79134 4.69037 6.03253C4.42081 6.25952 4.28603 6.59292 4.28603 7.03273C4.28603 7.5151 4.51302 7.89107 4.96702 8.16063C5.42101 8.43019 6.13038 8.72103 7.09512 9.03315C8.05986 9.35946 8.84016 9.67158 9.43603 9.96951C10.0461 10.2674 10.571 10.7002 11.0108 11.2677C11.4506 11.8352 11.6705 12.5658 11.6705 13.4596C11.6705 14.3108 11.4506 15.0841 11.0108 15.7792C10.5852 16.4744 9.96097 17.0277 9.1381 17.4392C8.31523 17.8506 7.3434 18.0563 6.2226 18.0563Z" fill="black"/>
</svg>
