<svg width="200" height="39" viewBox="0 0 200 39" fill="none" xmlns="http://www.w3.org/2000/svg">
<path d="M195.424 14.9048C196.815 14.9048 197.921 15.3588 198.744 16.2668C199.581 17.1606 200 18.3949 200 19.9697V26.9073H196.382V20.4591C196.382 19.6646 196.176 19.0475 195.765 18.6077C195.354 18.1679 194.8 17.948 194.105 17.948C193.41 17.948 192.857 18.1679 192.445 18.6077C192.034 19.0475 191.828 19.6646 191.828 20.4591V26.9073H188.189V15.0325H191.828V16.6073C192.197 16.0823 192.693 15.6709 193.318 15.373C193.942 15.0608 194.644 14.9048 195.424 14.9048Z" fill="black"/>
<path d="M180.044 27.0775C178.881 27.0775 177.831 26.8292 176.895 26.3327C175.973 25.8361 175.242 25.1267 174.703 24.2045C174.178 23.2824 173.916 22.2041 173.916 20.9698C173.916 19.7497 174.185 18.6786 174.724 17.7564C175.263 16.82 176.001 16.1036 176.937 15.607C177.874 15.1105 178.924 14.8622 180.087 14.8622C181.25 14.8622 182.3 15.1105 183.237 15.607C184.173 16.1036 184.911 16.82 185.45 17.7564C185.989 18.6786 186.259 19.7497 186.259 20.9698C186.259 22.1899 185.982 23.2682 185.429 24.2045C184.889 25.1267 184.145 25.8361 183.194 26.3327C182.258 26.8292 181.208 27.0775 180.044 27.0775ZM180.044 23.9279C180.74 23.9279 181.328 23.6725 181.811 23.1618C182.307 22.651 182.556 21.9204 182.556 20.9698C182.556 20.0193 182.314 19.2886 181.832 18.7779C181.364 18.2671 180.782 18.0118 180.087 18.0118C179.378 18.0118 178.789 18.2671 178.321 18.7779C177.853 19.2744 177.618 20.0051 177.618 20.9698C177.618 21.9204 177.845 22.651 178.299 23.1618C178.768 23.6725 179.349 23.9279 180.044 23.9279Z" fill="black"/>
<path d="M170.193 13.7982C169.555 13.7982 169.03 13.6138 168.618 13.2449C168.221 12.8618 168.022 12.3936 168.022 11.8403C168.022 11.2728 168.221 10.8047 168.618 10.4358C169.03 10.0527 169.555 9.86121 170.193 9.86121C170.817 9.86121 171.328 10.0527 171.725 10.4358C172.137 10.8047 172.343 11.2728 172.343 11.8403C172.343 12.3936 172.137 12.8618 171.725 13.2449C171.328 13.6138 170.817 13.7982 170.193 13.7982ZM172.002 15.0325V26.9073H168.363V15.0325H172.002Z" fill="black"/>
<path d="M166.336 23.8216V26.9073H164.484C163.165 26.9073 162.136 26.5881 161.398 25.9497C160.661 25.2971 160.292 24.2401 160.292 22.7788V18.0544H158.845V15.0325H160.292V12.1383H163.931V15.0325H166.314V18.0544H163.931V22.8214C163.931 23.1761 164.016 23.4314 164.186 23.5875C164.357 23.7436 164.64 23.8216 165.038 23.8216H166.336Z" fill="black"/>
<path d="M157.103 15.0325V26.9073H153.464V25.2899C153.095 25.8149 152.592 26.2405 151.953 26.5668C151.329 26.8789 150.634 27.035 149.868 27.035C148.96 27.035 148.158 26.8363 147.463 26.4391C146.768 26.0277 146.229 25.4389 145.846 24.6728C145.463 23.9067 145.271 23.0058 145.271 21.9701V15.0325H148.889V21.4806C148.889 22.2751 149.094 22.8923 149.506 23.3321C149.917 23.7719 150.471 23.9918 151.166 23.9918C151.875 23.9918 152.436 23.7719 152.847 23.3321C153.258 22.8923 153.464 22.2751 153.464 21.4806V15.0325H157.103Z" fill="black"/>
<path d="M142.74 11.1593V26.9073H139.101V11.1593H142.74Z" fill="black"/>
<path d="M130.957 27.0775C129.794 27.0775 128.744 26.8292 127.807 26.3327C126.885 25.8361 126.155 25.1267 125.616 24.2045C125.091 23.2824 124.828 22.2041 124.828 20.9698C124.828 19.7497 125.098 18.6786 125.637 17.7564C126.176 16.82 126.914 16.1036 127.85 15.607C128.786 15.1105 129.836 14.8622 131 14.8622C132.163 14.8622 133.213 15.1105 134.149 15.607C135.086 16.1036 135.823 16.82 136.362 17.7564C136.902 18.6786 137.171 19.7497 137.171 20.9698C137.171 22.1899 136.894 23.2682 136.341 24.2045C135.802 25.1267 135.057 25.8361 134.107 26.3327C133.17 26.8292 132.12 27.0775 130.957 27.0775ZM130.957 23.9279C131.652 23.9279 132.241 23.6725 132.723 23.1618C133.22 22.651 133.468 21.9204 133.468 20.9698C133.468 20.0193 133.227 19.2886 132.745 18.7779C132.276 18.2671 131.695 18.0118 131 18.0118C130.29 18.0118 129.701 18.2671 129.233 18.7779C128.765 19.2744 128.531 20.0051 128.531 20.9698C128.531 21.9204 128.758 22.651 129.212 23.1618C129.68 23.6725 130.262 23.9279 130.957 23.9279Z" fill="black"/>
<path d="M117.864 27.0563C116.771 27.0563 115.792 26.879 114.927 26.5243C114.062 26.1696 113.366 25.6447 112.841 24.9495C112.331 24.2543 112.061 23.4172 112.033 22.4383H115.906C115.963 22.9916 116.154 23.4172 116.48 23.7152C116.807 23.9989 117.232 24.1408 117.757 24.1408C118.296 24.1408 118.722 24.0202 119.034 23.779C119.346 23.5237 119.502 23.1761 119.502 22.7363C119.502 22.3674 119.375 22.0624 119.119 21.8212C118.878 21.58 118.573 21.3814 118.204 21.2253C117.85 21.0692 117.339 20.8919 116.672 20.6933C115.707 20.3953 114.92 20.0974 114.31 19.7995C113.7 19.5015 113.175 19.0617 112.735 18.4801C112.295 17.8984 112.075 17.1393 112.075 16.203C112.075 14.8126 112.579 13.7273 113.586 12.947C114.594 12.1525 115.906 11.7552 117.523 11.7552C119.169 11.7552 120.495 12.1525 121.503 12.947C122.51 13.7273 123.049 14.8197 123.12 16.2243H119.183C119.155 15.7419 118.977 15.3659 118.651 15.0964C118.325 14.8126 117.906 14.6707 117.396 14.6707C116.956 14.6707 116.601 14.7913 116.331 15.0325C116.062 15.2595 115.927 15.5929 115.927 16.0327C115.927 16.5151 116.154 16.8911 116.608 17.1606C117.062 17.4302 117.771 17.721 118.736 18.0331C119.701 18.3595 120.481 18.6716 121.077 18.9695C121.687 19.2674 122.212 19.7002 122.652 20.2677C123.092 20.8352 123.312 21.5658 123.312 22.4596C123.312 23.3108 123.092 24.0841 122.652 24.7792C122.226 25.4744 121.602 26.0277 120.779 26.4392C119.956 26.8506 118.985 27.0563 117.864 27.0563Z" fill="black"/>
<path d="M92.7817 20.9486C92.7817 19.7284 93.0087 18.6573 93.4627 17.7351C93.9309 16.8129 94.5622 16.1036 95.3567 15.607C96.1512 15.1105 97.0379 14.8622 98.0169 14.8622C98.8539 14.8622 99.5846 15.0324 100.209 15.3729C100.847 15.7134 101.337 16.1603 101.677 16.7136V15.0324H105.316V26.9072H101.677V25.226C101.323 25.7793 100.826 26.2262 100.188 26.5667C99.5633 26.9072 98.8326 27.0775 97.9956 27.0775C97.0308 27.0775 96.1512 26.8292 95.3567 26.3327C94.5622 25.8219 93.9309 25.1054 93.4627 24.1833C93.0087 23.2469 92.7817 22.1687 92.7817 20.9486ZM101.677 20.9698C101.677 20.0618 101.422 19.3454 100.911 18.8205C100.415 18.2955 99.8045 18.0331 99.0809 18.0331C98.3574 18.0331 97.7402 18.2955 97.2295 18.8205C96.7329 19.3312 96.4846 20.0406 96.4846 20.9486C96.4846 21.8565 96.7329 22.5801 97.2295 23.1192C97.7402 23.6442 98.3574 23.9066 99.0809 23.9066C99.8045 23.9066 100.415 23.6442 100.911 23.1192C101.422 22.5943 101.677 21.8778 101.677 20.9698Z" fill="black"/>
<path d="M88.0414 17.0116C88.467 16.359 88.999 15.8482 89.6375 15.4794C90.2759 15.0963 90.9853 14.9048 91.7656 14.9048V18.7567H90.7654C89.8574 18.7567 89.1764 18.9553 88.7224 19.3525C88.2684 19.7356 88.0414 20.4166 88.0414 21.3955V26.9073H84.4023V15.0325H88.0414V17.0116Z" fill="black"/>
<path d="M78.9389 17.0116C79.3645 16.359 79.8965 15.8482 80.5349 15.4794C81.1734 15.0963 81.8827 14.9048 82.663 14.9048V18.7567H81.6628C80.7548 18.7567 80.0738 18.9553 79.6199 19.3525C79.1659 19.7356 78.9389 20.4166 78.9389 21.3955V26.9073H75.2998V15.0325H78.9389V17.0116Z" fill="black"/>
<path d="M73.3803 20.7783C73.3803 21.1188 73.359 21.4735 73.3164 21.8424H65.0807C65.1374 22.5801 65.3715 23.1476 65.7829 23.5448C66.2086 23.9279 66.7264 24.1194 67.3365 24.1194C68.2444 24.1194 68.8758 23.7364 69.2305 22.9703H73.1036C72.905 23.7506 72.5432 24.4528 72.0183 25.0771C71.5075 25.7013 70.862 26.1908 70.0817 26.5455C69.3014 26.9001 68.4289 27.0775 67.4641 27.0775C66.3008 27.0775 65.2651 26.8292 64.3571 26.3327C63.4491 25.8361 62.7398 25.1267 62.229 24.2045C61.7183 23.2824 61.4629 22.2041 61.4629 20.9698C61.4629 19.7355 61.7112 18.6573 62.2077 17.7351C62.7185 16.8129 63.4278 16.1036 64.3358 15.607C65.2438 15.1105 66.2866 14.8622 67.4641 14.8622C68.6133 14.8622 69.6348 15.1034 70.5286 15.5857C71.4224 16.0681 72.1176 16.7562 72.6141 17.65C73.1249 18.5438 73.3803 19.5866 73.3803 20.7783ZM69.6561 19.8207C69.6561 19.1964 69.4433 18.6999 69.0177 18.331C68.592 17.9621 68.06 17.7777 67.4216 17.7777C66.8115 17.7777 66.2937 17.955 65.8681 18.3097C65.4566 18.6644 65.2013 19.168 65.1019 19.8207H69.6561Z" fill="black"/>
<path d="M57.7405 13.7982C57.1021 13.7982 56.5771 13.6138 56.1657 13.2449C55.7684 12.8618 55.5698 12.3936 55.5698 11.8403C55.5698 11.2728 55.7684 10.8047 56.1657 10.4358C56.5771 10.0527 57.1021 9.86121 57.7405 9.86121C58.3647 9.86121 58.8755 10.0527 59.2727 10.4358C59.6842 10.8047 59.8899 11.2728 59.8899 11.8403C59.8899 12.3936 59.6842 12.8618 59.2727 13.2449C58.8755 13.6138 58.3647 13.7982 57.7405 13.7982ZM59.5494 15.0325V26.9073H55.9103V15.0325H59.5494Z" fill="black"/>
<path d="M48.2226 27.0563C47.1302 27.0563 46.1512 26.879 45.2858 26.5243C44.4204 26.1696 43.7252 25.6447 43.2003 24.9495C42.6895 24.2543 42.42 23.4172 42.3916 22.4383H46.2647C46.3215 22.9916 46.513 23.4172 46.8393 23.7152C47.1656 23.9989 47.5913 24.1408 48.1162 24.1408C48.6553 24.1408 49.0809 24.0202 49.3931 23.779C49.7052 23.5237 49.8612 23.1761 49.8612 22.7363C49.8612 22.3674 49.7336 22.0624 49.4782 21.8212C49.237 21.58 48.932 21.3814 48.5631 21.2253C48.2084 21.0692 47.6977 20.8919 47.0309 20.6933C46.0661 20.3953 45.2787 20.0974 44.6687 19.7995C44.0586 19.5015 43.5337 19.0617 43.0939 18.4801C42.6541 17.8984 42.4342 17.1393 42.4342 16.203C42.4342 14.8126 42.9378 13.7273 43.9451 12.947C44.9524 12.1525 46.2647 11.7552 47.8821 11.7552C49.5278 11.7552 50.8544 12.1525 51.8617 12.947C52.869 13.7273 53.4081 14.8197 53.479 16.2243H49.542C49.5136 15.7419 49.3363 15.3659 49.01 15.0964C48.6837 14.8126 48.2652 14.6707 47.7544 14.6707C47.3146 14.6707 46.9599 14.7913 46.6904 15.0325C46.4208 15.2595 46.286 15.5929 46.286 16.0327C46.286 16.5151 46.513 16.8911 46.967 17.1606C47.421 17.4302 48.1304 17.721 49.0951 18.0331C50.0599 18.3595 50.8402 18.6716 51.436 18.9695C52.0461 19.2674 52.571 19.7002 53.0108 20.2677C53.4506 20.8352 53.6705 21.5658 53.6705 22.4596C53.6705 23.3108 53.4506 24.0841 53.0108 24.7792C52.5852 25.4744 51.961 26.0277 51.1381 26.4392C50.3152 26.8506 49.3434 27.0563 48.2226 27.0563Z" fill="black"/>
<path fill-rule="evenodd" clip-rule="evenodd" d="M4.08008 15.3789L15.3788 4.08017L20.7771 9.47846L18.3918 11.8637L15.5044 8.97629L8.9762 15.5044L14.8766 21.4049L21.4048 14.8767L23.7901 12.4915L34.8377 23.5391L23.539 34.8378L18.0152 29.314L20.4005 26.9287L23.2879 29.8162L29.8161 23.288L23.9156 17.3876L17.3875 23.9157L15.0022 26.301L4.08008 15.3789Z" fill="#CC0033"/>
<path fill-rule="evenodd" clip-rule="evenodd" d="M4.08376 23.5354L4.08008 23.5391L15.3788 34.8378L26.3009 23.9157L23.9156 21.5304L21.4048 24.0412L15.5044 29.9417L9.09806 23.5354L4.08376 23.5354ZM17.3875 15.0022L23.2879 9.10179L29.5641 15.3779L34.8368 15.3779L23.539 4.08013L12.4914 15.1278L14.8766 17.5131L17.3875 15.0022Z" fill="#82BE28"/>
</svg>
