<svg width="196" height="31" viewBox="0 0 196 31" fill="none" xmlns="http://www.w3.org/2000/svg">
<path d="M191.424 10.9048C192.815 10.9048 193.921 11.3588 194.744 12.2668C195.581 13.1606 196 14.3949 196 15.9697V22.9073H192.382V16.4591C192.382 15.6646 192.176 15.0475 191.765 14.6077C191.354 14.1679 190.8 13.948 190.105 13.948C189.41 13.948 188.857 14.1679 188.445 14.6077C188.034 15.0475 187.828 15.6646 187.828 16.4591V22.9073H184.189V11.0325H187.828V12.6073C188.197 12.0823 188.693 11.6709 189.318 11.373C189.942 11.0608 190.644 10.9048 191.424 10.9048Z" fill="black"/>
<path d="M176.044 23.0775C174.881 23.0775 173.831 22.8292 172.895 22.3327C171.973 21.8361 171.242 21.1267 170.703 20.2045C170.178 19.2824 169.916 18.2041 169.916 16.9698C169.916 15.7497 170.185 14.6786 170.724 13.7564C171.263 12.82 172.001 12.1036 172.937 11.607C173.874 11.1105 174.924 10.8622 176.087 10.8622C177.25 10.8622 178.3 11.1105 179.237 11.607C180.173 12.1036 180.911 12.82 181.45 13.7564C181.989 14.6786 182.259 15.7497 182.259 16.9698C182.259 18.1899 181.982 19.2682 181.429 20.2045C180.889 21.1267 180.145 21.8361 179.194 22.3327C178.258 22.8292 177.208 23.0775 176.044 23.0775ZM176.044 19.9279C176.74 19.9279 177.328 19.6725 177.811 19.1618C178.307 18.651 178.556 17.9204 178.556 16.9698C178.556 16.0193 178.314 15.2886 177.832 14.7779C177.364 14.2671 176.782 14.0118 176.087 14.0118C175.378 14.0118 174.789 14.2671 174.321 14.7779C173.853 15.2744 173.618 16.0051 173.618 16.9698C173.618 17.9204 173.845 18.651 174.299 19.1618C174.768 19.6725 175.349 19.9279 176.044 19.9279Z" fill="black"/>
<path d="M166.193 9.79819C165.555 9.79819 165.03 9.61376 164.618 9.24489C164.221 8.86183 164.022 8.39365 164.022 7.84034C164.022 7.27285 164.221 6.80467 164.618 6.43579C165.03 6.05274 165.555 5.86121 166.193 5.86121C166.817 5.86121 167.328 6.05274 167.725 6.43579C168.137 6.80467 168.343 7.27285 168.343 7.84034C168.343 8.39365 168.137 8.86183 167.725 9.24489C167.328 9.61376 166.817 9.79819 166.193 9.79819ZM168.002 11.0325V22.9073H164.363V11.0325H168.002Z" fill="black"/>
<path d="M162.336 19.8216V22.9073H160.484C159.165 22.9073 158.136 22.5881 157.398 21.9497C156.661 21.2971 156.292 20.2401 156.292 18.7788V14.0544H154.845V11.0325H156.292V8.13831H159.931V11.0325H162.314V14.0544H159.931V18.8214C159.931 19.1761 160.016 19.4314 160.186 19.5875C160.357 19.7436 160.64 19.8216 161.038 19.8216H162.336Z" fill="black"/>
<path d="M153.103 11.0325V22.9073H149.464V21.2899C149.095 21.8149 148.592 22.2405 147.953 22.5668C147.329 22.8789 146.634 23.035 145.868 23.035C144.96 23.035 144.158 22.8363 143.463 22.4391C142.768 22.0277 142.229 21.4389 141.846 20.6728C141.463 19.9067 141.271 19.0058 141.271 17.9701V11.0325H144.889V17.4806C144.889 18.2751 145.094 18.8923 145.506 19.3321C145.917 19.7719 146.471 19.9918 147.166 19.9918C147.875 19.9918 148.436 19.7719 148.847 19.3321C149.258 18.8923 149.464 18.2751 149.464 17.4806V11.0325H153.103Z" fill="black"/>
<path d="M138.74 7.1593V22.9073H135.101V7.1593H138.74Z" fill="black"/>
<path d="M126.957 23.0775C125.794 23.0775 124.744 22.8292 123.807 22.3327C122.885 21.8361 122.155 21.1267 121.616 20.2045C121.091 19.2824 120.828 18.2041 120.828 16.9698C120.828 15.7497 121.098 14.6786 121.637 13.7564C122.176 12.82 122.914 12.1036 123.85 11.607C124.786 11.1105 125.836 10.8622 127 10.8622C128.163 10.8622 129.213 11.1105 130.149 11.607C131.086 12.1036 131.823 12.82 132.362 13.7564C132.902 14.6786 133.171 15.7497 133.171 16.9698C133.171 18.1899 132.894 19.2682 132.341 20.2045C131.802 21.1267 131.057 21.8361 130.107 22.3327C129.17 22.8292 128.12 23.0775 126.957 23.0775ZM126.957 19.9279C127.652 19.9279 128.241 19.6725 128.723 19.1618C129.22 18.651 129.468 17.9204 129.468 16.9698C129.468 16.0193 129.227 15.2886 128.745 14.7779C128.276 14.2671 127.695 14.0118 127 14.0118C126.29 14.0118 125.701 14.2671 125.233 14.7779C124.765 15.2744 124.531 16.0051 124.531 16.9698C124.531 17.9204 124.758 18.651 125.212 19.1618C125.68 19.6725 126.262 19.9279 126.957 19.9279Z" fill="black"/>
<path d="M113.864 23.0563C112.771 23.0563 111.792 22.879 110.927 22.5243C110.062 22.1696 109.366 21.6447 108.841 20.9495C108.331 20.2543 108.061 19.4172 108.033 18.4383H111.906C111.963 18.9916 112.154 19.4172 112.48 19.7152C112.807 19.9989 113.232 20.1408 113.757 20.1408C114.296 20.1408 114.722 20.0202 115.034 19.779C115.346 19.5237 115.502 19.1761 115.502 18.7363C115.502 18.3674 115.375 18.0624 115.119 17.8212C114.878 17.58 114.573 17.3814 114.204 17.2253C113.85 17.0692 113.339 16.8919 112.672 16.6933C111.707 16.3953 110.92 16.0974 110.31 15.7995C109.7 15.5015 109.175 15.0617 108.735 14.4801C108.295 13.8984 108.075 13.1393 108.075 12.203C108.075 10.8126 108.579 9.72729 109.586 8.94699C110.594 8.15249 111.906 7.75525 113.523 7.75525C115.169 7.75525 116.495 8.15249 117.503 8.94699C118.51 9.72729 119.049 10.8197 119.12 12.2243H115.183C115.155 11.7419 114.977 11.3659 114.651 11.0964C114.325 10.8126 113.906 10.6707 113.396 10.6707C112.956 10.6707 112.601 10.7913 112.331 11.0325C112.062 11.2595 111.927 11.5929 111.927 12.0327C111.927 12.5151 112.154 12.8911 112.608 13.1606C113.062 13.4302 113.771 13.721 114.736 14.0331C115.701 14.3595 116.481 14.6716 117.077 14.9695C117.687 15.2674 118.212 15.7002 118.652 16.2677C119.092 16.8352 119.312 17.5658 119.312 18.4596C119.312 19.3108 119.092 20.0841 118.652 20.7792C118.226 21.4744 117.602 22.0277 116.779 22.4392C115.956 22.8506 114.985 23.0563 113.864 23.0563Z" fill="black"/>
<path d="M88.7817 16.9486C88.7817 15.7284 89.0087 14.6573 89.4627 13.7351C89.9309 12.8129 90.5622 12.1036 91.3567 11.607C92.1512 11.1105 93.0379 10.8622 94.0169 10.8622C94.8539 10.8622 95.5846 11.0324 96.2088 11.3729C96.8472 11.7134 97.3367 12.1603 97.6772 12.7136V11.0324H101.316V22.9072H97.6772V21.226C97.3225 21.7793 96.826 22.2262 96.1875 22.5667C95.5633 22.9072 94.8326 23.0775 93.9956 23.0775C93.0308 23.0775 92.1512 22.8292 91.3567 22.3327C90.5622 21.8219 89.9309 21.1054 89.4627 20.1833C89.0087 19.2469 88.7817 18.1687 88.7817 16.9486ZM97.6772 16.9698C97.6772 16.0618 97.4218 15.3454 96.9111 14.8205C96.4145 14.2955 95.8045 14.0331 95.0809 14.0331C94.3574 14.0331 93.7402 14.2955 93.2295 14.8205C92.7329 15.3312 92.4846 16.0406 92.4846 16.9486C92.4846 17.8565 92.7329 18.5801 93.2295 19.1192C93.7402 19.6442 94.3574 19.9066 95.0809 19.9066C95.8045 19.9066 96.4145 19.6442 96.9111 19.1192C97.4218 18.5943 97.6772 17.8778 97.6772 16.9698Z" fill="black"/>
<path d="M84.0414 13.0116C84.467 12.359 84.999 11.8482 85.6375 11.4794C86.2759 11.0963 86.9853 10.9048 87.7656 10.9048V14.7567H86.7654C85.8574 14.7567 85.1764 14.9553 84.7224 15.3525C84.2684 15.7356 84.0414 16.4166 84.0414 17.3955V22.9073H80.4023V11.0325H84.0414V13.0116Z" fill="black"/>
<path d="M74.9389 13.0116C75.3645 12.359 75.8965 11.8482 76.5349 11.4794C77.1734 11.0963 77.8827 10.9048 78.663 10.9048V14.7567H77.6628C76.7548 14.7567 76.0738 14.9553 75.6199 15.3525C75.1659 15.7356 74.9389 16.4166 74.9389 17.3955V22.9073H71.2998V11.0325H74.9389V13.0116Z" fill="black"/>
<path d="M69.3803 16.7783C69.3803 17.1188 69.359 17.4735 69.3164 17.8424H61.0807C61.1374 18.5801 61.3715 19.1476 61.7829 19.5448C62.2086 19.9279 62.7264 20.1194 63.3365 20.1194C64.2444 20.1194 64.8758 19.7364 65.2305 18.9703H69.1036C68.905 19.7506 68.5432 20.4528 68.0183 21.0771C67.5075 21.7013 66.862 22.1908 66.0817 22.5455C65.3014 22.9001 64.4289 23.0775 63.4641 23.0775C62.3008 23.0775 61.2651 22.8292 60.3571 22.3327C59.4491 21.8361 58.7398 21.1267 58.229 20.2045C57.7183 19.2824 57.4629 18.2041 57.4629 16.9698C57.4629 15.7355 57.7112 14.6573 58.2077 13.7351C58.7185 12.8129 59.4278 12.1036 60.3358 11.607C61.2438 11.1105 62.2866 10.8622 63.4641 10.8622C64.6133 10.8622 65.6348 11.1034 66.5286 11.5857C67.4224 12.0681 68.1176 12.7562 68.6141 13.65C69.1249 14.5438 69.3803 15.5866 69.3803 16.7783ZM65.6561 15.8207C65.6561 15.1964 65.4433 14.6999 65.0177 14.331C64.592 13.9621 64.06 13.7777 63.4216 13.7777C62.8115 13.7777 62.2937 13.955 61.8681 14.3097C61.4566 14.6644 61.2013 15.168 61.1019 15.8207H65.6561Z" fill="black"/>
<path d="M53.7405 9.79819C53.1021 9.79819 52.5771 9.61376 52.1657 9.24489C51.7684 8.86183 51.5698 8.39365 51.5698 7.84034C51.5698 7.27285 51.7684 6.80467 52.1657 6.43579C52.5771 6.05274 53.1021 5.86121 53.7405 5.86121C54.3647 5.86121 54.8755 6.05274 55.2727 6.43579C55.6842 6.80467 55.8899 7.27285 55.8899 7.84034C55.8899 8.39365 55.6842 8.86183 55.2727 9.24489C54.8755 9.61376 54.3647 9.79819 53.7405 9.79819ZM55.5494 11.0325V22.9073H51.9103V11.0325H55.5494Z" fill="black"/>
<path d="M44.2226 23.0563C43.1302 23.0563 42.1512 22.879 41.2858 22.5243C40.4204 22.1696 39.7252 21.6447 39.2003 20.9495C38.6895 20.2543 38.42 19.4172 38.3916 18.4383H42.2647C42.3215 18.9916 42.513 19.4172 42.8393 19.7152C43.1656 19.9989 43.5913 20.1408 44.1162 20.1408C44.6553 20.1408 45.0809 20.0202 45.3931 19.779C45.7052 19.5237 45.8612 19.1761 45.8612 18.7363C45.8612 18.3674 45.7336 18.0624 45.4782 17.8212C45.237 17.58 44.932 17.3814 44.5631 17.2253C44.2084 17.0692 43.6977 16.8919 43.0309 16.6933C42.0661 16.3953 41.2787 16.0974 40.6687 15.7995C40.0586 15.5015 39.5337 15.0617 39.0939 14.4801C38.6541 13.8984 38.4342 13.1393 38.4342 12.203C38.4342 10.8126 38.9378 9.72729 39.9451 8.94699C40.9524 8.15249 42.2647 7.75525 43.8821 7.75525C45.5278 7.75525 46.8544 8.15249 47.8617 8.94699C48.869 9.72729 49.4081 10.8197 49.479 12.2243H45.542C45.5136 11.7419 45.3363 11.3659 45.01 11.0964C44.6837 10.8126 44.2652 10.6707 43.7544 10.6707C43.3146 10.6707 42.9599 10.7913 42.6904 11.0325C42.4208 11.2595 42.286 11.5929 42.286 12.0327C42.286 12.5151 42.513 12.8911 42.967 13.1606C43.421 13.4302 44.1304 13.721 45.0951 14.0331C46.0599 14.3595 46.8402 14.6716 47.436 14.9695C48.0461 15.2674 48.571 15.7002 49.0108 16.2677C49.4506 16.8352 49.6705 17.5658 49.6705 18.4596C49.6705 19.3108 49.4506 20.0841 49.0108 20.7792C48.5852 21.4744 47.961 22.0277 47.1381 22.4392C46.3152 22.8506 45.3434 23.0563 44.2226 23.0563Z" fill="black"/>
<path fill-rule="evenodd" clip-rule="evenodd" d="M0.0800781 11.3789L11.3788 0.0801705L16.7771 5.47846L14.3918 7.86374L11.5044 4.97629L4.9762 11.5044L10.8766 17.4049L17.4048 10.8767L19.7901 8.49145L30.8377 19.5391L19.539 30.8378L14.0152 25.314L16.4005 22.9287L19.2879 25.8162L25.8161 19.288L19.9156 13.3876L13.3875 19.9157L11.0022 22.301L0.0800781 11.3789Z" fill="#CC0033"/>
<path fill-rule="evenodd" clip-rule="evenodd" d="M0.0837605 19.5354L0.0800781 19.5391L11.3788 30.8378L22.3009 19.9157L19.9156 17.5304L17.4048 20.0412L11.5044 25.9417L5.09806 19.5354L0.0837605 19.5354ZM13.3875 11.0022L19.2879 5.10179L25.5641 11.3779L30.8368 11.3779L19.539 0.0801272L8.49136 11.1278L10.8766 13.5131L13.3875 11.0022Z" fill="#82BE28"/>
</svg>
