<svg width="300" height="59" viewBox="0 0 300 59" fill="none" xmlns="http://www.w3.org/2000/svg">
<path d="M293.135 22.3575C295.22 22.3575 296.88 23.0386 298.115 24.4006C299.37 25.7413 299.998 27.5928 299.998 29.955V40.3616H294.571V30.6892C294.571 29.4975 294.263 28.5717 293.646 27.912C293.028 27.2523 292.198 26.9224 291.156 26.9224C290.113 26.9224 289.283 27.2523 288.666 27.912C288.049 28.5717 287.74 29.4975 287.74 30.6892V40.3616H282.281V22.5491H287.74V24.9113C288.293 24.1239 289.038 23.5067 289.974 23.0598C290.911 22.5916 291.964 22.3575 293.135 22.3575Z" fill="white"/>
<path d="M270.069 40.617C268.324 40.617 266.749 40.2446 265.344 39.4997C263.961 38.7549 262.865 37.6908 262.056 36.3075C261.269 34.9242 260.875 33.3068 260.875 31.4554C260.875 29.6252 261.279 28.0184 262.088 26.6351C262.897 25.2305 264.003 24.1558 265.408 23.411C266.813 22.6661 268.387 22.2937 270.132 22.2937C271.877 22.2937 273.452 22.6661 274.857 23.411C276.261 24.1558 277.368 25.2305 278.177 26.6351C278.985 28.0184 279.39 29.6252 279.39 31.4554C279.39 33.2856 278.975 34.9029 278.145 36.3075C277.336 37.6908 276.219 38.7549 274.793 39.4997C273.388 40.2446 271.814 40.617 270.069 40.617ZM270.069 35.8925C271.111 35.8925 271.995 35.5095 272.718 34.7433C273.463 33.9772 273.835 32.8812 273.835 31.4554C273.835 30.0295 273.474 28.9335 272.75 28.1674C272.048 27.4012 271.175 27.0182 270.132 27.0182C269.068 27.0182 268.185 27.4012 267.483 28.1674C266.781 28.9122 266.429 30.0082 266.429 31.4554C266.429 32.8812 266.77 33.9772 267.451 34.7433C268.153 35.5095 269.026 35.8925 270.069 35.8925Z" fill="white"/>
<path d="M255.291 20.6976C254.334 20.6976 253.546 20.4209 252.929 19.8676C252.333 19.293 252.035 18.5907 252.035 17.7608C252.035 16.9095 252.333 16.2072 252.929 15.6539C253.546 15.0793 254.334 14.792 255.291 14.792C256.228 14.792 256.994 15.0793 257.59 15.6539C258.207 16.2072 258.515 16.9095 258.515 17.7608C258.515 18.5907 258.207 19.293 257.59 19.8676C256.994 20.4209 256.228 20.6976 255.291 20.6976ZM258.005 22.5491V40.3616H252.546V22.5491H258.005Z" fill="white"/>
<path d="M249.506 35.733V40.3617H246.729C244.75 40.3617 243.207 39.8829 242.1 38.9252C240.994 37.9463 240.44 36.3608 240.44 34.1688V27.0821H238.27V22.5492H240.44V18.2078H245.899V22.5492H249.474V27.0821H245.899V34.2327C245.899 34.7647 246.027 35.1478 246.282 35.3819C246.537 35.616 246.963 35.733 247.559 35.733H249.506Z" fill="white"/>
<path d="M235.659 22.5491V40.3616H230.2V37.9355C229.647 38.7229 228.891 39.3614 227.934 39.8509C226.997 40.3191 225.955 40.5532 224.805 40.5532C223.443 40.5532 222.241 40.2552 221.198 39.6593C220.155 39.0422 219.347 38.159 218.772 37.0098C218.197 35.8606 217.91 34.5092 217.91 32.9557V22.5491H223.337V32.2215C223.337 33.4132 223.646 34.339 224.263 34.9987C224.88 35.6584 225.71 35.9883 226.753 35.9883C227.817 35.9883 228.657 35.6584 229.274 34.9987C229.892 34.339 230.2 33.4132 230.2 32.2215V22.5491H235.659Z" fill="white"/>
<path d="M214.107 16.7393V40.3616H208.648V16.7393H214.107Z" fill="white"/>
<path d="M196.436 40.617C194.691 40.617 193.116 40.2446 191.711 39.4997C190.328 38.7549 189.232 37.6908 188.423 36.3075C187.636 34.9242 187.242 33.3068 187.242 31.4554C187.242 29.6252 187.647 28.0184 188.455 26.6351C189.264 25.2305 190.371 24.1558 191.775 23.411C193.18 22.6661 194.755 22.2937 196.5 22.2937C198.245 22.2937 199.82 22.6661 201.224 23.411C202.629 24.1558 203.735 25.2305 204.544 26.6351C205.353 28.0184 205.757 29.6252 205.757 31.4554C205.757 33.2856 205.342 34.9029 204.512 36.3075C203.703 37.6908 202.586 38.7549 201.16 39.4997C199.756 40.2446 198.181 40.617 196.436 40.617ZM196.436 35.8925C197.479 35.8925 198.362 35.5095 199.085 34.7433C199.83 33.9772 200.203 32.8812 200.203 31.4554C200.203 30.0295 199.841 28.9335 199.117 28.1674C198.415 27.4012 197.542 27.0182 196.5 27.0182C195.436 27.0182 194.552 27.4012 193.85 28.1674C193.148 28.9122 192.797 30.0082 192.797 31.4554C192.797 32.8812 193.137 33.9772 193.818 34.7433C194.52 35.5095 195.393 35.8925 196.436 35.8925Z" fill="white"/>
<path d="M176.794 40.5852C175.155 40.5852 173.686 40.3192 172.388 39.7871C171.09 39.2551 170.047 38.4677 169.26 37.4249C168.494 36.3821 168.089 35.1265 168.047 33.6581H173.857C173.942 34.4881 174.229 35.1265 174.719 35.5734C175.208 35.999 175.847 36.2119 176.634 36.2119C177.443 36.2119 178.081 36.031 178.549 35.6692C179.017 35.2861 179.252 34.7647 179.252 34.105C179.252 33.5517 179.06 33.0941 178.677 32.7323C178.315 32.3706 177.858 32.0726 177.304 31.8385C176.772 31.6044 176.006 31.3384 175.006 31.0405C173.559 30.5936 172.378 30.1467 171.463 29.6997C170.547 29.2528 169.76 28.5931 169.1 27.7206C168.441 26.848 168.111 25.7095 168.111 24.3049C168.111 22.2193 168.866 20.5913 170.377 19.4208C171.888 18.2291 173.857 17.6332 176.283 17.6332C178.751 17.6332 180.741 18.2291 182.252 19.4208C183.763 20.5913 184.572 22.23 184.678 24.3368H178.773C178.73 23.6133 178.464 23.0493 177.975 22.645C177.485 22.2193 176.857 22.0065 176.091 22.0065C175.432 22.0065 174.899 22.1874 174.495 22.5492C174.091 22.8897 173.889 23.3898 173.889 24.0495C173.889 24.7731 174.229 25.3371 174.91 25.7414C175.591 26.1457 176.655 26.582 178.102 27.0502C179.549 27.5397 180.72 28.0079 181.614 28.4548C182.529 28.9017 183.316 29.5508 183.976 30.402C184.636 31.2533 184.966 32.3493 184.966 33.69C184.966 34.9669 184.636 36.1267 183.976 37.1695C183.338 38.2123 182.401 39.0423 181.167 39.6594C179.933 40.2766 178.475 40.5852 176.794 40.5852Z" fill="white"/>
<path d="M139.172 31.4234C139.172 29.5932 139.512 27.9865 140.193 26.6032C140.896 25.2199 141.843 24.1558 143.034 23.411C144.226 22.6661 145.556 22.2937 147.025 22.2937C148.28 22.2937 149.376 22.5491 150.313 23.0598C151.27 23.5706 152.005 24.241 152.515 25.0709V22.5491H157.974V40.3616H152.515V37.8398C151.983 38.6698 151.238 39.3401 150.281 39.8509C149.344 40.3616 148.248 40.617 146.993 40.617C145.546 40.617 144.226 40.2446 143.034 39.4997C141.843 38.7336 140.896 37.6589 140.193 36.2756C139.512 34.871 139.172 33.2536 139.172 31.4234ZM152.515 31.4554C152.515 30.0933 152.132 29.0186 151.366 28.2312C150.621 27.4438 149.706 27.0501 148.621 27.0501C147.535 27.0501 146.61 27.4438 145.844 28.2312C145.099 28.9973 144.726 30.0614 144.726 31.4234C144.726 32.7854 145.099 33.8708 145.844 34.6795C146.61 35.4669 147.535 35.8606 148.621 35.8606C149.706 35.8606 150.621 35.4669 151.366 34.6795C152.132 33.8921 152.515 32.8174 152.515 31.4554Z" fill="white"/>
<path d="M132.056 25.5178C132.695 24.5389 133.493 23.7728 134.45 23.2194C135.408 22.6448 136.472 22.3575 137.643 22.3575V28.1355H136.142C134.78 28.1355 133.759 28.4334 133.078 29.0293C132.397 29.6039 132.056 30.6254 132.056 32.0938V40.3616H126.598V22.5491H132.056V25.5178Z" fill="white"/>
<path d="M118.408 25.5178C119.046 24.5389 119.844 23.7728 120.802 23.2194C121.76 22.6448 122.824 22.3575 123.994 22.3575V28.1355H122.494C121.132 28.1355 120.11 28.4334 119.429 29.0293C118.748 29.6039 118.408 30.6254 118.408 32.0938V40.3616H112.949V22.5491H118.408V25.5178Z" fill="white"/>
<path d="M110.064 31.1681C110.064 31.6788 110.032 32.2108 109.968 32.7642H97.6143C97.6994 33.8708 98.0505 34.7221 98.6677 35.3179C99.3061 35.8925 100.083 36.1798 100.998 36.1798C102.36 36.1798 103.307 35.6052 103.839 34.456H109.649C109.351 35.6265 108.808 36.6799 108.021 37.6163C107.255 38.5527 106.286 39.2869 105.116 39.8189C103.945 40.351 102.637 40.617 101.19 40.617C99.4445 40.617 97.8909 40.2446 96.5289 39.4997C95.1669 38.7549 94.1028 37.6908 93.3367 36.3075C92.5706 34.9242 92.1875 33.3068 92.1875 31.4554C92.1875 29.6039 92.5599 27.9865 93.3048 26.6032C94.0709 25.2199 95.135 24.1558 96.497 23.411C97.859 22.6661 99.4232 22.2937 101.19 22.2937C102.913 22.2937 104.446 22.6555 105.786 23.3791C107.127 24.1026 108.17 25.1348 108.915 26.4755C109.681 27.8162 110.064 29.3804 110.064 31.1681ZM104.478 29.7316C104.478 28.7952 104.158 28.0503 103.52 27.497C102.881 26.9437 102.083 26.667 101.126 26.667C100.211 26.667 99.4338 26.9331 98.7954 27.4651C98.1782 27.9971 97.7952 28.7526 97.6462 29.7316H104.478Z" fill="white"/>
<path d="M86.6115 20.6976C85.6539 20.6976 84.8664 20.4209 84.2493 19.8676C83.6534 19.293 83.3555 18.5907 83.3555 17.7608C83.3555 16.9095 83.6534 16.2072 84.2493 15.6539C84.8664 15.0793 85.6539 14.792 86.6115 14.792C87.5479 14.792 88.314 15.0793 88.9099 15.6539C89.5271 16.2072 89.8357 16.9095 89.8357 17.7608C89.8357 18.5907 89.5271 19.293 88.9099 19.8676C88.314 20.4209 87.5479 20.6976 86.6115 20.6976ZM89.3249 22.5491V40.3616H83.8662V22.5491H89.3249Z" fill="white"/>
<path d="M72.3326 40.5852C70.6939 40.5852 69.2255 40.3192 67.9273 39.7871C66.6292 39.2551 65.5864 38.4677 64.799 37.4249C64.0328 36.3821 63.6285 35.1265 63.5859 33.6581H69.3958C69.4809 34.4881 69.7682 35.1265 70.2577 35.5734C70.7471 35.999 71.3856 36.2119 72.173 36.2119C72.9817 36.2119 73.6201 36.031 74.0883 35.6692C74.5565 35.2861 74.7906 34.7647 74.7906 34.105C74.7906 33.5517 74.5991 33.0941 74.216 32.7323C73.8542 32.3706 73.3967 32.0726 72.8434 31.8385C72.3113 31.6044 71.5452 31.3384 70.545 31.0405C69.0978 30.5936 67.9167 30.1467 67.0016 29.6997C66.0865 29.2528 65.2991 28.5931 64.6394 27.7206C63.9796 26.848 63.6498 25.7095 63.6498 24.3049C63.6498 22.2193 64.4053 20.5913 65.9163 19.4208C67.4272 18.2291 69.3958 17.6332 71.8218 17.6332C74.2905 17.6332 76.2803 18.2291 77.7913 19.4208C79.3023 20.5913 80.111 22.23 80.2174 24.3368H74.3118C74.2692 23.6133 74.0032 23.0493 73.5137 22.645C73.0242 22.2193 72.3964 22.0065 71.6303 22.0065C70.9706 22.0065 70.4386 22.1874 70.0342 22.5492C69.6299 22.8897 69.4277 23.3898 69.4277 24.0495C69.4277 24.7731 69.7682 25.3371 70.4492 25.7414C71.1302 26.1457 72.1943 26.582 73.6414 27.0502C75.0885 27.5397 76.259 28.0079 77.1528 28.4548C78.0679 28.9017 78.8554 29.5508 79.5151 30.402C80.1748 31.2533 80.5047 32.3493 80.5047 33.69C80.5047 34.9669 80.1748 36.1267 79.5151 37.1695C78.8766 38.2123 77.9403 39.0423 76.7059 39.6594C75.4716 40.2766 74.0138 40.5852 72.3326 40.5852Z" fill="white"/>
<path fill-rule="evenodd" clip-rule="evenodd" d="M6.12109 23.0687L23.0695 6.1203L31.1671 14.2179L27.5891 17.7959L23.2578 13.4646L13.4654 23.257L22.3163 32.1079L32.1087 22.3155L35.6867 18.7375L52.2585 35.3093L35.31 52.2577L27.0241 43.9718L30.6021 40.3938L34.9334 44.725L44.7258 34.9326L35.875 26.0818L26.0826 35.8742L22.5046 39.4522L6.12109 23.0687Z" fill="#CC0033"/>
<path fill-rule="evenodd" clip-rule="evenodd" d="M6.12662 35.3037L6.12109 35.3092L23.0695 52.2576L39.453 35.8742L35.875 32.2962L32.1087 36.0625L23.2578 44.9133L13.6482 35.3037L6.12662 35.3037ZM26.0826 22.5037L34.9334 13.6529L44.3478 23.0673L52.257 23.0673L35.31 6.12026L18.7383 22.692L22.3163 26.27L26.0826 22.5037Z" fill="#82BE28"/>
</svg>
