<svg width="270" height="374" viewBox="0 0 270 374" fill="none" xmlns="http://www.w3.org/2000/svg">
<path d="M45.124 153.425L31.8216 148.416C19.6634 143.836 6.09473 149.982 1.51564 162.13C-3.06406 174.291 3.08506 187.851 15.242 192.43L45.124 203.695V153.425Z" fill="black"/>
<path d="M222.678 163.111C222.604 164.902 222.28 174.352 222.28 175.01V327.656C222.28 332.176 220.424 336.331 217.462 339.285C214.502 342.256 210.353 344.103 205.834 344.103H85.3419C85.9277 343.147 86.4631 342.142 86.8755 341.048C87.659 338.956 88.0295 336.827 88.0295 334.735C88.0295 331.13 86.921 327.609 84.921 324.655C82.9125 321.701 80.0338 319.339 76.4311 317.982L57.8885 310.999H57.8825C55.7964 310.21 53.6739 309.839 51.5781 309.839C47.9675 309.839 44.4429 310.945 41.4951 312.949C38.5419 314.957 36.1744 317.839 34.8172 321.439C34.0374 323.519 33.6602 325.648 33.6602 327.74C33.6602 331.364 34.776 334.885 36.7753 337.832C38.7844 340.78 41.6631 343.153 45.2653 344.505L63.8108 351.488C65.9006 352.277 68.0291 352.647 70.1182 352.647C73.7301 352.647 77.2534 351.535 80.2018 349.538C80.7191 349.185 81.1939 348.773 81.6754 348.366C96.5024 360.826 119.688 373.094 154.239 373.919C226.389 375.629 238.953 326.931 249.379 268.329C249.379 268.329 267.115 150.358 268.805 144.426C277.251 114.76 238.725 106.756 222.678 163.111Z" fill="black"/>
<path fill-rule="evenodd" clip-rule="evenodd" d="M90.5473 288.28C90.3108 290.385 89.83 292.483 89.0531 294.546C87.092 299.771 83.6062 304.016 79.311 306.933C78.1806 307.699 76.9999 308.368 75.7773 308.948L79.3261 310.281C84.548 312.242 88.8027 315.734 91.7196 320.026C94.0901 323.518 95.5819 327.547 96.0634 331.769H205.832C206.986 331.769 207.972 331.314 208.737 330.567C209.49 329.801 209.939 328.809 209.939 327.655V288.28H90.5473ZM126.504 311.418C126.504 315.387 129.723 318.616 133.699 318.616C137.672 318.616 140.897 315.387 140.897 311.418C140.897 307.441 137.672 304.219 133.699 304.219C129.723 304.219 126.504 307.441 126.504 311.418Z" fill="black"/>
<path d="M58.2974 302.091C60.3872 302.874 62.5151 303.245 64.6042 303.245C68.2185 303.245 71.74 302.139 74.6872 300.136C77.6405 298.127 80.0025 295.239 81.3621 291.646C82.1456 289.559 82.5161 287.431 82.5161 285.338C82.5161 281.727 81.4106 278.2 79.4076 275.258C77.4021 272.305 74.5204 269.938 70.9243 268.581L52.3751 261.592C50.289 260.809 48.1629 260.438 46.0647 260.438C42.4541 260.438 38.932 261.544 35.9848 263.547C33.0345 265.555 30.667 268.443 29.3099 272.043C28.5209 274.123 28.1528 276.251 28.1504 278.35C28.1504 281.961 29.262 285.482 31.265 288.436C33.271 291.39 36.1527 293.745 39.7573 295.108L58.2974 302.091Z" fill="black"/>
<path d="M52.7091 252.683C54.7988 253.485 56.9267 253.843 59.0159 253.843C62.6271 253.843 66.1571 252.743 69.1049 250.734C72.0521 248.725 74.4202 245.85 75.7737 242.256C76.5633 240.151 76.9277 238.029 76.9277 235.931C76.9338 232.332 75.8253 228.804 73.8253 225.851C71.8168 222.903 68.9321 220.542 65.3293 219.179L46.7868 212.196C44.694 211.406 42.5715 211.036 40.4763 211.036C36.8657 211.036 33.3436 212.142 30.394 214.157C27.4461 216.154 25.0787 219.042 23.7154 222.647C22.9356 224.727 22.5645 226.856 22.5645 228.948C22.5645 232.559 23.6736 236.08 25.6766 239.034C27.6827 241.982 30.5674 244.349 34.1702 245.712L52.7091 252.683Z" fill="black"/>
<path d="M65.1895 201.091V62H149M204.946 288.272V117.5" stroke="black" stroke-width="10" stroke-linecap="round" stroke-linejoin="round"/>
<path d="M205 101.998C227.091 101.998 245 84.0895 245 61.9988C245 39.9081 227.091 22 205 22C182.909 22 165 39.9081 165 61.9988C165 69.3637 166.992 76.2636 170.464 82.19L165.322 102L184.901 96.5881C190.806 100.027 197.674 101.998 205 101.998Z" stroke="black" stroke-width="6" stroke-linejoin="round"/>
<path d="M244.139 8.78906L236.639 21.7794" stroke="#CC0033" stroke-width="6" stroke-linecap="round"/>
<path d="M256.836 19.1326L245.368 27.1626" stroke="#CC0033" stroke-width="6" stroke-linecap="round"/>
<path d="M229.344 3.25952L228.124 17.2062" stroke="#CC0033" stroke-width="6" stroke-linecap="round"/>
<path d="M120 79H150" stroke="black" stroke-width="8" stroke-linecap="round"/>
<path d="M84 222H164" stroke="black" stroke-width="6" stroke-linecap="round"/>
<path d="M84 236H124" stroke="black" stroke-width="6" stroke-linecap="round"/>
<path d="M84 250H114" stroke="black" stroke-width="6" stroke-linecap="round"/>
<circle cx="109" cy="79" r="4" fill="black"/>
<mask id="path-16-inside-1_658_553" fill="white">
<rect x="81" y="112" width="108" height="94" rx="5"/>
</mask>
<rect x="81" y="112" width="108" height="94" rx="5" stroke="black" stroke-width="16" stroke-linejoin="round" mask="url(#path-16-inside-1_658_553)"/>
<path d="M152.207 164.128H142.127V167.368H152.207V164.128ZM139.199 171.184V161.488H155.279V171.112H152.207V170.008H142.127V171.184H139.199ZM149.111 157.144H157.583V159.784H136.439V157.144H146.087V154.384H140.855C140.231 155.44 139.559 156.352 138.887 157.096C138.287 156.64 136.991 155.896 136.271 155.584C137.999 153.952 139.511 151.312 140.351 148.72L143.207 149.44C142.943 150.232 142.631 151 142.271 151.768H146.087V148.648H149.111V151.768H156.119V154.384H149.111V157.144Z" fill="#CC0033"/>
<path d="M116.664 154.456V157.768C116.664 161.56 116.28 167.416 114.024 171.04C113.496 170.56 112.248 169.72 111.576 169.456C113.64 166.072 113.808 161.152 113.808 157.768V151.72H122.256V148.696H125.232V151.72H133.896V154.456H116.664ZM134.424 169.816L131.472 171.136C131.28 170.512 131.016 169.816 130.656 169.072C125.592 169.48 120.216 169.864 116.496 170.08L116.232 167.128C117.072 167.104 118.008 167.056 119.04 167.032C120.24 163.816 121.536 159.208 122.184 155.584L125.448 156.232C124.512 159.856 123.264 163.864 122.112 166.888C124.392 166.792 126.912 166.672 129.384 166.528C128.544 164.992 127.536 163.432 126.576 162.088L129.24 160.936C131.304 163.672 133.56 167.296 134.424 169.816Z" fill="#CC0033"/>
<path d="M224.739 71.0853C223.42 69.2033 222.286 67.4768 221.373 65.44C220.46 63.4034 219.752 61.0361 219.338 57.8284C219.034 55.4704 218.485 53.3804 217.689 51.5555C217.094 50.1877 216.356 48.9727 215.481 47.9197C214.171 46.3411 212.548 45.143 210.693 44.3625C210.036 44.0834 209.354 43.8586 208.643 43.6833C208.643 43.6833 208.642 43.6824 208.641 43.6824C208.958 43.0575 209.14 42.3483 209.139 41.6045C209.139 40.973 209.011 40.3633 208.776 39.8115C208.426 38.9834 207.844 38.2835 207.11 37.788C206.377 37.2914 205.484 36.9991 204.536 37C203.904 37 203.294 37.1293 202.742 37.3626C201.914 37.713 201.214 38.2956 200.718 39.0292C200.221 39.7618 199.93 40.6564 199.931 41.6044C199.931 42.2359 200.059 42.8448 200.294 43.3966C200.335 43.495 200.38 43.5905 200.428 43.6842C200.428 43.6842 200.427 43.6852 200.426 43.6852C199.94 43.8051 199.464 43.9484 199.003 44.1161C197.735 44.5771 196.562 45.2206 195.514 46.0432C193.94 47.2779 192.654 48.9099 191.692 50.8847C190.727 52.8595 190.075 55.1771 189.734 57.8284C189.318 61.036 188.611 63.4034 187.697 65.44C186.784 67.4768 185.65 69.2033 184.333 71.0853C183.416 72.3932 183 73.8556 183 75.2336C183 75.9409 183.11 76.6295 183.318 77.273C183.63 78.2352 184.166 79.1083 184.934 79.7659C185.318 80.0947 185.757 80.3664 186.246 80.5528C186.732 80.7411 187.266 80.8423 187.813 80.8423H197.717C197.785 81.5327 197.958 82.197 198.22 82.8152C198.741 84.0453 199.609 85.0898 200.7 85.8299C201.794 86.5662 203.121 87.0018 204.536 87C205.477 87 206.382 86.8089 207.204 86.4613C208.436 85.9387 209.48 85.0729 210.22 83.9787C210.836 83.0682 211.239 81.9936 211.354 80.8423H221.257C221.988 80.8423 222.689 80.6605 223.295 80.3383C223.753 80.0984 224.155 79.7837 224.501 79.4211C225.017 78.874 225.408 78.2229 225.669 77.5129C225.933 76.8009 226.07 76.0289 226.07 75.2336C226.07 73.8555 225.654 72.3932 224.739 71.0853ZM203.058 40.9807C203.178 40.6959 203.383 40.4476 203.64 40.2742C203.897 40.1018 204.198 40.0025 204.536 40.0017C204.76 40.0025 204.967 40.0466 205.158 40.1271C205.444 40.248 205.692 40.4532 205.865 40.709C206.038 40.9676 206.137 41.2673 206.137 41.6045C206.137 41.8294 206.092 42.0364 206.012 42.2275C205.892 42.5132 205.687 42.7605 205.43 42.9339C205.173 43.1072 204.872 43.2065 204.536 43.2065C204.31 43.2065 204.103 43.1615 203.912 43.081C203.626 42.961 203.379 42.7559 203.205 42.4992C203.033 42.2416 202.934 41.9418 202.933 41.6045C202.933 41.3787 202.978 41.1717 203.058 40.9807ZM190.435 66.6682C191.472 64.3599 192.266 61.6646 192.71 58.2124C192.985 56.0859 193.471 54.2703 194.131 52.7563C194.627 51.62 195.221 50.6532 195.896 49.841C196.914 48.6185 198.117 47.7313 199.545 47.1261C200.971 46.5237 202.632 46.208 204.536 46.208C206.225 46.208 207.728 46.4571 209.041 46.935C210.027 47.2957 210.911 47.7818 211.703 48.4058C212.893 49.3388 213.891 50.5819 214.683 52.2008C215.475 53.8196 216.051 55.818 216.36 58.2123C216.804 61.6645 217.598 64.3598 218.635 66.6681C219.325 68.2082 220.119 69.5694 220.967 70.8726H188.105C188.953 69.5695 189.745 68.2084 190.435 66.6682ZM208.087 81.6441C207.795 82.3347 207.304 82.9267 206.688 83.3418C206.071 83.7586 205.338 83.9984 204.536 83.9984C204 83.9984 203.497 83.8907 203.036 83.6959C202.347 83.4046 201.755 82.9137 201.339 82.2982C201.048 81.8654 200.84 81.3745 200.743 80.8424H208.325C208.275 81.1215 208.194 81.3894 208.087 81.6441ZM222.897 76.3483C222.734 76.8523 222.468 77.2449 222.185 77.4848C222.042 77.6074 221.898 77.6928 221.748 77.7508C221.596 77.8089 221.44 77.8407 221.257 77.8407H210.991H207.621H201.447H198.076H187.813C187.569 77.8388 187.371 77.7854 187.174 77.6843C187.028 77.6074 186.882 77.4978 186.745 77.3517C186.539 77.1352 186.349 76.8354 186.216 76.4711C186.081 76.1085 186.002 75.6841 186.002 75.2335C186.003 74.5196 186.195 73.7524 186.654 73.017H222.419C222.876 73.7505 223.067 74.5196 223.069 75.2335C223.069 75.6326 223.007 76.014 222.897 76.3483Z" fill="black"/>
<path d="M149 62H205V118" stroke="black" stroke-width="10" stroke-linecap="round" stroke-linejoin="round"/>
</svg>
