<svg viewBox="0 0 132 132" fill="none" xmlns="http://www.w3.org/2000/svg">
<path d="M113.233 77.5079C113.426 76.8835 113.72 76.4029 114.117 76.0661C114.511 75.7381 114.977 75.5399 115.516 75.4714C116.054 75.4029 116.641 75.447 117.277 75.6035L117.226 77.0528C116.834 76.9614 116.446 76.9054 116.062 76.8848C115.675 76.873 115.333 76.9385 115.035 77.0811C114.746 77.2266 114.542 77.491 114.424 77.8746C114.303 78.2671 114.32 78.5944 114.473 78.8566C114.633 79.1304 114.918 79.3305 115.329 79.4568C115.819 79.6079 116.246 79.6173 116.609 79.4849C116.981 79.3553 117.371 79.1677 117.778 78.9221L119.944 77.5968C120.366 77.3362 120.786 77.1774 121.204 77.1205C121.631 77.0664 122.117 77.1231 122.661 77.2907C123.455 77.5352 124 77.9521 124.297 78.5416C124.594 79.1312 124.622 79.8184 124.38 80.6034C124.248 81.0315 124.075 81.3883 123.86 81.6737C123.651 81.9708 123.398 82.1907 123.1 82.3333C122.8 82.4849 122.452 82.5682 122.056 82.5832C121.667 82.6099 121.23 82.5728 120.743 82.4718L120.791 81.0802C121.156 81.1633 121.498 81.21 121.817 81.2204C122.145 81.2335 122.43 81.1649 122.671 81.0147C122.919 80.8761 123.101 80.6195 123.216 80.2449C123.331 79.8703 123.319 79.5443 123.18 79.2671C123.047 79.0015 122.784 78.8083 122.392 78.6874C122.062 78.5858 121.773 78.5555 121.526 78.5966C121.276 78.6467 121.002 78.7622 120.702 78.9433L118.532 80.282C118.048 80.5824 117.509 80.8119 116.913 80.9702C116.327 81.1314 115.694 81.1076 115.016 80.8988C114.481 80.734 114.052 80.4797 113.728 80.1358C113.413 79.7947 113.213 79.3963 113.129 78.9407C113.042 78.4939 113.077 78.0164 113.233 77.5079Z"/>
<path d="M109.212 88.3104C109.628 87.6239 110.096 87.176 110.615 86.9669C111.13 86.7658 111.677 86.7369 112.256 86.8802C112.83 87.0315 113.416 87.2884 114.015 87.6511L117.439 89.7255C118.094 90.1221 118.621 90.5396 119.021 90.9783C119.416 91.4249 119.632 91.9157 119.668 92.4504C119.707 92.998 119.519 93.6151 119.103 94.3016C118.736 94.9083 118.334 95.3196 117.898 95.5355C117.457 95.7593 116.982 95.8214 116.475 95.7216C115.964 95.6298 115.416 95.4074 114.834 95.0544L114.067 94.5902L114.843 93.3089L115.526 93.7224C115.885 93.94 116.213 94.111 116.508 94.2355C116.807 94.3728 117.08 94.4076 117.329 94.3398C117.577 94.272 117.815 94.0505 118.042 93.6753C118.274 93.2921 118.36 92.962 118.299 92.6848C118.245 92.4124 118.084 92.1565 117.814 91.9168C117.548 91.69 117.215 91.4557 116.816 91.2139L112.972 88.8856C112.485 88.5907 112.074 88.396 111.738 88.3018C111.411 88.2124 111.131 88.2232 110.9 88.3343C110.669 88.4454 110.459 88.6566 110.271 88.9679C110.048 89.3351 109.969 89.6469 110.032 89.9033C110.103 90.1645 110.27 90.4021 110.533 90.6161C110.796 90.8301 111.119 91.0531 111.502 91.2853L112.221 91.7205L111.445 93.0017L110.726 92.5665C110.136 92.2087 109.656 91.8201 109.288 91.4008C108.928 90.9863 108.727 90.5261 108.684 90.0201C108.649 89.5189 108.826 88.949 109.212 88.3104Z"/>
<path d="M104.321 96.537L112.252 104.643L110.62 106.238C110.08 106.767 109.561 107.131 109.064 107.33C108.573 107.536 108.088 107.561 107.608 107.404C107.128 107.26 106.636 106.931 106.134 106.417C105.827 106.104 105.58 105.784 105.392 105.459C105.21 105.14 105.105 104.819 105.076 104.495C105.053 104.178 105.122 103.862 105.284 103.547L100.158 100.61L101.249 99.5428L106.03 102.308L106.911 101.446L103.19 97.6434L104.321 96.537ZM107.704 102.257L107.273 102.678C106.953 102.991 106.732 103.285 106.61 103.561C106.489 103.837 106.476 104.118 106.572 104.402C106.667 104.687 106.885 105.003 107.224 105.35C107.688 105.824 108.108 106.079 108.483 106.116C108.866 106.16 109.314 105.931 109.827 105.428L110.328 104.938L107.704 102.257Z"/>
<path d="M92.8109 106.531C93.4756 106.151 94.0805 105.978 94.6257 106.01C95.171 106.043 95.6652 106.25 96.1085 106.631C96.5564 107.02 96.9655 107.539 97.3357 108.187L99.467 111.919C99.8373 112.568 100.069 113.171 100.163 113.731C100.253 114.303 100.173 114.821 99.9227 115.286C99.6691 115.764 99.2099 116.193 98.5453 116.573C97.8807 116.952 97.2822 117.127 96.7496 117.098C96.2171 117.069 95.7339 116.872 95.2999 116.508C94.8577 116.147 94.4515 115.643 94.0813 114.995L91.943 111.25C91.5774 110.61 91.3472 110 91.2525 109.42C91.1496 108.844 91.2163 108.312 91.4526 107.822C91.6936 107.341 92.1463 106.91 92.8109 106.531ZM93.4288 107.613C93.0641 107.821 92.8302 108.051 92.7271 108.304C92.6286 108.564 92.6233 108.847 92.7112 109.151C92.8037 109.464 92.9541 109.802 93.1624 110.167L95.6269 114.483C95.8352 114.848 96.0458 115.141 96.2587 115.364C96.4763 115.594 96.7176 115.725 96.9827 115.756C97.2525 115.796 97.5697 115.711 97.9344 115.503C98.2991 115.295 98.5371 115.062 98.6483 114.805C98.756 114.561 98.766 114.286 98.6781 113.982C98.5948 113.686 98.449 113.355 98.2408 112.99L95.7762 108.674C95.568 108.31 95.3527 108.008 95.1305 107.77C94.913 107.539 94.667 107.4 94.3926 107.353C94.1148 107.318 93.7935 107.404 93.4288 107.613Z"/>
<path d="M84.4624 111.26L87.5941 122.159L86.0736 122.596L83.2551 112.786L80.4698 113.587L80.1567 112.497L84.4624 111.26Z"/>
<path d="M74.2418 114.143L74.9414 125.461L73.3624 125.559L72.7328 115.372L69.8403 115.551L69.7703 114.419L74.2418 114.143Z"/>
<path d="M54.7592 113.6L50.7754 124.218L48.4685 123.352C47.682 123.057 47.1075 122.702 46.7449 122.287C46.3703 121.877 46.177 121.396 46.1651 120.843C46.1445 120.287 46.2686 119.651 46.5374 118.934L48.0031 115.028C48.2851 114.276 48.6233 113.681 49.0177 113.24C49.4034 112.797 49.8699 112.523 50.4172 112.42C50.9525 112.322 51.5915 112.412 52.3343 112.69L54.7592 113.6ZM52.8797 114.106L52.0408 113.792C51.499 113.588 51.0752 113.549 50.7693 113.673C50.4634 113.798 50.2132 114.053 50.0187 114.438C49.8154 114.821 49.6072 115.296 49.3941 115.864L48.1006 119.311C47.894 119.862 47.7617 120.32 47.7038 120.687C47.6458 121.055 47.7053 121.361 47.8822 121.607C48.0591 121.853 48.401 122.071 48.9078 122.261L49.7074 122.561L52.8797 114.106Z"/>
<path d="M40.8722 107.435C41.4976 107.877 41.9111 108.351 42.1127 108.859C42.3143 109.366 42.3365 109.902 42.1793 110.465C42.0167 111.035 41.7202 111.626 41.2899 112.236L38.8126 115.748C38.3823 116.358 37.9337 116.824 37.4669 117.146C36.9871 117.47 36.4835 117.617 35.956 117.588C35.4155 117.561 34.8325 117.327 34.2071 116.885C33.5817 116.444 33.1693 115.976 32.97 115.482C32.7706 114.987 32.7442 114.466 32.8906 113.918C33.0295 113.365 33.3141 112.784 33.7444 112.173L36.2297 108.65C36.6547 108.047 37.1098 107.58 37.5949 107.248C38.0725 106.911 38.5831 106.746 39.1267 106.753C39.6649 106.767 40.2468 106.994 40.8722 107.435ZM40.1541 108.454C39.8108 108.212 39.5031 108.097 39.2308 108.111C38.9532 108.132 38.6951 108.247 38.4566 108.456C38.2127 108.672 37.9697 108.952 37.7276 109.295L34.8631 113.356C34.621 113.7 34.4444 114.015 34.3333 114.302C34.2168 114.597 34.2005 114.871 34.2845 115.124C34.3631 115.385 34.574 115.637 34.9172 115.879C35.2604 116.121 35.572 116.238 35.8518 116.23C36.1187 116.224 36.3714 116.116 36.61 115.908C36.8431 115.707 37.0807 115.435 37.3228 115.091L40.1873 111.03C40.4294 110.687 40.6114 110.364 40.7333 110.061C40.8498 109.767 40.8714 109.485 40.7982 109.216C40.712 108.95 40.4973 108.696 40.1541 108.454Z"/>
<path d="M32.1024 101.14L24.4151 109.679L23.5914 108.653L29.1836 102.603L21.9067 106.486L21.2056 105.613L26.5963 99.3119L19.4641 103.51L18.6579 102.506L28.6411 96.8271L29.3596 97.7224L23.7987 104.214L31.3488 100.201L32.1024 101.14Z"/>
<path d="M23.7039 90.3369L13.2433 94.7154L12.8271 93.721L18.5317 87.8425L11.5838 90.7507L11.0757 89.5367L21.5363 85.1582L21.9255 86.0881L16.0434 92.0864L23.185 89.0971L23.7039 90.3369Z"/>
<path d="M19.1534 78.744L17.5157 79.0499L17.2407 77.5773L18.8784 77.2714L19.1534 78.744Z"/>
<path d="M20.0958 50.8387C19.8526 51.4451 19.5194 51.8997 19.0962 52.2027C18.6765 52.4969 18.1954 52.6559 17.6529 52.6796C17.1104 52.7034 16.529 52.611 15.9088 52.4024L16.0791 50.9623C16.462 51.0857 16.8441 51.1736 17.2253 51.226C17.6101 51.2697 17.9567 51.2327 18.2653 51.1152C18.5653 50.9941 18.79 50.7474 18.9394 50.3749C19.0922 49.9937 19.103 49.6662 18.9715 49.3922C18.8348 49.1061 18.5673 48.8832 18.1688 48.7233C17.6924 48.5322 17.2678 48.4876 16.8951 48.5895C16.5137 48.688 16.1097 48.8427 15.6831 49.0537L13.4151 50.1955C12.9729 50.4204 12.5413 50.5439 12.1201 50.566C11.6902 50.5847 11.2111 50.488 10.6827 50.2761C9.91173 49.9669 9.40262 49.5062 9.15536 48.8942C8.9081 48.2821 8.93734 47.595 9.2431 46.8327C9.40988 46.4169 9.61211 46.0756 9.84981 45.809C10.0823 45.5301 10.3529 45.3319 10.6615 45.2144C10.9736 45.0882 11.3272 45.0339 11.7223 45.0516C12.1123 45.0572 12.5455 45.1304 13.022 45.2712L12.8595 46.6541C12.5026 46.5411 12.1656 46.4663 11.8484 46.4296C11.5226 46.3894 11.2331 46.4342 10.98 46.5639C10.7216 46.6816 10.5195 46.9223 10.3736 47.2861C10.2276 47.6499 10.2126 47.9757 10.3284 48.2636C10.4391 48.5392 10.685 48.7535 11.0662 48.9064C11.3867 49.0349 11.6717 49.0889 11.9213 49.0684C12.1744 49.0392 12.4578 48.9467 12.7717 48.791L15.045 47.6363C15.5513 47.3768 16.1078 47.1927 16.7145 47.0841C17.3126 46.972 17.9407 47.048 18.5991 47.3121C19.1188 47.5205 19.5259 47.8095 19.8202 48.1789C20.1058 48.5449 20.2718 48.9584 20.3181 49.4195C20.368 49.8719 20.2939 50.345 20.0958 50.8387Z"/>
<path d="M25.0298 40.3114C24.5577 40.9605 24.054 41.3673 23.5187 41.532C22.9889 41.6891 22.4417 41.6719 21.877 41.4804C21.3177 41.2813 20.7551 40.9759 20.189 40.5641L16.9511 38.2088C16.3321 37.7586 15.8419 37.2981 15.4803 36.8273C15.1242 36.349 14.9507 35.8419 14.9596 35.3059C14.9666 34.757 15.2061 34.158 15.6783 33.5089C16.0955 32.9352 16.5306 32.5592 16.9835 32.3809C17.4419 32.195 17.9195 32.173 18.4163 32.3151C18.9186 32.4497 19.4452 32.7173 19.9962 33.1181L20.7208 33.6452L19.8396 34.8566L19.1943 34.3872C18.8546 34.1401 18.5428 33.9421 18.2587 33.7932C17.9726 33.6312 17.7029 33.5736 17.4497 33.6202C17.1965 33.6668 16.9408 33.8675 16.6828 34.2223C16.4193 34.5845 16.3063 34.9064 16.3441 35.1877C16.3742 35.4636 16.5135 35.7322 16.7619 35.9937C17.0082 36.2421 17.3201 36.5036 17.6974 36.7781L21.3316 39.4217C21.792 39.7566 22.1856 39.9852 22.5122 40.1073C22.8313 40.224 23.1105 40.2367 23.35 40.1455C23.5895 40.0543 23.8163 39.8615 24.0305 39.5671C24.283 39.2199 24.3887 38.9159 24.3476 38.6552C24.2989 38.3889 24.1524 38.1381 23.9081 37.9027C23.6639 37.6673 23.3606 37.4178 22.9983 37.1543L22.319 36.6602L23.2002 35.4488L23.8795 35.9429C24.438 36.3492 24.883 36.7767 25.2144 37.2255C25.5382 37.6689 25.7001 38.1444 25.7001 38.6522C25.6925 39.1545 25.4691 39.7076 25.0298 40.3114Z"/>
<path d="M30.421 32.6418L23.195 23.9021L24.9538 22.448C25.5364 21.9663 26.0838 21.6469 26.5958 21.49C27.102 21.3258 27.5877 21.3421 28.053 21.5386C28.5195 21.7221 28.9818 22.0907 29.4397 22.6446C29.7192 22.9827 29.939 23.3217 30.099 23.6617C30.2531 23.9945 30.3313 24.3235 30.3336 24.6485C30.33 24.9664 30.2344 25.2755 30.0468 25.576L34.9095 28.9307L33.7334 29.903L29.1998 26.7486L28.2503 27.5336L31.6402 31.6337L30.421 32.6418ZM27.5277 26.6597L27.9916 26.2761C28.3369 25.9906 28.5818 25.7155 28.7262 25.4508C28.8706 25.186 28.9069 24.9077 28.8352 24.6159C28.7634 24.324 28.5729 23.991 28.2636 23.617C27.8414 23.1063 27.4446 22.8168 27.0732 22.7484C26.6958 22.6728 26.2302 22.864 25.6764 23.322L25.1369 23.768L27.5277 26.6597Z"/>
<path d="M42.8763 23.495C42.1818 23.8166 41.5643 23.938 41.0238 23.8592C40.4833 23.7804 40.0084 23.5323 39.5992 23.115C39.186 22.6892 38.8225 22.1375 38.5088 21.46L36.7027 17.5599C36.3889 16.8823 36.2091 16.261 36.1634 15.6959C36.1223 15.1184 36.2461 14.6085 36.535 14.1661C36.8284 13.7114 37.3224 13.3232 38.0168 13.0016C38.7113 12.68 39.3226 12.5563 39.8507 12.6306C40.3788 12.7049 40.8436 12.9422 41.245 13.3426C41.6549 13.7391 42.0167 14.2761 42.3305 14.9536L44.1425 18.8664C44.4523 19.5355 44.6298 20.163 44.6749 20.749C44.7284 21.3311 44.6166 21.856 44.3395 22.3237C44.0585 22.783 43.5708 23.1734 42.8763 23.495ZM42.3527 22.3644C42.7338 22.1879 42.9865 21.9783 43.1107 21.7357C43.2309 21.4845 43.2602 21.2035 43.1986 20.8927C43.133 20.5733 43.0119 20.2231 42.8354 19.842L40.7469 15.3321C40.5704 14.951 40.3856 14.6406 40.1923 14.401C39.9951 14.1529 39.7658 14.0019 39.5043 13.9482C39.2389 13.8859 38.9157 13.9431 38.5346 14.1195C38.1534 14.296 37.8965 14.5076 37.7639 14.7542C37.6358 14.9883 37.6025 15.2609 37.6642 15.5717C37.722 15.8741 37.8391 16.2159 38.0156 16.597L40.1041 21.1069C40.2806 21.488 40.4694 21.8068 40.6705 22.0634C40.8677 22.3115 41.1009 22.4709 41.3702 22.5416C41.6441 22.6 41.9716 22.5409 42.3527 22.3644Z"/>
<path d="M51.5405 19.4896L49.3308 8.36694L50.8825 8.05867L52.8712 18.069L55.7137 17.5043L55.9346 18.6166L51.5405 19.4896Z"/>
<path d="M62.0272 17.4412L62.2898 6.1042L63.8713 6.14083L63.635 16.3441L66.5322 16.4112L66.506 17.5449L62.0272 17.4412Z"/>
<path d="M81.449 19.6089L86.3288 9.37249L88.553 10.4328C89.3113 10.7943 89.8532 11.1974 90.1789 11.6421C90.517 12.0824 90.6682 12.5785 90.6327 13.1302C90.6056 13.686 90.4273 14.3093 90.098 15.0001L88.3027 18.7661C87.9573 19.4906 87.5693 20.0553 87.1385 20.46C86.7162 20.8687 86.228 21.1012 85.6738 21.1575C85.132 21.2095 84.5031 21.0648 83.787 20.7234L81.449 19.6089ZM83.3651 19.266L84.1739 19.6515C84.6962 19.9006 85.1151 19.9762 85.4305 19.8784C85.746 19.7806 86.0171 19.548 86.244 19.1805C86.4793 18.8171 86.7275 18.3615 86.9886 17.8139L88.573 14.4902C88.826 13.9595 88.9971 13.5137 89.0864 13.153C89.1756 12.7923 89.1426 12.4819 88.9875 12.2218C88.8323 11.9617 88.5104 11.7152 88.0217 11.4823L87.2508 11.1148L83.3651 19.266Z"/>
<path d="M94.7048 26.8765C94.1185 26.3845 93.7462 25.8772 93.5879 25.3544C93.4295 24.8316 93.4523 24.2963 93.6561 23.7485C93.8659 23.1936 94.2108 22.6301 94.6908 22.0581L97.4536 18.7657C97.9335 18.1938 98.4196 17.767 98.9117 17.4855C99.4169 17.2028 99.9312 17.0982 100.454 17.1717C100.991 17.244 101.552 17.5261 102.138 18.0181C102.724 18.5101 103.096 19.0108 103.253 19.5205C103.411 20.0301 103.393 20.5516 103.201 21.0852C103.017 21.6247 102.684 22.1804 102.204 22.7524L99.4327 26.0555C98.9588 26.6203 98.4661 27.0477 97.9549 27.3375C97.4508 27.6333 96.9281 27.7552 96.387 27.7032C95.8518 27.644 95.2911 27.3684 94.7048 26.8765ZM95.5058 25.922C95.8275 26.192 96.1246 26.3316 96.397 26.3409C96.6754 26.3431 96.9422 26.2502 97.1974 26.0622C97.4586 25.8671 97.7242 25.6087 97.9942 25.287L101.189 21.4798C101.459 21.1581 101.661 20.8588 101.796 20.582C101.937 20.2981 101.976 20.0264 101.914 19.7668C101.857 19.5002 101.668 19.2318 101.346 18.9618C101.025 18.6919 100.724 18.5492 100.444 18.5339C100.178 18.5175 99.9171 18.6032 99.6619 18.7912C99.4127 18.972 99.1531 19.2232 98.8831 19.545L95.6884 23.3521C95.4184 23.6739 95.21 23.9803 95.0633 24.2714C94.9225 24.5553 94.8773 24.8342 94.9278 25.108C94.9914 25.3807 95.184 25.652 95.5058 25.922Z"/>
<path d="M102.95 33.8827L111.327 26.0185L112.061 27.1103L105.982 32.6697L113.559 29.4103L114.184 30.3395L108.284 36.1661L115.743 32.581L116.462 33.6496L106.038 38.4706L105.397 37.5182L111.483 31.5161L103.622 34.8816L102.95 33.8827Z"/>
<path d="M110.453 45.3816L121.252 41.9218L121.581 42.9484L115.391 48.3129L122.564 46.0149L122.965 47.2681L112.166 50.7279L111.858 49.768L118.236 44.2995L110.863 46.6615L110.453 45.3816Z"/>
<path d="M114.002 57.3243L115.66 57.1576L115.81 58.6481L114.152 58.8148L114.002 57.3243Z"/>
</svg>
