<svg width="151" height="3462" viewBox="0 0 151 3462" fill="none" xmlns="http://www.w3.org/2000/svg">
<mask id="path-1-outside-1_422_3" maskUnits="userSpaceOnUse" x="-1" y="-1" width="153" height="3464" fill="black">
<rect fill="white" x="-1" y="-1" width="153" height="3464"/>
<path d="M2 46.2L142 0.4V34L18 73.8V57L142 98.6V128.6L18 168.6V152.4L142 193.2V224.2L2 178.4V143.6L110.8 108.2V117.4L2 81V46.2ZM111.2 308.417C111.2 316.951 109.467 324.551 106 331.217C102.667 338.017 97.4667 343.351 90.4 347.217C83.4667 351.084 74.5333 353.017 63.6 353.017H2V321.817H58.8C67.4667 321.817 73.8667 319.884 78 316.017C82.1333 312.284 84.2 306.951 84.2 300.017C84.2 295.084 83.1333 290.617 81 286.617C79 282.751 75.8667 279.684 71.6 277.417C67.3333 275.284 61.8667 274.217 55.2 274.217H2V243.017H150.4L150.4 274.217H79.8L88.8 267.217C96 271.084 101.533 276.617 105.4 283.817C109.267 291.017 111.2 299.217 111.2 308.417ZM2 447.298H23L27.6 445.298H65.2C71.8667 445.298 77.0667 443.232 80.8 439.098C84.5333 435.098 86.4 428.898 86.4 420.498C86.4 414.765 85.4667 409.098 83.6 403.498C81.8667 398.032 79.4667 393.365 76.4 389.498L98.2 378.298C102.333 384.165 105.533 391.232 107.8 399.498C110.067 407.765 111.2 416.165 111.2 424.698C111.2 441.098 107.333 453.832 99.6 462.898C91.8667 471.965 79.8 476.498 63.4 476.498H2V447.298ZM0.4 414.498C0.4 406.098 1.8 398.898 4.6 392.898C7.53333 386.898 11.4667 382.298 16.4 379.098C21.3333 375.898 26.8667 374.298 33 374.298C39.4 374.298 45 375.832 49.8 378.898C54.6 382.098 58.3333 387.098 61 393.898C63.8 400.698 65.2 409.565 65.2 420.498V449.098H47V423.898C47 416.565 45.8 411.498 43.4 408.698C41 406.032 38 404.698 34.4 404.698C30.4 404.698 27.2 406.232 24.8 409.298C22.5333 412.498 21.4 416.832 21.4 422.298C21.4 427.498 22.6 432.165 25 436.298C27.5333 440.432 31.2 443.432 36 445.298L21.6 450.098C14.6667 447.832 9.4 443.698 5.8 437.698C2.2 431.698 0.4 423.965 0.4 414.498ZM0.4 548.736C0.4 536.069 3.6 526.203 10 519.136C16.5333 512.069 26.2 508.536 39 508.536H133.4V539.736H39.4C34.8667 539.736 31.3333 540.936 28.8 543.336C26.4 545.736 25.2 549.003 25.2 553.136C25.2 558.069 26.5333 562.269 29.2 565.736L7.2 574.136C4.93333 570.936 3.2 567.069 2 562.536C0.933333 558.136 0.4 553.536 0.4 548.736ZM83.2 491.936H107.2V566.536H83.2V491.936ZM0.4 694.491C0.4 684.357 2.66667 675.224 7.2 667.091C11.8667 658.957 18.3333 652.491 26.6 647.691C34.8667 643.024 44.6 640.691 55.8 640.691C67.1333 640.691 76.9333 643.024 85.2 647.691C93.4667 652.491 99.8667 658.957 104.4 667.091C108.933 675.224 111.2 684.357 111.2 694.491C111.2 703.557 109.2 711.491 105.2 718.291C101.2 725.091 95.1333 730.357 87 734.091C78.8667 737.824 68.4667 739.691 55.8 739.691C43.2667 739.691 32.8667 737.891 24.6 734.291C16.4667 730.691 10.4 725.491 6.4 718.691C2.4 712.024 0.4 703.957 0.4 694.491ZM26 699.891C26 704.957 27.2 709.557 29.6 713.691C32 717.824 35.4 721.091 39.8 723.491C44.3333 726.024 49.6667 727.291 55.8 727.291C62.0667 727.291 67.4 726.024 71.8 723.491C76.2 721.091 79.6 717.824 82 713.691C84.4 709.557 85.6 704.957 85.6 699.891C85.6 694.691 84.4 690.024 82 685.891C79.6 681.757 76.2 678.424 71.8 675.891C67.4 673.491 62.0667 672.291 55.8 672.291C49.6667 672.291 44.3333 673.491 39.8 675.891C35.4 678.424 32 681.757 29.6 685.891C27.2 690.024 26 694.691 26 699.891ZM2 728.091H24L56 728.691L87.8 726.691H150.4V757.891H2V728.091ZM0.4 837.967C0.4 826.501 2.8 816.301 7.6 807.367C12.4 798.567 18.9333 791.567 27.2 786.367C35.6 781.301 45.1333 778.767 55.8 778.767C66.6 778.767 76.1333 781.301 84.4 786.367C92.8 791.567 99.3333 798.567 104 807.367C108.8 816.301 111.2 826.501 111.2 837.967C111.2 849.301 108.8 859.434 104 868.367C99.3333 877.301 92.8667 884.301 84.6 889.367C76.3333 894.434 66.7333 896.967 55.8 896.967C45.1333 896.967 35.6 894.434 27.2 889.367C18.9333 884.301 12.4 877.301 7.6 868.367C2.8 859.434 0.4 849.301 0.4 837.967ZM26 837.967C26 843.167 27.2 847.834 29.6 851.967C32 856.101 35.4 859.367 39.8 861.767C44.3333 864.167 49.6667 865.367 55.8 865.367C62.0667 865.367 67.4 864.167 71.8 861.767C76.2 859.367 79.6 856.101 82 851.967C84.4 847.834 85.6 843.167 85.6 837.967C85.6 832.767 84.4 828.101 82 823.967C79.6 819.834 76.2 816.501 71.8 813.967C67.4 811.567 62.0667 810.367 55.8 810.367C49.6667 810.367 44.3333 811.567 39.8 813.967C35.4 816.501 32 819.834 29.6 823.967C27.2 828.101 26 832.767 26 837.967ZM2 999.063L109.6 960.263V989.663L17 1021.86V1007.86L109.6 1041.46V1067.86L17 1100.46V1086.46L109.6 1119.66V1147.26L2 1108.26V1078.06L81.4 1049.46V1058.66L2 1029.06V999.063ZM0.4 1212.24C0.4 1199.97 2.8 1189.17 7.6 1179.84C12.4 1170.64 18.9333 1163.5 27.2 1158.44C35.6 1153.37 45.1333 1150.84 55.8 1150.84C66.6 1150.84 76.1333 1153.3 84.4 1158.24C92.8 1163.3 99.3333 1170.17 104 1178.84C108.8 1187.5 111.2 1197.3 111.2 1208.24C111.2 1218.77 108.933 1228.24 104.4 1236.64C100 1245.17 93.6 1251.9 85.2 1256.84C76.9333 1261.77 67 1264.24 55.4 1264.24C54.2 1264.24 52.8 1264.17 51.2 1264.04C49.7333 1263.9 48.3333 1263.77 47 1263.64V1176.24H65.2V1247.24L59.8 1235.24C65.4 1235.24 70.2667 1234.1 74.4 1231.84C78.5333 1229.57 81.7333 1226.44 84 1222.44C86.4 1218.44 87.6 1213.77 87.6 1208.44C87.6 1203.1 86.4 1198.37 84 1194.24C81.7333 1190.24 78.4667 1187.1 74.2 1184.84C70.0667 1182.57 65.1333 1181.44 59.4 1181.44H54.6C48.7333 1181.44 43.5333 1182.7 39 1185.24C34.6 1187.9 31.2 1191.57 28.8 1196.24C26.5333 1201.04 25.4 1206.64 25.4 1213.04C25.4 1218.77 26.2667 1223.77 28 1228.04C29.7333 1232.44 32.3333 1236.44 35.8 1240.04L17.8 1256.64C12.2 1251.7 7.86667 1245.5 4.8 1238.04C1.86667 1230.57 0.4 1221.97 0.4 1212.24ZM0.4 1387.85C0.4 1377.72 2.66667 1368.58 7.2 1360.45C11.8667 1352.32 18.3333 1345.85 26.6 1341.05C34.8667 1336.38 44.6 1334.05 55.8 1334.05C67.1333 1334.05 76.9333 1336.38 85.2 1341.05C93.4667 1345.85 99.8667 1352.32 104.4 1360.45C108.933 1368.58 111.2 1377.72 111.2 1387.85C111.2 1396.92 109.2 1404.85 105.2 1411.65C101.2 1418.45 95.1333 1423.72 87 1427.45C78.8667 1431.18 68.4667 1433.05 55.8 1433.05C43.2667 1433.05 32.8667 1431.25 24.6 1427.65C16.4667 1424.05 10.4 1418.85 6.4 1412.05C2.4 1405.38 0.4 1397.32 0.4 1387.85ZM26 1393.25C26 1398.32 27.2 1402.92 29.6 1407.05C32 1411.18 35.4 1414.45 39.8 1416.85C44.3333 1419.38 49.6667 1420.65 55.8 1420.65C62.0667 1420.65 67.4 1419.38 71.8 1416.85C76.2 1414.45 79.6 1411.18 82 1407.05C84.4 1402.92 85.6 1398.32 85.6 1393.25C85.6 1388.05 84.4 1383.38 82 1379.25C79.6 1375.12 76.2 1371.78 71.8 1369.25C67.4 1366.85 62.0667 1365.65 55.8 1365.65C49.6667 1365.65 44.3333 1366.85 39.8 1369.25C35.4 1371.78 32 1375.12 29.6 1379.25C27.2 1383.38 26 1388.05 26 1393.25ZM2 1421.45H24L56 1422.05L87.8 1420.05H150.4V1451.25H2V1421.45ZM0.4 1531.33C0.4 1519.86 2.8 1509.66 7.6 1500.73C12.4 1491.93 18.9333 1484.93 27.2 1479.73C35.6 1474.66 45.1333 1472.13 55.8 1472.13C66.6 1472.13 76.1333 1474.66 84.4 1479.73C92.8 1484.93 99.3333 1491.93 104 1500.73C108.8 1509.66 111.2 1519.86 111.2 1531.33C111.2 1542.66 108.8 1552.79 104 1561.73C99.3333 1570.66 92.8667 1577.66 84.6 1582.73C76.3333 1587.79 66.7333 1590.33 55.8 1590.33C45.1333 1590.33 35.6 1587.79 27.2 1582.73C18.9333 1577.66 12.4 1570.66 7.6 1561.73C2.8 1552.79 0.4 1542.66 0.4 1531.33ZM26 1531.33C26 1536.53 27.2 1541.19 29.6 1545.33C32 1549.46 35.4 1552.73 39.8 1555.13C44.3333 1557.53 49.6667 1558.73 55.8 1558.73C62.0667 1558.73 67.4 1557.53 71.8 1555.13C76.2 1552.73 79.6 1549.46 82 1545.33C84.4 1541.19 85.6 1536.53 85.6 1531.33C85.6 1526.13 84.4 1521.46 82 1517.33C79.6 1513.19 76.2 1509.86 71.8 1507.33C67.4 1504.93 62.0667 1503.73 55.8 1503.73C49.6667 1503.73 44.3333 1504.93 39.8 1507.33C35.4 1509.86 32 1513.19 29.6 1517.33C27.2 1521.46 26 1526.13 26 1531.33ZM50.6 1631.39C55.2667 1631.39 59.4 1632.13 63 1633.59C66.6 1635.19 69.8 1637.13 72.6 1639.39C75.4 1641.79 78 1644.33 80.4 1646.99C82.8 1649.66 85.0667 1652.13 87.2 1654.39C89.4667 1656.79 91.8 1658.73 94.2 1660.19C96.6 1661.79 99.2667 1662.59 102.2 1662.59C107 1662.59 110.867 1660.59 113.8 1656.59C116.733 1652.73 118.2 1647.53 118.2 1640.99C118.2 1634.73 116.867 1629.13 114.2 1624.19C111.667 1619.26 108.067 1615.19 103.4 1611.99L117.6 1587.79C125.733 1593.13 132.2 1600.53 137 1609.99C141.933 1619.46 144.4 1630.93 144.4 1644.39C144.4 1654.39 142.933 1663.19 140 1670.79C137.2 1678.39 133.067 1684.33 127.6 1688.59C122.133 1692.99 115.4 1695.19 107.4 1695.19C102.2 1695.19 97.6 1694.39 93.6 1692.79C89.6 1691.19 86.1333 1689.13 83.2 1686.59C80.2667 1684.06 77.5333 1681.33 75 1678.39C72.4667 1675.59 70 1672.93 67.6 1670.39C65.2 1667.86 62.6667 1665.73 60 1663.99C57.3333 1662.39 54.2 1661.59 50.6 1661.59V1631.39ZM0.4 1646.59C0.4 1640.99 2.2 1636.39 5.8 1632.79C9.4 1629.19 13.6667 1627.39 18.6 1627.39C23.6667 1627.39 27.8667 1629.19 31.2 1632.79C34.6667 1636.39 36.4 1640.99 36.4 1646.59C36.4 1652.33 34.6667 1656.93 31.2 1660.39C27.8667 1663.99 23.6667 1665.79 18.6 1665.79C13.6667 1665.79 9.4 1663.99 5.8 1660.39C2.2 1656.93 0.4 1652.33 0.4 1646.59ZM2 1812.61L142 1766.81V1800.41L18 1840.21V1823.41L142 1865.01V1895.01L18 1935.01V1918.81L142 1959.61V1990.61L2 1944.81V1910.01L110.8 1874.61V1883.81L2 1847.41V1812.61ZM111.2 2074.82C111.2 2083.36 109.467 2090.96 106 2097.62C102.667 2104.42 97.4667 2109.76 90.4 2113.62C83.4667 2117.49 74.5333 2119.42 63.6 2119.42H2V2088.22H58.8C67.4667 2088.22 73.8667 2086.29 78 2082.42C82.1333 2078.69 84.2 2073.36 84.2 2066.42C84.2 2061.49 83.1333 2057.02 81 2053.02C79 2049.16 75.8667 2046.09 71.6 2043.82C67.3333 2041.69 61.8667 2040.62 55.2 2040.62H2V2009.42H150.4V2040.62H79.8L88.8 2033.62C96 2037.49 101.533 2043.02 105.4 2050.22C109.267 2057.42 111.2 2065.62 111.2 2074.82ZM2 2213.7H23L27.6 2211.7H65.2C71.8667 2211.7 77.0667 2209.64 80.8 2205.5C84.5333 2201.5 86.4 2195.3 86.4 2186.9C86.4 2181.17 85.4667 2175.5 83.6 2169.9C81.8667 2164.44 79.4667 2159.77 76.4 2155.9L98.2 2144.7C102.333 2150.57 105.533 2157.64 107.8 2165.9C110.067 2174.17 111.2 2182.57 111.2 2191.1C111.2 2207.5 107.333 2220.24 99.6 2229.3C91.8667 2238.37 79.8 2242.9 63.4 2242.9H2V2213.7ZM0.4 2180.9C0.4 2172.5 1.8 2165.3 4.6 2159.3C7.53333 2153.3 11.4667 2148.7 16.4 2145.5C21.3333 2142.3 26.8667 2140.7 33 2140.7C39.4 2140.7 45 2142.24 49.8 2145.3C54.6 2148.5 58.3333 2153.5 61 2160.3C63.8 2167.1 65.2 2175.97 65.2 2186.9L65.2 2215.5H47L47 2190.3C47 2182.97 45.8 2177.9 43.4 2175.1C41 2172.44 38 2171.1 34.4 2171.1C30.4 2171.1 27.2 2172.64 24.8 2175.7C22.5333 2178.9 21.4 2183.24 21.4 2188.7C21.4 2193.9 22.6 2198.57 25 2202.7C27.5333 2206.84 31.2 2209.84 36 2211.7L21.6 2216.5C14.6667 2214.24 9.4 2210.1 5.8 2204.1C2.2 2198.1 0.4 2190.37 0.4 2180.9ZM0.4 2315.14C0.4 2302.48 3.6 2292.61 10 2285.54C16.5333 2278.48 26.2 2274.94 39 2274.94H133.4V2306.14H39.4C34.8667 2306.14 31.3333 2307.34 28.8 2309.74C26.4 2312.14 25.2 2315.41 25.2 2319.54C25.2 2324.48 26.5333 2328.68 29.2 2332.14L7.2 2340.54C4.93333 2337.34 3.2 2333.48 2 2328.94C0.933333 2324.54 0.4 2319.94 0.4 2315.14ZM83.2 2258.34H107.2V2332.94H83.2V2258.34ZM0.4 2460.9C0.4 2450.76 2.66667 2441.63 7.2 2433.5C11.8667 2425.36 18.3333 2418.9 26.6 2414.1C34.8667 2409.43 44.6 2407.1 55.8 2407.1C67.1333 2407.1 76.9333 2409.43 85.2 2414.1C93.4667 2418.9 99.8667 2425.36 104.4 2433.5C108.933 2441.63 111.2 2450.76 111.2 2460.9C111.2 2469.96 109.2 2477.9 105.2 2484.7C101.2 2491.5 95.1333 2496.76 87 2500.5C78.8667 2504.23 68.4667 2506.1 55.8 2506.1C43.2667 2506.1 32.8667 2504.3 24.6 2500.7C16.4667 2497.1 10.4 2491.9 6.4 2485.1C2.4 2478.43 0.4 2470.36 0.4 2460.9ZM26 2466.3C26 2471.36 27.2 2475.96 29.6 2480.1C32 2484.23 35.4 2487.5 39.8 2489.9C44.3333 2492.43 49.6667 2493.7 55.8 2493.7C62.0667 2493.7 67.4 2492.43 71.8 2489.9C76.2 2487.5 79.6 2484.23 82 2480.1C84.4 2475.96 85.6 2471.36 85.6 2466.3C85.6 2461.1 84.4 2456.43 82 2452.3C79.6 2448.16 76.2 2444.83 71.8 2442.3C67.4 2439.9 62.0667 2438.7 55.8 2438.7C49.6667 2438.7 44.3333 2439.9 39.8 2442.3C35.4 2444.83 32 2448.16 29.6 2452.3C27.2 2456.43 26 2461.1 26 2466.3ZM2 2494.5H24L56 2495.1L87.8 2493.1H150.4L150.4 2524.3H2V2494.5ZM0.4 2604.37C0.4 2592.91 2.8 2582.71 7.6 2573.77C12.4 2564.97 18.9333 2557.97 27.2 2552.77C35.6 2547.71 45.1333 2545.17 55.8 2545.17C66.6 2545.17 76.1333 2547.71 84.4 2552.77C92.8 2557.97 99.3333 2564.97 104 2573.77C108.8 2582.71 111.2 2592.91 111.2 2604.37C111.2 2615.71 108.8 2625.84 104 2634.77C99.3333 2643.71 92.8667 2650.71 84.6 2655.77C76.3333 2660.84 66.7333 2663.37 55.8 2663.37C45.1333 2663.37 35.6 2660.84 27.2 2655.77C18.9333 2650.71 12.4 2643.71 7.6 2634.77C2.8 2625.84 0.4 2615.71 0.4 2604.37ZM26 2604.37C26 2609.57 27.2 2614.24 29.6 2618.37C32 2622.51 35.4 2625.77 39.8 2628.17C44.3333 2630.57 49.6667 2631.77 55.8 2631.77C62.0667 2631.77 67.4 2630.57 71.8 2628.17C76.2 2625.77 79.6 2622.51 82 2618.37C84.4 2614.24 85.6 2609.57 85.6 2604.37C85.6 2599.17 84.4 2594.51 82 2590.37C79.6 2586.24 76.2 2582.91 71.8 2580.37C67.4 2577.97 62.0667 2576.77 55.8 2576.77C49.6667 2576.77 44.3333 2577.97 39.8 2580.37C35.4 2582.91 32 2586.24 29.6 2590.37C27.2 2594.51 26 2599.17 26 2604.37ZM2 2765.47L109.6 2726.67V2756.07L17 2788.27V2774.27L109.6 2807.87V2834.27L17 2866.87V2852.87L109.6 2886.07L109.6 2913.67L2 2874.67V2844.47L81.4 2815.87V2825.07L2 2795.47V2765.47ZM0.4 2978.64C0.4 2966.38 2.8 2955.58 7.6 2946.24C12.4 2937.04 18.9333 2929.91 27.2 2924.84C35.6 2919.78 45.1333 2917.24 55.8 2917.24C66.6 2917.24 76.1333 2919.71 84.4 2924.64C92.8 2929.71 99.3333 2936.58 104 2945.24C108.8 2953.91 111.2 2963.71 111.2 2974.64C111.2 2985.18 108.933 2994.64 104.4 3003.04C100 3011.58 93.6 3018.31 85.2 3023.24C76.9333 3028.18 67 3030.64 55.4 3030.64C54.2 3030.64 52.8 3030.58 51.2 3030.44C49.7333 3030.31 48.3333 3030.18 47 3030.04V2942.64H65.2V3013.64L59.8 3001.64C65.4 3001.64 70.2667 3000.51 74.4 2998.24C78.5333 2995.98 81.7333 2992.84 84 2988.84C86.4 2984.84 87.6 2980.18 87.6 2974.84C87.6 2969.51 86.4 2964.78 84 2960.64C81.7333 2956.64 78.4667 2953.51 74.2 2951.24C70.0667 2948.98 65.1333 2947.84 59.4 2947.84H54.6C48.7333 2947.84 43.5333 2949.11 39 2951.64C34.6 2954.31 31.2 2957.98 28.8 2962.64C26.5333 2967.44 25.4 2973.04 25.4 2979.44C25.4 2985.18 26.2667 2990.18 28 2994.44C29.7333 2998.84 32.3333 3002.84 35.8 3006.44L17.8 3023.04C12.2 3018.11 7.86667 3011.91 4.8 3004.44C1.86667 2996.98 0.4 2988.38 0.4 2978.64ZM0.4 3154.26C0.4 3144.12 2.66667 3134.99 7.2 3126.86C11.8667 3118.72 18.3333 3112.26 26.6 3107.46C34.8667 3102.79 44.6 3100.46 55.8 3100.46C67.1333 3100.46 76.9333 3102.79 85.2 3107.46C93.4667 3112.26 99.8667 3118.72 104.4 3126.86C108.933 3134.99 111.2 3144.12 111.2 3154.26C111.2 3163.32 109.2 3171.26 105.2 3178.06C101.2 3184.86 95.1333 3190.12 87 3193.86C78.8667 3197.59 68.4667 3199.46 55.8 3199.46C43.2667 3199.46 32.8667 3197.66 24.6 3194.06C16.4667 3190.46 10.4 3185.26 6.4 3178.46C2.4 3171.79 0.4 3163.72 0.4 3154.26ZM26 3159.66C26 3164.72 27.2 3169.32 29.6 3173.46C32 3177.59 35.4 3180.86 39.8 3183.26C44.3333 3185.79 49.6667 3187.06 55.8 3187.06C62.0667 3187.06 67.4 3185.79 71.8 3183.26C76.2 3180.86 79.6 3177.59 82 3173.46C84.4 3169.32 85.6 3164.72 85.6 3159.66C85.6 3154.46 84.4 3149.79 82 3145.66C79.6 3141.52 76.2 3138.19 71.8 3135.66C67.4 3133.26 62.0667 3132.06 55.8 3132.06C49.6667 3132.06 44.3333 3133.26 39.8 3135.66C35.4 3138.19 32 3141.52 29.6 3145.66C27.2 3149.79 26 3154.46 26 3159.66ZM2 3187.86H24L56 3188.46L87.8 3186.46H150.4V3217.66H2V3187.86ZM0.4 3297.73C0.4 3286.27 2.8 3276.07 7.6 3267.13C12.4 3258.33 18.9333 3251.33 27.2 3246.13C35.6 3241.07 45.1333 3238.53 55.8 3238.53C66.6 3238.53 76.1333 3241.07 84.4 3246.13C92.8 3251.33 99.3333 3258.33 104 3267.13C108.8 3276.07 111.2 3286.27 111.2 3297.73C111.2 3309.07 108.8 3319.2 104 3328.13C99.3333 3337.07 92.8667 3344.07 84.6 3349.13C76.3333 3354.2 66.7333 3356.73 55.8 3356.73C45.1333 3356.73 35.6 3354.2 27.2 3349.13C18.9333 3344.07 12.4 3337.07 7.6 3328.13C2.8 3319.2 0.4 3309.07 0.4 3297.73ZM26 3297.73C26 3302.93 27.2 3307.6 29.6 3311.73C32 3315.87 35.4 3319.13 39.8 3321.53C44.3333 3323.93 49.6667 3325.13 55.8 3325.13C62.0667 3325.13 67.4 3323.93 71.8 3321.53C76.2 3319.13 79.6 3315.87 82 3311.73C84.4 3307.6 85.6 3302.93 85.6 3297.73C85.6 3292.53 84.4 3287.87 82 3283.73C79.6 3279.6 76.2 3276.27 71.8 3273.73C67.4 3271.33 62.0667 3270.13 55.8 3270.13C49.6667 3270.13 44.3333 3271.33 39.8 3273.73C35.4 3276.27 32 3279.6 29.6 3283.73C27.2 3287.87 26 3292.53 26 3297.73ZM50.6 3397.8C55.2667 3397.8 59.4 3398.53 63 3400C66.6 3401.6 69.8 3403.53 72.6 3405.8C75.4 3408.2 78 3410.73 80.4 3413.4C82.8 3416.07 85.0667 3418.53 87.2 3420.8C89.4667 3423.2 91.8 3425.13 94.2 3426.6C96.6 3428.2 99.2667 3429 102.2 3429C107 3429 110.867 3427 113.8 3423C116.733 3419.13 118.2 3413.93 118.2 3407.4C118.2 3401.13 116.867 3395.53 114.2 3390.6C111.667 3385.67 108.067 3381.6 103.4 3378.4L117.6 3354.2C125.733 3359.53 132.2 3366.93 137 3376.4C141.933 3385.87 144.4 3397.33 144.4 3410.8C144.4 3420.8 142.933 3429.6 140 3437.2C137.2 3444.8 133.067 3450.73 127.6 3455C122.133 3459.4 115.4 3461.6 107.4 3461.6C102.2 3461.6 97.6 3460.8 93.6 3459.2C89.6 3457.6 86.1333 3455.53 83.2 3453C80.2667 3450.47 77.5333 3447.73 75 3444.8C72.4667 3442 70 3439.33 67.6 3436.8C65.2 3434.27 62.6667 3432.13 60 3430.4C57.3333 3428.8 54.2 3428 50.6 3428V3397.8ZM0.4 3413C0.4 3407.4 2.2 3402.8 5.8 3399.2C9.4 3395.6 13.6667 3393.8 18.6 3393.8C23.6667 3393.8 27.8667 3395.6 31.2 3399.2C34.6667 3402.8 36.4 3407.4 36.4 3413C36.4 3418.73 34.6667 3423.33 31.2 3426.8C27.8667 3430.4 23.6667 3432.2 18.6 3432.2C13.6667 3432.2 9.4 3430.4 5.8 3426.8C2.2 3423.33 0.4 3418.73 0.4 3413Z"/>
</mask>
<path d="M2 46.2L1.68907 45.2496L1 45.475V46.2H2ZM142 0.4H143V-0.979294L141.689 -0.550433L142 0.4ZM142 34L142.306 34.9522L143 34.7293V34H142ZM18 73.8H17V75.1712L18.3056 74.7522L18 73.8ZM18 57L18.3181 56.0519L17 55.6097V57H18ZM142 98.6H143V97.8807L142.318 97.6519L142 98.6ZM142 128.6L142.307 129.552L143 129.328V128.6H142ZM18 168.6H17V169.973L18.307 169.552L18 168.6ZM18 152.4L18.3125 151.45L17 151.018V152.4H18ZM142 193.2H143V192.476L142.313 192.25L142 193.2ZM142 224.2L141.689 225.15L143 225.579V224.2H142ZM2 178.4H1V179.125L1.68907 179.35L2 178.4ZM2 143.6L1.6906 142.649L1 142.874V143.6H2ZM110.8 108.2H111.8V106.823L110.491 107.249L110.8 108.2ZM110.8 117.4L110.483 118.348L111.8 118.789V117.4H110.8ZM2 81H1V81.7199L1.68273 81.9483L2 81ZM2.31093 47.1504L142.311 1.35043L141.689 -0.550433L1.68907 45.2496L2.31093 47.1504ZM141 0.4V34H143V0.4H141ZM141.694 33.0478L17.6944 72.8478L18.3056 74.7522L142.306 34.9522L141.694 33.0478ZM19 73.8V57H17V73.8H19ZM17.6819 57.9481L141.682 99.5481L142.318 97.6519L18.3181 56.0519L17.6819 57.9481ZM141 98.6V128.6H143V98.6H141ZM141.693 127.648L17.693 167.648L18.307 169.552L142.307 129.552L141.693 127.648ZM19 168.6V152.4H17V168.6H19ZM17.6875 153.35L141.687 194.15L142.313 192.25L18.3125 151.45L17.6875 153.35ZM141 193.2V224.2H143V193.2H141ZM142.311 223.25L2.31093 177.45L1.68907 179.35L141.689 225.15L142.311 223.25ZM3 178.4V143.6H1V178.4H3ZM2.3094 144.551L111.109 109.151L110.491 107.249L1.6906 142.649L2.3094 144.551ZM109.8 108.2L109.8 117.4H111.8V108.2H109.8ZM111.117 116.452L2.31727 80.0517L1.68273 81.9483L110.483 118.348L111.117 116.452ZM3 81V46.2H1V81H3ZM106 331.217L105.113 330.756L105.107 330.766L105.102 330.777L106 331.217ZM90.4 347.217L89.92 346.34L89.9129 346.344L90.4 347.217ZM2 353.017H1V354.017H2V353.017ZM2 321.817V320.817H1V321.817H2ZM78 316.017L77.3297 315.275L77.3232 315.281L77.3168 315.287L78 316.017ZM81 286.617L80.1117 287.077L80.1176 287.088L81 286.617ZM71.6 277.417L72.0692 276.534L72.0583 276.528L72.0472 276.523L71.6 277.417ZM2 274.217H1V275.217H2V274.217ZM2 243.017V242.017H1V243.017H2ZM150.4 243.017H151.4V242.017H150.4V243.017ZM150.4 274.217V275.217H151.4V274.217H150.4ZM79.8 274.217L79.1861 273.428L76.8855 275.217H79.8V274.217ZM88.8 267.217L89.2731 266.336L88.6998 266.028L88.1861 266.428L88.8 267.217ZM105.4 283.817L104.519 284.29L104.519 284.29L105.4 283.817ZM110.2 308.417C110.2 316.812 108.496 324.25 105.113 330.756L106.887 331.679C110.438 324.851 112.2 317.089 112.2 308.417H110.2ZM105.102 330.777C101.866 337.38 96.8178 342.566 89.92 346.34L90.88 348.094C98.1156 344.135 103.468 338.655 106.898 331.657L105.102 330.777ZM89.9129 346.344C83.1742 350.102 74.4241 352.017 63.6 352.017V354.017C74.6425 354.017 83.7592 352.066 90.8871 348.091L89.9129 346.344ZM63.6 352.017H2V354.017H63.6V352.017ZM3 353.017V321.817H1V353.017H3ZM2 322.817H58.8V320.817H2V322.817ZM58.8 322.817C67.5896 322.817 74.2872 320.86 78.6832 316.747L77.3168 315.287C73.4462 318.908 67.3438 320.817 58.8 320.817V322.817ZM78.6703 316.759C83.0631 312.792 85.2 307.159 85.2 300.017H83.2C83.2 306.742 81.2036 311.776 77.3297 315.275L78.6703 316.759ZM85.2 300.017C85.2 294.935 84.0996 290.304 81.8824 286.147L80.1176 287.088C82.1671 290.93 83.2 295.233 83.2 300.017H85.2ZM81.8882 286.158C79.7847 282.091 76.4948 278.885 72.0692 276.534L71.1308 278.3C75.2386 280.483 78.2153 283.41 80.1118 287.077L81.8882 286.158ZM72.0472 276.523C67.5977 274.298 61.9639 273.217 55.2 273.217V275.217C61.7694 275.217 67.0689 276.27 71.1528 278.312L72.0472 276.523ZM55.2 273.217H2V275.217H55.2V273.217ZM3 274.217V243.017H1V274.217H3ZM2 244.017H150.4V242.017H2V244.017ZM149.4 243.017L149.4 274.217H151.4L151.4 243.017H149.4ZM150.4 273.217H79.8V275.217H150.4V273.217ZM80.4139 275.007L89.4139 268.007L88.1861 266.428L79.1861 273.428L80.4139 275.007ZM88.3269 268.098C95.3538 271.872 100.745 277.263 104.519 284.29L106.281 283.344C102.321 275.971 96.6462 270.296 89.2731 266.336L88.3269 268.098ZM104.519 284.29C108.298 291.327 110.2 299.361 110.2 308.417H112.2C112.2 299.073 110.235 290.707 106.281 283.344L104.519 284.29ZM2 447.298V446.298H1V447.298H2ZM23 447.298V448.298H23.208L23.3987 448.216L23 447.298ZM27.6 445.298V444.298H27.392L27.2013 444.381L27.6 445.298ZM80.8 439.098L80.0689 438.416L80.0634 438.422L80.0579 438.428L80.8 439.098ZM83.6 403.498L82.6468 403.801L82.649 403.808L82.6513 403.815L83.6 403.498ZM76.4 389.498L75.943 388.609L74.8597 389.166L75.6165 390.12L76.4 389.498ZM98.2 378.298L99.0175 377.722L98.5166 377.012L97.743 377.409L98.2 378.298ZM107.8 399.498L108.764 399.234L108.764 399.234L107.8 399.498ZM99.6 462.898L100.361 463.547L100.361 463.547L99.6 462.898ZM2 476.498H1V477.498H2V476.498ZM4.6 392.898L3.70162 392.459L3.69764 392.467L3.69382 392.476L4.6 392.898ZM16.4 379.098L16.9442 379.937L16.9442 379.937L16.4 379.098ZM49.8 378.898L50.3547 378.066L50.3466 378.061L50.3384 378.056L49.8 378.898ZM61 393.898L60.069 394.264L60.0721 394.271L60.0753 394.279L61 393.898ZM65.2 449.098V450.098H66.2V449.098H65.2ZM47 449.098H46V450.098H47V449.098ZM43.4 408.698L44.1593 408.048L44.1514 408.038L44.1433 408.029L43.4 408.698ZM24.8 409.298L24.0125 408.682L23.9978 408.701L23.984 408.72L24.8 409.298ZM25 436.298L24.1352 436.801L24.1412 436.811L24.1474 436.821L25 436.298ZM36 445.298L36.3162 446.247L38.9451 445.371L36.3624 444.366L36 445.298ZM21.6 450.098L21.2893 451.049L21.603 451.152L21.9162 451.047L21.6 450.098ZM5.8 437.698L6.65749 437.184L6.65749 437.184L5.8 437.698ZM2 448.298H23V446.298H2V448.298ZM23.3987 448.216L27.9987 446.216L27.2013 444.381L22.6013 446.381L23.3987 448.216ZM27.6 446.298H65.2V444.298H27.6V446.298ZM65.2 446.298C72.0889 446.298 77.582 444.153 81.5421 439.769L80.0579 438.428C76.5513 442.31 71.6445 444.298 65.2 444.298V446.298ZM81.5311 439.781C85.5098 435.518 87.4 429.02 87.4 420.498H85.4C85.4 428.777 83.5569 434.679 80.0689 438.416L81.5311 439.781ZM87.4 420.498C87.4 414.654 86.4483 408.881 84.5487 403.182L82.6513 403.815C84.485 409.316 85.4 414.876 85.4 420.498H87.4ZM84.5532 403.196C82.789 397.632 80.3368 392.853 77.1835 388.877L75.6165 390.12C78.5965 393.877 80.9443 398.431 82.6468 403.801L84.5532 403.196ZM76.857 390.388L98.657 379.188L97.743 377.409L75.943 388.609L76.857 390.388ZM97.3825 378.874C101.438 384.63 104.594 391.587 106.836 399.763L108.764 399.234C106.473 390.877 103.229 383.7 99.0175 377.722L97.3825 378.874ZM106.836 399.763C109.079 407.944 110.2 416.255 110.2 424.698H112.2C112.2 416.075 111.055 407.586 108.764 399.234L106.836 399.763ZM110.2 424.698C110.2 440.95 106.369 453.422 98.8392 462.249L100.361 463.547C108.298 454.242 112.2 441.247 112.2 424.698H110.2ZM98.8392 462.249C91.3598 471.018 79.6227 475.498 63.4 475.498V477.498C79.9773 477.498 92.3736 472.912 100.361 463.547L98.8392 462.249ZM63.4 475.498H2V477.498H63.4V475.498ZM3 476.498V447.298H1V476.498H3ZM1.4 414.498C1.4 406.207 2.78225 399.158 5.50618 393.321L3.69382 392.476C0.817753 398.639 -0.6 405.99 -0.6 414.498H1.4ZM5.49838 393.338C8.36312 387.478 12.1828 383.026 16.9442 379.937L15.8558 378.259C10.7506 381.571 6.70354 386.319 3.70162 392.459L5.49838 393.338ZM16.9442 379.937C21.7083 376.847 27.0511 375.298 33 375.298V373.298C26.6823 373.298 20.9584 374.95 15.8558 378.259L16.9442 379.937ZM33 375.298C39.2335 375.298 44.6417 376.79 49.2616 379.741L50.3384 378.056C45.3583 374.874 39.5665 373.298 33 373.298V375.298ZM49.2453 379.73C53.8347 382.79 57.4571 387.603 60.069 394.264L61.931 393.533C59.2095 386.594 55.3653 381.407 50.3547 378.066L49.2453 379.73ZM60.0753 394.279C62.8075 400.915 64.2 409.638 64.2 420.498H66.2C66.2 409.492 64.7925 400.482 61.9247 393.518L60.0753 394.279ZM64.2 420.498V449.098H66.2V420.498H64.2ZM65.2 448.098H47V450.098H65.2V448.098ZM48 449.098V423.898H46V449.098H48ZM48 423.898C48 416.528 46.8085 411.138 44.1593 408.048L42.6407 409.349C44.7915 411.858 46 416.603 46 423.898H48ZM44.1433 408.029C41.5529 405.151 38.2824 403.698 34.4 403.698V405.698C37.7176 405.698 40.4471 406.912 42.6567 409.367L44.1433 408.029ZM34.4 403.698C30.1022 403.698 26.608 405.366 24.0125 408.682L25.5875 409.915C27.792 407.098 30.6978 405.698 34.4 405.698V403.698ZM23.984 408.72C21.5588 412.144 20.4 416.704 20.4 422.298H22.4C22.4 416.96 23.5079 412.853 25.616 409.876L23.984 408.72ZM20.4 422.298C20.4 427.659 21.6389 432.501 24.1352 436.801L25.8648 435.796C23.5611 431.829 22.4 427.338 22.4 422.298H20.4ZM24.1474 436.821C26.8023 441.153 30.6474 444.29 35.6376 446.23L36.3624 444.366C31.7526 442.574 28.2643 439.711 25.8526 435.776L24.1474 436.821ZM35.6838 444.35L21.2838 449.15L21.9162 451.047L36.3162 446.247L35.6838 444.35ZM21.9107 449.148C15.1956 446.953 10.128 442.968 6.65749 437.184L4.94251 438.213C8.67197 444.429 14.1378 448.711 21.2893 451.049L21.9107 449.148ZM6.65749 437.184C3.17808 431.385 1.4 423.846 1.4 414.498H-0.6C-0.6 424.085 1.22192 432.012 4.94251 438.213L6.65749 437.184ZM10 519.136L9.26569 518.457L9.2588 518.465L10 519.136ZM133.4 508.536H134.4V507.536H133.4V508.536ZM133.4 539.736V540.736H134.4V539.736H133.4ZM28.8 543.336L28.1123 542.61L28.1024 542.619L28.0929 542.629L28.8 543.336ZM29.2 565.736L29.5567 566.67L30.8117 566.191L29.9926 565.126L29.2 565.736ZM7.2 574.136L6.38398 574.714L6.83222 575.347L7.5567 575.07L7.2 574.136ZM2 562.536L1.02815 562.772L1.03062 562.782L1.03329 562.792L2 562.536ZM83.2 491.936V490.936H82.2V491.936H83.2ZM107.2 491.936H108.2V490.936H107.2V491.936ZM107.2 566.536V567.536H108.2V566.536H107.2ZM83.2 566.536H82.2V567.536H83.2V566.536ZM1.4 548.736C1.4 536.234 4.55619 526.637 10.7412 519.807L9.2588 518.465C2.64381 525.769 -0.6 535.904 -0.6 548.736H1.4ZM10.7343 519.815C17.0216 513.014 26.3825 509.536 39 509.536V507.536C26.0175 507.536 16.0451 511.124 9.26573 518.457L10.7343 519.815ZM39 509.536H133.4V507.536H39V509.536ZM132.4 508.536V539.736H134.4V508.536H132.4ZM133.4 538.736H39.4V540.736H133.4V538.736ZM39.4 538.736C34.6899 538.736 30.8818 539.986 28.1123 542.61L29.4877 544.062C31.7849 541.886 35.0434 540.736 39.4 540.736V538.736ZM28.0929 542.629C25.4659 545.256 24.2 548.799 24.2 553.136H26.2C26.2 549.206 27.3341 546.216 29.5071 544.043L28.0929 542.629ZM24.2 553.136C24.2 558.26 25.5892 562.682 28.4074 566.346L29.9926 565.126C27.4775 561.857 26.2 557.878 26.2 553.136H24.2ZM28.8433 564.802L6.8433 573.202L7.5567 575.07L29.5567 566.67L28.8433 564.802ZM8.01602 573.558C5.83048 570.472 4.14196 566.72 2.96671 562.28L1.03329 562.792C2.25804 567.419 4.03618 571.399 6.38398 574.714L8.01602 573.558ZM2.97185 562.3C1.92497 557.982 1.4 553.461 1.4 548.736H-0.6C-0.6 553.611 -0.0583053 558.29 1.02815 562.772L2.97185 562.3ZM83.2 492.936H107.2V490.936H83.2V492.936ZM106.2 491.936V566.536H108.2V491.936H106.2ZM107.2 565.536H83.2V567.536H107.2V565.536ZM84.2 566.536V491.936H82.2V566.536H84.2ZM7.2 667.091L6.33257 666.593L6.32652 666.604L7.2 667.091ZM26.6 647.691L26.1084 646.82L26.0979 646.826L26.6 647.691ZM85.2 647.691L85.7022 646.826L85.6916 646.82L85.2 647.691ZM104.4 667.091L105.273 666.604L105.273 666.604L104.4 667.091ZM105.2 718.291L106.062 718.798L106.062 718.798L105.2 718.291ZM87 734.091L87.4172 734.999L87.4172 734.999L87 734.091ZM24.6 734.291L24.1952 735.205L24.2007 735.207L24.6 734.291ZM6.4 718.691L7.26197 718.184L7.25749 718.176L6.4 718.691ZM29.6 713.691L30.4648 713.188L30.4648 713.188L29.6 713.691ZM39.8 723.491L40.2878 722.618L40.2789 722.613L39.8 723.491ZM71.8 723.491L71.3211 722.613L71.311 722.618L71.301 722.624L71.8 723.491ZM82 713.691L81.1352 713.188L81.1352 713.188L82 713.691ZM82 685.891L81.1352 686.393L81.1352 686.393L82 685.891ZM71.8 675.891L72.299 675.024L72.289 675.018L72.2789 675.013L71.8 675.891ZM39.8 675.891L39.3321 675.007L39.3164 675.015L39.301 675.024L39.8 675.891ZM29.6 685.891L30.4648 686.393L30.4648 686.393L29.6 685.891ZM2 728.091V727.091H1V728.091H2ZM24 728.091L24.0187 727.091L24.0094 727.091H24V728.091ZM56 728.691L55.9813 729.69L56.022 729.691L56.0628 729.689L56 728.691ZM87.8 726.691V725.691H87.7686L87.7372 725.693L87.8 726.691ZM150.4 726.691H151.4V725.691H150.4V726.691ZM150.4 757.891V758.891H151.4V757.891H150.4ZM2 757.891H1V758.891H2V757.891ZM1.4 694.491C1.4 684.512 3.63033 675.549 8.07348 667.577L6.32652 666.604C1.70301 674.899 -0.6 684.202 -0.6 694.491H1.4ZM8.06737 667.588C12.6449 659.61 18.9842 653.269 27.1021 648.555L26.0979 646.826C17.6824 651.712 11.0885 658.304 6.33263 666.593L8.06737 667.588ZM27.0916 648.561C35.1833 643.994 44.7411 641.691 55.8 641.691V639.691C44.4589 639.691 34.55 642.054 26.1084 646.82L27.0916 648.561ZM55.8 641.691C66.9945 641.691 76.6184 643.995 84.7084 648.561L85.6916 646.82C77.2483 642.053 67.2722 639.691 55.8 639.691V641.691ZM84.6979 648.555C92.8134 653.268 99.0832 659.606 103.527 667.577L105.273 666.604C100.65 658.309 94.12 651.714 85.7021 646.826L84.6979 648.555ZM103.527 667.577C107.97 675.549 110.2 684.512 110.2 694.491H112.2C112.2 684.202 109.897 674.899 105.273 666.604L103.527 667.577ZM110.2 694.491C110.2 703.406 108.235 711.159 104.338 717.784L106.062 718.798C110.165 711.822 112.2 703.709 112.2 694.491H110.2ZM104.338 717.784C100.455 724.384 94.5562 729.522 86.5828 733.182L87.4172 734.999C95.7105 731.193 101.945 725.797 106.062 718.798L104.338 717.784ZM86.5828 733.182C78.623 736.836 68.3783 738.691 55.8 738.691V740.691C68.555 740.691 79.1104 738.812 87.4172 734.999L86.5828 733.182ZM55.8 738.691C43.354 738.691 33.101 736.902 24.9993 733.374L24.2007 735.207C32.6323 738.879 43.1793 740.691 55.8 740.691V738.691ZM25.0047 733.376C17.0373 729.85 11.1426 724.781 7.26193 718.184L5.53807 719.198C9.65738 726.2 15.8961 731.532 24.1953 735.205L25.0047 733.376ZM7.25749 718.176C3.36914 711.696 1.4 703.815 1.4 694.491H-0.6C-0.6 704.099 1.43086 712.352 5.54251 719.205L7.25749 718.176ZM25 699.891C25 705.123 26.2413 709.898 28.7352 714.193L30.4648 713.188C28.1587 709.217 27 704.792 27 699.891H25ZM28.7352 714.193C31.2316 718.492 34.7687 721.885 39.3211 724.369L40.2789 722.613C36.0313 720.296 32.7684 717.156 30.4648 713.188L28.7352 714.193ZM39.3122 724.364C44.0195 726.994 49.5269 728.291 55.8 728.291V726.291C49.8064 726.291 44.6471 725.054 40.2878 722.618L39.3122 724.364ZM55.8 728.291C62.2011 728.291 67.7154 726.996 72.299 724.357L71.301 722.624C67.0846 725.052 61.9322 726.291 55.8 726.291V728.291ZM72.2789 724.369C76.8313 721.885 80.3684 718.492 82.8648 714.193L81.1352 713.188C78.8316 717.156 75.5687 720.296 71.3211 722.613L72.2789 724.369ZM82.8648 714.193C85.3587 709.898 86.6 705.123 86.6 699.891H84.6C84.6 704.792 83.4413 709.217 81.1352 713.188L82.8648 714.193ZM86.6 699.891C86.6 694.53 85.3611 689.688 82.8648 685.388L81.1352 686.393C83.439 690.36 84.6 694.851 84.6 699.891H86.6ZM82.8648 685.388C80.3714 681.094 76.8409 677.639 72.299 675.024L71.301 676.757C75.5591 679.209 78.8286 682.42 81.1352 686.393L82.8648 685.388ZM72.2789 675.013C67.6996 672.515 62.1928 671.291 55.8 671.291V673.291C61.9405 673.291 67.1004 674.466 71.3211 676.769L72.2789 675.013ZM55.8 671.291C49.5353 671.291 44.0353 672.517 39.3321 675.007L40.2679 676.774C44.6314 674.464 49.798 673.291 55.8 673.291V671.291ZM39.301 675.024C34.7591 677.639 31.2286 681.094 28.7352 685.388L30.4648 686.393C32.7714 682.42 36.0409 679.209 40.299 676.757L39.301 675.024ZM28.7352 685.388C26.2389 689.688 25 694.53 25 699.891H27C27 694.851 28.1611 690.36 30.4648 686.393L28.7352 685.388ZM2 729.091H24V727.091H2V729.091ZM23.9813 729.09L55.9813 729.69L56.0187 727.691L24.0187 727.091L23.9813 729.09ZM56.0628 729.689L87.8628 727.689L87.7372 725.693L55.9372 727.693L56.0628 729.689ZM87.8 727.691H150.4V725.691H87.8V727.691ZM149.4 726.691V757.891H151.4V726.691H149.4ZM150.4 756.891H2V758.891H150.4V756.891ZM3 757.891V728.091H1V757.891H3ZM7.6 807.367L6.72209 806.888L6.71911 806.894L7.6 807.367ZM27.2 786.367L26.6835 785.511L26.6755 785.516L26.6675 785.521L27.2 786.367ZM84.4 786.367L84.9264 785.517L84.9226 785.515L84.4 786.367ZM104 807.367L103.117 807.836L103.119 807.841L104 807.367ZM104 868.367L103.119 867.894L103.114 867.904L104 868.367ZM27.2 889.367L26.6774 890.22L26.6835 890.223L27.2 889.367ZM7.6 868.367L8.48089 867.894L8.48089 867.894L7.6 868.367ZM29.6 851.967L28.7352 852.469L28.7352 852.469L29.6 851.967ZM39.8 861.767L39.3211 862.645L39.3321 862.651L39.8 861.767ZM71.8 861.767L71.3211 860.889L71.3211 860.889L71.8 861.767ZM82 851.967L81.1352 851.465L81.1352 851.465L82 851.967ZM82 823.967L81.1352 824.469L81.1352 824.469L82 823.967ZM71.8 813.967L72.299 813.101L72.289 813.095L72.2789 813.089L71.8 813.967ZM39.8 813.967L39.3321 813.083L39.3164 813.092L39.301 813.101L39.8 813.967ZM29.6 823.967L30.4648 824.469L30.4648 824.469L29.6 823.967ZM1.4 837.967C1.4 826.644 3.76881 816.61 8.48089 807.841L6.71911 806.894C1.83119 815.991 -0.6 826.357 -0.6 837.967H1.4ZM8.4779 807.846C13.1983 799.192 19.6144 792.32 27.7325 787.214L26.6675 785.521C18.2523 790.814 11.6017 797.942 6.7221 806.888L8.4779 807.846ZM27.7165 787.223C35.9471 782.259 45.2989 779.767 55.8 779.767V777.767C44.9678 777.767 35.2529 780.342 26.6835 785.511L27.7165 787.223ZM55.8 779.767C66.4372 779.767 75.7855 782.26 83.8774 787.22L84.9226 785.515C76.4812 780.341 66.7628 777.767 55.8 777.767V779.767ZM83.8737 787.217C92.1216 792.323 98.5322 799.191 103.117 807.836L104.883 806.899C100.134 797.943 93.4784 790.811 84.9264 785.517L83.8737 787.217ZM103.119 807.841C107.831 816.61 110.2 826.644 110.2 837.967H112.2C112.2 826.357 109.769 815.991 104.881 806.894L103.119 807.841ZM110.2 837.967C110.2 849.155 107.832 859.123 103.119 867.894L104.881 868.841C109.768 859.745 112.2 849.446 112.2 837.967H110.2ZM103.114 867.904C98.5273 876.684 92.1836 883.546 84.0774 888.515L85.1226 890.22C93.5498 885.055 100.139 877.917 104.886 868.83L103.114 867.904ZM84.0774 888.515C75.9874 893.473 66.573 895.967 55.8 895.967V897.967C66.8936 897.967 76.6793 895.395 85.1226 890.22L84.0774 888.515ZM55.8 895.967C45.2989 895.967 35.9471 893.475 27.7165 888.511L26.6835 890.223C35.2529 895.392 44.9678 897.967 55.8 897.967V895.967ZM27.7226 888.515C19.6139 883.545 13.2011 876.679 8.48089 867.894L6.71911 868.841C11.5989 877.922 18.2528 885.056 26.6774 890.22L27.7226 888.515ZM8.48089 867.894C3.76792 859.123 1.4 849.155 1.4 837.967H-0.6C-0.6 849.446 1.83208 859.745 6.71911 868.841L8.48089 867.894ZM25 837.967C25 843.328 26.2389 848.17 28.7352 852.469L30.4648 851.465C28.1611 847.498 27 843.007 27 837.967H25ZM28.7352 852.469C31.2316 856.769 34.7687 860.162 39.3211 862.645L40.2789 860.889C36.0313 858.572 32.7684 855.432 30.4648 851.465L28.7352 852.469ZM39.3321 862.651C44.0353 865.141 49.5353 866.367 55.8 866.367V864.367C49.798 864.367 44.6314 863.193 40.2679 860.883L39.3321 862.651ZM55.8 866.367C62.1928 866.367 67.6996 865.143 72.2789 862.645L71.3211 860.889C67.1004 863.192 61.9405 864.367 55.8 864.367V866.367ZM72.2789 862.645C76.8313 860.162 80.3684 856.769 82.8648 852.469L81.1352 851.465C78.8316 855.432 75.5687 858.572 71.3211 860.889L72.2789 862.645ZM82.8648 852.469C85.3611 848.17 86.6 843.328 86.6 837.967H84.6C84.6 843.007 83.439 847.498 81.1352 851.465L82.8648 852.469ZM86.6 837.967C86.6 832.607 85.3611 827.764 82.8648 823.465L81.1352 824.469C83.439 828.437 84.6 832.928 84.6 837.967H86.6ZM82.8648 823.465C80.3714 819.171 76.8409 815.716 72.299 813.101L71.301 814.834C75.5591 817.285 78.8286 820.497 81.1352 824.469L82.8648 823.465ZM72.2789 813.089C67.6996 810.592 62.1928 809.367 55.8 809.367V811.367C61.9405 811.367 67.1004 812.543 71.3211 814.845L72.2789 813.089ZM55.8 809.367C49.5353 809.367 44.0353 810.593 39.3321 813.083L40.2679 814.851C44.6314 812.541 49.798 811.367 55.8 811.367V809.367ZM39.301 813.101C34.7591 815.716 31.2286 819.171 28.7352 823.465L30.4648 824.469C32.7714 820.497 36.0409 817.285 40.299 814.834L39.301 813.101ZM28.7352 823.465C26.2389 827.764 25 832.607 25 837.967H27C27 832.928 28.1611 828.437 30.4648 824.469L28.7352 823.465ZM2 999.063L1.66079 998.122L1 998.36V999.063H2ZM109.6 960.263H110.6V958.839L109.261 959.322L109.6 960.263ZM109.6 989.663L109.928 990.607L110.6 990.374V989.663H109.6ZM17 1021.86H16V1023.27L17.3284 1022.81L17 1021.86ZM17 1007.86L17.3411 1006.92L16 1006.44V1007.86H17ZM109.6 1041.46H110.6V1040.76L109.941 1040.52L109.6 1041.46ZM109.6 1067.86L109.932 1068.81L110.6 1068.57V1067.86H109.6ZM17 1100.46H16V1101.87L17.3321 1101.41L17 1100.46ZM17 1086.46L17.3375 1085.52L16 1085.04V1086.46H17ZM109.6 1119.66H110.6V1118.96L109.938 1118.72L109.6 1119.66ZM109.6 1147.26L109.259 1148.2L110.6 1148.69V1147.26H109.6ZM2 1108.26H1V1108.96L1.65924 1109.2L2 1108.26ZM2 1078.06L1.66111 1077.12L1 1077.36V1078.06H2ZM81.4 1049.46H82.4V1048.04L81.0611 1048.52L81.4 1049.46ZM81.4 1058.66L81.0507 1059.6L82.4 1060.1V1058.66H81.4ZM2 1029.06H1V1029.76L1.65069 1030L2 1029.06ZM2.33921 1000L109.939 961.203L109.261 959.322L1.66079 998.122L2.33921 1000ZM108.6 960.263V989.663H110.6V960.263H108.6ZM109.272 988.718L16.6716 1020.92L17.3284 1022.81L109.928 990.607L109.272 988.718ZM18 1021.86V1007.86H16V1021.86H18ZM16.6589 1008.8L109.259 1042.4L109.941 1040.52L17.3411 1006.92L16.6589 1008.8ZM108.6 1041.46V1067.86H110.6V1041.46H108.6ZM109.268 1066.92L16.6679 1099.52L17.3321 1101.41L109.932 1068.81L109.268 1066.92ZM18 1100.46V1086.46H16V1100.46H18ZM16.6625 1087.4L109.263 1120.6L109.938 1118.72L17.3375 1085.52L16.6625 1087.4ZM108.6 1119.66V1147.26H110.6V1119.66H108.6ZM109.941 1146.32L2.34076 1107.32L1.65924 1109.2L109.259 1148.2L109.941 1146.32ZM3 1108.26V1078.06H1V1108.26H3ZM2.33889 1079L81.7389 1050.4L81.0611 1048.52L1.66111 1077.12L2.33889 1079ZM80.4 1049.46V1058.66H82.4V1049.46H80.4ZM81.7493 1057.73L2.34931 1028.13L1.65069 1030L81.0507 1059.6L81.7493 1057.73ZM3 1029.06V999.063H1V1029.06H3ZM7.6 1179.84L6.7134 1179.37L6.71071 1179.38L7.6 1179.84ZM27.2 1158.44L26.6835 1157.58L26.6774 1157.58L27.2 1158.44ZM84.4 1158.24L84.9165 1157.38L84.9125 1157.38L84.4 1158.24ZM104 1178.84L103.119 1179.31L103.125 1179.32L104 1178.84ZM104.4 1236.64L103.52 1236.16L103.516 1236.17L103.511 1236.18L104.4 1236.64ZM85.2 1256.84L84.6936 1255.98L84.6875 1255.98L85.2 1256.84ZM51.2 1264.04L51.1095 1265.03L51.117 1265.03L51.2 1264.04ZM47 1263.64H46V1264.54L46.9005 1264.63L47 1263.64ZM47 1176.24V1175.24H46V1176.24H47ZM65.2 1176.24H66.2V1175.24H65.2V1176.24ZM65.2 1247.24L64.2881 1247.65L66.2 1247.24H65.2ZM59.8 1235.24V1234.24H58.2534L58.8881 1235.65L59.8 1235.24ZM74.4 1231.84L73.9192 1230.96L73.9192 1230.96L74.4 1231.84ZM84 1222.44L83.1425 1221.92L83.1361 1221.93L83.13 1221.94L84 1222.44ZM84 1194.24L83.1299 1194.73L83.1352 1194.74L84 1194.24ZM74.2 1184.84L73.7191 1185.71L73.7309 1185.72L74.2 1184.84ZM39 1185.24L38.5122 1184.36L38.4968 1184.37L38.4817 1184.38L39 1185.24ZM28.8 1196.24L27.9107 1195.78L27.903 1195.8L27.8958 1195.81L28.8 1196.24ZM28 1228.04L28.9305 1227.67L28.9265 1227.66L28 1228.04ZM35.8 1240.04L36.4779 1240.77L37.2291 1240.08L36.5203 1239.34L35.8 1240.04ZM17.8 1256.64L17.139 1257.39L17.8153 1257.98L18.4779 1257.37L17.8 1256.64ZM4.8 1238.04L3.86925 1238.4L3.87206 1238.41L3.87498 1238.42L4.8 1238.04ZM1.4 1212.24C1.4 1200.1 3.7734 1189.46 8.48929 1180.29L6.71071 1179.38C1.8266 1188.88 -0.6 1199.84 -0.6 1212.24H1.4ZM8.48659 1180.3C13.2089 1171.25 19.6212 1164.26 27.7226 1159.29L26.6774 1157.58C18.2455 1162.75 11.5911 1170.03 6.71342 1179.37L8.48659 1180.3ZM27.7165 1159.29C35.9471 1154.33 45.2989 1151.84 55.8 1151.84V1149.84C44.9678 1149.84 35.2529 1152.41 26.6835 1157.58L27.7165 1159.29ZM55.8 1151.84C66.4421 1151.84 75.7941 1154.27 83.8875 1159.1L84.9125 1157.38C76.4726 1152.34 66.7579 1149.84 55.8 1149.84V1151.84ZM83.8835 1159.09C92.1296 1164.07 98.5375 1170.8 103.12 1179.31L104.88 1178.36C100.129 1169.54 93.4704 1162.54 84.9165 1157.38L83.8835 1159.09ZM103.125 1179.32C107.835 1187.83 110.2 1197.46 110.2 1208.24H112.2C112.2 1197.15 109.765 1187.18 104.875 1178.35L103.125 1179.32ZM110.2 1208.24C110.2 1218.62 107.967 1227.92 103.52 1236.16L105.28 1237.11C109.9 1228.55 112.2 1218.92 112.2 1208.24H110.2ZM103.511 1236.18C99.1992 1244.54 92.933 1251.14 84.6936 1255.98L85.7064 1257.7C94.267 1252.67 100.801 1245.8 105.289 1237.1L103.511 1236.18ZM84.6875 1255.98C76.6048 1260.8 66.8566 1263.24 55.4 1263.24V1265.24C67.1434 1265.24 77.2618 1262.74 85.7125 1257.7L84.6875 1255.98ZM55.4 1263.24C54.2352 1263.24 52.864 1263.17 51.283 1263.04L51.117 1265.03C52.736 1265.17 54.1648 1265.24 55.4 1265.24V1263.24ZM51.2905 1263.04C49.8266 1262.91 48.4296 1262.78 47.0995 1262.64L46.9005 1264.63C48.2371 1264.77 49.6401 1264.9 51.1095 1265.03L51.2905 1263.04ZM48 1263.64V1176.24H46V1263.64H48ZM47 1177.24H65.2V1175.24H47V1177.24ZM64.2 1176.24V1247.24H66.2V1176.24H64.2ZM66.1119 1246.83L60.7119 1234.83L58.8881 1235.65L64.2881 1247.65L66.1119 1246.83ZM59.8 1236.24C65.5365 1236.24 70.5747 1235.08 74.8808 1232.71L73.9192 1230.96C69.9586 1233.13 65.2635 1234.24 59.8 1234.24V1236.24ZM74.8808 1232.71C79.1727 1230.36 82.5094 1227.1 84.87 1222.93L83.13 1221.94C80.9573 1225.78 77.894 1228.78 73.9192 1230.96L74.8808 1232.71ZM84.8575 1222.95C87.3635 1218.78 88.6 1213.93 88.6 1208.44H86.6C86.6 1213.62 85.4365 1218.1 83.1425 1221.92L84.8575 1222.95ZM88.6 1208.44C88.6 1202.95 87.3633 1198.04 84.8648 1193.74L83.1352 1194.74C85.4367 1198.7 86.6 1203.26 86.6 1208.44H88.6ZM84.87 1193.74C82.5047 1189.57 79.0949 1186.31 74.6692 1183.95L73.7309 1185.72C77.8385 1187.9 80.962 1190.9 83.13 1194.73L84.87 1193.74ZM74.6808 1183.96C70.3714 1181.6 65.2653 1180.44 59.4 1180.44V1182.44C65.0013 1182.44 69.7619 1183.54 73.7192 1185.71L74.6808 1183.96ZM59.4 1180.44H54.6V1182.44H59.4V1180.44ZM54.6 1180.44C48.5851 1180.44 43.2131 1181.74 38.5122 1184.36L39.4878 1186.11C43.8536 1183.67 48.8816 1182.44 54.6 1182.44V1180.44ZM38.4817 1184.38C33.9204 1187.15 30.3935 1190.95 27.9107 1195.78L29.6893 1196.69C32.0065 1192.19 35.2796 1188.66 39.5183 1186.09L38.4817 1184.38ZM27.8958 1195.81C25.5544 1200.77 24.4 1206.52 24.4 1213.04H26.4C26.4 1206.76 27.5123 1201.31 29.7042 1196.66L27.8958 1195.81ZM24.4 1213.04C24.4 1218.87 25.2813 1224 27.0735 1228.41L28.9265 1227.66C27.252 1223.54 26.4 1218.67 26.4 1213.04H24.4ZM27.0696 1228.4C28.8536 1232.93 31.5275 1237.04 35.0797 1240.73L36.5203 1239.34C33.1392 1235.83 30.6131 1231.94 28.9304 1227.67L27.0696 1228.4ZM35.1221 1239.3L17.1221 1255.9L18.4779 1257.37L36.4779 1240.77L35.1221 1239.3ZM18.461 1255.89C12.9855 1251.06 8.73817 1244.99 5.72502 1237.66L3.87498 1238.42C6.99516 1246.01 11.4145 1252.34 17.139 1257.39L18.461 1255.89ZM5.73075 1237.67C2.8518 1230.34 1.4 1221.87 1.4 1212.24H-0.6C-0.6 1222.07 0.881538 1230.8 3.86925 1238.4L5.73075 1237.67ZM7.2 1360.45L6.33257 1359.95L6.32652 1359.96L7.2 1360.45ZM26.6 1341.05L26.1084 1340.18L26.0979 1340.19L26.6 1341.05ZM85.2 1341.05L85.7022 1340.19L85.6916 1340.18L85.2 1341.05ZM104.4 1360.45L105.273 1359.96L105.273 1359.96L104.4 1360.45ZM105.2 1411.65L106.062 1412.16L106.062 1412.16L105.2 1411.65ZM87 1427.45L87.4172 1428.36L87.4172 1428.36L87 1427.45ZM24.6 1427.65L24.1952 1428.56L24.2007 1428.57L24.6 1427.65ZM6.4 1412.05L7.26197 1411.54L7.25749 1411.54L6.4 1412.05ZM29.6 1407.05L30.4648 1406.55L30.4648 1406.55L29.6 1407.05ZM39.8 1416.85L40.2878 1415.98L40.2789 1415.97L39.8 1416.85ZM71.8 1416.85L71.3211 1415.97L71.311 1415.98L71.301 1415.98L71.8 1416.85ZM82 1407.05L81.1352 1406.55L81.1352 1406.55L82 1407.05ZM82 1379.25L81.1352 1379.75L81.1352 1379.75L82 1379.25ZM71.8 1369.25L72.299 1368.38L72.289 1368.38L72.2789 1368.37L71.8 1369.25ZM39.8 1369.25L39.3321 1368.37L39.3164 1368.37L39.301 1368.38L39.8 1369.25ZM29.6 1379.25L30.4648 1379.75L30.4648 1379.75L29.6 1379.25ZM2 1421.45V1420.45H1V1421.45H2ZM24 1421.45L24.0187 1420.45L24.0094 1420.45H24V1421.45ZM56 1422.05L55.9813 1423.05L56.022 1423.05L56.0628 1423.05L56 1422.05ZM87.8 1420.05V1419.05H87.7686L87.7372 1419.05L87.8 1420.05ZM150.4 1420.05H151.4V1419.05H150.4V1420.05ZM150.4 1451.25V1452.25H151.4V1451.25H150.4ZM2 1451.25H1V1452.25H2V1451.25ZM1.4 1387.85C1.4 1377.87 3.63033 1368.91 8.07348 1360.94L6.32652 1359.96C1.70301 1368.26 -0.6 1377.56 -0.6 1387.85H1.4ZM8.06737 1360.95C12.6449 1352.97 18.9842 1346.63 27.1021 1341.91L26.0979 1340.19C17.6824 1345.07 11.0885 1351.66 6.33263 1359.95L8.06737 1360.95ZM27.0916 1341.92C35.1833 1337.35 44.7411 1335.05 55.8 1335.05V1333.05C44.4589 1333.05 34.55 1335.41 26.1084 1340.18L27.0916 1341.92ZM55.8 1335.05C66.9945 1335.05 76.6184 1337.35 84.7084 1341.92L85.6916 1340.18C77.2483 1335.41 67.2722 1333.05 55.8 1333.05V1335.05ZM84.6979 1341.91C92.8134 1346.63 99.0832 1352.96 103.527 1360.94L105.273 1359.96C100.65 1351.67 94.12 1345.07 85.7021 1340.19L84.6979 1341.91ZM103.527 1360.94C107.97 1368.91 110.2 1377.87 110.2 1387.85H112.2C112.2 1377.56 109.897 1368.26 105.273 1359.96L103.527 1360.94ZM110.2 1387.85C110.2 1396.77 108.235 1404.52 104.338 1411.14L106.062 1412.16C110.165 1405.18 112.2 1397.07 112.2 1387.85H110.2ZM104.338 1411.14C100.455 1417.74 94.5562 1422.88 86.5828 1426.54L87.4172 1428.36C95.7105 1424.55 101.945 1419.16 106.062 1412.16L104.338 1411.14ZM86.5828 1426.54C78.623 1430.19 68.3783 1432.05 55.8 1432.05V1434.05C68.555 1434.05 79.1104 1432.17 87.4172 1428.36L86.5828 1426.54ZM55.8 1432.05C43.354 1432.05 33.101 1430.26 24.9993 1426.73L24.2007 1428.57C32.6323 1432.24 43.1793 1434.05 55.8 1434.05V1432.05ZM25.0047 1426.74C17.0373 1423.21 11.1426 1418.14 7.26193 1411.54L5.53807 1412.56C9.65738 1419.56 15.8961 1424.89 24.1953 1428.56L25.0047 1426.74ZM7.25749 1411.54C3.36914 1405.05 1.4 1397.17 1.4 1387.85H-0.6C-0.6 1397.46 1.43086 1405.71 5.54251 1412.56L7.25749 1411.54ZM25 1393.25C25 1398.48 26.2413 1403.26 28.7352 1407.55L30.4648 1406.55C28.1587 1402.58 27 1398.15 27 1393.25H25ZM28.7352 1407.55C31.2316 1411.85 34.7687 1415.24 39.3211 1417.73L40.2789 1415.97C36.0313 1413.66 32.7684 1410.52 30.4648 1406.55L28.7352 1407.55ZM39.3122 1417.72C44.0195 1420.35 49.5269 1421.65 55.8 1421.65V1419.65C49.8064 1419.65 44.6471 1418.41 40.2878 1415.98L39.3122 1417.72ZM55.8 1421.65C62.2011 1421.65 67.7154 1420.36 72.299 1417.72L71.301 1415.98C67.0846 1418.41 61.9322 1419.65 55.8 1419.65V1421.65ZM72.2789 1417.73C76.8313 1415.24 80.3684 1411.85 82.8648 1407.55L81.1352 1406.55C78.8316 1410.52 75.5687 1413.66 71.3211 1415.97L72.2789 1417.73ZM82.8648 1407.55C85.3587 1403.26 86.6 1398.48 86.6 1393.25H84.6C84.6 1398.15 83.4413 1402.58 81.1352 1406.55L82.8648 1407.55ZM86.6 1393.25C86.6 1387.89 85.3611 1383.05 82.8648 1378.75L81.1352 1379.75C83.439 1383.72 84.6 1388.21 84.6 1393.25H86.6ZM82.8648 1378.75C80.3714 1374.45 76.8409 1371 72.299 1368.38L71.301 1370.12C75.5591 1372.57 78.8286 1375.78 81.1352 1379.75L82.8648 1378.75ZM72.2789 1368.37C67.6996 1365.87 62.1928 1364.65 55.8 1364.65V1366.65C61.9405 1366.65 67.1004 1367.83 71.3211 1370.13L72.2789 1368.37ZM55.8 1364.65C49.5353 1364.65 44.0353 1365.88 39.3321 1368.37L40.2679 1370.13C44.6314 1367.82 49.798 1366.65 55.8 1366.65V1364.65ZM39.301 1368.38C34.7591 1371 31.2286 1374.45 28.7352 1378.75L30.4648 1379.75C32.7714 1375.78 36.0409 1372.57 40.299 1370.12L39.301 1368.38ZM28.7352 1378.75C26.2389 1383.05 25 1387.89 25 1393.25H27C27 1388.21 28.1611 1383.72 30.4648 1379.75L28.7352 1378.75ZM2 1422.45H24V1420.45H2V1422.45ZM23.9813 1422.45L55.9813 1423.05L56.0187 1421.05L24.0187 1420.45L23.9813 1422.45ZM56.0628 1423.05L87.8628 1421.05L87.7372 1419.05L55.9372 1421.05L56.0628 1423.05ZM87.8 1421.05H150.4V1419.05H87.8V1421.05ZM149.4 1420.05V1451.25H151.4V1420.05H149.4ZM150.4 1450.25H2V1452.25H150.4V1450.25ZM3 1451.25V1421.45H1V1451.25H3ZM7.6 1500.73L6.72209 1500.25L6.71911 1500.25L7.6 1500.73ZM27.2 1479.73L26.6835 1478.87L26.6755 1478.88L26.6675 1478.88L27.2 1479.73ZM84.4 1479.73L84.9264 1478.88L84.9226 1478.87L84.4 1479.73ZM104 1500.73L103.117 1501.2L103.119 1501.2L104 1500.73ZM104 1561.73L103.119 1561.25L103.114 1561.26L104 1561.73ZM27.2 1582.73L26.6774 1583.58L26.6835 1583.58L27.2 1582.73ZM7.6 1561.73L8.48089 1561.25L8.48089 1561.25L7.6 1561.73ZM29.6 1545.33L28.7352 1545.83L28.7352 1545.83L29.6 1545.33ZM39.8 1555.13L39.3211 1556L39.3321 1556.01L39.8 1555.13ZM71.8 1555.13L71.3211 1554.25L71.3211 1554.25L71.8 1555.13ZM82 1545.33L81.1352 1544.82L81.1352 1544.82L82 1545.33ZM82 1517.33L81.1352 1517.83L81.1352 1517.83L82 1517.33ZM71.8 1507.33L72.299 1506.46L72.289 1506.45L72.2789 1506.45L71.8 1507.33ZM39.8 1507.33L39.3321 1506.44L39.3164 1506.45L39.301 1506.46L39.8 1507.33ZM29.6 1517.33L30.4648 1517.83L30.4648 1517.83L29.6 1517.33ZM1.4 1531.33C1.4 1520 3.76881 1509.97 8.48089 1501.2L6.71911 1500.25C1.83119 1509.35 -0.6 1519.72 -0.6 1531.33H1.4ZM8.4779 1501.21C13.1983 1492.55 19.6144 1485.68 27.7325 1480.57L26.6675 1478.88C18.2523 1484.17 11.6017 1491.3 6.7221 1500.25L8.4779 1501.21ZM27.7165 1480.58C35.9471 1475.62 45.2989 1473.13 55.8 1473.13V1471.13C44.9678 1471.13 35.2529 1473.7 26.6835 1478.87L27.7165 1480.58ZM55.8 1473.13C66.4372 1473.13 75.7855 1475.62 83.8774 1480.58L84.9226 1478.87C76.4812 1473.7 66.7628 1471.13 55.8 1471.13V1473.13ZM83.8737 1480.58C92.1216 1485.68 98.5322 1492.55 103.117 1501.2L104.883 1500.26C100.134 1491.3 93.4784 1484.17 84.9264 1478.88L83.8737 1480.58ZM103.119 1501.2C107.831 1509.97 110.2 1520 110.2 1531.33H112.2C112.2 1519.72 109.769 1509.35 104.881 1500.25L103.119 1501.2ZM110.2 1531.33C110.2 1542.51 107.832 1552.48 103.119 1561.25L104.881 1562.2C109.768 1553.1 112.2 1542.81 112.2 1531.33H110.2ZM103.114 1561.26C98.5273 1570.04 92.1836 1576.91 84.0774 1581.87L85.1226 1583.58C93.5498 1578.41 100.139 1571.28 104.886 1562.19L103.114 1561.26ZM84.0774 1581.87C75.9874 1586.83 66.573 1589.33 55.8 1589.33V1591.33C66.8936 1591.33 76.6793 1588.75 85.1226 1583.58L84.0774 1581.87ZM55.8 1589.33C45.2989 1589.33 35.9471 1586.83 27.7165 1581.87L26.6835 1583.58C35.2529 1588.75 44.9678 1591.33 55.8 1591.33V1589.33ZM27.7226 1581.87C19.6139 1576.9 13.2011 1570.04 8.48089 1561.25L6.71911 1562.2C11.5989 1571.28 18.2528 1578.42 26.6774 1583.58L27.7226 1581.87ZM8.48089 1561.25C3.76792 1552.48 1.4 1542.51 1.4 1531.33H-0.6C-0.6 1542.81 1.83208 1553.1 6.71911 1562.2L8.48089 1561.25ZM25 1531.33C25 1536.69 26.2389 1541.53 28.7352 1545.83L30.4648 1544.82C28.1611 1540.86 27 1536.37 27 1531.33H25ZM28.7352 1545.83C31.2316 1550.13 34.7687 1553.52 39.3211 1556L40.2789 1554.25C36.0313 1551.93 32.7684 1548.79 30.4648 1544.82L28.7352 1545.83ZM39.3321 1556.01C44.0353 1558.5 49.5353 1559.73 55.8 1559.73V1557.73C49.798 1557.73 44.6314 1556.55 40.2679 1554.24L39.3321 1556.01ZM55.8 1559.73C62.1928 1559.73 67.6996 1558.5 72.2789 1556L71.3211 1554.25C67.1004 1556.55 61.9405 1557.73 55.8 1557.73V1559.73ZM72.2789 1556C76.8313 1553.52 80.3684 1550.13 82.8648 1545.83L81.1352 1544.82C78.8316 1548.79 75.5687 1551.93 71.3211 1554.25L72.2789 1556ZM82.8648 1545.83C85.3611 1541.53 86.6 1536.69 86.6 1531.33H84.6C84.6 1536.37 83.439 1540.86 81.1352 1544.82L82.8648 1545.83ZM86.6 1531.33C86.6 1525.97 85.3611 1521.12 82.8648 1516.82L81.1352 1517.83C83.439 1521.8 84.6 1526.29 84.6 1531.33H86.6ZM82.8648 1516.82C80.3714 1512.53 76.8409 1509.08 72.299 1506.46L71.301 1508.19C75.5591 1510.64 78.8286 1513.86 81.1352 1517.83L82.8648 1516.82ZM72.2789 1506.45C67.6996 1503.95 62.1928 1502.73 55.8 1502.73L55.8 1504.73C61.9405 1504.73 67.1004 1505.9 71.3211 1508.2L72.2789 1506.45ZM55.8 1502.73C49.5353 1502.73 44.0353 1503.95 39.3321 1506.44L40.2679 1508.21C44.6314 1505.9 49.798 1504.73 55.8 1504.73L55.8 1502.73ZM39.301 1506.46C34.7591 1509.08 31.2286 1512.53 28.7352 1516.82L30.4648 1517.83C32.7714 1513.86 36.0409 1510.64 40.299 1508.19L39.301 1506.46ZM28.7352 1516.82C26.2389 1521.12 25 1525.97 25 1531.33H27C27 1526.29 28.1611 1521.8 30.4648 1517.83L28.7352 1516.82ZM50.6 1631.39V1630.39H49.6V1631.39H50.6ZM63 1633.59L63.4061 1632.68L63.3918 1632.67L63.3773 1632.67L63 1633.59ZM72.6 1639.39L73.2508 1638.63L73.2401 1638.62L73.2292 1638.61L72.6 1639.39ZM87.2 1654.39L86.4718 1655.08L86.473 1655.08L87.2 1654.39ZM94.2 1660.19L94.7547 1659.36L94.7383 1659.35L94.7215 1659.34L94.2 1660.19ZM113.8 1656.59L113.003 1655.99L112.998 1655.99L112.994 1656L113.8 1656.59ZM114.2 1624.19L113.31 1624.65L113.315 1624.66L113.32 1624.67L114.2 1624.19ZM103.4 1611.99L102.538 1611.49L102.066 1612.29L102.834 1612.82L103.4 1611.99ZM117.6 1587.79L118.148 1586.96L117.269 1586.38L116.738 1587.29L117.6 1587.79ZM137 1609.99L136.108 1610.44L136.113 1610.45L137 1609.99ZM140 1670.79L139.067 1670.43L139.064 1670.44L139.062 1670.45L140 1670.79ZM127.6 1688.59L126.985 1687.8L126.979 1687.81L126.973 1687.81L127.6 1688.59ZM93.6 1692.79L93.2286 1693.72L93.2286 1693.72L93.6 1692.79ZM83.2 1686.59L83.8536 1685.84L83.2 1686.59ZM75 1678.39L75.7568 1677.74L75.7493 1677.73L75.7415 1677.72L75 1678.39ZM67.6 1670.39L66.874 1671.08L66.874 1671.08L67.6 1670.39ZM60 1663.99L60.545 1663.15L60.5299 1663.14L60.5145 1663.13L60 1663.99ZM50.6 1661.59H49.6V1662.59H50.6V1661.59ZM5.8 1632.79L5.09289 1632.09L5.09289 1632.09L5.8 1632.79ZM31.2 1632.79L30.4662 1633.47L30.4729 1633.48L30.4797 1633.49L31.2 1632.79ZM31.2 1660.39L30.4929 1659.69L30.4793 1659.7L30.4662 1659.71L31.2 1660.39ZM5.8 1660.39L6.50711 1659.69L6.50044 1659.68L6.49364 1659.67L5.8 1660.39ZM50.6 1632.39C55.1627 1632.39 59.1639 1633.11 62.6227 1634.52L63.3773 1632.67C59.6361 1631.14 55.3707 1630.39 50.6 1630.39V1632.39ZM62.5939 1634.51C66.1213 1636.07 69.2449 1637.96 71.9708 1640.17L73.2292 1638.61C70.3551 1636.29 67.0787 1634.31 63.4061 1632.68L62.5939 1634.51ZM71.9492 1640.15C74.7174 1642.52 77.2864 1645.03 79.6567 1647.66L81.1433 1646.32C78.7137 1643.62 76.0826 1641.06 73.2508 1638.63L71.9492 1640.15ZM79.6567 1647.66C82.061 1650.33 84.3327 1652.8 86.4718 1655.08L87.9282 1653.71C85.8007 1651.45 83.5391 1648.99 81.1433 1646.32L79.6567 1647.66ZM86.473 1655.08C88.7902 1657.53 91.1912 1659.53 93.6786 1661.05L94.7215 1659.34C92.4088 1657.93 90.1431 1656.05 87.927 1653.71L86.473 1655.08ZM93.6453 1661.02C96.2125 1662.74 99.0728 1663.59 102.2 1663.59V1661.59C99.4605 1661.59 96.9875 1660.85 94.7547 1659.36L93.6453 1661.02ZM102.2 1663.59C107.331 1663.59 111.492 1661.43 114.606 1657.18L112.994 1656C110.241 1659.75 106.669 1661.59 102.2 1661.59V1663.59ZM114.597 1657.2C117.701 1653.1 119.2 1647.67 119.2 1640.99H117.2C117.2 1647.38 115.766 1652.35 113.003 1655.99L114.597 1657.2ZM119.2 1640.99C119.2 1634.58 117.834 1628.81 115.08 1623.72L113.32 1624.67C115.899 1629.44 117.2 1634.87 117.2 1640.99H119.2ZM115.09 1623.74C112.479 1618.65 108.766 1614.46 103.966 1611.17L102.834 1612.82C107.367 1615.93 110.855 1619.87 113.31 1624.65L115.09 1623.74ZM104.262 1612.5L118.462 1588.3L116.738 1587.29L102.538 1611.49L104.262 1612.5ZM117.052 1588.63C125.026 1593.86 131.38 1601.12 136.108 1610.44L137.892 1609.54C133.02 1599.93 126.441 1592.39 118.148 1586.96L117.052 1588.63ZM136.113 1610.45C140.955 1619.75 143.4 1631.05 143.4 1644.39H145.4C145.4 1630.81 142.911 1619.17 137.887 1609.53L136.113 1610.45ZM143.4 1644.39C143.4 1654.3 141.947 1662.97 139.067 1670.43L140.933 1671.15C143.919 1663.41 145.4 1654.49 145.4 1644.39H143.4ZM139.062 1670.45C136.315 1677.9 132.281 1683.67 126.985 1687.8L128.215 1689.38C133.852 1684.98 138.085 1678.88 140.938 1671.14L139.062 1670.45ZM126.973 1687.81C121.709 1692.05 115.206 1694.19 107.4 1694.19V1696.19C115.594 1696.19 122.558 1693.93 128.227 1689.37L126.973 1687.81ZM107.4 1694.19C102.302 1694.19 97.8316 1693.41 93.9714 1691.86L93.2286 1693.72C97.3684 1695.38 102.098 1696.19 107.4 1696.19V1694.19ZM93.9714 1691.86C90.0629 1690.3 86.6942 1688.29 83.8536 1685.84L82.5464 1687.35C85.5724 1689.96 89.1371 1692.08 93.2286 1693.72L93.9714 1691.86ZM83.8536 1685.84C80.9572 1683.33 78.2583 1680.64 75.7568 1677.74L74.2432 1679.05C76.8084 1682.02 79.5762 1684.78 82.5464 1687.35L83.8536 1685.84ZM75.7415 1677.72C73.2035 1674.92 70.7316 1672.24 68.326 1669.7L66.874 1671.08C69.2684 1673.61 71.7299 1676.27 74.2585 1679.06L75.7415 1677.72ZM68.326 1669.7C65.877 1667.12 63.2837 1664.93 60.545 1663.15L59.455 1664.83C62.0496 1666.52 64.523 1668.6 66.874 1671.08L68.326 1669.7ZM60.5145 1663.13C57.6693 1661.43 54.3522 1660.59 50.6 1660.59V1662.59C54.0478 1662.59 56.9974 1663.36 59.4855 1664.85L60.5145 1663.13ZM51.6 1661.59V1631.39H49.6V1661.59H51.6ZM1.4 1646.59C1.4 1641.23 3.11428 1636.89 6.50711 1633.5L5.09289 1632.09C1.28572 1635.89 -0.6 1640.76 -0.6 1646.59H1.4ZM6.50711 1633.5C9.92628 1630.08 13.9412 1628.39 18.6 1628.39V1626.39C13.3921 1626.39 8.87372 1628.3 5.09289 1632.09L6.50711 1633.5ZM18.6 1628.39C23.3984 1628.39 27.3291 1630.08 30.4662 1633.47L31.9338 1632.11C28.4043 1628.3 23.9349 1626.39 18.6 1626.39V1628.39ZM30.4797 1633.49C33.7447 1636.88 35.4 1641.22 35.4 1646.59H37.4C37.4 1640.77 35.5886 1635.91 31.9203 1632.1L30.4797 1633.49ZM35.4 1646.59C35.4 1652.11 33.7403 1656.44 30.4929 1659.69L31.9071 1661.1C35.593 1657.41 37.4 1652.54 37.4 1646.59H35.4ZM30.4662 1659.71C27.3291 1663.1 23.3984 1664.79 18.6 1664.79V1666.79C23.9349 1666.79 28.4043 1664.88 31.9338 1661.07L30.4662 1659.71ZM18.6 1664.79C13.9412 1664.79 9.92628 1663.1 6.50711 1659.69L5.09289 1661.1C8.87372 1664.88 13.3921 1666.79 18.6 1666.79V1664.79ZM6.49364 1659.67C3.11877 1656.42 1.4 1652.1 1.4 1646.59H-0.6C-0.6 1652.55 1.28123 1657.43 5.10636 1661.11L6.49364 1659.67ZM2 1812.61L1.68907 1811.66L1 1811.88V1812.61H2ZM142 1766.81H143V1765.43L141.689 1765.86L142 1766.81ZM142 1800.41L142.306 1801.36L143 1801.14V1800.41H142ZM18 1840.21H17V1841.58L18.3056 1841.16L18 1840.21ZM18 1823.41L18.3181 1822.46L17 1822.02V1823.41H18ZM142 1865.01H143V1864.29L142.318 1864.06L142 1865.01ZM142 1895.01L142.307 1895.96L143 1895.73V1895.01H142ZM18 1935.01H17V1936.38L18.307 1935.96L18 1935.01ZM18 1918.81L18.3125 1917.86L17 1917.42V1918.81H18ZM142 1959.61H143V1958.88L142.313 1958.66L142 1959.61ZM142 1990.61L141.689 1991.56L143 1991.99V1990.61H142ZM2 1944.81H1V1945.53L1.68907 1945.76L2 1944.81ZM2 1910.01L1.6906 1909.06L1 1909.28V1910.01H2ZM110.8 1874.61H111.8V1873.23L110.491 1873.66L110.8 1874.61ZM110.8 1883.81L110.483 1884.75L111.8 1885.2V1883.81H110.8ZM2 1847.41H1V1848.13L1.68273 1848.35L2 1847.41ZM2.31093 1813.56L142.311 1767.76L141.689 1765.86L1.68907 1811.66L2.31093 1813.56ZM141 1766.81V1800.41H143V1766.81H141ZM141.694 1799.45L17.6944 1839.25L18.3056 1841.16L142.306 1801.36L141.694 1799.45ZM19 1840.21V1823.41H17V1840.21H19ZM17.6819 1824.35L141.682 1865.95L142.318 1864.06L18.3181 1822.46L17.6819 1824.35ZM141 1865.01V1895.01H143V1865.01H141ZM141.693 1894.05L17.693 1934.05L18.307 1935.96L142.307 1895.96L141.693 1894.05ZM19 1935.01V1918.81H17V1935.01H19ZM17.6875 1919.76L141.687 1960.56L142.313 1958.66L18.3125 1917.86L17.6875 1919.76ZM141 1959.61V1990.61H143V1959.61H141ZM142.311 1989.66L2.31093 1943.86L1.68907 1945.76L141.689 1991.56L142.311 1989.66ZM3 1944.81V1910.01H1V1944.81H3ZM2.3094 1910.96L111.109 1875.56L110.491 1873.66L1.6906 1909.06L2.3094 1910.96ZM109.8 1874.61V1883.81H111.8V1874.61H109.8ZM111.117 1882.86L2.31727 1846.46L1.68273 1848.35L110.483 1884.75L111.117 1882.86ZM3 1847.41V1812.61H1V1847.41H3ZM106 2097.62L105.113 2097.16L105.107 2097.17L105.102 2097.18L106 2097.62ZM90.4 2113.62L89.92 2112.75L89.9129 2112.75L90.4 2113.62ZM2 2119.42H1V2120.42H2V2119.42ZM2 2088.22V2087.22H1V2088.22H2ZM78 2082.42L77.3297 2081.68L77.3232 2081.69L77.3168 2081.69L78 2082.42ZM81 2053.02L80.1117 2053.48L80.1176 2053.49L81 2053.02ZM71.6 2043.82L72.0692 2042.94L72.0583 2042.93L72.0472 2042.93L71.6 2043.82ZM2 2040.62H1V2041.62H2V2040.62ZM2 2009.42V2008.42H1V2009.42H2ZM150.4 2009.42H151.4V2008.42H150.4V2009.42ZM150.4 2040.62V2041.62H151.4V2040.62H150.4ZM79.8 2040.62L79.1861 2039.83L76.8855 2041.62H79.8V2040.62ZM88.8 2033.62L89.2731 2032.74L88.6998 2032.43L88.1861 2032.83L88.8 2033.62ZM105.4 2050.22L104.519 2050.7L104.519 2050.7L105.4 2050.22ZM110.2 2074.82C110.2 2083.22 108.496 2090.66 105.113 2097.16L106.887 2098.08C110.438 2091.26 112.2 2083.5 112.2 2074.82H110.2ZM105.102 2097.18C101.866 2103.79 96.8178 2108.97 89.92 2112.75L90.88 2114.5C98.1156 2110.54 103.468 2105.06 106.898 2098.06L105.102 2097.18ZM89.9129 2112.75C83.1742 2116.51 74.4241 2118.42 63.6 2118.42V2120.42C74.6425 2120.42 83.7592 2118.47 90.8871 2114.5L89.9129 2112.75ZM63.6 2118.42H2V2120.42H63.6V2118.42ZM3 2119.42V2088.22H1V2119.42H3ZM2 2089.22H58.8V2087.22H2V2089.22ZM58.8 2089.22C67.5896 2089.22 74.2872 2087.27 78.6832 2083.15L77.3168 2081.69C73.4462 2085.31 67.3438 2087.22 58.8 2087.22V2089.22ZM78.6703 2083.17C83.0631 2079.2 85.2 2073.57 85.2 2066.42H83.2C83.2 2073.15 81.2036 2078.18 77.3297 2081.68L78.6703 2083.17ZM85.2 2066.42C85.2 2061.34 84.0996 2056.71 81.8824 2052.55L80.1176 2053.49C82.1671 2057.34 83.2 2061.64 83.2 2066.42H85.2ZM81.8882 2052.56C79.7847 2048.5 76.4948 2045.29 72.0692 2042.94L71.1308 2044.71C75.2386 2046.89 78.2153 2049.82 80.1118 2053.48L81.8882 2052.56ZM72.0472 2042.93C67.5977 2040.7 61.9639 2039.62 55.2 2039.62V2041.62C61.7694 2041.62 67.0689 2042.68 71.1528 2044.72L72.0472 2042.93ZM55.2 2039.62H2V2041.62H55.2V2039.62ZM3 2040.62V2009.42H1V2040.62H3ZM2 2010.42H150.4V2008.42H2V2010.42ZM149.4 2009.42V2040.62H151.4V2009.42H149.4ZM150.4 2039.62H79.8V2041.62H150.4V2039.62ZM80.4139 2041.41L89.4139 2034.41L88.1861 2032.83L79.1861 2039.83L80.4139 2041.41ZM88.3269 2034.5C95.3538 2038.28 100.745 2043.67 104.519 2050.7L106.281 2049.75C102.321 2042.38 96.6462 2036.7 89.2731 2032.74L88.3269 2034.5ZM104.519 2050.7C108.298 2057.73 110.2 2065.77 110.2 2074.82H112.2C112.2 2065.48 110.235 2057.11 106.281 2049.75L104.519 2050.7ZM2 2213.7V2212.7H1V2213.7H2ZM23 2213.7V2214.7H23.208L23.3987 2214.62L23 2213.7ZM27.6 2211.7V2210.7H27.392L27.2013 2210.79L27.6 2211.7ZM80.8 2205.5L80.0689 2204.82L80.0634 2204.83L80.0579 2204.83L80.8 2205.5ZM83.6 2169.9L82.6468 2170.21L82.649 2170.21L82.6513 2170.22L83.6 2169.9ZM76.4 2155.9L75.943 2155.02L74.8597 2155.57L75.6165 2156.53L76.4 2155.9ZM98.2 2144.7L99.0175 2144.13L98.5166 2143.42L97.743 2143.82L98.2 2144.7ZM107.8 2165.9L108.764 2165.64L108.764 2165.64L107.8 2165.9ZM99.6 2229.3L100.361 2229.95L100.361 2229.95L99.6 2229.3ZM2 2242.9H1V2243.9H2V2242.9ZM4.6 2159.3L3.70162 2158.87L3.69764 2158.87L3.69382 2158.88L4.6 2159.3ZM16.4 2145.5L16.9442 2146.34L16.9442 2146.34L16.4 2145.5ZM49.8 2145.3L50.3547 2144.47L50.3466 2144.47L50.3384 2144.46L49.8 2145.3ZM61 2160.3L60.069 2160.67L60.0721 2160.68L60.0753 2160.69L61 2160.3ZM65.2 2215.5V2216.5H66.2V2215.5H65.2ZM47 2215.5H46V2216.5H47V2215.5ZM43.4 2175.1L44.1593 2174.45L44.1514 2174.44L44.1433 2174.44L43.4 2175.1ZM24.8 2175.7L24.0125 2175.09L23.9978 2175.11L23.984 2175.13L24.8 2175.7ZM25 2202.7L24.1352 2203.21L24.1412 2203.22L24.1474 2203.23L25 2202.7ZM36 2211.7L36.3162 2212.65L38.9451 2211.78L36.3624 2210.77L36 2211.7ZM21.6 2216.5L21.2893 2217.46L21.603 2217.56L21.9162 2217.45L21.6 2216.5ZM5.8 2204.1L6.65749 2203.59L6.65749 2203.59L5.8 2204.1ZM2 2214.7H23V2212.7H2V2214.7ZM23.3987 2214.62L27.9987 2212.62L27.2013 2210.79L22.6013 2212.79L23.3987 2214.62ZM27.6 2212.7H65.2V2210.7H27.6V2212.7ZM65.2 2212.7C72.0889 2212.7 77.582 2210.56 81.5421 2206.17L80.0579 2204.83C76.5513 2208.72 71.6445 2210.7 65.2 2210.7V2212.7ZM81.5311 2206.19C85.5098 2201.92 87.4 2195.43 87.4 2186.9H85.4C85.4 2195.18 83.5569 2201.09 80.0689 2204.82L81.5311 2206.19ZM87.4 2186.9C87.4 2181.06 86.4483 2175.29 84.5487 2169.59L82.6513 2170.22C84.485 2175.72 85.4 2181.28 85.4 2186.9H87.4ZM84.5532 2169.6C82.789 2164.04 80.3368 2159.26 77.1835 2155.28L75.6165 2156.53C78.5965 2160.28 80.9443 2164.84 82.6468 2170.21L84.5532 2169.6ZM76.857 2156.79L98.657 2145.59L97.743 2143.82L75.943 2155.02L76.857 2156.79ZM97.3825 2145.28C101.438 2151.04 104.594 2157.99 106.836 2166.17L108.764 2165.64C106.473 2157.28 103.229 2150.11 99.0175 2144.13L97.3825 2145.28ZM106.836 2166.17C109.079 2174.35 110.2 2182.66 110.2 2191.1H112.2C112.2 2182.48 111.055 2173.99 108.764 2165.64L106.836 2166.17ZM110.2 2191.1C110.2 2207.36 106.369 2219.83 98.8392 2228.66L100.361 2229.95C108.298 2220.65 112.2 2207.65 112.2 2191.1H110.2ZM98.8392 2228.66C91.3598 2237.42 79.6227 2241.9 63.4 2241.9V2243.9C79.9773 2243.9 92.3736 2239.32 100.361 2229.95L98.8392 2228.66ZM63.4 2241.9H2V2243.9H63.4V2241.9ZM3 2242.9V2213.7H1V2242.9H3ZM1.4 2180.9C1.4 2172.61 2.78225 2165.56 5.50618 2159.73L3.69382 2158.88C0.817753 2165.04 -0.6 2172.4 -0.6 2180.9H1.4ZM5.49838 2159.74C8.36312 2153.88 12.1828 2149.43 16.9442 2146.34L15.8558 2144.67C10.7506 2147.98 6.70354 2152.73 3.70162 2158.87L5.49838 2159.74ZM16.9442 2146.34C21.7083 2143.25 27.0511 2141.7 33 2141.7V2139.7C26.6823 2139.7 20.9584 2141.36 15.8558 2144.67L16.9442 2146.34ZM33 2141.7C39.2335 2141.7 44.6417 2143.2 49.2616 2146.15L50.3384 2144.46C45.3583 2141.28 39.5665 2139.7 33 2139.7V2141.7ZM49.2453 2146.14C53.8347 2149.2 57.4571 2154.01 60.069 2160.67L61.931 2159.94C59.2095 2153 55.3653 2147.81 50.3547 2144.47L49.2453 2146.14ZM60.0753 2160.69C62.8075 2167.32 64.2 2176.04 64.2 2186.9H66.2C66.2 2175.9 64.7925 2166.89 61.9247 2159.92L60.0753 2160.69ZM64.2 2186.9L64.2 2215.5H66.2L66.2 2186.9H64.2ZM65.2 2214.5H47V2216.5H65.2V2214.5ZM48 2215.5L48 2190.3H46L46 2215.5H48ZM48 2190.3C48 2182.93 46.8085 2177.54 44.1593 2174.45L42.6407 2175.76C44.7915 2178.26 46 2183.01 46 2190.3H48ZM44.1433 2174.44C41.5529 2171.56 38.2824 2170.1 34.4 2170.1V2172.1C37.7176 2172.1 40.4471 2173.32 42.6567 2175.77L44.1433 2174.44ZM34.4 2170.1C30.1022 2170.1 26.608 2171.77 24.0125 2175.09L25.5875 2176.32C27.792 2173.5 30.6978 2172.1 34.4 2172.1V2170.1ZM23.984 2175.13C21.5588 2178.55 20.4 2183.11 20.4 2188.7H22.4C22.4 2183.37 23.5079 2179.26 25.616 2176.28L23.984 2175.13ZM20.4 2188.7C20.4 2194.07 21.6389 2198.91 24.1352 2203.21L25.8648 2202.2C23.5611 2198.24 22.4 2193.74 22.4 2188.7H20.4ZM24.1474 2203.23C26.8023 2207.56 30.6474 2210.7 35.6376 2212.64L36.3624 2210.77C31.7526 2208.98 28.2643 2206.12 25.8526 2202.18L24.1474 2203.23ZM35.6838 2210.76L21.2838 2215.56L21.9162 2217.45L36.3162 2212.65L35.6838 2210.76ZM21.9107 2215.55C15.1956 2213.36 10.128 2209.37 6.65749 2203.59L4.94251 2204.62C8.67197 2210.83 14.1378 2215.12 21.2893 2217.46L21.9107 2215.55ZM6.65749 2203.59C3.17808 2197.79 1.4 2190.25 1.4 2180.9H-0.6C-0.6 2190.49 1.22192 2198.42 4.94251 2204.62L6.65749 2203.59ZM10 2285.54L9.26569 2284.86L9.2588 2284.87L10 2285.54ZM133.4 2274.94H134.4V2273.94H133.4V2274.94ZM133.4 2306.14V2307.14H134.4V2306.14H133.4ZM28.8 2309.74L28.1123 2309.02L28.1024 2309.03L28.0929 2309.04L28.8 2309.74ZM29.2 2332.14L29.5567 2333.08L30.8117 2332.6L29.9926 2331.53L29.2 2332.14ZM7.2 2340.54L6.38398 2341.12L6.83222 2341.75L7.5567 2341.48L7.2 2340.54ZM2 2328.94L1.02815 2329.18L1.03062 2329.19L1.03329 2329.2L2 2328.94ZM83.2 2258.34V2257.34H82.2V2258.34H83.2ZM107.2 2258.34H108.2V2257.34H107.2V2258.34ZM107.2 2332.94V2333.94H108.2V2332.94H107.2ZM83.2 2332.94H82.2V2333.94H83.2V2332.94ZM1.4 2315.14C1.4 2302.64 4.55619 2293.04 10.7412 2286.21L9.2588 2284.87C2.64381 2292.17 -0.6 2302.31 -0.6 2315.14H1.4ZM10.7343 2286.22C17.0216 2279.42 26.3825 2275.94 39 2275.94V2273.94C26.0175 2273.94 16.0451 2277.53 9.26573 2284.86L10.7343 2286.22ZM39 2275.94H133.4V2273.94H39V2275.94ZM132.4 2274.94V2306.14H134.4V2274.94H132.4ZM133.4 2305.14H39.4V2307.14H133.4V2305.14ZM39.4 2305.14C34.6899 2305.14 30.8818 2306.39 28.1123 2309.02L29.4877 2310.47C31.7849 2308.29 35.0434 2307.14 39.4 2307.14V2305.14ZM28.0929 2309.04C25.4659 2311.66 24.2 2315.21 24.2 2319.54H26.2C26.2 2315.61 27.3341 2312.62 29.5071 2310.45L28.0929 2309.04ZM24.2 2319.54C24.2 2324.67 25.5892 2329.09 28.4074 2332.75L29.9926 2331.53C27.4775 2328.26 26.2 2324.28 26.2 2319.54H24.2ZM28.8433 2331.21L6.8433 2339.61L7.5567 2341.48L29.5567 2333.08L28.8433 2331.21ZM8.01602 2339.96C5.83048 2336.88 4.14196 2333.13 2.96671 2328.69L1.03329 2329.2C2.25804 2333.82 4.03618 2337.81 6.38398 2341.12L8.01602 2339.96ZM2.97185 2328.71C1.92497 2324.39 1.4 2319.87 1.4 2315.14H-0.6C-0.6 2320.02 -0.0583053 2324.7 1.02815 2329.18L2.97185 2328.71ZM83.2 2259.34H107.2V2257.34H83.2V2259.34ZM106.2 2258.34V2332.94H108.2V2258.34H106.2ZM107.2 2331.94H83.2V2333.94H107.2V2331.94ZM84.2 2332.94V2258.34H82.2V2332.94H84.2ZM7.2 2433.5L6.33257 2433L6.32652 2433.01L7.2 2433.5ZM26.6 2414.1L26.1084 2413.23L26.0979 2413.23L26.6 2414.1ZM85.2 2414.1L85.7022 2413.23L85.6916 2413.23L85.2 2414.1ZM104.4 2433.5L105.273 2433.01L105.273 2433.01L104.4 2433.5ZM105.2 2484.7L106.062 2485.2L106.062 2485.2L105.2 2484.7ZM87 2500.5L87.4172 2501.41L87.4172 2501.41L87 2500.5ZM24.6 2500.7L24.1952 2501.61L24.2007 2501.61L24.6 2500.7ZM6.4 2485.1L7.26197 2484.59L7.25749 2484.58L6.4 2485.1ZM29.6 2480.1L30.4648 2479.59L30.4648 2479.59L29.6 2480.1ZM39.8 2489.9L40.2878 2489.02L40.2789 2489.02L39.8 2489.9ZM71.8 2489.9L71.3211 2489.02L71.311 2489.02L71.301 2489.03L71.8 2489.9ZM82 2480.1L81.1352 2479.59L81.1352 2479.59L82 2480.1ZM82 2452.3L81.1352 2452.8L81.1352 2452.8L82 2452.3ZM71.8 2442.3L72.299 2441.43L72.289 2441.42L72.2789 2441.42L71.8 2442.3ZM39.8 2442.3L39.3321 2441.41L39.3164 2441.42L39.301 2441.43L39.8 2442.3ZM29.6 2452.3L30.4648 2452.8L30.4648 2452.8L29.6 2452.3ZM2 2494.5V2493.5H1V2494.5H2ZM24 2494.5L24.0187 2493.5L24.0094 2493.5H24V2494.5ZM56 2495.1L55.9813 2496.1L56.022 2496.1L56.0628 2496.09L56 2495.1ZM87.8 2493.1V2492.1H87.7686L87.7372 2492.1L87.8 2493.1ZM150.4 2493.1H151.4V2492.1H150.4V2493.1ZM150.4 2524.3V2525.3H151.4V2524.3H150.4ZM2 2524.3H1V2525.3H2V2524.3ZM1.4 2460.9C1.4 2450.92 3.63033 2441.96 8.07348 2433.98L6.32652 2433.01C1.70301 2441.31 -0.6 2450.61 -0.6 2460.9H1.4ZM8.06737 2433.99C12.6449 2426.02 18.9842 2419.68 27.1021 2414.96L26.0979 2413.23C17.6824 2418.12 11.0885 2424.71 6.33263 2433L8.06737 2433.99ZM27.0916 2414.97C35.1833 2410.4 44.7411 2408.1 55.8 2408.1V2406.1C44.4589 2406.1 34.55 2408.46 26.1084 2413.23L27.0916 2414.97ZM55.8 2408.1C66.9945 2408.1 76.6184 2410.4 84.7084 2414.97L85.6916 2413.23C77.2483 2408.46 67.2722 2406.1 55.8 2406.1V2408.1ZM84.6979 2414.96C92.8134 2419.67 99.0832 2426.01 103.527 2433.98L105.273 2433.01C100.65 2424.72 94.12 2418.12 85.7021 2413.23L84.6979 2414.96ZM103.527 2433.98C107.97 2441.96 110.2 2450.92 110.2 2460.9H112.2C112.2 2450.61 109.897 2441.31 105.273 2433.01L103.527 2433.98ZM110.2 2460.9C110.2 2469.81 108.235 2477.57 104.338 2484.19L106.062 2485.2C110.165 2478.23 112.2 2470.11 112.2 2460.9H110.2ZM104.338 2484.19C100.455 2490.79 94.5562 2495.93 86.5828 2499.59L87.4172 2501.41C95.7105 2497.6 101.945 2492.2 106.062 2485.2L104.338 2484.19ZM86.5828 2499.59C78.623 2503.24 68.3783 2505.1 55.8 2505.1V2507.1C68.555 2507.1 79.1104 2505.22 87.4172 2501.41L86.5828 2499.59ZM55.8 2505.1C43.354 2505.1 33.101 2503.31 24.9993 2499.78L24.2007 2501.61C32.6323 2505.29 43.1793 2507.1 55.8 2507.1V2505.1ZM25.0047 2499.78C17.0373 2496.26 11.1426 2491.19 7.26193 2484.59L5.53807 2485.6C9.65738 2492.61 15.8961 2497.94 24.1953 2501.61L25.0047 2499.78ZM7.25749 2484.58C3.36914 2478.1 1.4 2470.22 1.4 2460.9H-0.6C-0.6 2470.51 1.43086 2478.76 5.54251 2485.61L7.25749 2484.58ZM25 2466.3C25 2471.53 26.2413 2476.3 28.7352 2480.6L30.4648 2479.59C28.1587 2475.62 27 2471.2 27 2466.3H25ZM28.7352 2480.6C31.2316 2484.9 34.7687 2488.29 39.3211 2490.77L40.2789 2489.02C36.0313 2486.7 32.7684 2483.56 30.4648 2479.59L28.7352 2480.6ZM39.3122 2490.77C44.0195 2493.4 49.5269 2494.7 55.8 2494.7V2492.7C49.8064 2492.7 44.6471 2491.46 40.2878 2489.02L39.3122 2490.77ZM55.8 2494.7C62.2011 2494.7 67.7154 2493.4 72.299 2490.76L71.301 2489.03C67.0846 2491.46 61.9322 2492.7 55.8 2492.7V2494.7ZM72.2789 2490.77C76.8313 2488.29 80.3684 2484.9 82.8648 2480.6L81.1352 2479.59C78.8316 2483.56 75.5687 2486.7 71.3211 2489.02L72.2789 2490.77ZM82.8648 2480.6C85.3587 2476.3 86.6 2471.53 86.6 2466.3H84.6C84.6 2471.2 83.4413 2475.62 81.1352 2479.59L82.8648 2480.6ZM86.6 2466.3C86.6 2460.94 85.3611 2456.09 82.8648 2451.79L81.1352 2452.8C83.439 2456.77 84.6 2461.26 84.6 2466.3H86.6ZM82.8648 2451.79C80.3714 2447.5 76.8409 2444.05 72.299 2441.43L71.301 2443.16C75.5591 2445.62 78.8286 2448.83 81.1352 2452.8L82.8648 2451.79ZM72.2789 2441.42C67.6996 2438.92 62.1928 2437.7 55.8 2437.7V2439.7C61.9405 2439.7 67.1004 2440.87 71.3211 2443.17L72.2789 2441.42ZM55.8 2437.7C49.5353 2437.7 44.0353 2438.92 39.3321 2441.41L40.2679 2443.18C44.6314 2440.87 49.798 2439.7 55.8 2439.7V2437.7ZM39.301 2441.43C34.7591 2444.05 31.2286 2447.5 28.7352 2451.79L30.4648 2452.8C32.7714 2448.83 36.0409 2445.62 40.299 2443.16L39.301 2441.43ZM28.7352 2451.79C26.2389 2456.09 25 2460.94 25 2466.3H27C27 2461.26 28.1611 2456.77 30.4648 2452.8L28.7352 2451.79ZM2 2495.5H24V2493.5H2V2495.5ZM23.9813 2495.5L55.9813 2496.1L56.0187 2494.1L24.0187 2493.5L23.9813 2495.5ZM56.0628 2496.09L87.8628 2494.09L87.7372 2492.1L55.9372 2494.1L56.0628 2496.09ZM87.8 2494.1H150.4V2492.1H87.8V2494.1ZM149.4 2493.1L149.4 2524.3H151.4L151.4 2493.1H149.4ZM150.4 2523.3H2V2525.3H150.4V2523.3ZM3 2524.3V2494.5H1V2524.3H3ZM7.6 2573.77L6.72209 2573.29L6.71911 2573.3L7.6 2573.77ZM27.2 2552.77L26.6835 2551.92L26.6755 2551.92L26.6675 2551.93L27.2 2552.77ZM84.4 2552.77L84.9264 2551.92L84.9226 2551.92L84.4 2552.77ZM104 2573.77L103.117 2574.24L103.119 2574.25L104 2573.77ZM104 2634.77L103.119 2634.3L103.114 2634.31L104 2634.77ZM27.2 2655.77L26.6774 2656.63L26.6835 2656.63L27.2 2655.77ZM7.6 2634.77L8.48089 2634.3L8.48089 2634.3L7.6 2634.77ZM29.6 2618.37L28.7352 2618.88L28.7352 2618.88L29.6 2618.37ZM39.8 2628.17L39.3211 2629.05L39.3321 2629.06L39.8 2628.17ZM71.8 2628.17L71.3211 2627.3L71.3211 2627.3L71.8 2628.17ZM82 2618.37L81.1352 2617.87L81.1352 2617.87L82 2618.37ZM82 2590.37L81.1352 2590.88L81.1352 2590.88L82 2590.37ZM71.8 2580.37L72.299 2579.51L72.289 2579.5L72.2789 2579.5L71.8 2580.37ZM39.8 2580.37L39.3321 2579.49L39.3164 2579.5L39.301 2579.51L39.8 2580.37ZM29.6 2590.37L30.4648 2590.88L30.4648 2590.88L29.6 2590.37ZM1.4 2604.37C1.4 2593.05 3.76881 2583.02 8.48089 2574.25L6.71911 2573.3C1.83119 2582.4 -0.6 2592.76 -0.6 2604.37H1.4ZM8.4779 2574.25C13.1983 2565.6 19.6144 2558.73 27.7325 2553.62L26.6675 2551.93C18.2523 2557.22 11.6017 2564.35 6.7221 2573.29L8.4779 2574.25ZM27.7165 2553.63C35.9471 2548.67 45.2989 2546.17 55.8 2546.17V2544.17C44.9678 2544.17 35.2529 2546.75 26.6835 2551.92L27.7165 2553.63ZM55.8 2546.17C66.4372 2546.17 75.7855 2548.67 83.8774 2553.63L84.9226 2551.92C76.4812 2546.75 66.7628 2544.17 55.8 2544.17V2546.17ZM83.8737 2553.62C92.1216 2558.73 98.5322 2565.6 103.117 2574.24L104.883 2573.3C100.134 2564.35 93.4784 2557.22 84.9264 2551.92L83.8737 2553.62ZM103.119 2574.25C107.831 2583.02 110.2 2593.05 110.2 2604.37H112.2C112.2 2592.76 109.769 2582.4 104.881 2573.3L103.119 2574.25ZM110.2 2604.37C110.2 2615.56 107.832 2625.53 103.119 2634.3L104.881 2635.25C109.768 2626.15 112.2 2615.85 112.2 2604.37H110.2ZM103.114 2634.31C98.5273 2643.09 92.1836 2649.95 84.0774 2654.92L85.1226 2656.63C93.5498 2651.46 100.139 2644.32 104.886 2635.24L103.114 2634.31ZM84.0774 2654.92C75.9874 2659.88 66.573 2662.37 55.8 2662.37V2664.37C66.8936 2664.37 76.6793 2661.8 85.1226 2656.63L84.0774 2654.92ZM55.8 2662.37C45.2989 2662.37 35.9471 2659.88 27.7165 2654.92L26.6835 2656.63C35.2529 2661.8 44.9678 2664.37 55.8 2664.37V2662.37ZM27.7226 2654.92C19.6139 2649.95 13.2011 2643.09 8.48089 2634.3L6.71911 2635.25C11.5989 2644.33 18.2528 2651.46 26.6774 2656.63L27.7226 2654.92ZM8.48089 2634.3C3.76792 2625.53 1.4 2615.56 1.4 2604.37H-0.6C-0.6 2615.85 1.83208 2626.15 6.71911 2635.25L8.48089 2634.3ZM25 2604.37C25 2609.73 26.2389 2614.58 28.7352 2618.88L30.4648 2617.87C28.1611 2613.9 27 2609.41 27 2604.37H25ZM28.7352 2618.88C31.2316 2623.17 34.7687 2626.57 39.3211 2629.05L40.2789 2627.3C36.0313 2624.98 32.7684 2621.84 30.4648 2617.87L28.7352 2618.88ZM39.3321 2629.06C44.0353 2631.55 49.5353 2632.77 55.8 2632.77V2630.77C49.798 2630.77 44.6314 2629.6 40.2679 2627.29L39.3321 2629.06ZM55.8 2632.77C62.1928 2632.77 67.6996 2631.55 72.2789 2629.05L71.3211 2627.3C67.1004 2629.6 61.9405 2630.77 55.8 2630.77V2632.77ZM72.2789 2629.05C76.8313 2626.57 80.3684 2623.17 82.8648 2618.88L81.1352 2617.87C78.8316 2621.84 75.5687 2624.98 71.3211 2627.3L72.2789 2629.05ZM82.8648 2618.88C85.3611 2614.58 86.6 2609.73 86.6 2604.37H84.6C84.6 2609.41 83.439 2613.9 81.1352 2617.87L82.8648 2618.88ZM86.6 2604.37C86.6 2599.01 85.3611 2594.17 82.8648 2589.87L81.1352 2590.88C83.439 2594.84 84.6 2599.33 84.6 2604.37H86.6ZM82.8648 2589.87C80.3714 2585.58 76.8409 2582.12 72.299 2579.51L71.301 2581.24C75.5591 2583.69 78.8286 2586.9 81.1352 2590.88L82.8648 2589.87ZM72.2789 2579.5C67.6996 2577 62.1928 2575.77 55.8 2575.77V2577.77C61.9405 2577.77 67.1004 2578.95 71.3211 2581.25L72.2789 2579.5ZM55.8 2575.77C49.5353 2575.77 44.0353 2577 39.3321 2579.49L40.2679 2581.26C44.6314 2578.95 49.798 2577.77 55.8 2577.77V2575.77ZM39.301 2579.51C34.7591 2582.12 31.2286 2585.58 28.7352 2589.87L30.4648 2590.88C32.7714 2586.9 36.0409 2583.69 40.299 2581.24L39.301 2579.51ZM28.7352 2589.87C26.2389 2594.17 25 2599.01 25 2604.37H27C27 2599.33 28.1611 2594.84 30.4648 2590.88L28.7352 2589.87ZM2 2765.47L1.66079 2764.53L1 2764.77V2765.47H2ZM109.6 2726.67H110.6V2725.25L109.261 2725.73L109.6 2726.67ZM109.6 2756.07L109.928 2757.01L110.6 2756.78V2756.07H109.6ZM17 2788.27H16V2789.68L17.3284 2789.21L17 2788.27ZM17 2774.27L17.3411 2773.33L16 2772.84V2774.27H17ZM109.6 2807.87H110.6V2807.17L109.941 2806.93L109.6 2807.87ZM109.6 2834.27L109.932 2835.21L110.6 2834.98V2834.27H109.6ZM17 2866.87H16V2868.28L17.3321 2867.81L17 2866.87ZM17 2852.87L17.3375 2851.93L16 2851.45V2852.87H17ZM109.6 2886.07H110.6V2885.36L109.938 2885.13L109.6 2886.07ZM109.6 2913.67L109.259 2914.61L110.6 2915.09V2913.67H109.6ZM2 2874.67H1V2875.37L1.65924 2875.61L2 2874.67ZM2 2844.47L1.66111 2843.53L1 2843.77V2844.47H2ZM81.4 2815.87H82.4V2814.45L81.0611 2814.93L81.4 2815.87ZM81.4 2825.07L81.0507 2826.01L82.4 2826.51V2825.07H81.4ZM2 2795.47H1V2796.16L1.65069 2796.41L2 2795.47ZM2.33921 2766.41L109.939 2727.61L109.261 2725.73L1.66079 2764.53L2.33921 2766.41ZM108.6 2726.67V2756.07H110.6V2726.67H108.6ZM109.272 2755.12L16.6716 2787.32L17.3284 2789.21L109.928 2757.01L109.272 2755.12ZM18 2788.27V2774.27H16V2788.27H18ZM16.6589 2775.21L109.259 2808.81L109.941 2806.93L17.3411 2773.33L16.6589 2775.21ZM108.6 2807.87V2834.27H110.6V2807.87H108.6ZM109.268 2833.33L16.6679 2865.93L17.3321 2867.81L109.932 2835.21L109.268 2833.33ZM18 2866.87V2852.87H16V2866.87H18ZM16.6625 2853.81L109.263 2887.01L109.938 2885.13L17.3375 2851.93L16.6625 2853.81ZM108.6 2886.07L108.6 2913.67H110.6V2886.07H108.6ZM109.941 2912.73L2.34076 2873.73L1.65924 2875.61L109.259 2914.61L109.941 2912.73ZM3 2874.67V2844.47H1V2874.67H3ZM2.33889 2845.41L81.7389 2816.81L81.0611 2814.93L1.66111 2843.53L2.33889 2845.41ZM80.4 2815.87V2825.07H82.4V2815.87H80.4ZM81.7493 2824.13L2.34931 2794.53L1.65069 2796.41L81.0507 2826.01L81.7493 2824.13ZM3 2795.47V2765.47H1V2795.47H3ZM7.6 2946.24L6.7134 2945.78L6.71071 2945.79L7.6 2946.24ZM27.2 2924.84L26.6835 2923.99L26.6774 2923.99L27.2 2924.84ZM84.4 2924.64L84.9165 2923.79L84.9125 2923.79L84.4 2924.64ZM104 2945.24L103.119 2945.72L103.125 2945.73L104 2945.24ZM104.4 3003.04L103.52 3002.57L103.516 3002.58L103.511 3002.59L104.4 3003.04ZM85.2 3023.24L84.6936 3022.38L84.6875 3022.39L85.2 3023.24ZM51.2 3030.44L51.1095 3031.44L51.117 3031.44L51.2 3030.44ZM47 3030.04H46V3030.95L46.9005 3031.04L47 3030.04ZM47 2942.64V2941.64H46V2942.64H47ZM65.2 2942.64H66.2V2941.64H65.2V2942.64ZM65.2 3013.64L64.2881 3014.05L66.2 3013.64H65.2ZM59.8 3001.64V3000.64H58.2534L58.8881 3002.05L59.8 3001.64ZM74.4 2998.24L73.9192 2997.37L73.9192 2997.37L74.4 2998.24ZM84 2988.84L83.1425 2988.33L83.1361 2988.34L83.13 2988.35L84 2988.84ZM84 2960.64L83.1299 2961.14L83.1352 2961.15L84 2960.64ZM74.2 2951.24L73.7191 2952.12L73.7309 2952.13L74.2 2951.24ZM39 2951.64L38.5122 2950.77L38.4968 2950.78L38.4817 2950.79L39 2951.64ZM28.8 2962.64L27.9107 2962.19L27.903 2962.2L27.8958 2962.22L28.8 2962.64ZM28 2994.44L28.9305 2994.08L28.9265 2994.07L28 2994.44ZM35.8 3006.44L36.4779 3007.18L37.2291 3006.49L36.5203 3005.75L35.8 3006.44ZM17.8 3023.04L17.139 3023.79L17.8153 3024.39L18.4779 3023.78L17.8 3023.04ZM4.8 3004.44L3.86925 3004.81L3.87206 3004.82L3.87498 3004.82L4.8 3004.44ZM1.4 2978.64C1.4 2966.51 3.7734 2955.87 8.48929 2946.7L6.71071 2945.79C1.8266 2955.28 -0.6 2966.24 -0.6 2978.64H1.4ZM8.48659 2946.71C13.2089 2937.66 19.6212 2930.66 27.7226 2925.7L26.6774 2923.99C18.2455 2929.16 11.5911 2936.43 6.71342 2945.78L8.48659 2946.71ZM27.7165 2925.7C35.9471 2920.74 45.2989 2918.24 55.8 2918.24V2916.24C44.9678 2916.24 35.2529 2918.82 26.6835 2923.99L27.7165 2925.7ZM55.8 2918.24C66.4421 2918.24 75.7941 2920.67 83.8875 2925.5L84.9125 2923.79C76.4726 2918.75 66.7579 2916.24 55.8 2916.24V2918.24ZM83.8835 2925.5C92.1296 2930.47 98.5375 2937.21 103.12 2945.72L104.88 2944.77C100.129 2935.95 93.4704 2928.95 84.9165 2923.79L83.8835 2925.5ZM103.125 2945.73C107.835 2954.23 110.2 2963.86 110.2 2974.64H112.2C112.2 2963.56 109.765 2953.59 104.875 2944.76L103.125 2945.73ZM110.2 2974.64C110.2 2985.03 107.967 2994.33 103.52 3002.57L105.28 3003.52C109.9 2994.96 112.2 2985.33 112.2 2974.64H110.2ZM103.511 3002.59C99.1992 3010.95 92.933 3017.54 84.6936 3022.38L85.7064 3024.11C94.267 3019.08 100.801 3012.21 105.289 3003.5L103.511 3002.59ZM84.6875 3022.39C76.6048 3027.21 66.8566 3029.64 55.4 3029.64V3031.64C67.1434 3031.64 77.2618 3029.15 85.7125 3024.1L84.6875 3022.39ZM55.4 3029.64C54.2352 3029.64 52.864 3029.58 51.283 3029.45L51.117 3031.44C52.736 3031.58 54.1648 3031.64 55.4 3031.64V3029.64ZM51.2905 3029.45C49.8266 3029.31 48.4296 3029.18 47.0995 3029.05L46.9005 3031.04C48.2371 3031.17 49.6401 3031.31 51.1095 3031.44L51.2905 3029.45ZM48 3030.04V2942.64H46V3030.04H48ZM47 2943.64H65.2V2941.64H47V2943.64ZM64.2 2942.64V3013.64H66.2V2942.64H64.2ZM66.1119 3013.23L60.7119 3001.23L58.8881 3002.05L64.2881 3014.05L66.1119 3013.23ZM59.8 3002.64C65.5365 3002.64 70.5747 3001.48 74.8808 2999.12L73.9192 2997.37C69.9586 2999.54 65.2635 3000.64 59.8 3000.64V3002.64ZM74.8808 2999.12C79.1727 2996.77 82.5094 2993.5 84.87 2989.34L83.13 2988.35C80.9573 2992.18 77.894 2995.19 73.9192 2997.37L74.8808 2999.12ZM84.8575 2989.36C87.3635 2985.18 88.6 2980.33 88.6 2974.84H86.6C86.6 2980.02 85.4365 2984.51 83.1425 2988.33L84.8575 2989.36ZM88.6 2974.84C88.6 2969.35 87.3633 2964.44 84.8648 2960.14L83.1352 2961.15C85.4367 2965.11 86.6 2969.67 86.6 2974.84H88.6ZM84.87 2960.15C82.5047 2955.98 79.0949 2952.71 74.6692 2950.36L73.7309 2952.13C77.8385 2954.31 80.962 2957.31 83.13 2961.14L84.87 2960.15ZM74.6808 2950.37C70.3714 2948 65.2653 2946.84 59.4 2946.84V2948.84C65.0013 2948.84 69.7619 2949.95 73.7192 2952.12L74.6808 2950.37ZM59.4 2946.84H54.6V2948.84H59.4V2946.84ZM54.6 2946.84C48.5851 2946.84 43.2131 2948.14 38.5122 2950.77L39.4878 2952.52C43.8536 2950.08 48.8816 2948.84 54.6 2948.84V2946.84ZM38.4817 2950.79C33.9204 2953.55 30.3935 2957.36 27.9107 2962.19L29.6893 2963.1C32.0065 2958.6 35.2796 2955.07 39.5183 2952.5L38.4817 2950.79ZM27.8958 2962.22C25.5544 2967.17 24.4 2972.93 24.4 2979.44H26.4C26.4 2973.16 27.5123 2967.71 29.7042 2963.07L27.8958 2962.22ZM24.4 2979.44C24.4 2985.28 25.2813 2990.41 27.0735 2994.82L28.9265 2994.07C27.252 2989.95 26.4 2985.08 26.4 2979.44H24.4ZM27.0696 2994.81C28.8536 2999.34 31.5275 3003.45 35.0797 3007.14L36.5203 3005.75C33.1392 3002.24 30.6131 2998.35 28.9304 2994.08L27.0696 2994.81ZM35.1221 3005.71L17.1221 3022.31L18.4779 3023.78L36.4779 3007.18L35.1221 3005.71ZM18.461 3022.29C12.9855 3017.47 8.73817 3011.4 5.72502 3004.06L3.87498 3004.82C6.99516 3012.42 11.4145 3018.75 17.139 3023.79L18.461 3022.29ZM5.73075 3004.08C2.8518 2996.75 1.4 2988.28 1.4 2978.64H-0.6C-0.6 2988.48 0.881538 2997.2 3.86925 3004.81L5.73075 3004.08ZM7.2 3126.86L6.33257 3126.36L6.32652 3126.37L7.2 3126.86ZM26.6 3107.46L26.1084 3106.59L26.0979 3106.59L26.6 3107.46ZM85.2 3107.46L85.7022 3106.59L85.6916 3106.59L85.2 3107.46ZM104.4 3126.86L105.273 3126.37L105.273 3126.37L104.4 3126.86ZM105.2 3178.06L106.062 3178.56L106.062 3178.56L105.2 3178.06ZM87 3193.86L87.4172 3194.77L87.4172 3194.77L87 3193.86ZM24.6 3194.06L24.1952 3194.97L24.2007 3194.97L24.6 3194.06ZM6.4 3178.46L7.26197 3177.95L7.25749 3177.94L6.4 3178.46ZM29.6 3173.46L30.4648 3172.95L30.4648 3172.95L29.6 3173.46ZM39.8 3183.26L40.2878 3182.38L40.2789 3182.38L39.8 3183.26ZM71.8 3183.26L71.3211 3182.38L71.311 3182.38L71.301 3182.39L71.8 3183.26ZM82 3173.46L81.1352 3172.95L81.1352 3172.95L82 3173.46ZM82 3145.66L81.1352 3146.16L81.1352 3146.16L82 3145.66ZM71.8 3135.66L72.299 3134.79L72.289 3134.78L72.2789 3134.78L71.8 3135.66ZM39.8 3135.66L39.3321 3134.77L39.3164 3134.78L39.301 3134.79L39.8 3135.66ZM29.6 3145.66L30.4648 3146.16L30.4648 3146.16L29.6 3145.66ZM2 3187.86V3186.86H1V3187.86H2ZM24 3187.86L24.0187 3186.86L24.0094 3186.86H24V3187.86ZM56 3188.46L55.9813 3189.46L56.022 3189.46L56.0628 3189.45L56 3188.46ZM87.8 3186.46V3185.46H87.7686L87.7372 3185.46L87.8 3186.46ZM150.4 3186.46H151.4V3185.46H150.4V3186.46ZM150.4 3217.66V3218.66H151.4V3217.66H150.4ZM2 3217.66H1V3218.66H2V3217.66ZM1.4 3154.26C1.4 3144.28 3.63033 3135.31 8.07348 3127.34L6.32652 3126.37C1.70301 3134.66 -0.6 3143.97 -0.6 3154.26H1.4ZM8.06737 3127.35C12.6449 3119.38 18.9842 3113.03 27.1021 3108.32L26.0979 3106.59C17.6824 3111.48 11.0885 3118.07 6.33263 3126.36L8.06737 3127.35ZM27.0916 3108.33C35.1833 3103.76 44.7411 3101.46 55.8 3101.46V3099.46C44.4589 3099.46 34.55 3101.82 26.1084 3106.59L27.0916 3108.33ZM55.8 3101.46C66.9945 3101.46 76.6184 3103.76 84.7084 3108.33L85.6916 3106.59C77.2483 3101.82 67.2722 3099.46 55.8 3099.46V3101.46ZM84.6979 3108.32C92.8134 3113.03 99.0832 3119.37 103.527 3127.34L105.273 3126.37C100.65 3118.07 94.12 3111.48 85.7021 3106.59L84.6979 3108.32ZM103.527 3127.34C107.97 3135.31 110.2 3144.28 110.2 3154.26H112.2C112.2 3143.97 109.897 3134.66 105.273 3126.37L103.527 3127.34ZM110.2 3154.26C110.2 3163.17 108.235 3170.92 104.338 3177.55L106.062 3178.56C110.165 3171.59 112.2 3163.47 112.2 3154.26H110.2ZM104.338 3177.55C100.455 3184.15 94.5562 3189.29 86.5828 3192.95L87.4172 3194.77C95.7105 3190.96 101.945 3185.56 106.062 3178.56L104.338 3177.55ZM86.5828 3192.95C78.623 3196.6 68.3783 3198.46 55.8 3198.46V3200.46C68.555 3200.46 79.1104 3198.58 87.4172 3194.77L86.5828 3192.95ZM55.8 3198.46C43.354 3198.46 33.101 3196.67 24.9993 3193.14L24.2007 3194.97C32.6323 3198.64 43.1793 3200.46 55.8 3200.46V3198.46ZM25.0047 3193.14C17.0373 3189.62 11.1426 3184.55 7.26193 3177.95L5.53807 3178.96C9.65738 3185.97 15.8961 3191.3 24.1953 3194.97L25.0047 3193.14ZM7.25749 3177.94C3.36914 3171.46 1.4 3163.58 1.4 3154.26H-0.6C-0.6 3163.86 1.43086 3172.12 5.54251 3178.97L7.25749 3177.94ZM25 3159.66C25 3164.89 26.2413 3169.66 28.7352 3173.96L30.4648 3172.95C28.1587 3168.98 27 3164.56 27 3159.66H25ZM28.7352 3173.96C31.2316 3178.26 34.7687 3181.65 39.3211 3184.13L40.2789 3182.38C36.0313 3180.06 32.7684 3176.92 30.4648 3172.95L28.7352 3173.96ZM39.3122 3184.13C44.0195 3186.76 49.5269 3188.06 55.8 3188.06V3186.06C49.8064 3186.06 44.6471 3184.82 40.2878 3182.38L39.3122 3184.13ZM55.8 3188.06C62.2011 3188.06 67.7154 3186.76 72.299 3184.12L71.301 3182.39C67.0846 3184.82 61.9322 3186.06 55.8 3186.06V3188.06ZM72.2789 3184.13C76.8313 3181.65 80.3684 3178.26 82.8648 3173.96L81.1352 3172.95C78.8316 3176.92 75.5687 3180.06 71.3211 3182.38L72.2789 3184.13ZM82.8648 3173.96C85.3587 3169.66 86.6 3164.89 86.6 3159.66H84.6C84.6 3164.56 83.4413 3168.98 81.1352 3172.95L82.8648 3173.96ZM86.6 3159.66C86.6 3154.3 85.3611 3149.45 82.8648 3145.15L81.1352 3146.16C83.439 3150.13 84.6 3154.62 84.6 3159.66H86.6ZM82.8648 3145.15C80.3714 3140.86 76.8409 3137.4 72.299 3134.79L71.301 3136.52C75.5591 3138.97 78.8286 3142.19 81.1352 3146.16L82.8648 3145.15ZM72.2789 3134.78C67.6996 3132.28 62.1928 3131.06 55.8 3131.06V3133.06C61.9405 3133.06 67.1004 3134.23 71.3211 3136.53L72.2789 3134.78ZM55.8 3131.06C49.5353 3131.06 44.0353 3132.28 39.3321 3134.77L40.2679 3136.54C44.6314 3134.23 49.798 3133.06 55.8 3133.06V3131.06ZM39.301 3134.79C34.7591 3137.4 31.2286 3140.86 28.7352 3145.15L30.4648 3146.16C32.7714 3142.19 36.0409 3138.97 40.299 3136.52L39.301 3134.79ZM28.7352 3145.15C26.2389 3149.45 25 3154.3 25 3159.66H27C27 3154.62 28.1611 3150.13 30.4648 3146.16L28.7352 3145.15ZM2 3188.86H24V3186.86H2V3188.86ZM23.9813 3188.86L55.9813 3189.46L56.0187 3187.46L24.0187 3186.86L23.9813 3188.86ZM56.0628 3189.45L87.8628 3187.45L87.7372 3185.46L55.9372 3187.46L56.0628 3189.45ZM87.8 3187.46H150.4V3185.46H87.8V3187.46ZM149.4 3186.46V3217.66H151.4V3186.46H149.4ZM150.4 3216.66H2V3218.66H150.4V3216.66ZM3 3217.66V3187.86H1V3217.66H3ZM7.6 3267.13L6.72209 3266.65L6.71911 3266.66L7.6 3267.13ZM27.2 3246.13L26.6835 3245.28L26.6755 3245.28L26.6675 3245.29L27.2 3246.13ZM84.4 3246.13L84.9264 3245.28L84.9226 3245.28L84.4 3246.13ZM104 3267.13L103.117 3267.6L103.119 3267.61L104 3267.13ZM104 3328.13L103.119 3327.66L103.114 3327.67L104 3328.13ZM27.2 3349.13L26.6774 3349.99L26.6835 3349.99L27.2 3349.13ZM7.6 3328.13L8.48089 3327.66L8.48089 3327.66L7.6 3328.13ZM29.6 3311.73L28.7352 3312.23L28.7352 3312.23L29.6 3311.73ZM39.8 3321.53L39.3211 3322.41L39.3321 3322.42L39.8 3321.53ZM71.8 3321.53L71.3211 3320.65L71.3211 3320.65L71.8 3321.53ZM82 3311.73L81.1352 3311.23L81.1352 3311.23L82 3311.73ZM82 3283.73L81.1352 3284.23L81.1352 3284.23L82 3283.73ZM71.8 3273.73L72.299 3272.87L72.289 3272.86L72.2789 3272.85L71.8 3273.73ZM39.8 3273.73L39.3321 3272.85L39.3164 3272.86L39.301 3272.87L39.8 3273.73ZM29.6 3283.73L30.4648 3284.23L30.4648 3284.23L29.6 3283.73ZM1.4 3297.73C1.4 3286.41 3.76881 3276.38 8.48089 3267.61L6.71911 3266.66C1.83119 3275.76 -0.6 3286.12 -0.6 3297.73H1.4ZM8.4779 3267.61C13.1983 3258.96 19.6144 3252.09 27.7325 3246.98L26.6675 3245.29C18.2523 3250.58 11.6017 3257.71 6.7221 3266.65L8.4779 3267.61ZM27.7165 3246.99C35.9471 3242.02 45.2989 3239.53 55.8 3239.53V3237.53C44.9678 3237.53 35.2529 3240.11 26.6835 3245.28L27.7165 3246.99ZM55.8 3239.53C66.4372 3239.53 75.7855 3242.03 83.8774 3246.99L84.9226 3245.28C76.4812 3240.11 66.7628 3237.53 55.8 3237.53V3239.53ZM83.8737 3246.98C92.1216 3252.09 98.5322 3258.96 103.117 3267.6L104.883 3266.66C100.134 3257.71 93.4784 3250.58 84.9264 3245.28L83.8737 3246.98ZM103.119 3267.61C107.831 3276.38 110.2 3286.41 110.2 3297.73H112.2C112.2 3286.12 109.769 3275.76 104.881 3266.66L103.119 3267.61ZM110.2 3297.73C110.2 3308.92 107.832 3318.89 103.119 3327.66L104.881 3328.61C109.768 3319.51 112.2 3309.21 112.2 3297.73H110.2ZM103.114 3327.67C98.5273 3336.45 92.1836 3343.31 84.0774 3348.28L85.1226 3349.99C93.5498 3344.82 100.139 3337.68 104.886 3328.6L103.114 3327.67ZM84.0774 3348.28C75.9874 3353.24 66.573 3355.73 55.8 3355.73V3357.73C66.8936 3357.73 76.6793 3355.16 85.1226 3349.99L84.0774 3348.28ZM55.8 3355.73C45.2989 3355.73 35.9471 3353.24 27.7165 3348.28L26.6835 3349.99C35.2529 3355.16 44.9678 3357.73 55.8 3357.73V3355.73ZM27.7226 3348.28C19.6139 3343.31 13.2011 3336.44 8.48089 3327.66L6.71911 3328.61C11.5989 3337.69 18.2528 3344.82 26.6774 3349.99L27.7226 3348.28ZM8.48089 3327.66C3.76792 3318.89 1.4 3308.92 1.4 3297.73H-0.6C-0.6 3309.21 1.83208 3319.51 6.71911 3328.61L8.48089 3327.66ZM25 3297.73C25 3303.09 26.2389 3307.94 28.7352 3312.23L30.4648 3311.23C28.1611 3307.26 27 3302.77 27 3297.73H25ZM28.7352 3312.23C31.2316 3316.53 34.7687 3319.93 39.3211 3322.41L40.2789 3320.65C36.0313 3318.34 32.7684 3315.2 30.4648 3311.23L28.7352 3312.23ZM39.3321 3322.42C44.0353 3324.91 49.5353 3326.13 55.8 3326.13V3324.13C49.798 3324.13 44.6314 3322.96 40.2679 3320.65L39.3321 3322.42ZM55.8 3326.13C62.1928 3326.13 67.6996 3324.91 72.2789 3322.41L71.3211 3320.65C67.1004 3322.96 61.9405 3324.13 55.8 3324.13V3326.13ZM72.2789 3322.41C76.8313 3319.93 80.3684 3316.53 82.8648 3312.23L81.1352 3311.23C78.8316 3315.2 75.5687 3318.34 71.3211 3320.65L72.2789 3322.41ZM82.8648 3312.23C85.3611 3307.94 86.6 3303.09 86.6 3297.73H84.6C84.6 3302.77 83.439 3307.26 81.1352 3311.23L82.8648 3312.23ZM86.6 3297.73C86.6 3292.37 85.3611 3287.53 82.8648 3283.23L81.1352 3284.23C83.439 3288.2 84.6 3292.69 84.6 3297.73H86.6ZM82.8648 3283.23C80.3714 3278.94 76.8409 3275.48 72.299 3272.87L71.301 3274.6C75.5591 3277.05 78.8286 3280.26 81.1352 3284.23L82.8648 3283.23ZM72.2789 3272.85C67.6996 3270.36 62.1928 3269.13 55.8 3269.13V3271.13C61.9405 3271.13 67.1004 3272.31 71.3211 3274.61L72.2789 3272.85ZM55.8 3269.13C49.5353 3269.13 44.0353 3270.36 39.3321 3272.85L40.2679 3274.62C44.6314 3272.31 49.798 3271.13 55.8 3271.13V3269.13ZM39.301 3272.87C34.7591 3275.48 31.2286 3278.94 28.7352 3283.23L30.4648 3284.23C32.7714 3280.26 36.0409 3277.05 40.299 3274.6L39.301 3272.87ZM28.7352 3283.23C26.2389 3287.53 25 3292.37 25 3297.73H27C27 3292.69 28.1611 3288.2 30.4648 3284.23L28.7352 3283.23ZM50.6 3397.8V3396.8H49.6V3397.8H50.6ZM63 3400L63.4061 3399.08L63.3918 3399.08L63.3773 3399.07L63 3400ZM72.6 3405.8L73.2508 3405.04L73.2401 3405.03L73.2292 3405.02L72.6 3405.8ZM87.2 3420.8L86.4718 3421.48L86.473 3421.49L87.2 3420.8ZM94.2 3426.6L94.7547 3425.77L94.7383 3425.76L94.7215 3425.75L94.2 3426.6ZM113.8 3423L113.003 3422.39L112.998 3422.4L112.994 3422.41L113.8 3423ZM114.2 3390.6L113.31 3391.06L113.315 3391.06L113.32 3391.07L114.2 3390.6ZM103.4 3378.4L102.538 3377.89L102.066 3378.7L102.834 3379.22L103.4 3378.4ZM117.6 3354.2L118.148 3353.36L117.269 3352.79L116.738 3353.69L117.6 3354.2ZM137 3376.4L136.108 3376.85L136.113 3376.86L137 3376.4ZM140 3437.2L139.067 3436.84L139.064 3436.85L139.062 3436.85L140 3437.2ZM127.6 3455L126.985 3454.21L126.979 3454.21L126.973 3454.22L127.6 3455ZM93.6 3459.2L93.2286 3460.13L93.2286 3460.13L93.6 3459.2ZM83.2 3453L83.8536 3452.24L83.2 3453ZM75 3444.8L75.7568 3444.14L75.7493 3444.14L75.7415 3444.13L75 3444.8ZM67.6 3436.8L66.874 3437.49L66.874 3437.49L67.6 3436.8ZM60 3430.4L60.545 3429.56L60.5299 3429.55L60.5145 3429.54L60 3430.4ZM50.6 3428H49.6V3429H50.6V3428ZM5.8 3399.2L5.09289 3398.49L5.09289 3398.49L5.8 3399.2ZM31.2 3399.2L30.4662 3399.88L30.4729 3399.89L30.4797 3399.89L31.2 3399.2ZM31.2 3426.8L30.4929 3426.09L30.4793 3426.1L30.4662 3426.12L31.2 3426.8ZM5.8 3426.8L6.50711 3426.09L6.50044 3426.08L6.49364 3426.08L5.8 3426.8ZM50.6 3398.8C55.1627 3398.8 59.1639 3399.52 62.6227 3400.92L63.3773 3399.07C59.6361 3397.55 55.3707 3396.8 50.6 3396.8V3398.8ZM62.5939 3400.91C66.1213 3402.48 69.2449 3404.37 71.9708 3406.58L73.2292 3405.02C70.3551 3402.69 67.0787 3400.72 63.4061 3399.08L62.5939 3400.91ZM71.9492 3406.56C74.7174 3408.93 77.2864 3411.43 79.6567 3414.07L81.1433 3412.73C78.7137 3410.03 76.0826 3407.47 73.2508 3405.04L71.9492 3406.56ZM79.6567 3414.07C82.061 3416.74 84.3327 3419.21 86.4718 3421.48L87.9282 3420.11C85.8007 3417.85 83.5391 3415.39 81.1433 3412.73L79.6567 3414.07ZM86.473 3421.49C88.7902 3423.94 91.1912 3425.93 93.6786 3427.45L94.7215 3425.75C92.4088 3424.33 90.1431 3422.46 87.927 3420.11L86.473 3421.49ZM93.6453 3427.43C96.2125 3429.14 99.0728 3430 102.2 3430V3428C99.4605 3428 96.9875 3427.25 94.7547 3425.77L93.6453 3427.43ZM102.2 3430C107.331 3430 111.492 3427.84 114.606 3423.59L112.994 3422.41C110.241 3426.16 106.669 3428 102.2 3428V3430ZM114.597 3423.6C117.701 3419.51 119.2 3414.08 119.2 3407.4H117.2C117.2 3413.79 115.766 3418.75 113.003 3422.39L114.597 3423.6ZM119.2 3407.4C119.2 3400.99 117.834 3395.22 115.08 3390.12L113.32 3391.07C115.899 3395.84 117.2 3401.28 117.2 3407.4H119.2ZM115.09 3390.14C112.479 3385.06 108.766 3380.87 103.966 3377.57L102.834 3379.22C107.367 3382.33 110.855 3386.27 113.31 3391.06L115.09 3390.14ZM104.262 3378.9L118.462 3354.7L116.738 3353.69L102.538 3377.89L104.262 3378.9ZM117.052 3355.03C125.026 3360.26 131.38 3367.53 136.108 3376.85L137.892 3375.95C133.02 3366.34 126.441 3358.8 118.148 3353.36L117.052 3355.03ZM136.113 3376.86C140.955 3386.15 143.4 3397.45 143.4 3410.8H145.4C145.4 3397.21 142.911 3385.58 137.887 3375.94L136.113 3376.86ZM143.4 3410.8C143.4 3420.7 141.947 3429.38 139.067 3436.84L140.933 3437.56C143.919 3429.82 145.4 3420.89 145.4 3410.8H143.4ZM139.062 3436.85C136.315 3444.31 132.281 3450.08 126.985 3454.21L128.215 3455.79C133.852 3451.39 138.085 3445.29 140.938 3437.54L139.062 3436.85ZM126.973 3454.22C121.709 3458.46 115.206 3460.6 107.4 3460.6V3462.6C115.594 3462.6 122.558 3460.34 128.227 3455.78L126.973 3454.22ZM107.4 3460.6C102.302 3460.6 97.8316 3459.81 93.9714 3458.27L93.2286 3460.13C97.3684 3461.78 102.098 3462.6 107.4 3462.6V3460.6ZM93.9714 3458.27C90.0629 3456.71 86.6942 3454.69 83.8536 3452.24L82.5464 3453.76C85.5724 3456.37 89.1371 3458.49 93.2286 3460.13L93.9714 3458.27ZM83.8536 3452.24C80.9572 3449.74 78.2583 3447.04 75.7568 3444.14L74.2432 3445.45C76.8084 3448.42 79.5762 3451.19 82.5464 3453.76L83.8536 3452.24ZM75.7415 3444.13C73.2035 3441.32 70.7316 3438.65 68.326 3436.11L66.874 3437.49C69.2684 3440.01 71.7299 3442.67 74.2585 3445.47L75.7415 3444.13ZM68.326 3436.11C65.877 3433.53 63.2837 3431.34 60.545 3429.56L59.455 3431.24C62.0496 3432.92 64.523 3435 66.874 3437.49L68.326 3436.11ZM60.5145 3429.54C57.6693 3427.83 54.3522 3427 50.6 3427V3429C54.0478 3429 56.9974 3429.76 59.4855 3431.26L60.5145 3429.54ZM51.6 3428V3397.8H49.6V3428H51.6ZM1.4 3413C1.4 3407.63 3.11428 3403.3 6.50711 3399.91L5.09289 3398.49C1.28572 3402.3 -0.6 3407.16 -0.6 3413H1.4ZM6.50711 3399.91C9.92628 3396.49 13.9412 3394.8 18.6 3394.8V3392.8C13.3921 3392.8 8.87372 3394.71 5.09289 3398.49L6.50711 3399.91ZM18.6 3394.8C23.3984 3394.8 27.3291 3396.49 30.4662 3399.88L31.9338 3398.52C28.4043 3394.71 23.9349 3392.8 18.6 3392.8V3394.8ZM30.4797 3399.89C33.7447 3403.28 35.4 3407.62 35.4 3413H37.4C37.4 3407.17 35.5886 3402.31 31.9203 3398.5L30.4797 3399.89ZM35.4 3413C35.4 3418.52 33.7403 3422.84 30.4929 3426.09L31.9071 3427.51C35.593 3423.82 37.4 3418.95 37.4 3413H35.4ZM30.4662 3426.12C27.3291 3429.51 23.3984 3431.2 18.6 3431.2V3433.2C23.9349 3433.2 28.4043 3431.29 31.9338 3427.48L30.4662 3426.12ZM18.6 3431.2C13.9412 3431.2 9.92628 3429.51 6.50711 3426.09L5.09289 3427.51C8.87372 3431.29 13.3921 3433.2 18.6 3433.2V3431.2ZM6.49364 3426.08C3.11877 3422.83 1.4 3418.5 1.4 3413H-0.6C-0.6 3418.96 1.28123 3423.84 5.10636 3427.52L6.49364 3426.08Z" fill="#D0D0D0" mask="url(#path-1-outside-1_422_3)"/>
</svg>
