<svg width="226" height="226" viewBox="0 0 226 226" fill="none" xmlns="http://www.w3.org/2000/svg">
<path d="M179.908 108.261H184.829L187.537 115.113L189.986 109.462H188.102V108.261H193V109.462H191.351L186.642 120.482C186.501 120.827 186.344 121.133 186.171 121.4C186.014 121.682 185.826 121.918 185.606 122.106C185.402 122.31 185.151 122.459 184.853 122.554C184.57 122.664 184.225 122.718 183.817 122.718C183.377 122.718 183.024 122.64 182.757 122.483C182.506 122.342 182.31 122.161 182.169 121.941C182.027 121.737 181.933 121.518 181.886 121.282C181.855 121.062 181.839 120.866 181.839 120.694V119.987H183.087V120.717C183.087 120.905 183.134 121.086 183.228 121.259C183.338 121.431 183.534 121.518 183.817 121.518C184.241 121.518 184.562 121.369 184.782 121.07C185.018 120.772 185.222 120.419 185.394 120.011L185.653 119.399L181.085 109.462H179.908V108.261Z" fill="#A8A8A8"/>
<path d="M167.01 108.686H168.399L171.954 108.003V109.651C171.986 109.604 172.072 109.494 172.213 109.321C172.355 109.149 172.567 108.976 172.849 108.803C173.132 108.615 173.5 108.45 173.956 108.309C174.411 108.168 174.968 108.097 175.627 108.097C175.988 108.097 176.35 108.129 176.711 108.191C177.087 108.254 177.425 108.372 177.723 108.544C178.037 108.701 178.288 108.921 178.476 109.204C178.665 109.486 178.759 109.855 178.759 110.31V117.633H180.148V118.834H175.039V109.557C175.007 109.557 174.96 109.549 174.898 109.533C174.772 109.502 174.599 109.486 174.38 109.486C174.05 109.486 173.752 109.557 173.485 109.698C173.234 109.824 173.014 109.973 172.826 110.146C172.637 110.318 172.48 110.499 172.355 110.687C172.245 110.86 172.166 110.993 172.119 111.087V117.633H173.508V118.834H167.01V117.633H168.399V109.863H167.01V108.686Z" fill="#A8A8A8"/>
<path d="M164.713 117.656H165.019C165.16 117.656 165.302 117.648 165.443 117.633L165.961 117.586V118.716C165.678 118.763 165.404 118.802 165.137 118.833C164.917 118.865 164.682 118.888 164.43 118.904C164.179 118.92 163.975 118.928 163.818 118.928C163.049 118.928 162.468 118.786 162.076 118.504C161.683 118.221 161.401 117.915 161.228 117.586C160.883 118.025 160.483 118.378 160.027 118.645C159.588 118.896 159.078 119.022 158.497 119.022C157.43 119.022 156.637 118.826 156.119 118.433C155.601 118.025 155.342 117.327 155.342 116.338C155.342 115.992 155.342 115.663 155.342 115.349C155.357 115.035 155.381 114.76 155.412 114.525C155.444 114.242 155.475 113.991 155.507 113.771L160.969 112.429C160.954 111.974 160.938 111.558 160.922 111.181C160.906 110.789 160.891 110.459 160.875 110.192C160.844 109.878 160.82 109.596 160.804 109.345C160.757 109.329 160.687 109.313 160.592 109.298C160.514 109.282 160.396 109.266 160.239 109.25C160.082 109.235 159.894 109.227 159.674 109.227C159.533 109.227 159.399 109.235 159.274 109.25C159.148 109.25 159.023 109.258 158.897 109.274C158.85 109.494 158.772 109.761 158.662 110.075C158.552 110.373 158.379 110.663 158.144 110.946C157.908 111.213 157.594 111.448 157.202 111.652C156.825 111.84 156.339 111.935 155.742 111.935V108.379C156.244 108.332 156.755 108.285 157.273 108.238C157.728 108.207 158.214 108.175 158.732 108.144C159.25 108.112 159.753 108.097 160.239 108.097C161.26 108.097 162.06 108.183 162.641 108.356C163.237 108.528 163.685 108.827 163.983 109.25C164.297 109.674 164.493 110.239 164.572 110.946C164.666 111.652 164.713 112.531 164.713 113.583V117.656ZM159.25 117.75C159.564 117.672 159.863 117.476 160.145 117.162C160.443 116.832 160.726 116.44 160.993 115.984V113.489L159.203 113.983C159.172 114.234 159.148 114.493 159.133 114.76C159.117 115.011 159.109 115.262 159.109 115.514C159.109 115.827 159.109 116.118 159.109 116.385C159.125 116.652 159.148 116.887 159.18 117.091C159.195 117.327 159.219 117.546 159.25 117.75Z" fill="#A8A8A8"/>
<path d="M141.141 108.686H142.53L146.085 108.003V109.486C146.54 109.062 147.043 108.733 147.592 108.497C148.142 108.246 148.722 108.121 149.334 108.121C149.978 108.121 150.551 108.223 151.053 108.427C151.556 108.615 151.972 108.929 152.301 109.369C152.647 109.792 152.906 110.357 153.078 111.064C153.251 111.755 153.337 112.594 153.337 113.583C153.337 114.588 153.243 115.443 153.055 116.15C152.866 116.84 152.552 117.405 152.113 117.845C151.673 118.269 151.1 118.575 150.394 118.763C149.703 118.952 148.856 119.046 147.851 119.046C147.569 119.046 147.294 119.03 147.027 118.999C146.76 118.967 146.501 118.936 146.25 118.905V122.719H141.141V121.518H142.53V109.863H141.141V108.686ZM149.052 109.392C148.534 109.392 148.032 109.557 147.545 109.887C147.058 110.216 146.627 110.624 146.25 111.111V117.774C146.517 117.853 146.792 117.908 147.074 117.939C147.357 117.971 147.616 117.986 147.851 117.986C148.228 117.986 148.526 117.963 148.746 117.916C148.871 117.9 148.973 117.876 149.052 117.845C149.13 117.484 149.201 117.084 149.264 116.644C149.311 116.267 149.358 115.82 149.405 115.302C149.452 114.768 149.476 114.195 149.476 113.583C149.476 112.83 149.452 112.194 149.405 111.676C149.358 111.142 149.311 110.703 149.264 110.357C149.201 109.949 149.13 109.628 149.052 109.392Z" fill="#A8A8A8"/>
<path d="M121.115 108.686H122.504L126.06 108.003V109.58C126.123 109.486 126.232 109.353 126.389 109.18C126.562 109.008 126.782 108.843 127.049 108.686C127.316 108.529 127.637 108.395 128.014 108.285C128.407 108.16 128.862 108.097 129.38 108.097C129.678 108.097 129.984 108.121 130.298 108.168C130.612 108.215 130.902 108.293 131.169 108.403C131.452 108.513 131.703 108.662 131.923 108.851C132.142 109.039 132.299 109.282 132.394 109.58C132.441 109.518 132.535 109.408 132.676 109.251C132.817 109.078 133.014 108.906 133.265 108.733C133.532 108.56 133.861 108.411 134.254 108.285C134.646 108.16 135.117 108.097 135.666 108.097C136.027 108.097 136.388 108.129 136.749 108.191C137.126 108.254 137.464 108.372 137.762 108.544C138.076 108.701 138.327 108.921 138.515 109.204C138.704 109.486 138.798 109.855 138.798 110.31V117.633H140.187V118.834H135.078V109.557L135.007 109.533C134.976 109.518 134.929 109.51 134.866 109.51C134.803 109.494 134.709 109.486 134.583 109.486C134.316 109.486 134.065 109.557 133.83 109.698C133.61 109.839 133.406 110.004 133.218 110.193C133.045 110.365 132.896 110.546 132.77 110.734C132.645 110.907 132.558 111.032 132.511 111.111V117.633H133.9V118.834H128.791V109.557L128.72 109.533C128.689 109.518 128.642 109.51 128.579 109.51C128.516 109.494 128.422 109.486 128.297 109.486C128.03 109.486 127.779 109.557 127.543 109.698C127.323 109.839 127.119 110.004 126.931 110.193C126.758 110.365 126.609 110.546 126.484 110.734C126.358 110.907 126.272 111.032 126.225 111.111V117.633H127.614V118.834H121.115V117.633H122.504V109.863H121.115V108.686Z" fill="#A8A8A8"/>
<path d="M112.471 113.583C112.471 114.195 112.487 114.768 112.518 115.302C112.565 115.82 112.62 116.267 112.683 116.644C112.746 117.099 112.816 117.507 112.895 117.868C112.973 117.899 113.075 117.923 113.201 117.939C113.405 117.986 113.703 118.009 114.095 118.009C114.472 118.009 114.77 117.986 114.99 117.939C115.116 117.923 115.218 117.899 115.296 117.868C115.375 117.507 115.445 117.099 115.508 116.644C115.555 116.267 115.602 115.82 115.65 115.302C115.697 114.768 115.72 114.195 115.72 113.583C115.72 112.971 115.697 112.406 115.65 111.888C115.602 111.37 115.555 110.914 115.508 110.522C115.445 110.082 115.375 109.674 115.296 109.298C115.202 109.282 115.092 109.258 114.967 109.227C114.857 109.211 114.723 109.195 114.566 109.18C114.425 109.164 114.268 109.156 114.095 109.156C113.891 109.156 113.719 109.164 113.577 109.18C113.436 109.195 113.311 109.211 113.201 109.227C113.075 109.258 112.973 109.282 112.895 109.298C112.816 109.674 112.746 110.082 112.683 110.522C112.62 110.914 112.565 111.37 112.518 111.888C112.487 112.406 112.471 112.971 112.471 113.583ZM108.609 113.583C108.609 112.578 108.704 111.731 108.892 111.04C109.08 110.334 109.394 109.768 109.834 109.345C110.273 108.905 110.838 108.591 111.529 108.403C112.22 108.199 113.075 108.097 114.095 108.097C115.1 108.097 115.948 108.199 116.638 108.403C117.345 108.591 117.918 108.905 118.357 109.345C118.797 109.768 119.111 110.334 119.299 111.04C119.487 111.731 119.582 112.578 119.582 113.583C119.582 114.587 119.487 115.443 119.299 116.149C119.111 116.84 118.797 117.405 118.357 117.845C117.918 118.268 117.345 118.582 116.638 118.786C115.948 118.975 115.1 119.069 114.095 119.069C113.075 119.069 112.22 118.975 111.529 118.786C110.838 118.582 110.273 118.268 109.834 117.845C109.394 117.405 109.08 116.84 108.892 116.149C108.704 115.443 108.609 114.587 108.609 113.583Z" fill="#A8A8A8"/>
<path d="M106.459 109.156C105.486 109.156 104.717 108.968 104.152 108.591C103.587 108.215 103.155 107.791 102.857 107.32C102.574 106.849 102.386 106.402 102.292 105.978C102.197 105.554 102.15 105.287 102.15 105.177C101.883 105.193 101.64 105.209 101.42 105.224C101.216 105.24 101.044 105.264 100.902 105.295C100.73 105.326 100.581 105.358 100.455 105.389C100.314 105.939 100.196 106.543 100.102 107.202C100.023 107.767 99.9448 108.427 99.8663 109.18C99.8036 109.933 99.7722 110.734 99.7722 111.582C99.7722 112.445 99.8036 113.253 99.8663 114.007C99.9448 114.745 100.023 115.396 100.102 115.961C100.196 116.62 100.314 117.233 100.455 117.798C100.549 117.829 100.675 117.86 100.832 117.892C101.083 117.939 101.483 117.963 102.033 117.963C102.551 117.963 103.021 117.908 103.445 117.798C103.885 117.672 104.262 117.484 104.575 117.233C104.889 116.966 105.133 116.628 105.305 116.22C105.494 115.796 105.588 115.294 105.588 114.713V113.983H106.954V114.643C106.954 115.443 106.82 116.134 106.553 116.715C106.286 117.28 105.925 117.751 105.47 118.127C105.015 118.488 104.489 118.755 103.893 118.928C103.312 119.101 102.692 119.187 102.033 119.187C100.902 119.187 99.9213 119.053 99.0893 118.787C98.2574 118.504 97.5589 118.057 96.9938 117.445C96.4444 116.832 96.0363 116.047 95.7694 115.09C95.5026 114.117 95.3691 112.947 95.3691 111.582C95.3691 110.216 95.5026 109.054 95.7694 108.097C96.052 107.139 96.4758 106.355 97.0409 105.742C97.6217 105.13 98.3516 104.691 99.2306 104.424C100.125 104.141 101.185 104 102.409 104C102.943 104 103.453 104.024 103.94 104.071C104.426 104.102 104.858 104.141 105.235 104.188C105.674 104.251 106.082 104.306 106.459 104.353V109.156Z" fill="#A8A8A8"/>
<path d="M84.5332 108.686H85.9224L89.4778 108.003V109.51C89.4935 109.463 89.5484 109.369 89.6426 109.227C89.7525 109.07 89.9173 108.913 90.137 108.756C90.3725 108.584 90.6708 108.435 91.0318 108.309C91.4085 108.168 91.8794 108.097 92.4445 108.097C92.7899 108.097 93.0567 108.105 93.2451 108.121C93.4491 108.136 93.6061 108.152 93.716 108.168C93.8416 108.183 93.92 108.199 93.9514 108.215V112.759C93.3863 112.759 92.9154 112.649 92.5387 112.429C92.162 112.21 91.8559 111.935 91.6204 111.605C91.385 111.276 91.2045 110.93 91.0789 110.569C90.9533 110.208 90.867 109.887 90.8199 109.604C90.6786 109.683 90.5452 109.792 90.4196 109.934C90.294 110.059 90.1763 110.201 90.0664 110.357C89.9722 110.499 89.8859 110.64 89.8074 110.781C89.7289 110.907 89.674 111.009 89.6426 111.087V117.633H91.0318V118.834H84.5332V117.633H85.9224V109.863H84.5332V108.686Z" fill="#A8A8A8"/>
<path d="M78.5421 108.097C79.4055 108.097 80.1197 108.183 80.6848 108.356C81.2499 108.513 81.7051 108.772 82.0504 109.133C82.3957 109.494 82.639 109.972 82.7803 110.569C82.9216 111.15 82.9922 111.872 82.9922 112.735C82.9922 113.002 82.9844 113.237 82.9687 113.442C82.953 113.63 82.9373 113.787 82.9216 113.912C82.9059 114.069 82.8902 114.187 82.8745 114.266H77.0587C77.0744 114.799 77.1058 115.286 77.1529 115.725C77.2 116.149 77.2471 116.518 77.2942 116.832C77.357 117.209 77.4198 117.538 77.4826 117.821C77.5297 117.852 77.6003 117.876 77.6945 117.892C77.773 117.907 77.8828 117.923 78.0241 117.939C78.1811 117.939 78.3773 117.939 78.6127 117.939C79.0052 117.939 79.3741 117.915 79.7194 117.868C80.0804 117.805 80.3944 117.711 80.6612 117.586C80.9281 117.46 81.1321 117.287 81.2734 117.068C81.4304 116.832 81.5089 116.55 81.5089 116.22H82.7803C82.7803 116.879 82.6312 117.397 82.333 117.774C82.0504 118.151 81.6894 118.441 81.2499 118.645C80.826 118.833 80.363 118.951 79.8607 118.998C79.3584 119.045 78.8874 119.069 78.4479 119.069C77.4904 119.069 76.6742 118.975 75.9992 118.786C75.3399 118.582 74.7984 118.268 74.3745 117.845C73.9664 117.405 73.6682 116.84 73.4798 116.149C73.2914 115.443 73.1973 114.587 73.1973 113.583C73.1973 112.578 73.2758 111.731 73.4327 111.04C73.6054 110.334 73.8958 109.768 74.3039 109.345C74.712 108.905 75.2536 108.591 75.9286 108.403C76.6192 108.199 77.4904 108.097 78.5421 108.097ZM77.4826 109.298C77.4041 109.643 77.3334 110.02 77.2707 110.428C77.2236 110.789 77.1765 111.213 77.1294 111.699C77.0823 112.17 77.0587 112.688 77.0587 113.253H79.3427C79.3113 112.594 79.272 112.021 79.2249 111.534C79.1778 111.032 79.1229 110.616 79.0601 110.286C78.9973 109.894 78.9267 109.564 78.8482 109.298C78.8011 109.282 78.7462 109.258 78.6834 109.227C78.6206 109.211 78.5421 109.195 78.4479 109.18C78.3694 109.164 78.2753 109.156 78.1654 109.156C78.0555 109.156 77.9613 109.164 77.8828 109.18C77.8044 109.195 77.7337 109.211 77.6709 109.227C77.6081 109.258 77.5453 109.282 77.4826 109.298Z" fill="#A8A8A8"/>
<path d="M59.3496 108.686H60.7388L64.2942 108.003V109.486C64.7494 109.062 65.2517 108.733 65.8011 108.497C66.3505 108.246 66.9313 108.121 67.5435 108.121C68.187 108.121 68.76 108.223 69.2623 108.427C69.7646 108.615 70.1806 108.929 70.5102 109.369C70.8556 109.792 71.1146 110.357 71.2872 111.064C71.4599 111.755 71.5462 112.594 71.5462 113.583C71.5462 114.588 71.452 115.443 71.2637 116.15C71.0753 116.84 70.7614 117.405 70.3218 117.845C69.8823 118.269 69.3094 118.575 68.603 118.763C67.9124 118.952 67.0647 119.046 66.0601 119.046C65.7776 119.046 65.5029 119.03 65.236 118.999C64.9692 118.967 64.7102 118.936 64.459 118.905V122.719H59.3496V121.518H60.7388V109.863H59.3496V108.686ZM67.2609 109.392C66.7429 109.392 66.2406 109.557 65.754 109.887C65.2674 110.216 64.8357 110.624 64.459 111.111V117.774C64.7258 117.853 65.0005 117.908 65.2831 117.939C65.5656 117.971 65.8246 117.986 66.0601 117.986C66.4368 117.986 66.7351 117.963 66.9548 117.916C67.0804 117.9 67.1824 117.876 67.2609 117.845C67.3394 117.484 67.41 117.084 67.4728 116.644C67.5199 116.267 67.567 115.82 67.6141 115.302C67.6612 114.768 67.6847 114.195 67.6847 113.583C67.6847 112.83 67.6612 112.194 67.6141 111.676C67.567 111.142 67.5199 110.703 67.4728 110.357C67.41 109.949 67.3394 109.628 67.2609 109.392Z" fill="#A8A8A8"/>
<path d="M57.1719 117.656H57.478C57.6193 117.656 57.7606 117.648 57.9018 117.633L58.4198 117.586V118.716C58.1373 118.763 57.8626 118.802 57.5957 118.833C57.376 118.865 57.1405 118.888 56.8894 118.904C56.6382 118.92 56.4342 118.928 56.2772 118.928C55.508 118.928 54.9272 118.786 54.5348 118.504C54.1424 118.221 53.8598 117.915 53.6872 117.586C53.3418 118.025 52.9416 118.378 52.4864 118.645C52.0468 118.896 51.5367 119.022 50.9559 119.022C49.8885 119.022 49.0958 118.826 48.5778 118.433C48.0598 118.025 47.8008 117.327 47.8008 116.338C47.8008 115.992 47.8008 115.663 47.8008 115.349C47.8165 115.035 47.84 114.76 47.8714 114.525C47.9028 114.242 47.9342 113.991 47.9656 113.771L53.4282 112.429C53.4125 111.974 53.3968 111.558 53.3811 111.181C53.3654 110.789 53.3497 110.459 53.334 110.192C53.3026 109.878 53.2791 109.596 53.2634 109.345C53.2163 109.329 53.1456 109.313 53.0514 109.298C52.973 109.282 52.8552 109.266 52.6983 109.25C52.5413 109.235 52.3529 109.227 52.1332 109.227C51.9919 109.227 51.8585 109.235 51.7329 109.25C51.6073 109.25 51.4817 109.258 51.3562 109.274C51.3091 109.494 51.2306 109.761 51.1207 110.075C51.0108 110.373 50.8382 110.663 50.6027 110.946C50.3672 111.213 50.0533 111.448 49.6609 111.652C49.2842 111.84 48.7975 111.935 48.2011 111.935V108.379C48.7034 108.332 49.2135 108.285 49.7315 108.238C50.1867 108.207 50.6733 108.175 51.1913 108.144C51.7093 108.112 52.2117 108.097 52.6983 108.097C53.7186 108.097 54.5191 108.183 55.0999 108.356C55.6964 108.528 56.1438 108.827 56.442 109.25C56.756 109.674 56.9522 110.239 57.0307 110.946C57.1248 111.652 57.1719 112.531 57.1719 113.583V117.656ZM51.7093 117.75C52.0233 117.672 52.3215 117.476 52.6041 117.162C52.9023 116.832 53.1849 116.44 53.4517 115.984V113.489L51.6623 113.983C51.6309 114.234 51.6073 114.493 51.5916 114.76C51.5759 115.011 51.5681 115.262 51.5681 115.514C51.5681 115.827 51.5681 116.118 51.5681 116.385C51.5838 116.652 51.6073 116.887 51.6387 117.091C51.6544 117.327 51.678 117.546 51.7093 117.75Z" fill="#A8A8A8"/>
<path d="M38.5568 104.354C38.7294 104.354 38.9178 104.354 39.1219 104.354C39.3259 104.338 39.5143 104.33 39.6869 104.33C39.8753 104.33 40.0323 104.33 40.1579 104.33C40.2991 104.314 40.3933 104.307 40.4404 104.307C42.4653 104.307 43.9644 104.636 44.9376 105.296C45.9108 105.955 46.3974 107.085 46.3974 108.686C46.3974 110.272 45.9108 111.394 44.9376 112.053C43.9801 112.712 42.481 113.042 40.4404 113.042H39.7811C39.5457 113.042 39.3024 113.034 39.0512 113.019V117.469H41.1468V118.834H33V117.469H35.0956V105.719H33V104.354H38.5568ZM40.4404 105.507C40.1736 105.507 39.9224 105.515 39.6869 105.531C39.4515 105.547 39.2396 105.57 39.0512 105.602V111.723C39.4436 111.771 39.9067 111.794 40.4404 111.794C40.8014 111.794 41.0918 111.771 41.3116 111.723C41.4372 111.708 41.547 111.684 41.6412 111.653C41.704 111.433 41.7668 111.182 41.8296 110.899C41.8767 110.648 41.9159 110.342 41.9473 109.981C41.9944 109.604 42.018 109.181 42.018 108.71C42.018 108.223 41.9944 107.791 41.9473 107.415C41.9159 107.038 41.8767 106.716 41.8296 106.449C41.7668 106.151 41.704 105.884 41.6412 105.649C41.547 105.633 41.4372 105.609 41.3116 105.578C41.2017 105.562 41.0683 105.547 40.9113 105.531C40.77 105.515 40.6131 105.507 40.4404 105.507Z" fill="#A8A8A8"/>
<path fill-rule="evenodd" clip-rule="evenodd" d="M112.947 0H113.053C114.71 0.000756979 116.052 1.34452 116.051 3.00137C116.051 4.65822 114.707 6.00076 113.05 6H112.95C111.293 6.00076 109.949 4.65822 109.949 3.00137C109.948 1.34452 111.29 0.000756979 112.947 0ZM101.659 3.53649C101.872 5.17953 100.713 6.68458 99.0702 6.89813L98.9718 6.91097C97.3289 7.12604 95.8228 5.96861 95.6077 4.32577C95.3927 2.68293 96.5501 1.1768 98.1929 0.961734L98.2969 0.948171C99.9399 0.734626 101.445 1.89346 101.659 3.53649ZM124.341 3.53649C124.555 1.89346 126.06 0.734627 127.703 0.948172L127.807 0.961734C129.45 1.1768 130.607 2.68293 130.392 4.32577C130.177 5.96861 128.671 7.12604 127.028 6.91097L126.93 6.89813C125.287 6.68458 124.128 5.17953 124.341 3.53649ZM87.4676 5.93612C87.8947 7.53697 86.9432 9.18097 85.3423 9.60808L85.2462 9.63378C83.6457 10.0624 82.0008 9.11243 81.5722 7.51198C81.1436 5.91152 82.0936 4.26663 83.694 3.83802L83.7956 3.81087C85.3965 3.38376 87.0405 4.33526 87.4676 5.93612ZM138.532 5.93612C138.96 4.33526 140.604 3.38376 142.204 3.81087L142.306 3.83802C143.906 4.26664 144.856 5.91152 144.428 7.51198C143.999 9.11243 142.354 10.0624 140.754 9.63378L140.658 9.60808C139.057 9.18097 138.105 7.53698 138.532 5.93612ZM73.7121 10.1795C74.3461 11.7102 73.6191 13.4651 72.0883 14.099L71.9967 14.137C70.4665 14.7724 68.711 14.047 68.0756 12.5168C67.4402 10.9867 68.1656 9.23112 69.6958 8.59575L69.7926 8.55561C71.3233 7.92166 73.0782 8.64868 73.7121 10.1795ZM152.288 10.1795C152.922 8.64869 154.677 7.92167 156.207 8.55562L156.304 8.59575C157.834 9.23113 158.56 10.9867 157.924 12.5168C157.289 14.047 155.533 14.7724 154.003 14.137L153.912 14.099C152.381 13.4651 151.654 11.7102 152.288 10.1795ZM60.6328 16.1943C61.4619 17.6288 60.9711 19.4638 59.5366 20.2929L59.4506 20.3427C58.0169 21.1731 56.1815 20.684 55.351 19.2503C54.5206 17.8166 55.0097 15.9811 56.4434 15.1507L56.5342 15.0982C57.9687 14.2691 59.8037 14.7598 60.6328 16.1943ZM165.367 16.1943C166.196 14.7599 168.031 14.2691 169.466 15.0982L169.557 15.1507C170.99 15.9811 171.479 17.8166 170.649 19.2503C169.819 20.684 167.983 21.1731 166.549 20.3427L166.463 20.2929C165.029 19.4638 164.538 17.6288 165.367 16.1943ZM48.4539 23.8681C49.4628 25.1823 49.2154 27.0656 47.9011 28.0745L47.8223 28.1351C46.509 29.1453 44.6255 28.8995 43.6153 27.5863C42.6052 26.273 42.8509 24.3894 44.1642 23.3793L44.2474 23.3153C45.5616 22.3064 47.4449 22.5538 48.4539 23.8681ZM177.546 23.8681C178.555 22.5538 180.438 22.3064 181.753 23.3153L181.836 23.3793C183.149 24.3894 183.395 26.273 182.385 27.5863C181.374 28.8996 179.491 29.1453 178.178 28.1351L178.099 28.0745C176.785 27.0656 176.537 25.1823 177.546 23.8681ZM37.3767 33.0618C38.5477 34.2339 38.5468 36.1334 37.3747 37.3044L37.3045 37.3747C36.1334 38.5468 34.2339 38.5477 33.0618 37.3766C31.8897 36.2056 31.8888 34.3061 33.0599 33.134L33.134 33.0598C34.3061 31.8888 36.2056 31.8897 37.3767 33.0618ZM188.623 33.0618C189.794 31.8897 191.694 31.8888 192.866 33.0599L192.94 33.134C194.111 34.3061 194.11 36.2056 192.938 37.3767C191.766 38.5477 189.867 38.5468 188.696 37.3747L188.625 37.3045C187.453 36.1334 187.452 34.2339 188.623 33.0618ZM27.5863 43.6153C28.8996 44.6255 29.1453 46.509 28.1351 47.8223L28.0745 47.9011C27.0656 49.2153 25.1823 49.4628 23.8681 48.4538C22.5538 47.4449 22.3064 45.5616 23.3153 44.2474L23.3793 44.1642C24.3894 42.8509 26.273 42.6052 27.5863 43.6153ZM198.414 43.6153C199.727 42.6052 201.611 42.8509 202.621 44.1642L202.685 44.2474C203.694 45.5616 203.446 47.4449 202.132 48.4539C200.818 49.4628 198.934 49.2154 197.925 47.9011L197.865 47.8223C196.855 46.509 197.1 44.6255 198.414 43.6153ZM19.2503 55.351C20.684 56.1815 21.1731 58.0169 20.3427 59.4506L20.2929 59.5366C19.4638 60.9711 17.6288 61.4619 16.1943 60.6328C14.7599 59.8037 14.2691 57.9687 15.0982 56.5342L15.1507 56.4434C15.9811 55.0097 17.8166 54.5206 19.2503 55.351ZM206.75 55.351C208.183 54.5206 210.019 55.0097 210.849 56.4434L210.902 56.5342C211.731 57.9687 211.24 59.8037 209.806 60.6328C208.371 61.4619 206.536 60.9711 205.707 59.5366L205.657 59.4506C204.827 58.0169 205.316 56.1815 206.75 55.351ZM12.5168 68.0756C14.047 68.711 14.7724 70.4665 14.137 71.9967L14.099 72.0883C13.4651 73.6191 11.7102 74.3461 10.1795 73.7121C8.64869 73.0782 7.92167 71.3233 8.55562 69.7925L8.59575 69.6958C9.23113 68.1656 10.9867 67.4402 12.5168 68.0756ZM213.483 68.0756C215.013 67.4402 216.769 68.1656 217.404 69.6958L217.444 69.7926C218.078 71.3233 217.351 73.0782 215.821 73.7121C214.29 74.3461 212.535 73.6191 211.901 72.0883L211.863 71.9967C211.228 70.4665 211.953 68.711 213.483 68.0756ZM7.51198 81.5722C9.11243 82.0008 10.0624 83.6457 9.63378 85.2462L9.60808 85.3423C9.18097 86.9432 7.53698 87.8947 5.93612 87.4676C4.33526 87.0405 3.38376 85.3965 3.81087 83.7956L3.83802 83.694C4.26664 82.0936 5.91152 81.1436 7.51198 81.5722ZM218.488 81.5722C220.088 81.1436 221.733 82.0936 222.162 83.694L222.189 83.7956C222.616 85.3965 221.665 87.0405 220.064 87.4676C218.463 87.8947 216.819 86.9432 216.392 85.3423L216.366 85.2462C215.938 83.6457 216.888 82.0008 218.488 81.5722ZM4.32577 95.6077C5.96861 95.8228 7.12604 97.3289 6.91097 98.9718L6.89813 99.0702C6.68458 100.713 5.17953 101.872 3.53649 101.659C1.89346 101.445 0.734627 99.9399 0.948172 98.2969L0.961734 98.1929C1.1768 96.5501 2.68293 95.3927 4.32577 95.6077ZM221.674 95.6077C223.317 95.3927 224.823 96.5501 225.038 98.1929L225.052 98.2969C225.265 99.9399 224.107 101.445 222.463 101.659C220.82 101.872 219.315 100.713 219.102 99.0702L219.089 98.9718C218.874 97.3289 220.031 95.8228 221.674 95.6077ZM3.00137 109.949C4.65822 109.949 6.00076 111.293 6 112.95V113.05C6.00076 114.707 4.65822 116.051 3.00137 116.051C1.34452 116.052 0.000756979 114.71 0 113.053V112.947C0.000756979 111.29 1.34452 109.948 3.00137 109.949ZM222.999 109.949C224.655 109.948 225.999 111.29 226 112.947V113.053C225.999 114.71 224.655 116.052 222.999 116.051C221.342 116.051 219.999 114.707 220 113.05V112.95C219.999 111.293 221.342 109.949 222.999 109.949ZM3.53649 124.341C5.17953 124.128 6.68458 125.287 6.89813 126.93L6.91097 127.028C7.12604 128.671 5.96861 130.177 4.32577 130.392C2.68293 130.607 1.1768 129.45 0.961734 127.807L0.948171 127.703C0.734626 126.06 1.89346 124.555 3.53649 124.341ZM222.463 124.341C224.107 124.555 225.265 126.06 225.052 127.703L225.038 127.807C224.823 129.45 223.317 130.607 221.674 130.392C220.031 130.177 218.874 128.671 219.089 127.028L219.102 126.93C219.315 125.287 220.82 124.128 222.463 124.341ZM5.93612 138.532C7.53697 138.105 9.18097 139.057 9.60808 140.658L9.63378 140.754C10.0624 142.354 9.11243 143.999 7.51198 144.428C5.91152 144.856 4.26663 143.906 3.83802 142.306L3.81087 142.204C3.38376 140.604 4.33526 138.96 5.93612 138.532ZM220.064 138.532C221.665 138.96 222.616 140.604 222.189 142.204L222.162 142.306C221.733 143.906 220.088 144.856 218.488 144.428C216.888 143.999 215.938 142.354 216.366 140.754L216.392 140.658C216.819 139.057 218.463 138.105 220.064 138.532ZM10.1795 152.288C11.7102 151.654 13.4651 152.381 14.099 153.912L14.137 154.003C14.7724 155.533 14.047 157.289 12.5168 157.924C10.9867 158.56 9.23112 157.834 8.59575 156.304L8.55561 156.207C7.92166 154.677 8.64868 152.922 10.1795 152.288ZM215.821 152.288C217.351 152.922 218.078 154.677 217.444 156.207L217.404 156.304C216.769 157.834 215.013 158.56 213.483 157.924C211.953 157.289 211.228 155.533 211.863 154.003L211.901 153.912C212.535 152.381 214.29 151.654 215.821 152.288ZM16.1943 165.367C17.6288 164.538 19.4638 165.029 20.2929 166.463L20.3427 166.549C21.1731 167.983 20.684 169.818 19.2503 170.649C17.8166 171.479 15.9811 170.99 15.1507 169.557L15.0982 169.466C14.2691 168.031 14.7598 166.196 16.1943 165.367ZM209.806 165.367C211.24 166.196 211.731 168.031 210.902 169.466L210.849 169.557C210.019 170.99 208.183 171.479 206.75 170.649C205.316 169.819 204.827 167.983 205.657 166.549L205.707 166.463C206.536 165.029 208.371 164.538 209.806 165.367ZM23.8681 177.546C25.1823 176.537 27.0656 176.785 28.0745 178.099L28.1351 178.178C29.1453 179.491 28.8995 181.374 27.5863 182.385C26.273 183.395 24.3894 183.149 23.3793 181.836L23.3153 181.753C22.3064 180.438 22.5538 178.555 23.8681 177.546ZM202.132 177.546C203.446 178.555 203.694 180.438 202.685 181.753L202.621 181.836C201.611 183.149 199.727 183.395 198.414 182.385C197.1 181.374 196.855 179.491 197.865 178.178L197.925 178.099C198.934 176.785 200.818 176.537 202.132 177.546ZM33.0618 188.623C34.2339 187.452 36.1334 187.453 37.3044 188.625L37.3747 188.696C38.5468 189.867 38.5477 191.766 37.3766 192.938C36.2056 194.11 34.3061 194.111 33.134 192.94L33.0598 192.866C31.8888 191.694 31.8897 189.794 33.0618 188.623ZM192.938 188.623C194.11 189.794 194.111 191.694 192.94 192.866L192.866 192.94C191.694 194.111 189.794 194.11 188.623 192.938C187.452 191.766 187.453 189.867 188.625 188.696L188.696 188.625C189.867 187.453 191.766 187.452 192.938 188.623ZM43.6153 198.414C44.6255 197.1 46.509 196.855 47.8223 197.865L47.9011 197.925C49.2153 198.934 49.4628 200.818 48.4538 202.132C47.4449 203.446 45.5616 203.694 44.2474 202.685L44.1642 202.621C42.8509 201.611 42.6052 199.727 43.6153 198.414ZM182.385 198.414C183.395 199.727 183.149 201.611 181.836 202.621L181.753 202.685C180.438 203.694 178.555 203.446 177.546 202.132C176.537 200.818 176.785 198.934 178.099 197.925L178.178 197.865C179.491 196.855 181.374 197.1 182.385 198.414ZM55.351 206.75C56.1815 205.316 58.0169 204.827 59.4506 205.657L59.5366 205.707C60.9711 206.536 61.4619 208.371 60.6328 209.806C59.8037 211.24 57.9687 211.731 56.5342 210.902L56.4434 210.849C55.0097 210.019 54.5206 208.183 55.351 206.75ZM170.649 206.75C171.479 208.183 170.99 210.019 169.557 210.849L169.466 210.902C168.031 211.731 166.196 211.24 165.367 209.806C164.538 208.371 165.029 206.536 166.463 205.707L166.549 205.657C167.983 204.827 169.818 205.316 170.649 206.75ZM68.0756 213.483C68.711 211.953 70.4665 211.228 71.9967 211.863L72.0883 211.901C73.6191 212.535 74.3461 214.29 73.7121 215.821C73.0782 217.351 71.3233 218.078 69.7925 217.444L69.6958 217.404C68.1656 216.769 67.4402 215.013 68.0756 213.483ZM157.924 213.483C158.56 215.013 157.834 216.769 156.304 217.404L156.207 217.444C154.677 218.078 152.922 217.351 152.288 215.821C151.654 214.29 152.381 212.535 153.912 211.901L154.003 211.863C155.533 211.228 157.289 211.953 157.924 213.483ZM81.5722 218.488C82.0008 216.888 83.6457 215.938 85.2462 216.366L85.3423 216.392C86.9432 216.819 87.8947 218.463 87.4676 220.064C87.0405 221.665 85.3965 222.616 83.7956 222.189L83.694 222.162C82.0936 221.733 81.1436 220.088 81.5722 218.488ZM144.428 218.488C144.856 220.088 143.906 221.733 142.306 222.162L142.204 222.189C140.604 222.616 138.96 221.665 138.532 220.064C138.105 218.463 139.057 216.819 140.658 216.392L140.754 216.366C142.354 215.938 143.999 216.888 144.428 218.488ZM95.6077 221.674C95.8228 220.031 97.3289 218.874 98.9718 219.089L99.0702 219.102C100.713 219.315 101.872 220.82 101.659 222.463C101.445 224.107 99.9399 225.265 98.2969 225.052L98.1929 225.038C96.5501 224.823 95.3927 223.317 95.6077 221.674ZM130.392 221.674C130.607 223.317 129.45 224.823 127.807 225.038L127.703 225.052C126.06 225.265 124.555 224.107 124.341 222.463C124.128 220.82 125.287 219.315 126.93 219.102L127.028 219.089C128.671 218.874 130.177 220.031 130.392 221.674ZM109.949 222.999C109.949 221.342 111.293 219.999 112.95 220H113.05C114.707 219.999 116.051 221.342 116.051 222.999C116.052 224.655 114.71 225.999 113.053 226H112.947C111.29 225.999 109.948 224.655 109.949 222.999Z" fill="#A8A8A8"/>
</svg>
