<svg width="202" height="77" viewBox="0 0 202 77" fill="none" xmlns="http://www.w3.org/2000/svg">
<path d="M113.285 34V20H119.345C120.598 20 121.678 20.2067 122.585 20.62C123.492 21.02 124.192 21.6 124.685 22.36C125.178 23.12 125.425 24.0267 125.425 25.08C125.425 26.12 125.178 27.02 124.685 27.78C124.192 28.54 123.492 29.1267 122.585 29.54C121.678 29.94 120.598 30.14 119.345 30.14H115.085L116.525 28.68V34H113.285ZM116.525 29.04L115.085 27.5H119.165C120.165 27.5 120.912 27.2867 121.405 26.86C121.898 26.4333 122.145 25.84 122.145 25.08C122.145 24.3067 121.898 23.7067 121.405 23.28C120.912 22.8533 120.165 22.64 119.165 22.64H115.085L116.525 21.1V29.04Z" fill="black"/>
<path d="M94.1836 34V20H96.8636L102.824 29.88H101.404L107.264 20H109.924L109.964 34H106.924L106.904 24.66H107.464L102.784 32.52H101.324L96.5436 24.66H97.2236V34H94.1836Z" fill="black"/>
<path d="M77.6602 34V20H84.0202C85.5402 20 86.8802 20.2933 88.0402 20.88C89.2002 21.4533 90.1068 22.26 90.7602 23.3C91.4135 24.34 91.7402 25.5733 91.7402 27C91.7402 28.4133 91.4135 29.6467 90.7602 30.7C90.1068 31.74 89.2002 32.5533 88.0402 33.14C86.8802 33.7133 85.5402 34 84.0202 34H77.6602ZM80.9002 31.34H83.8602C84.7935 31.34 85.6002 31.1667 86.2802 30.82C86.9735 30.46 87.5068 29.9533 87.8802 29.3C88.2668 28.6467 88.4602 27.88 88.4602 27C88.4602 26.1067 88.2668 25.34 87.8802 24.7C87.5068 24.0467 86.9735 23.5467 86.2802 23.2C85.6002 22.84 84.7935 22.66 83.8602 22.66H80.9002V31.34Z" fill="black"/>
<path d="M199.519 20.5404C196.71 17.1975 191.857 14.319 185.702 11.8376C176.439 8.11809 164.086 5.21514 149.638 3.17538C135.188 1.14236 118.627 0 101 0C74.1371 0.00898903 49.7723 2.63379 31.5276 7.08486C22.405 9.32188 14.7728 12.0188 9.16174 15.2531C6.36493 16.8712 4.08101 18.6345 2.48145 20.5407C0.885758 22.4469 -0.00385114 24.5024 1.25327e-05 26.6058V50.3925C-0.00385114 52.4956 0.885758 54.5536 2.48145 56.4576C5.29131 59.8005 10.1441 62.6787 16.2989 65.1627C25.5621 68.8821 37.9147 71.7854 52.3639 73.8251C66.8121 75.8576 83.3737 76.998 101 77C127.868 76.9885 152.228 74.3667 170.473 69.9129C179.595 67.6761 187.227 64.9812 192.838 61.7449C195.636 60.1288 197.919 58.3655 199.519 56.4573C201.115 54.5536 202.004 52.4954 202 50.3922V26.6055C202.005 24.5021 201.115 22.4466 199.519 20.5404ZM188.069 55.3255C187.079 56.4247 185.662 57.5261 183.751 58.6367C177.579 62.2311 166.405 65.6172 151.987 67.9855C137.574 70.3699 119.973 71.7886 101 71.7864C75.7067 71.7934 52.8367 69.255 36.7445 65.3091C28.6916 63.344 22.3702 61.0278 18.2501 58.6367C16.3385 57.5261 14.9225 56.4247 13.9314 55.3255V39.1567C21.9891 42.9666 33.3034 46.0059 46.8354 48.2564C62.4369 50.8332 81.0236 52.3132 101 52.3132C127.64 52.3064 151.79 49.6954 169.728 45.3145C176.939 43.5466 183.103 41.4796 188.069 39.1248V55.3255ZM188.069 30.4468C187.079 31.5463 185.662 32.6499 183.751 33.7606C177.579 37.3574 166.405 40.741 151.987 43.1119C137.574 45.496 119.973 46.9148 101 46.9128C75.7067 46.9195 52.8367 44.3808 36.7445 40.4332C28.6916 38.4658 22.3702 36.1516 18.2501 33.7608C16.3385 32.6502 14.9225 31.5465 13.9314 30.4493V26.6055C13.9363 25.5333 14.3613 24.4909 15.2688 23.4007C16.8471 21.5013 20.0249 19.464 24.8603 17.5194C32.0892 14.5979 42.908 11.9622 56.0237 10.1241C69.1399 8.2769 84.5439 7.20046 101 7.20271C126.071 7.19123 148.726 9.72089 164.511 13.5964C172.411 15.5206 178.543 17.7826 182.449 20.0535C184.413 21.1866 185.824 22.3133 186.732 23.4009C187.639 24.4911 188.064 25.5336 188.069 26.6058V30.4468Z" fill="black"/>
</svg>
