<svg width="89" height="113" viewBox="0 0 89 113" fill="none" xmlns="http://www.w3.org/2000/svg">
<path d="M4.09361 93.168C2.90561 93.168 1.71761 92.7 0.853609 91.872L1.87361 90.648C2.50961 91.236 3.34961 91.632 4.12961 91.632C5.05361 91.632 5.54561 91.236 5.54561 90.612C5.54561 89.952 5.00561 89.748 4.21361 89.412L3.02561 88.908C2.12561 88.536 1.22561 87.816 1.22561 86.52C1.22561 85.068 2.49761 83.952 4.29761 83.952C5.32961 83.952 6.36161 84.36 7.08161 85.092L6.18161 86.208C5.61761 85.74 5.02961 85.476 4.29761 85.476C3.51761 85.476 3.02561 85.824 3.02561 86.412C3.02561 87.048 3.64961 87.276 4.40561 87.576L5.56961 88.068C6.64961 88.512 7.35761 89.196 7.35761 90.48C7.35761 91.932 6.14561 93.168 4.09361 93.168ZM8.78589 93V86.28H10.5499V93H8.78589ZM9.67389 85.2C9.06189 85.2 8.64189 84.816 8.64189 84.228C8.64189 83.652 9.06189 83.268 9.67389 83.268C10.2739 83.268 10.6939 83.652 10.6939 84.228C10.6939 84.816 10.2739 85.2 9.67389 85.2ZM15.3584 93.168C13.4744 93.168 12.0104 91.86 12.0104 89.64C12.0104 87.468 13.5464 86.112 15.1424 86.112C16.9904 86.112 17.9504 87.468 17.9504 89.316C17.9504 89.652 17.9144 89.976 17.8664 90.132H13.7264C13.8704 91.236 14.5904 91.812 15.5864 91.812C16.1384 91.812 16.6184 91.644 17.0984 91.344L17.6984 92.424C17.0384 92.88 16.1864 93.168 15.3584 93.168ZM13.7024 88.956H16.4384C16.4384 88.056 16.0304 87.48 15.1664 87.48C14.4584 87.48 13.8344 87.984 13.7024 88.956ZM19.4031 93V86.28H20.8431L20.9751 87.468H21.0111C21.5031 86.592 22.2231 86.112 22.9191 86.112C23.2911 86.112 23.5071 86.172 23.7111 86.256L23.4111 87.78C23.1711 87.708 22.9791 87.672 22.7031 87.672C22.1751 87.672 21.5391 88.02 21.1671 88.992V93H19.4031ZM24.6296 93V86.28H26.0696L26.2016 87.468H26.2376C26.7296 86.592 27.4496 86.112 28.1456 86.112C28.5176 86.112 28.7336 86.172 28.9376 86.256L28.6376 87.78C28.3976 87.708 28.2056 87.672 27.9296 87.672C27.4016 87.672 26.7656 88.02 26.3936 88.992V93H24.6296ZM31.1372 93.168C29.9372 93.168 29.1452 92.316 29.1452 91.176C29.1452 89.736 30.3092 88.98 33.0212 88.692C32.9852 88.032 32.6972 87.528 31.8692 87.528C31.2452 87.528 30.6452 87.804 30.0212 88.164L29.3852 87C30.1772 86.508 31.1372 86.112 32.1932 86.112C33.8972 86.112 34.7732 87.132 34.7732 89.076V93H33.3332L33.2132 92.28H33.1652C32.5772 92.784 31.9052 93.168 31.1372 93.168ZM31.7132 91.788C32.2172 91.788 32.5892 91.548 33.0212 91.128V89.772C31.3772 89.976 30.8252 90.432 30.8252 91.032C30.8252 91.56 31.1972 91.788 31.7132 91.788ZM42.0858 93.168C40.8978 93.168 39.7098 92.7 38.8458 91.872L39.8658 90.648C40.5018 91.236 41.3418 91.632 42.1218 91.632C43.0458 91.632 43.5378 91.236 43.5378 90.612C43.5378 89.952 42.9978 89.748 42.2058 89.412L41.0178 88.908C40.1178 88.536 39.2178 87.816 39.2178 86.52C39.2178 85.068 40.4898 83.952 42.2898 83.952C43.3218 83.952 44.3538 84.36 45.0738 85.092L44.1738 86.208C43.6098 85.74 43.0218 85.476 42.2898 85.476C41.5098 85.476 41.0178 85.824 41.0178 86.412C41.0178 87.048 41.6418 87.276 42.3978 87.576L43.5618 88.068C44.6418 88.512 45.3498 89.196 45.3498 90.48C45.3498 91.932 44.1378 93.168 42.0858 93.168ZM49.5861 93.168C47.9061 93.168 46.3581 91.872 46.3581 89.64C46.3581 87.408 47.9061 86.112 49.5861 86.112C51.2661 86.112 52.8141 87.408 52.8141 89.64C52.8141 91.872 51.2661 93.168 49.5861 93.168ZM49.5861 91.728C50.4981 91.728 51.0141 90.912 51.0141 89.64C51.0141 88.38 50.4981 87.552 49.5861 87.552C48.6741 87.552 48.1581 88.38 48.1581 89.64C48.1581 90.912 48.6741 91.728 49.5861 91.728ZM55.9458 93.168C54.7218 93.168 54.2898 92.364 54.2898 91.116V83.424H56.0538V91.188C56.0538 91.596 56.2338 91.728 56.4018 91.728C56.4738 91.728 56.5218 91.728 56.6418 91.704L56.8578 93.012C56.6538 93.096 56.3658 93.168 55.9458 93.168ZM60.079 93.168C58.627 93.168 58.003 92.16 58.003 90.48V86.28H59.767V90.252C59.767 91.284 60.055 91.656 60.703 91.656C61.255 91.656 61.615 91.416 62.071 90.816V86.28H63.835V93H62.395L62.263 92.04H62.215C61.639 92.724 60.991 93.168 60.079 93.168ZM68.1756 93.168C66.5796 93.168 65.9676 92.148 65.9676 90.648V87.672H65.0196V86.364L66.0636 86.28L66.2676 84.468H67.7316V86.28H69.3876V87.672H67.7316V90.648C67.7316 91.416 68.0436 91.776 68.6436 91.776C68.8596 91.776 69.1236 91.704 69.3036 91.632L69.5916 92.916C69.2316 93.036 68.7636 93.168 68.1756 93.168ZM70.7546 93V86.28H72.5186V93H70.7546ZM71.6426 85.2C71.0306 85.2 70.6106 84.816 70.6106 84.228C70.6106 83.652 71.0306 83.268 71.6426 83.268C72.2426 83.268 72.6626 83.652 72.6626 84.228C72.6626 84.816 72.2426 85.2 71.6426 85.2ZM77.2072 93.168C75.5272 93.168 73.9792 91.872 73.9792 89.64C73.9792 87.408 75.5272 86.112 77.2072 86.112C78.8872 86.112 80.4352 87.408 80.4352 89.64C80.4352 91.872 78.8872 93.168 77.2072 93.168ZM77.2072 91.728C78.1192 91.728 78.6352 90.912 78.6352 89.64C78.6352 88.38 78.1192 87.552 77.2072 87.552C76.2952 87.552 75.7792 88.38 75.7792 89.64C75.7792 90.912 76.2952 91.728 77.2072 91.728ZM81.9109 93V86.28H83.3509L83.4829 87.168H83.5189C84.1069 86.592 84.7909 86.112 85.7029 86.112C87.1549 86.112 87.7789 87.12 87.7789 88.812V93H86.0149V89.028C86.0149 87.984 85.7269 87.624 85.0669 87.624C84.5149 87.624 84.1669 87.888 83.6749 88.38V93H81.9109ZM33.5627 110V101.108H35.9987C38.7107 101.108 40.3907 102.524 40.3907 105.524C40.3907 108.512 38.7107 110 36.0947 110H33.5627ZM35.3387 108.572H35.8907C37.5467 108.572 38.5787 107.684 38.5787 105.524C38.5787 103.352 37.5467 102.536 35.8907 102.536H35.3387V108.572ZM44.7811 110.168C43.5931 110.168 42.4051 109.7 41.5411 108.872L42.5611 107.648C43.1971 108.236 44.0371 108.632 44.8171 108.632C45.7411 108.632 46.2331 108.236 46.2331 107.612C46.2331 106.952 45.6931 106.748 44.9011 106.412L43.7131 105.908C42.8131 105.536 41.9131 104.816 41.9131 103.52C41.9131 102.068 43.1851 100.952 44.9851 100.952C46.0171 100.952 47.0491 101.36 47.7691 102.092L46.8691 103.208C46.3051 102.74 45.7171 102.476 44.9851 102.476C44.2051 102.476 43.7131 102.824 43.7131 103.412C43.7131 104.048 44.3371 104.276 45.0931 104.576L46.2571 105.068C47.3371 105.512 48.0451 106.196 48.0451 107.48C48.0451 108.932 46.8331 110.168 44.7811 110.168ZM49.6174 110V101.108H52.5334C54.5014 101.108 56.0134 101.804 56.0134 103.904C56.0134 105.932 54.4894 106.844 52.5814 106.844H51.3934V110H49.6174ZM51.3934 105.44H52.4614C53.6854 105.44 54.2734 104.924 54.2734 103.904C54.2734 102.872 53.6254 102.524 52.4014 102.524H51.3934V105.44Z" fill="black"/>
<path d="M50.75 25V13.8H55.598C56.6007 13.8 57.4647 13.9654 58.19 14.296C58.9153 14.616 59.4753 15.08 59.87 15.688C60.2647 16.296 60.462 17.0214 60.462 17.864C60.462 18.696 60.2647 19.416 59.87 20.024C59.4753 20.632 58.9153 21.1014 58.19 21.432C57.4647 21.752 56.6007 21.912 55.598 21.912H52.19L53.342 20.744V25H50.75ZM53.342 21.032L52.19 19.8H55.454C56.254 19.8 56.8513 19.6294 57.246 19.288C57.6407 18.9467 57.838 18.472 57.838 17.864C57.838 17.2454 57.6407 16.7654 57.246 16.424C56.8513 16.0827 56.254 15.912 55.454 15.912H52.19L53.342 14.68V21.032Z" fill="black"/>
<path d="M44.226 25.192C43.33 25.192 42.4713 25.0747 41.65 24.84C40.8287 24.5947 40.1673 24.28 39.666 23.896L40.546 21.944C41.026 22.2854 41.5913 22.568 42.242 22.792C42.9033 23.0054 43.57 23.112 44.242 23.112C44.754 23.112 45.1647 23.064 45.474 22.968C45.794 22.8614 46.0287 22.7174 46.178 22.536C46.3273 22.3547 46.402 22.1467 46.402 21.912C46.402 21.6134 46.2847 21.3787 46.05 21.208C45.8153 21.0267 45.506 20.8827 45.122 20.776C44.738 20.6587 44.3113 20.552 43.842 20.456C43.3833 20.3494 42.9193 20.2214 42.45 20.072C41.9913 19.9227 41.57 19.7307 41.186 19.496C40.802 19.2614 40.4873 18.952 40.242 18.568C40.0073 18.184 39.89 17.6934 39.89 17.096C39.89 16.456 40.0607 15.8747 40.402 15.352C40.754 14.8187 41.2767 14.3974 41.97 14.088C42.674 13.768 43.554 13.608 44.61 13.608C45.314 13.608 46.0073 13.6934 46.69 13.864C47.3727 14.024 47.9753 14.2694 48.498 14.6L47.698 16.568C47.1753 16.2694 46.6527 16.0507 46.13 15.912C45.6073 15.7627 45.0953 15.688 44.594 15.688C44.0927 15.688 43.682 15.7467 43.362 15.864C43.042 15.9814 42.8127 16.136 42.674 16.328C42.5353 16.5094 42.466 16.7227 42.466 16.968C42.466 17.256 42.5833 17.4907 42.818 17.672C43.0527 17.8427 43.362 17.9814 43.746 18.088C44.13 18.1947 44.5513 18.3014 45.01 18.408C45.4793 18.5147 45.9433 18.6374 46.402 18.776C46.8713 18.9147 47.298 19.1014 47.682 19.336C48.066 19.5707 48.3753 19.88 48.61 20.264C48.8553 20.648 48.978 21.1334 48.978 21.72C48.978 22.3494 48.802 22.9254 48.45 23.448C48.098 23.9707 47.57 24.392 46.866 24.712C46.1727 25.032 45.2927 25.192 44.226 25.192Z" fill="black"/>
<path d="M27.3281 25V13.8H32.4161C33.6321 13.8 34.7041 14.0347 35.6321 14.504C36.5601 14.9627 37.2855 15.608 37.8081 16.44C38.3308 17.272 38.5921 18.2587 38.5921 19.4C38.5921 20.5307 38.3308 21.5174 37.8081 22.36C37.2855 23.192 36.5601 23.8427 35.6321 24.312C34.7041 24.7707 33.6321 25 32.4161 25H27.3281ZM29.9201 22.872H32.2881C33.0348 22.872 33.6801 22.7334 34.2241 22.456C34.7788 22.168 35.2055 21.7627 35.5041 21.24C35.8135 20.7174 35.9681 20.104 35.9681 19.4C35.9681 18.6854 35.8135 18.072 35.5041 17.56C35.2055 17.0374 34.7788 16.6374 34.2241 16.36C33.6801 16.072 33.0348 15.928 32.2881 15.928H29.9201V22.872Z" fill="black"/>
<path d="M81.0667 14.9476C80.0096 12.5149 78.1838 10.4202 75.8681 8.61438C72.3831 5.90767 67.7352 3.79514 62.2993 2.31077C56.863 0.831311 50.632 0 44.0001 0C33.8932 0.00654146 24.7262 1.91665 17.8619 5.15576C14.4296 6.78368 11.5581 8.7463 9.44699 11.1C8.39473 12.2774 7.53543 13.5606 6.93362 14.9478C6.33326 16.3349 5.99855 17.8308 6 19.3615V55.6714C5.99855 57.2019 6.33326 58.6996 6.93362 60.0851C7.99079 62.5178 9.81659 64.6123 12.1323 66.4199C15.6174 69.1266 20.2649 71.2394 25.7013 72.7237C31.1372 74.2028 37.3683 75.0327 44.0001 75.0341C54.1088 75.0258 63.2738 73.1179 70.1383 69.8767C73.5704 68.249 76.4419 66.2878 78.553 63.9327C79.6055 62.7567 80.4646 61.4735 81.0666 60.0849C81.6669 58.6996 82.0016 57.2017 82 55.6712V19.3613C82.0018 17.8306 81.6671 16.3348 81.0667 14.9476ZM76.7587 58.364C76.386 59.1639 75.8532 59.9656 75.1342 60.7753C72.812 63.3911 68.6078 65.8536 63.1833 67.5788C57.7604 69.3137 51.1385 70.3462 44.0001 70.3447C34.4837 70.3496 25.8791 68.5022 19.8247 65.6294C16.7949 64.1994 14.4165 62.5155 12.8664 60.7753C12.1472 59.9656 11.6144 59.1639 11.2415 58.3658V46.5996C14.2731 49.3704 18.53 51.5838 23.6213 53.2199C29.4911 55.0935 36.4841 56.1705 44.0001 56.1723C54.0231 56.1672 63.1092 54.2658 69.8581 51.079C72.5712 49.7925 74.8902 48.2885 76.7587 46.5749V58.364ZM76.7587 40.2613C76.386 41.0611 75.8532 41.8626 75.1342 42.6709C72.812 45.2865 68.6078 47.7507 63.1833 49.4742C57.7604 51.2093 51.1385 52.2418 44.0001 52.2401C34.4837 52.2452 25.8791 50.398 19.8247 47.5265C16.7949 46.0964 14.4165 44.4109 12.8664 42.6709C12.1472 41.8626 11.6144 41.0611 11.2415 40.2613V28.495C14.2731 31.2675 18.53 33.4792 23.6213 35.1169C29.4911 36.9922 36.4841 38.0691 44.0001 38.0691C54.0231 38.0642 63.1092 36.1641 69.8581 32.9761C72.5712 31.6896 74.8902 30.1854 76.7587 28.4717V40.2613ZM76.7587 22.1567C76.386 22.9567 75.8532 23.7599 75.1342 24.5681C72.812 27.1856 68.6078 29.6479 63.1833 31.3732C57.7604 33.1082 51.1385 34.1406 44.0001 34.1392C34.4837 34.1441 25.8791 32.2967 19.8247 29.4239C16.7949 27.9922 14.4165 26.3081 12.8664 24.5683C12.1472 23.76 11.6144 22.9569 11.2415 22.1585V19.3613C11.2434 18.581 11.4033 17.8224 11.7447 17.0291C12.3385 15.6468 13.5341 14.1643 15.3534 12.7491C18.0732 10.6232 22.1436 8.70505 27.0782 7.3675C32.013 6.02323 37.8086 5.23989 44.0001 5.24153C53.4325 5.23317 61.9562 7.07405 67.8953 9.89433C70.8673 11.2946 73.1747 12.9406 74.6443 14.5933C75.3831 15.4179 75.9141 16.2377 76.2557 17.0292C76.5969 17.8226 76.7568 18.5812 76.7587 19.3615V22.1567Z" fill="black"/>
</svg>
