<svg width="47" height="42" viewBox="0 0 47 42" fill="none" xmlns="http://www.w3.org/2000/svg">
<path d="M34.295 0C34.2089 0 34.1247 0.000826235 34.0385 0.00275397C28.7944 0.103547 25.4026 2.68891 23.5 5.82414C21.5974 2.68891 18.2056 0.103547 12.9615 0.00275397C12.8763 0.000826235 12.7902 0 12.7049 0C9.16463 0 5.95238 1.41964 3.66123 3.99665C1.26652 6.69107 0 10.4697 0 14.9237C0 23.6695 7.01365 29.0033 13.7956 34.1612C16.413 36.1517 19.1175 38.2093 21.4591 40.4665L21.5635 40.6086C22.0282 41.1814 22.7036 41.5177 23.4267 41.5388L23.5001 41.5407L23.577 41.5388C24.2973 41.5168 24.971 41.1814 25.4356 40.6104L25.5419 40.4655C27.8826 38.2083 30.588 36.1508 33.2045 34.1611C39.9864 29.0033 47 23.6695 47 14.9237C47 6.13662 41.7752 0 34.295 0ZM34.0925 30.1105C30.685 32.7682 26.9166 35.4224 23.6595 38.5649C23.5962 38.6262 23.5449 38.6785 23.4991 38.728C23.4514 38.6776 23.4056 38.6281 23.3406 38.5649C18.9984 34.3776 13.746 31.0472 9.65226 27.4389C7.60399 25.638 5.85077 23.7759 4.62271 21.7394C3.39465 19.7012 2.67808 17.5017 2.67524 14.9237C2.67707 10.8637 3.85115 7.81008 5.66121 5.77366C7.47484 3.73907 9.93646 2.67964 12.7051 2.67423L12.9104 2.67698C16.0108 2.74197 18.2195 3.84005 19.7967 5.4016C21.3694 6.96417 22.2904 9.03272 22.6213 11.0003C22.6937 11.4301 23.0639 11.7436 23.5002 11.7436C23.9364 11.7436 24.3066 11.4302 24.379 11.0003C24.7099 9.03272 25.631 6.96426 27.2036 5.4016C28.7808 3.83996 30.9895 2.74197 34.09 2.67698L34.2952 2.67423C37.0639 2.67964 39.5254 3.73907 41.3393 5.77366C43.1492 7.81008 44.3233 10.8637 44.325 14.9237C44.3223 17.5017 43.6056 19.7012 42.3776 21.7394C40.538 24.7941 37.5027 27.4545 34.0925 30.1105Z" fill="black"/>
</svg>
