<svg width="47" height="31" viewBox="0 0 47 31" fill="none" xmlns="http://www.w3.org/2000/svg">
<path d="M46.8166 20.1845L46.8104 20.1546L46.8034 20.1239L44.37 9.77647L44.3603 9.73819L44.3506 9.69982C42.8205 3.98849 37.6224 0 31.709 0H15.2914C9.37802 0 4.17983 3.98849 2.64985 9.69982L2.63939 9.73819L2.6303 9.77647L0.197035 20.1238L0.190058 20.1538L0.183816 20.1837C-0.711113 24.4458 1.73757 28.6745 5.87854 30.0214L6.02413 30.0681C6.87233 30.3446 7.75817 30.4852 8.65172 30.4852C11.6505 30.4852 14.4467 28.8876 15.9733 26.3095L18.0438 23.2487L18.0953 23.172L18.1421 23.092C18.2151 22.9646 18.351 22.8852 18.4965 22.8852H28.5042C28.6498 22.8852 28.7857 22.9646 28.8587 23.092L28.9054 23.172L28.9569 23.2487L31.0274 26.3095C32.554 28.8876 35.3501 30.4852 38.3497 30.4852C39.2433 30.4852 40.1291 30.3446 40.9815 30.0666L41.1223 30.0214C45.2623 28.6754 47.7103 24.4459 46.8166 20.1845ZM40.328 27.5799L40.1867 27.6259C39.5801 27.8236 38.9609 27.9183 38.3494 27.9183C36.2706 27.9183 34.2844 26.8214 33.2007 24.9411L31.0835 21.8107C30.5522 20.8879 29.5681 20.3183 28.5039 20.3183H18.4962C17.4321 20.3183 16.448 20.888 15.9166 21.8107L13.7995 24.9411C12.7159 26.8214 10.7304 27.9183 8.65145 27.9183C8.03999 27.9183 7.42091 27.8236 6.81431 27.6259L6.67221 27.5799C3.78694 26.6418 2.073 23.6799 2.69639 20.7117L5.12975 10.3642C6.36166 5.76494 10.5298 2.56692 15.2913 2.56692H31.7089C36.4703 2.56692 40.6386 5.76494 41.8705 10.3642L44.3038 20.7117C44.9266 23.6799 43.2134 26.6418 40.328 27.5799Z" fill="black"/>
<path d="M14.4533 7.53711H11.3744V11.0729H7.83789V14.1505H11.3744V17.6877H14.4533V14.1505H17.9898V11.0729H14.4533V7.53711Z" fill="black"/>
<path d="M33.5715 10.6755C34.6426 10.6755 35.5096 9.80845 35.5096 8.73874C35.5096 7.66756 34.6426 6.80054 33.5715 6.80054C32.5018 6.80054 31.6348 7.66756 31.6348 8.73874C31.6347 9.80845 32.5018 10.6755 33.5715 10.6755Z" fill="black"/>
<path d="M29.6972 10.6753C28.6275 10.6753 27.7598 11.5431 27.7598 12.612C27.7598 13.6832 28.6275 14.551 29.6972 14.551C30.7677 14.551 31.6347 13.6832 31.6347 12.612C31.6347 11.5431 30.7677 10.6753 29.6972 10.6753Z" fill="black"/>
<path d="M33.5715 14.5503C32.5018 14.5503 31.6348 15.4173 31.6348 16.4885C31.6348 17.5582 32.5018 18.4252 33.5715 18.4252C34.6426 18.4252 35.5096 17.5582 35.5096 16.4885C35.5096 15.4173 34.6425 14.5503 33.5715 14.5503Z" fill="black"/>
<path d="M37.4485 10.6753C36.3788 10.6753 35.5117 11.5431 35.5117 12.612C35.5117 13.6832 36.3788 14.551 37.4485 14.551C38.5189 14.551 39.3867 13.6832 39.3867 12.612C39.3867 11.5431 38.5189 10.6753 37.4485 10.6753Z" fill="black"/>
</svg>
