<svg width="103" height="13" viewBox="0 0 103 13" fill="none" xmlns="http://www.w3.org/2000/svg">
<circle cx="26" cy="6.00049" r="2" fill="#D0D0D0"/>
<circle cx="74" cy="6.00049" r="2" fill="#D0D0D0"/>
<circle cx="2" cy="6.00049" r="2" fill="#D0D0D0"/>
<circle cx="50" cy="6.00049" r="2" fill="#D0D0D0"/>
<circle cx="38" cy="6.00049" r="2" fill="#D0D0D0"/>
<circle cx="86" cy="6.00049" r="2" fill="#D0D0D0"/>
<circle cx="14" cy="6.00049" r="2" fill="#D0D0D0"/>
<circle cx="62" cy="6.00049" r="2" fill="#D0D0D0"/>
<circle cx="32" cy="6.00049" r="2" fill="#D0D0D0"/>
<circle cx="80" cy="6.00049" r="2" fill="#D0D0D0"/>
<circle cx="8" cy="6.00049" r="2" fill="#D0D0D0"/>
<circle cx="56" cy="6.00049" r="2" fill="#D0D0D0"/>
<circle cx="44" cy="6.00049" r="2" fill="#D0D0D0"/>
<circle cx="92" cy="6.00049" r="2" fill="#D0D0D0"/>
<circle cx="20" cy="6.00049" r="2" fill="#D0D0D0"/>
<circle cx="68" cy="6.00049" r="2" fill="#D0D0D0"/>
<path d="M96.3037 2.41439V10.1937C96.3037 11.0846 97.3809 11.5308 98.0108 10.9008L101.9 7.01115C102.291 6.62063 102.291 5.98746 101.9 5.59694L98.0108 1.70728C97.3809 1.07732 96.3037 1.52349 96.3037 2.41439Z" fill="#D0D0D0" stroke="#D0D0D0"/>
</svg>
