<svg width="48" height="64" viewBox="0 0 48 64" fill="none" xmlns="http://www.w3.org/2000/svg">
<path d="M7.792 60.268H12.4V61.672H1.66V60.268H6.22V57.952H2.8V56.572H6.22V54.496H2.164V53.104H6.964C6.46 52.612 5.74 52.06 5.164 51.64L6.34 50.824C7.108 51.316 8.14 52.084 8.644 52.636L8.008 53.104H11.812V54.496H7.792V56.572H11.236V57.952H7.792V60.268ZM17.656 58.456L17.26 59.044C18.004 59.2 18.76 59.38 19.492 59.572C19.936 59.272 20.296 58.9 20.584 58.456H17.656ZM15.64 54.304V55.42H16.9V54.304H15.64ZM18.244 52.492V53.176H19.6V52.492H18.244ZM22.384 54.304H20.944V55.42H22.384V54.304ZM18.244 55.42H19.6V54.304H18.244V55.42ZM24.484 58.456H22.18C21.88 59.068 21.508 59.572 21.064 59.992C22.228 60.316 23.272 60.64 24.088 60.928L23.212 62.092C22.3 61.72 21.088 61.3 19.732 60.904C18.388 61.564 16.612 61.876 14.284 62.056C14.188 61.648 13.96 61.144 13.744 60.832C15.328 60.772 16.624 60.628 17.692 60.352C17.308 60.256 16.924 60.16 16.528 60.076L16.396 60.256L15.016 59.824C15.316 59.44 15.664 58.972 16.024 58.456H13.528V57.304H16.792C16.96 57.04 17.116 56.788 17.272 56.536H14.296V53.176H16.9V52.492H13.744V51.256H24.196V52.492H20.944V53.176H23.812V56.536H18.904C18.748 56.788 18.592 57.04 18.424 57.304H24.484V58.456ZM28.744 61.168C27.556 61.168 26.368 60.7 25.504 59.872L26.524 58.648C27.16 59.236 28 59.632 28.78 59.632C29.704 59.632 30.196 59.236 30.196 58.612C30.196 57.952 29.656 57.748 28.864 57.412L27.676 56.908C26.776 56.536 25.876 55.816 25.876 54.52C25.876 53.068 27.148 51.952 28.948 51.952C29.98 51.952 31.012 52.36 31.732 53.092L30.832 54.208C30.268 53.74 29.68 53.476 28.948 53.476C28.168 53.476 27.676 53.824 27.676 54.412C27.676 55.048 28.3 55.276 29.056 55.576L30.22 56.068C31.3 56.512 32.008 57.196 32.008 58.48C32.008 59.932 30.796 61.168 28.744 61.168ZM36.0096 61.168C34.8216 61.168 33.6336 60.7 32.7696 59.872L33.7896 58.648C34.4256 59.236 35.2656 59.632 36.0456 59.632C36.9696 59.632 37.4616 59.236 37.4616 58.612C37.4616 57.952 36.9216 57.748 36.1296 57.412L34.9416 56.908C34.0416 56.536 33.1416 55.816 33.1416 54.52C33.1416 53.068 34.4136 51.952 36.2136 51.952C37.2456 51.952 38.2776 52.36 38.9976 53.092L38.0976 54.208C37.5336 53.74 36.9456 53.476 36.2136 53.476C35.4336 53.476 34.9416 53.824 34.9416 54.412C34.9416 55.048 35.5656 55.276 36.3216 55.576L37.4856 56.068C38.5656 56.512 39.2736 57.196 39.2736 58.48C39.2736 59.932 38.0616 61.168 36.0096 61.168ZM40.8459 61V52.108H43.7619C45.7299 52.108 47.2419 52.804 47.2419 54.904C47.2419 56.932 45.7179 57.844 43.8099 57.844H42.6219V61H40.8459ZM42.6219 56.44H43.6899C44.9139 56.44 45.5019 55.924 45.5019 54.904C45.5019 53.872 44.8539 53.524 43.6299 53.524H42.6219V56.44Z" fill="black"/>
<path d="M28.3008 16.0001V7.6001H31.9368C32.6888 7.6001 33.3368 7.7241 33.8808 7.9721C34.4248 8.2121 34.8448 8.5601 35.1408 9.0161C35.4368 9.4721 35.5848 10.0161 35.5848 10.6481C35.5848 11.2721 35.4368 11.8121 35.1408 12.2681C34.8448 12.7241 34.4248 13.0761 33.8808 13.3241C33.3368 13.5641 32.6888 13.6841 31.9368 13.6841H29.3808L30.2448 12.8081V16.0001H28.3008ZM30.2448 13.0241L29.3808 12.1001H31.8288C32.4288 12.1001 32.8768 11.9721 33.1728 11.7161C33.4688 11.4601 33.6168 11.1041 33.6168 10.6481C33.6168 10.1841 33.4688 9.8241 33.1728 9.5681C32.8768 9.3121 32.4288 9.1841 31.8288 9.1841H29.3808L30.2448 8.2601V13.0241Z" fill="black"/>
<path d="M23.4083 16.1441C22.7363 16.1441 22.0923 16.0561 21.4763 15.8801C20.8603 15.6961 20.3643 15.4601 19.9883 15.1721L20.6483 13.7081C21.0083 13.9641 21.4323 14.1761 21.9203 14.3441C22.4163 14.5041 22.9163 14.5841 23.4203 14.5841C23.8043 14.5841 24.1123 14.5481 24.3443 14.4761C24.5843 14.3961 24.7603 14.2881 24.8723 14.1521C24.9843 14.0161 25.0403 13.8601 25.0403 13.6841C25.0403 13.4601 24.9523 13.2841 24.7763 13.1561C24.6003 13.0201 24.3683 12.9121 24.0803 12.8321C23.7923 12.7441 23.4723 12.6641 23.1203 12.5921C22.7763 12.5121 22.4283 12.4161 22.0763 12.3041C21.7323 12.1921 21.4163 12.0481 21.1283 11.8721C20.8403 11.6961 20.6043 11.4641 20.4203 11.1761C20.2443 10.8881 20.1563 10.5201 20.1563 10.0721C20.1563 9.59205 20.2843 9.15605 20.5403 8.76405C20.8043 8.36405 21.1963 8.04805 21.7163 7.81605C22.2443 7.57605 22.9043 7.45605 23.6963 7.45605C24.2243 7.45605 24.7443 7.52005 25.2563 7.64805C25.7683 7.76805 26.2203 7.95205 26.6123 8.20005L26.0123 9.67605C25.6203 9.45205 25.2283 9.28805 24.8363 9.18405C24.4443 9.07205 24.0603 9.01605 23.6843 9.01605C23.3083 9.01605 23.0003 9.06005 22.7603 9.14805C22.5203 9.23605 22.3483 9.35205 22.2443 9.49605C22.1403 9.63205 22.0883 9.79205 22.0883 9.97605C22.0883 10.1921 22.1763 10.3681 22.3523 10.5041C22.5283 10.6321 22.7603 10.7361 23.0483 10.8161C23.3363 10.8961 23.6523 10.9761 23.9963 11.0561C24.3483 11.1361 24.6963 11.2281 25.0403 11.3321C25.3923 11.4361 25.7123 11.5761 26.0003 11.7521C26.2883 11.9281 26.5203 12.1601 26.6963 12.4481C26.8803 12.7361 26.9723 13.1001 26.9723 13.5401C26.9723 14.0121 26.8403 14.4441 26.5763 14.8361C26.3123 15.2281 25.9163 15.5441 25.3883 15.7841C24.8683 16.0241 24.2083 16.1441 23.4083 16.1441Z" fill="black"/>
<path d="M15.7559 16.1441C15.0839 16.1441 14.4399 16.0561 13.8239 15.8801C13.2079 15.6961 12.7119 15.4601 12.3359 15.1721L12.9959 13.7081C13.3559 13.9641 13.7799 14.1761 14.2679 14.3441C14.7639 14.5041 15.2639 14.5841 15.7679 14.5841C16.1519 14.5841 16.4599 14.5481 16.6919 14.4761C16.9319 14.3961 17.1079 14.2881 17.2199 14.1521C17.3319 14.0161 17.3879 13.8601 17.3879 13.6841C17.3879 13.4601 17.2999 13.2841 17.1239 13.1561C16.9479 13.0201 16.7159 12.9121 16.4279 12.8321C16.1399 12.7441 15.8199 12.6641 15.4679 12.5921C15.1239 12.5121 14.7759 12.4161 14.4239 12.3041C14.0799 12.1921 13.7639 12.0481 13.4759 11.8721C13.1879 11.6961 12.9519 11.4641 12.7679 11.1761C12.5919 10.8881 12.5039 10.5201 12.5039 10.0721C12.5039 9.59205 12.6319 9.15605 12.8879 8.76405C13.1519 8.36405 13.5439 8.04805 14.0639 7.81605C14.5919 7.57605 15.2519 7.45605 16.0439 7.45605C16.5719 7.45605 17.0919 7.52005 17.6039 7.64805C18.1159 7.76805 18.5679 7.95205 18.9599 8.20005L18.3599 9.67605C17.9679 9.45205 17.5759 9.28805 17.1839 9.18405C16.7919 9.07205 16.4079 9.01605 16.0319 9.01605C15.6559 9.01605 15.3479 9.06005 15.1079 9.14805C14.8679 9.23605 14.6959 9.35205 14.5919 9.49605C14.4879 9.63205 14.4359 9.79205 14.4359 9.97605C14.4359 10.1921 14.5239 10.3681 14.6999 10.5041C14.8759 10.6321 15.1079 10.7361 15.3959 10.8161C15.6839 10.8961 15.9999 10.9761 16.3439 11.0561C16.6959 11.1361 17.0439 11.2281 17.3879 11.3321C17.7399 11.4361 18.0599 11.5761 18.3479 11.7521C18.6359 11.9281 18.8679 12.1601 19.0439 12.4481C19.2279 12.7361 19.3199 13.1001 19.3199 13.5401C19.3199 14.0121 19.1879 14.4441 18.9239 14.8361C18.6599 15.2281 18.2639 15.5441 17.7359 15.7841C17.2159 16.0241 16.5559 16.1441 15.7559 16.1441Z" fill="black"/>
<path d="M47.4106 9.44059C46.7429 7.90415 45.5898 6.58117 44.1272 5.44066C41.9262 3.73116 38.9907 2.39693 35.5574 1.45943C32.124 0.525039 28.1887 0 24.0001 0C17.6167 0.00413145 11.8271 1.21051 7.4917 3.25627C5.32395 4.28443 3.51036 5.52398 2.17705 7.0105C1.51246 7.75416 0.969746 8.56461 0.589652 9.44071C0.210477 10.3168 -0.000915122 11.2615 2.97808e-06 12.2283V35.1609C-0.000915122 36.1275 0.210477 37.0734 0.589652 37.9485C1.25734 39.4849 2.41047 40.8078 3.87301 41.9494C6.07415 43.6589 9.00943 44.9933 12.4429 45.9308C15.8761 46.8649 19.8116 47.3891 24.0001 47.39C30.3845 47.3847 36.1729 46.1797 40.5084 44.1327C42.676 43.1046 44.4896 41.866 45.823 40.3786C46.4877 39.6358 47.0302 38.8254 47.4105 37.9484C47.7896 37.0734 48.001 36.1274 48 35.1608V12.2282C48.0011 11.2614 47.7897 10.3167 47.4106 9.44059ZM44.6897 36.8615C44.4543 37.3667 44.1178 37.873 43.6637 38.3844C42.197 40.0365 39.5418 41.5918 36.1158 42.6813C32.6908 43.7771 28.5085 44.4292 24.0001 44.4282C17.9897 44.4313 12.5552 43.2645 8.73136 41.4502C6.81781 40.547 5.31569 39.4835 4.33665 38.3844C3.88242 37.873 3.54594 37.3667 3.31044 36.8626V29.4313C5.22514 31.1813 7.91368 32.5792 11.1292 33.6126C14.8365 34.7959 19.2531 35.4761 24.0001 35.4772C30.3304 35.474 36.0689 34.2731 40.3315 32.2604C42.045 31.4479 43.5096 30.498 44.6897 29.4157V36.8615ZM44.6897 25.4282C44.4543 25.9333 44.1178 26.4396 43.6637 26.95C42.197 28.602 39.5418 30.1583 36.1158 31.2468C32.6908 32.3427 28.5085 32.9948 24.0001 32.9938C17.9897 32.997 12.5552 31.8303 8.73136 30.0167C6.81781 29.1135 5.31569 28.049 4.33665 26.95C3.88242 26.4396 3.54594 25.9333 3.31044 25.4282V17.9968C5.22514 19.7479 7.91368 21.1448 11.1292 22.1791C14.8365 23.3635 19.2531 24.0437 24.0001 24.0437C30.3304 24.0406 36.0689 22.8405 40.3315 20.827C42.045 20.0145 43.5096 19.0645 44.6897 17.9821V25.4282ZM44.6897 13.9937C44.4543 14.499 44.1178 15.0062 43.6637 15.5167C42.197 17.1698 39.5418 18.725 36.1158 19.8147C32.6908 20.9104 28.5085 21.5625 24.0001 21.5616C17.9897 21.5647 12.5552 20.3979 8.73136 18.5835C6.81781 17.6793 5.31569 16.6157 4.33665 15.5168C3.88242 15.0063 3.54594 14.4991 3.31044 13.9948V12.2282C3.31159 11.7354 3.41258 11.2562 3.62822 10.7552C4.00326 9.8822 4.7584 8.94585 5.9074 8.05208C7.62517 6.70936 10.196 5.49793 13.3126 4.65316C16.4293 3.80415 20.0896 3.30941 24.0001 3.31044C29.9574 3.30516 35.3408 4.46782 39.0918 6.24905C40.9688 7.13341 42.4261 8.17304 43.3543 9.21681C43.8209 9.7376 44.1563 10.2554 44.372 10.7553C44.5875 11.2564 44.6885 11.7355 44.6897 12.2283V13.9937Z" fill="black"/>
</svg>
