<svg width="120" height="28" viewBox="0 0 120 28" fill="none" xmlns="http://www.w3.org/2000/svg">
<path d="M91.125 11.9019C91.6796 11.9019 92.1693 12.0145 92.594 12.2399C93.0273 12.4565 93.3653 12.7945 93.608 13.2539C93.8593 13.7045 93.985 14.2852 93.985 14.9959V18.9999H91.957V15.3079C91.957 14.7445 91.84 14.3285 91.606 14.0599C91.372 13.7912 91.0426 13.6569 90.618 13.6569C90.3233 13.6569 90.059 13.7262 89.825 13.8649C89.591 13.9949 89.409 14.1942 89.279 14.4629C89.149 14.7315 89.084 15.0739 89.084 15.4899V18.9999H87.056V15.3079C87.056 14.7445 86.939 14.3285 86.705 14.0599C86.4796 13.7912 86.1546 13.6569 85.73 13.6569C85.4353 13.6569 85.171 13.7262 84.937 13.8649C84.703 13.9949 84.521 14.1942 84.391 14.4629C84.261 14.7315 84.196 15.0739 84.196 15.4899V18.9999H82.168V12.0059H84.105V13.9169L83.741 13.3579C83.9836 12.8812 84.326 12.5215 84.768 12.2789C85.2186 12.0275 85.73 11.9019 86.302 11.9019C86.9433 11.9019 87.5023 12.0665 87.979 12.3959C88.4643 12.7165 88.785 13.2105 88.941 13.8779L88.226 13.6829C88.46 13.1369 88.8326 12.7035 89.344 12.3829C89.864 12.0622 90.4576 11.9019 91.125 11.9019Z" fill="black"/>
<path d="M78.4345 18.9999V17.6349L78.3045 17.3359V14.8919C78.3045 14.4585 78.1701 14.1205 77.9015 13.8779C77.6415 13.6352 77.2385 13.5139 76.6925 13.5139C76.3198 13.5139 75.9515 13.5745 75.5875 13.6959C75.2321 13.8085 74.9288 13.9645 74.6775 14.1639L73.9495 12.7469C74.3308 12.4782 74.7901 12.2702 75.3275 12.1229C75.8648 11.9755 76.4108 11.9019 76.9655 11.9019C78.0315 11.9019 78.8591 12.1532 79.4485 12.6559C80.0378 13.1585 80.3325 13.9429 80.3325 15.0089V18.9999H78.4345ZM76.3025 19.1039C75.7565 19.1039 75.2885 19.0129 74.8985 18.8309C74.5085 18.6402 74.2095 18.3845 74.0015 18.0639C73.7935 17.7432 73.6895 17.3835 73.6895 16.9849C73.6895 16.5689 73.7891 16.2049 73.9885 15.8929C74.1965 15.5809 74.5215 15.3382 74.9635 15.1649C75.4055 14.9829 75.9818 14.8919 76.6925 14.8919H78.5515V16.0749H76.9135C76.4368 16.0749 76.1075 16.1529 75.9255 16.3089C75.7521 16.4649 75.6655 16.6599 75.6655 16.8939C75.6655 17.1539 75.7651 17.3619 75.9645 17.5179C76.1725 17.6652 76.4541 17.7389 76.8095 17.7389C77.1475 17.7389 77.4508 17.6609 77.7195 17.5049C77.9881 17.3402 78.1831 17.1019 78.3045 16.7899L78.6165 17.7259C78.4691 18.1765 78.2005 18.5189 77.8105 18.7529C77.4205 18.9869 76.9178 19.1039 76.3025 19.1039Z" fill="black"/>
<path d="M69.0547 18.9999V12.0059H70.9917V13.9819L70.7187 13.4099C70.9267 12.9159 71.2604 12.5432 71.7197 12.2919C72.179 12.0319 72.738 11.9019 73.3967 11.9019V13.7739C73.31 13.7652 73.232 13.7609 73.1627 13.7609C73.0934 13.7522 73.0197 13.7479 72.9417 13.7479C72.387 13.7479 71.9364 13.9082 71.5897 14.2289C71.2517 14.5409 71.0827 15.0305 71.0827 15.6979V18.9999H69.0547Z" fill="black"/>
<path d="M63.2406 21.6259C62.582 21.6259 61.945 21.5435 61.3296 21.3789C60.723 21.2229 60.216 20.9845 59.8086 20.6639L60.6146 19.2079C60.9093 19.4505 61.282 19.6412 61.7326 19.7799C62.192 19.9272 62.6426 20.0009 63.0846 20.0009C63.804 20.0009 64.324 19.8405 64.6446 19.5199C64.974 19.1992 65.1386 18.7225 65.1386 18.0899V17.0369L65.2686 15.2819L65.2426 13.5139V12.0059H67.1666V17.8299C67.1666 19.1299 66.8286 20.0875 66.1526 20.7029C65.4766 21.3182 64.506 21.6259 63.2406 21.6259ZM62.9286 18.6619C62.2786 18.6619 61.6893 18.5232 61.1606 18.2459C60.6406 17.9599 60.2203 17.5655 59.8996 17.0629C59.5876 16.5515 59.4316 15.9579 59.4316 15.2819C59.4316 14.5972 59.5876 14.0035 59.8996 13.5009C60.2203 12.9895 60.6406 12.5952 61.1606 12.3179C61.6893 12.0405 62.2786 11.9019 62.9286 11.9019C63.518 11.9019 64.038 12.0232 64.4886 12.2659C64.9393 12.4999 65.2903 12.8682 65.5416 13.3709C65.793 13.8649 65.9186 14.5019 65.9186 15.2819C65.9186 16.0532 65.793 16.6902 65.5416 17.1929C65.2903 17.6869 64.9393 18.0552 64.4886 18.2979C64.038 18.5405 63.518 18.6619 62.9286 18.6619ZM63.3316 16.9979C63.687 16.9979 64.0033 16.9285 64.2806 16.7899C64.558 16.6425 64.7746 16.4389 64.9306 16.1789C65.0866 15.9189 65.1646 15.6199 65.1646 15.2819C65.1646 14.9352 65.0866 14.6362 64.9306 14.3849C64.7746 14.1249 64.558 13.9255 64.2806 13.7869C64.0033 13.6395 63.687 13.5659 63.3316 13.5659C62.9763 13.5659 62.66 13.6395 62.3826 13.7869C62.1053 13.9255 61.8843 14.1249 61.7196 14.3849C61.5636 14.6362 61.4856 14.9352 61.4856 15.2819C61.4856 15.6199 61.5636 15.9189 61.7196 16.1789C61.8843 16.4389 62.1053 16.6425 62.3826 16.7899C62.66 16.9285 62.9763 16.9979 63.3316 16.9979Z" fill="black"/>
<path d="M56.1669 18.9999V17.6349L56.0369 17.3359V14.8919C56.0369 14.4585 55.9025 14.1205 55.6339 13.8779C55.3739 13.6352 54.9709 13.5139 54.4249 13.5139C54.0522 13.5139 53.6839 13.5745 53.3199 13.6959C52.9645 13.8085 52.6612 13.9645 52.4099 14.1639L51.6819 12.7469C52.0632 12.4782 52.5225 12.2702 53.0599 12.1229C53.5972 11.9755 54.1432 11.9019 54.6979 11.9019C55.7639 11.9019 56.5915 12.1532 57.1809 12.6559C57.7702 13.1585 58.0649 13.9429 58.0649 15.0089V18.9999H56.1669ZM54.0349 19.1039C53.4889 19.1039 53.0209 19.0129 52.6309 18.8309C52.2409 18.6402 51.9419 18.3845 51.7339 18.0639C51.5259 17.7432 51.4219 17.3835 51.4219 16.9849C51.4219 16.5689 51.5215 16.2049 51.7209 15.8929C51.9289 15.5809 52.2539 15.3382 52.6959 15.1649C53.1379 14.9829 53.7142 14.8919 54.4249 14.8919H56.2839V16.0749H54.6459C54.1692 16.0749 53.8399 16.1529 53.6579 16.3089C53.4845 16.4649 53.3979 16.6599 53.3979 16.8939C53.3979 17.1539 53.4975 17.3619 53.6969 17.5179C53.9049 17.6652 54.1865 17.7389 54.5419 17.7389C54.8799 17.7389 55.1832 17.6609 55.4519 17.5049C55.7205 17.3402 55.9155 17.1019 56.0369 16.7899L56.3489 17.7259C56.2015 18.1765 55.9329 18.5189 55.5429 18.7529C55.1529 18.9869 54.6502 19.1039 54.0349 19.1039Z" fill="black"/>
<path d="M49.0885 19.104C48.2652 19.104 47.6238 18.896 47.1645 18.48C46.7052 18.0553 46.4755 17.427 46.4755 16.595V10.459H48.5035V16.569C48.5035 16.8637 48.5815 17.0933 48.7375 17.258C48.8935 17.414 49.1058 17.492 49.3745 17.492C49.6952 17.492 49.9682 17.4053 50.1935 17.232L50.7395 18.662C50.5315 18.8093 50.2802 18.922 49.9855 19C49.6995 19.0693 49.4005 19.104 49.0885 19.104ZM45.3965 13.722V12.162H50.2455V13.722H45.3965Z" fill="black"/>
<path d="M41.6755 19.1039C41.0775 19.1039 40.5012 19.0345 39.9465 18.8959C39.4005 18.7485 38.9672 18.5665 38.6465 18.3499L39.3225 16.8939C39.6432 17.0932 40.0202 17.2579 40.4535 17.3879C40.8955 17.5092 41.3288 17.5699 41.7535 17.5699C42.2215 17.5699 42.5508 17.5135 42.7415 17.4009C42.9408 17.2882 43.0405 17.1322 43.0405 16.9329C43.0405 16.7682 42.9625 16.6469 42.8065 16.5689C42.6592 16.4822 42.4598 16.4172 42.2085 16.3739C41.9572 16.3305 41.6798 16.2872 41.3765 16.2439C41.0818 16.2005 40.7828 16.1442 40.4795 16.0749C40.1762 15.9969 39.8988 15.8842 39.6475 15.7369C39.3962 15.5895 39.1925 15.3902 39.0365 15.1389C38.8892 14.8875 38.8155 14.5625 38.8155 14.1639C38.8155 13.7219 38.9412 13.3319 39.1925 12.9939C39.4525 12.6559 39.8252 12.3915 40.3105 12.2009C40.7958 12.0015 41.3765 11.9019 42.0525 11.9019C42.5292 11.9019 43.0145 11.9539 43.5085 12.0579C44.0025 12.1619 44.4142 12.3135 44.7435 12.5129L44.0675 13.9559C43.7295 13.7565 43.3872 13.6222 43.0405 13.5529C42.7025 13.4749 42.3732 13.4359 42.0525 13.4359C41.6018 13.4359 41.2725 13.4965 41.0645 13.6179C40.8565 13.7392 40.7525 13.8952 40.7525 14.0859C40.7525 14.2592 40.8262 14.3892 40.9735 14.4759C41.1295 14.5625 41.3332 14.6319 41.5845 14.6839C41.8358 14.7359 42.1088 14.7835 42.4035 14.8269C42.7068 14.8615 43.0102 14.9179 43.3135 14.9959C43.6168 15.0739 43.8898 15.1865 44.1325 15.3339C44.3838 15.4725 44.5875 15.6675 44.7435 15.9189C44.8995 16.1615 44.9775 16.4822 44.9775 16.8809C44.9775 17.3142 44.8475 17.6999 44.5875 18.0379C44.3275 18.3672 43.9505 18.6272 43.4565 18.8179C42.9712 19.0085 42.3775 19.1039 41.6755 19.1039Z" fill="black"/>
<path d="M34.585 11.9019C35.1397 11.9019 35.6337 12.0145 36.067 12.2399C36.509 12.4565 36.8557 12.7945 37.107 13.2539C37.3583 13.7045 37.484 14.2852 37.484 14.9959V18.9999H35.456V15.3079C35.456 14.7445 35.3303 14.3285 35.079 14.0599C34.8363 13.7912 34.4897 13.6569 34.039 13.6569C33.7183 13.6569 33.428 13.7262 33.168 13.8649C32.9167 13.9949 32.7173 14.1985 32.57 14.4759C32.4313 14.7532 32.362 15.1085 32.362 15.5419V18.9999H30.334V12.0059H32.271V13.9429L31.907 13.3579C32.1583 12.8899 32.518 12.5302 32.986 12.2789C33.454 12.0275 33.987 11.9019 34.585 11.9019Z" fill="black"/>
<path d="M26.2109 18.9999V9.8999H28.3169V18.9999H26.2109Z" fill="black"/>
<path fill-rule="evenodd" clip-rule="evenodd" d="M106 3H14C7.92487 3 3 7.92487 3 14C3 20.0751 7.92487 25 14 25H106C112.075 25 117 20.0751 117 14C117 7.92487 112.075 3 106 3ZM14 0C6.26801 0 0 6.26801 0 14C0 21.732 6.26801 28 14 28H106C113.732 28 120 21.732 120 14C120 6.26801 113.732 0 106 0H14Z" fill="black"/>
</svg>
