<svg width="120" height="28" viewBox="0 0 120 28" fill="none" xmlns="http://www.w3.org/2000/svg">
<path d="M55.3984 18.9999L59.3114 13.6049V15.1389L55.5674 9.8999H57.9594L60.5464 13.5529L59.5454 13.5659L62.0934 9.8999H64.3814L60.6634 15.0479V13.5399L64.6024 18.9999H62.1714L59.4934 15.1389H60.4554L57.8164 18.9999H55.3984Z" fill="black"/>
<path fill-rule="evenodd" clip-rule="evenodd" d="M106 3H14C7.92487 3 3 7.92487 3 14C3 20.0751 7.92487 25 14 25H106C112.075 25 117 20.0751 117 14C117 7.92487 112.075 3 106 3ZM14 0C6.26801 0 0 6.26801 0 14C0 21.732 6.26801 28 14 28H106C113.732 28 120 21.732 120 14C120 6.26801 113.732 0 106 0H14Z" fill="black"/>
</svg>
