<svg width="140" height="161" viewBox="0 0 140 161" fill="none" xmlns="http://www.w3.org/2000/svg">
<path fill-rule="evenodd" clip-rule="evenodd" d="M10 0C4.47715 0 0 4.47716 0 10V85.1356C0 90.6584 4.47716 95.1356 10 95.1356H64.4741L70.0009 104.649L75.5278 95.1356H130C135.523 95.1356 140 90.6584 140 85.1356V10C140 4.47715 135.523 0 130 0H10Z" fill="white"/>
<path d="M79.7402 78.0257H84.2968V79.2411H79.7402V78.0257ZM70.493 68.5526H76.9258V69.768H70.493V68.5526ZM79.1706 67.4704H84.8999V80.3399H83.6267V68.6692H80.3935V80.4565H79.1706V67.4704ZM76.5908 68.5526H77.8137C77.8137 68.5526 77.8137 69.0188 77.8137 69.1853C77.6797 76.5939 77.5624 79.0247 77.0264 79.7572C76.7248 80.1901 76.4233 80.3399 75.9207 80.3899C75.4517 80.4565 74.6811 80.4565 73.9272 80.4065C73.9105 80.0402 73.7764 79.4908 73.5587 79.1412C74.346 79.2078 75.0664 79.2078 75.3847 79.2078C75.6359 79.2244 75.7867 79.1745 75.9375 78.9581C76.3228 78.442 76.4735 75.9779 76.5908 68.8523V68.5526ZM72.8718 65.6224H74.0947C74.078 71.7658 73.9942 77.5429 71.0458 80.7228C70.8281 80.4398 70.3925 80.0569 70.0742 79.8737C72.8718 76.9436 72.8551 71.4495 72.8718 65.6224Z" fill="black"/>
<path d="M58.9821 65.3893L60.339 65.7722C59.5852 66.8877 58.647 68.1696 57.8932 69.0021L56.8713 68.6191C57.5917 67.7534 58.4963 66.3716 58.9821 65.3893ZM63.0026 66.6879L63.9742 66.0885C65.4987 67.0375 67.3582 68.4859 68.2628 69.5182L67.2074 70.2008C66.353 69.1852 64.5438 67.6868 63.0026 66.6879ZM54.3585 68.2862C57.3236 68.2362 62.0812 68.1363 66.5038 68.0031L66.4535 69.052C62.165 69.2185 57.5582 69.3683 54.5093 69.4349L54.3585 68.2862ZM53.7219 70.8001H68.7486V71.8823H53.7219V70.8001ZM61.7127 72.6814L62.7011 73.1642C61.4446 74.1132 59.4511 74.9124 57.7592 75.3785C57.5917 75.1454 57.2901 74.8125 57.0221 74.6127C58.6303 74.2131 60.6406 73.4639 61.7127 72.6814ZM63.4549 74.6127L64.46 75.0955C62.8351 76.4274 60.1212 77.4097 57.6419 77.9757C57.4911 77.7093 57.2064 77.3098 56.9383 77.0767C59.3004 76.6105 62.0142 75.7115 63.4549 74.6127ZM65.6327 76.494L66.7216 77.0101C64.6778 79.1245 60.8416 80.2566 56.5865 80.806C56.4525 80.4897 56.218 80.0568 55.9835 79.7738C60.0542 79.3243 63.7899 78.3087 65.6327 76.494ZM59.6689 68.8522L60.9086 69.1685C59.5684 72.4317 57.0891 74.7292 54.0737 76.1444C53.9062 75.9113 53.4371 75.4118 53.1523 75.1787C56.151 73.9467 58.513 71.799 59.6689 68.8522ZM63.8905 71.0332C64.9626 72.7147 67.1069 74.313 69.1171 75.0788C68.8323 75.3119 68.4638 75.7781 68.2795 76.0611C66.219 75.1454 64.0412 73.364 62.8351 71.4494L63.8905 71.0332Z" fill="black"/>
<path d="M106.493 42.2141C107.666 42.9966 109.827 44.7281 110.748 45.6438L109.71 46.7093C108.855 45.8435 106.778 44.0455 105.522 43.2297L106.493 42.2141ZM105.053 53.3688C107.968 52.9359 110.145 51.9203 111.737 50.938C114.333 49.3231 116.36 46.8591 117.332 44.7947L118.136 46.2265C116.997 48.2909 115.054 50.5551 112.524 52.1368C110.832 53.1856 108.721 54.2178 105.924 54.734L105.053 53.3688Z" fill="black"/>
<path d="M88.4629 47.1921C88.9822 47.2421 89.8533 47.292 90.8082 47.292C92.0311 47.292 98.7487 47.292 99.9884 47.292C100.826 47.292 101.412 47.2254 101.798 47.1921V48.8237C101.446 48.8071 100.742 48.7571 100.005 48.7571C98.7319 48.7571 92.0478 48.7571 90.8082 48.7571C89.8868 48.7571 88.999 48.7904 88.4629 48.8237V47.1921Z" fill="black"/>
<path d="M81.8138 44.4118C81.8138 45.0944 82.3667 45.6438 83.0367 45.6438C83.7236 45.6438 84.2597 45.0944 84.2597 44.4118C84.2597 43.7459 83.7236 43.1965 83.0367 43.1965C82.3667 43.1965 81.8138 43.7459 81.8138 44.4118ZM81.0097 44.4118C81.0097 43.2964 81.9144 42.3973 83.0367 42.3973C84.1591 42.3973 85.0805 43.2964 85.0805 44.4118C85.0805 45.5273 84.1591 46.443 83.0367 46.443C81.9144 46.443 81.0097 45.5273 81.0097 44.4118ZM70.9082 50.0225C71.327 49.6562 71.6453 49.3565 72.0809 48.9236C72.885 48.1245 74.3424 46.2765 75.3978 45.0278C76.2856 43.979 77.073 43.7958 78.2121 44.878C79.234 45.827 80.6747 47.3254 81.6463 48.3576C82.7855 49.5563 84.4607 51.3544 85.7506 52.7362L84.5947 53.9516C83.4053 52.5198 81.9311 50.8049 80.8422 49.5896C79.8706 48.5074 78.3294 46.8592 77.6258 46.16C76.9725 45.5439 76.6542 45.5939 76.0846 46.2931C75.2805 47.2588 73.8733 49.0901 73.1195 50.0058C72.7677 50.4387 72.4159 50.9548 72.1479 51.2878L70.9082 50.0225Z" fill="black"/>
<path d="M57.0715 42.2141C58.2442 42.9966 60.4052 44.7281 61.3266 45.6438L60.288 46.7093C59.4336 45.8435 57.3563 44.0455 56.0999 43.2297L57.0715 42.2141ZM55.6309 53.3688C58.5457 52.9359 60.7235 51.9203 62.315 50.938C64.9115 49.3231 66.9386 46.8591 67.9102 44.7947L68.7143 46.2265C67.5751 48.2909 65.6319 50.5551 63.1023 52.1368C61.4103 53.1856 59.2996 54.2178 56.502 54.734L55.6309 53.3688Z" fill="black"/>
<path d="M42.966 44.2118C42.9996 44.5115 43.1001 44.8611 43.2006 45.294C43.5859 46.6758 45.4119 53.2687 45.7637 54.4008C45.8642 54.7171 46.0149 55.2333 46.1322 55.5329L44.6915 55.9158C44.658 55.5329 44.5743 55.1001 44.457 54.7005C44.1052 53.5018 42.3127 46.7923 41.9274 45.5603C41.8102 45.1608 41.6761 44.8278 41.5254 44.5614L42.966 44.2118ZM51.0071 46.5093C50.3035 47.9078 48.578 50.2553 47.4221 51.3707L46.2495 50.7714C47.2881 49.889 48.5613 48.3407 49.1308 47.3584C48.3937 47.4916 40.5537 49.0566 39.3643 49.3063L39.0293 48.041C39.4984 47.9911 39.9172 47.9411 40.4197 47.8412C41.2573 47.708 48.5613 46.3428 49.5161 46.1264C49.7339 46.0765 49.9852 45.9932 50.1527 45.91L51.0071 46.5093Z" fill="black"/>
<path d="M26.3134 42.6304C26.2297 42.2142 26.1291 41.8479 26.0119 41.4983L27.5028 41.2485C27.5363 41.5482 27.6033 42.031 27.6703 42.3973C27.7709 43.1298 29.6136 52.27 29.8481 53.3688C29.9654 53.835 30.0994 54.401 30.2669 54.8838L28.7257 55.1669C28.642 54.6008 28.5917 54.0847 28.4744 53.6019C28.3069 52.553 26.5144 43.4961 26.3134 42.6304ZM21.5893 45.0444C22.0081 45.0111 22.4604 44.9778 22.9965 44.9279C24.5042 44.7614 30.2837 43.8457 31.8751 43.5294C32.3609 43.4462 32.7965 43.3463 33.0813 43.263L33.3493 44.6615C33.098 44.6782 32.5955 44.7614 32.1432 44.828C30.4177 45.0944 24.7052 45.9934 23.231 46.2432C22.7787 46.3264 22.3767 46.4096 21.8909 46.5262L21.5893 45.0444ZM21.5391 49.8393C21.9411 49.8226 22.5777 49.756 23.0133 49.6894C24.8057 49.4564 31.0375 48.4408 33.0478 48.0745C33.6844 47.958 34.1702 47.8414 34.522 47.7415L34.8068 49.14C34.455 49.1733 33.9189 49.2732 33.2991 49.3731C31.071 49.7061 25.0235 50.6884 23.3315 50.988C22.6782 51.1046 22.2091 51.2045 21.8406 51.3044L21.5391 49.8393Z" fill="black"/>
<path d="M90.4613 22.0193V27.913H89.2552V23.1848H87.1276V22.0193H90.4613ZM90.4613 27.4135C91.2487 28.6455 92.7228 29.2116 94.7163 29.2782C96.5758 29.3614 100.446 29.3115 102.473 29.1783C102.322 29.4613 102.121 30.044 102.071 30.4103C100.178 30.4935 96.5926 30.5268 94.7163 30.4436C92.5051 30.3604 90.9806 29.7777 89.942 28.4624C89.2049 29.1783 88.4343 29.8942 87.5967 30.6267L86.9434 29.4114C87.6805 28.8786 88.5851 28.1294 89.3724 27.4135H90.4613ZM87.2784 16.5586L88.2333 15.876C89.2719 16.6252 90.4446 17.7739 90.9639 18.5897L89.9252 19.3722C89.4562 18.5398 88.3003 17.3743 87.2784 16.5586ZM97.9328 15.6096L99.2897 15.9093C98.8039 16.9748 98.2008 18.1901 97.7317 18.9726L96.6931 18.6729C97.1454 17.8239 97.6647 16.5253 97.9328 15.6096ZM93.9457 18.0569H101.819V19.1391H93.9457V27.0639H92.7228V19.0059L93.661 18.0569H93.9457ZM93.3762 20.8872H101.4V21.9361H93.3762V20.8872ZM93.3762 23.6842H101.367V24.7497H93.3762V23.6842ZM92.7228 26.5644H102.104V27.6466H92.7228V26.5644ZM96.8774 18.5564H98.0835V26.9807H96.8774V18.5564ZM94.197 15.493L95.4367 15.8427C94.4651 18.2068 92.8904 20.4044 91.2319 21.8196C91.0309 21.5698 90.5618 21.087 90.277 20.8706C91.902 19.5886 93.3427 17.6074 94.197 15.493Z" fill="black"/>
<path d="M73.4904 15.5096L74.663 15.8426C73.7082 18.7228 72.2172 21.6364 70.5588 23.5843C70.4415 23.3012 70.1064 22.6187 69.8887 22.3023C71.3629 20.6375 72.6863 18.0902 73.4904 15.5096ZM72.1502 19.6219L73.3396 18.4232L73.3899 18.4565V30.7599H72.1502V19.6219ZM77.1759 17.341V20.7706H83.2401V17.341H77.1759ZM75.9697 16.2255H84.4965V21.8861H75.9697V16.2255ZM80.141 24.45H84.7981V25.6321H80.141V24.45ZM79.6049 21.3201H80.8446V29.6611L79.6049 29.1283V21.3201ZM77.0753 25.4989C78.0135 28.6788 80.1912 29.2115 82.7711 29.2115C83.2234 29.2282 85.1834 29.2115 85.7865 29.2115C85.6189 29.4946 85.4347 30.0606 85.3676 30.3936H82.6873C79.5714 30.3936 77.2931 29.6444 76.1037 25.8652L77.0753 25.4989ZM76.3047 23.5343L77.5109 23.6509C77.1759 26.7475 76.3885 29.1949 74.8306 30.7932C74.6295 30.5934 74.1102 30.2271 73.8254 30.0606C75.3499 28.6288 76.02 26.3147 76.3047 23.5343Z" fill="black"/>
<path d="M62.2478 21.1535H68.5633V22.2689H62.2478V21.1535ZM58.311 29.0117H66.7541V30.1271H58.311V29.0117ZM61.6447 19.1723H62.9179V25.2657H61.6447V19.1723ZM57.6409 24.6663H67.4409V30.7598H66.151V25.7985H58.8638V30.7931H57.6409V24.6663ZM61.0584 15.4596H62.3483V18.2899H61.0584V15.4596ZM55.4799 17.6073H68.7979V18.806H55.4799V17.6073ZM54.8601 17.6073H56.1165V21.9193C56.1165 24.4832 55.882 28.2458 54.4413 30.7764C54.2235 30.56 53.6707 30.2104 53.3691 30.0772C54.7428 27.6798 54.8601 24.3167 54.8601 21.9193V17.6073Z" fill="black"/>
<path d="M37.0365 22.835H51.9292V24.0337H37.0365V22.835ZM37.8406 17.4574H51.2256V18.6562H37.8406V17.4574ZM43.7876 15.4596H45.111V30.7598H43.7876V15.4596ZM48.763 18.9558L50.0697 19.372C49.4666 20.5208 48.7295 21.8527 48.1264 22.6851L47.0543 22.3022C47.6406 21.4198 48.3777 19.9714 48.763 18.9558ZM39.1975 19.4553L40.3032 19.0391C40.99 20.0047 41.6601 21.3199 41.8946 22.169L40.7052 22.6518C40.4875 21.8028 39.8509 20.4542 39.1975 19.4553ZM43.4526 23.3011L44.4745 23.7174C42.883 26.3146 40.1022 28.7786 37.5558 30.0272C37.3548 29.7276 36.9528 29.2614 36.668 29.0117C39.2143 27.9128 42.0119 25.5987 43.4526 23.3011ZM45.4796 23.3011C46.937 25.5987 49.7514 27.9461 52.2977 29.045C52.0129 29.2947 51.6109 29.7775 51.4099 30.0938C48.8468 28.8285 46.0659 26.2979 44.4577 23.734L45.4796 23.3011Z" fill="black"/>
<path d="M70.0011 134.981C75.7865 134.981 80.4748 130.32 80.4748 124.572C80.4748 118.822 75.7865 114.163 70.0011 114.163C64.2157 114.163 59.5273 118.822 59.5273 124.572C59.5271 130.32 64.2154 134.981 70.0011 134.981Z" fill="black"/>
<path d="M88.6354 128.286C90.1463 126.261 93.0276 125.838 95.0662 127.34C97.1009 128.841 97.5298 131.701 96.0189 133.727L84.6449 151.238C83.6086 152.646 83.0505 159.257 83.0505 161H56.9516C56.9516 159.257 56.3935 152.646 55.3572 151.238L43.9792 133.727C42.4684 131.701 42.8975 128.841 44.9359 127.34C46.9745 125.838 49.8519 126.261 51.3628 128.286L53.7556 132.466C56.8723 136.644 59.3242 137.881 64.5628 137.881H69.9992H75.439C80.6742 137.881 83.1296 136.644 86.2465 132.466L88.6354 128.286Z" fill="black"/>
</svg>
