<svg width="47" height="28" viewBox="0 0 47 28" fill="none" xmlns="http://www.w3.org/2000/svg">
<path d="M43.3793 21.6746C42.7238 19.3997 42.0697 17.1234 41.4156 14.8485C41.2019 14.1084 40.9882 13.3683 40.7759 12.6267L39.0001 14.4025C39.5753 16.6674 40.1505 18.9322 40.7257 21.1984C41.0097 22.3143 40.2652 23.307 39.0417 22.9254C37.0379 22.0935 34.829 21.5083 32.6589 21.395C30.1918 21.2688 27.6645 21.7737 25.391 22.7218C25.1342 22.8279 23.4188 24.0628 23.3499 23.1865C23.3127 21.1382 23.2739 19.09 23.2366 17.0417C23.1578 12.8103 23.0803 8.58044 23.0014 4.34907C22.997 4.10663 23.5823 3.98472 23.7028 3.93882C24.661 3.57594 25.6635 3.32634 26.6733 3.16285C29.1332 2.7627 31.5544 2.96778 33.9598 3.57741C34.7258 3.77248 35.529 4.01061 36.0941 4.50403L37.2359 3.36371C36.8644 3.08253 36.4499 2.84449 36.0067 2.64795C33.9656 1.73428 31.3751 1.37278 29.1605 1.32118C26.7952 1.26528 24.3783 1.63532 22.1407 2.40413C21.7047 2.55331 20.9918 2.15738 20.5457 2.03694C20.0208 1.89493 19.4901 1.77586 18.9551 1.67544C17.776 1.45741 16.5798 1.33835 15.3806 1.31972C13.09 1.28382 10.7491 1.7228 8.56024 2.38118C8.0783 2.56194 8.42254 2.43424 8.53013 2.39413C7.16463 2.9105 5.66711 3.75394 5.23685 5.25136C5.12927 5.62572 5.0203 6.00007 4.91271 6.37443C4.36761 8.26924 3.8226 10.1626 3.2775 12.0573C2.53164 14.6478 1.78724 17.2368 1.04138 19.8258C0.608182 21.3333 -0.250962 23.2697 0.0703335 24.8546C0.463324 26.8168 2.38256 27.7205 4.23717 27.3432C4.88976 27.2083 5.48792 26.9071 6.11041 26.6848C7.1503 26.3118 8.21462 25.9978 9.29757 25.7725C11.9052 25.2317 14.553 25.5186 17.1162 26.1799C17.6885 26.3276 19.8329 26.6977 19.8946 27.3374C19.9535 27.9341 20.639 27.772 21.0708 27.772C21.4997 27.772 21.9286 27.772 22.3575 27.772C22.7505 27.772 23.4089 27.9082 23.7818 27.7447C24.1562 27.5826 23.8679 27.1724 24.2207 27.0189C24.7012 26.8109 25.1989 26.6388 25.6981 26.4839C26.8657 26.1196 28.0648 25.8485 29.2754 25.6721C31.8644 25.2949 34.3114 25.5673 36.7972 26.3519C38.2531 26.8109 39.6645 27.6572 41.2438 27.3747C43.3967 26.9931 44.2774 24.7928 43.7123 22.8306C43.6102 22.4419 43.4897 22.059 43.3793 21.6746ZM20.7925 9.37927C20.7064 13.9276 20.6232 18.4745 20.5386 23.0228C20.5328 23.327 20.4496 23.5163 20.1112 23.5076C18.2694 22.4132 16.0835 21.7806 13.9693 21.5139C11.4849 21.1997 9.05375 21.5383 6.67277 22.277C5.93406 22.505 5.10788 23.0071 4.32474 23.0071C3.42824 23.0071 2.90755 22.2095 3.11704 21.3762C3.66499 19.2232 4.20999 17.0688 4.75794 14.9158C5.40053 12.3842 6.04165 9.85112 6.68571 7.31949C6.84636 6.68985 7.00554 6.05873 7.16619 5.42761C7.5578 3.8842 9.74086 3.59164 11.0447 3.32056C13.4788 2.81714 15.9459 2.81998 18.3714 3.39088C18.7903 3.48984 20.8959 3.81398 20.8844 4.41498C20.8527 6.0702 20.8226 7.72552 20.7925 9.37927Z" fill="black"/>
<path d="M27.9629 19.0367L34.3472 17.6827L47.0011 5.03176L41.9693 0L29.3184 12.651L27.9629 19.0367ZM44.5742 5.03176L33.7247 15.8798L32.6045 14.7596L43.454 3.91154L44.5742 5.03176ZM41.9694 2.42697L43.0897 3.54719L32.2402 14.3952L31.1199 13.275L41.9694 2.42697ZM30.866 13.7483L33.2513 16.1351L31.0295 16.6242L30.3755 15.9716L30.866 13.7483Z" fill="black"/>
</svg>
