<svg width="120" height="28" viewBox="0 0 120 28" fill="none" xmlns="http://www.w3.org/2000/svg">
<path d="M80.8465 19.1041C80.0491 19.1041 79.3471 18.9481 78.7405 18.6361C78.1425 18.3241 77.6788 17.8994 77.3495 17.3621C77.0201 16.8161 76.8555 16.1964 76.8555 15.5031C76.8555 14.8011 77.0158 14.1814 77.3365 13.6441C77.6658 13.0981 78.1121 12.6734 78.6755 12.3701C79.2388 12.0581 79.8758 11.9021 80.5865 11.9021C81.2711 11.9021 81.8865 12.0494 82.4325 12.3441C82.9871 12.6301 83.4248 13.0461 83.7455 13.5921C84.0661 14.1294 84.2265 14.7751 84.2265 15.5291C84.2265 15.6071 84.2221 15.6981 84.2135 15.8021C84.2048 15.8974 84.1961 15.9884 84.1875 16.0751H78.5065V14.8921H83.1215L82.3415 15.2431C82.3415 14.8791 82.2678 14.5628 82.1205 14.2941C81.9731 14.0254 81.7695 13.8174 81.5095 13.6701C81.2495 13.5141 80.9461 13.4361 80.5995 13.4361C80.2528 13.4361 79.9451 13.5141 79.6765 13.6701C79.4165 13.8174 79.2128 14.0298 79.0655 14.3071C78.9181 14.5758 78.8445 14.8964 78.8445 15.2691V15.5811C78.8445 15.9624 78.9268 16.3004 79.0915 16.5951C79.2648 16.8811 79.5031 17.1021 79.8065 17.2581C80.1185 17.4054 80.4825 17.4791 80.8985 17.4791C81.2711 17.4791 81.5961 17.4228 81.8735 17.3101C82.1595 17.1974 82.4195 17.0284 82.6535 16.8031L83.7325 17.9731C83.4118 18.3371 83.0088 18.6188 82.5235 18.8181C82.0381 19.0088 81.4791 19.1041 80.8465 19.1041Z" fill="black"/>
<path d="M73.4648 19V9.354H75.4928V19H73.4648Z" fill="black"/>
<path d="M67.6508 21.6261C66.9921 21.6261 66.3551 21.5438 65.7398 21.3791C65.1331 21.2231 64.6261 20.9848 64.2188 20.6641L65.0248 19.2081C65.3195 19.4508 65.6921 19.6414 66.1428 19.7801C66.6021 19.9274 67.0528 20.0011 67.4948 20.0011C68.2141 20.0011 68.7341 19.8408 69.0548 19.5201C69.3841 19.1994 69.5488 18.7228 69.5488 18.0901V17.0371L69.6788 15.2821L69.6528 13.5141V12.0061H71.5768V17.8301C71.5768 19.1301 71.2388 20.0878 70.5628 20.7031C69.8868 21.3184 68.9161 21.6261 67.6508 21.6261ZM67.3388 18.6621C66.6888 18.6621 66.0995 18.5234 65.5708 18.2461C65.0508 17.9601 64.6305 17.5658 64.3098 17.0631C63.9978 16.5518 63.8418 15.9581 63.8418 15.2821C63.8418 14.5974 63.9978 14.0038 64.3098 13.5011C64.6305 12.9898 65.0508 12.5954 65.5708 12.3181C66.0995 12.0408 66.6888 11.9021 67.3388 11.9021C67.9281 11.9021 68.4481 12.0234 68.8988 12.2661C69.3495 12.5001 69.7005 12.8684 69.9518 13.3711C70.2031 13.8651 70.3288 14.5021 70.3288 15.2821C70.3288 16.0534 70.2031 16.6904 69.9518 17.1931C69.7005 17.6871 69.3495 18.0554 68.8988 18.2981C68.4481 18.5408 67.9281 18.6621 67.3388 18.6621ZM67.7418 16.9981C68.0971 16.9981 68.4135 16.9288 68.6908 16.7901C68.9681 16.6428 69.1848 16.4391 69.3408 16.1791C69.4968 15.9191 69.5748 15.6201 69.5748 15.2821C69.5748 14.9354 69.4968 14.6364 69.3408 14.3851C69.1848 14.1251 68.9681 13.9258 68.6908 13.7871C68.4135 13.6398 68.0971 13.5661 67.7418 13.5661C67.3865 13.5661 67.0701 13.6398 66.7928 13.7871C66.5155 13.9258 66.2945 14.1251 66.1298 14.3851C65.9738 14.6364 65.8958 14.9354 65.8958 15.2821C65.8958 15.6201 65.9738 15.9191 66.1298 16.1791C66.2945 16.4391 66.5155 16.6428 66.7928 16.7901C67.0701 16.9288 67.3865 16.9981 67.7418 16.9981Z" fill="black"/>
<path d="M59.1722 19.1041C58.4269 19.1041 57.7639 18.9481 57.1832 18.6361C56.6112 18.3241 56.1562 17.8994 55.8182 17.3621C55.4889 16.8161 55.3242 16.1964 55.3242 15.5031C55.3242 14.8011 55.4889 14.1814 55.8182 13.6441C56.1562 13.0981 56.6112 12.6734 57.1832 12.3701C57.7639 12.0581 58.4269 11.9021 59.1722 11.9021C59.9089 11.9021 60.5676 12.0581 61.1482 12.3701C61.7289 12.6734 62.1839 13.0938 62.5132 13.6311C62.8426 14.1684 63.0072 14.7924 63.0072 15.5031C63.0072 16.1964 62.8426 16.8161 62.5132 17.3621C62.1839 17.8994 61.7289 18.3241 61.1482 18.6361C60.5676 18.9481 59.9089 19.1041 59.1722 19.1041ZM59.1722 17.4401C59.5102 17.4401 59.8136 17.3621 60.0822 17.2061C60.3509 17.0501 60.5632 16.8291 60.7192 16.5431C60.8752 16.2484 60.9532 15.9018 60.9532 15.5031C60.9532 15.0958 60.8752 14.7491 60.7192 14.4631C60.5632 14.1771 60.3509 13.9561 60.0822 13.8001C59.8136 13.6441 59.5102 13.5661 59.1722 13.5661C58.8342 13.5661 58.5309 13.6441 58.2622 13.8001C57.9936 13.9561 57.7769 14.1771 57.6122 14.4631C57.4562 14.7491 57.3782 15.0958 57.3782 15.5031C57.3782 15.9018 57.4562 16.2484 57.6122 16.5431C57.7769 16.8291 57.9936 17.0501 58.2622 17.2061C58.5309 17.3621 58.8342 17.4401 59.1722 17.4401Z" fill="black"/>
<path d="M50.6527 19.1041C49.9074 19.1041 49.2444 18.9481 48.6637 18.6361C48.0917 18.3241 47.6367 17.8994 47.2987 17.3621C46.9694 16.8161 46.8047 16.1964 46.8047 15.5031C46.8047 14.8011 46.9694 14.1814 47.2987 13.6441C47.6367 13.0981 48.0917 12.6734 48.6637 12.3701C49.2444 12.0581 49.9074 11.9021 50.6527 11.9021C51.3894 11.9021 52.048 12.0581 52.6287 12.3701C53.2094 12.6734 53.6644 13.0938 53.9937 13.6311C54.323 14.1684 54.4877 14.7924 54.4877 15.5031C54.4877 16.1964 54.323 16.8161 53.9937 17.3621C53.6644 17.8994 53.2094 18.3241 52.6287 18.6361C52.048 18.9481 51.3894 19.1041 50.6527 19.1041ZM50.6527 17.4401C50.9907 17.4401 51.294 17.3621 51.5627 17.2061C51.8314 17.0501 52.0437 16.8291 52.1997 16.5431C52.3557 16.2484 52.4337 15.9018 52.4337 15.5031C52.4337 15.0958 52.3557 14.7491 52.1997 14.4631C52.0437 14.1771 51.8314 13.9561 51.5627 13.8001C51.294 13.6441 50.9907 13.5661 50.6527 13.5661C50.3147 13.5661 50.0114 13.6441 49.7427 13.8001C49.474 13.9561 49.2574 14.1771 49.0927 14.4631C48.9367 14.7491 48.8587 15.0958 48.8587 15.5031C48.8587 15.9018 48.9367 16.2484 49.0927 16.5431C49.2574 16.8291 49.474 17.0501 49.7427 17.2061C50.0114 17.3621 50.3147 17.4401 50.6527 17.4401Z" fill="black"/>
<path d="M41.8332 19.1559C41.1139 19.1559 40.4509 19.0432 39.8442 18.8179C39.2462 18.5839 38.7219 18.2546 38.2712 17.8299C37.8292 17.4052 37.4825 16.9069 37.2312 16.3349C36.9885 15.7629 36.8672 15.1346 36.8672 14.4499C36.8672 13.7652 36.9885 13.1369 37.2312 12.5649C37.4825 11.9929 37.8335 11.4946 38.2842 11.0699C38.7349 10.6452 39.2635 10.3202 39.8702 10.0949C40.4769 9.8609 41.1442 9.7439 41.8722 9.7439C42.6782 9.7439 43.4019 9.87823 44.0432 10.1469C44.6932 10.4156 45.2392 10.8056 45.6812 11.3169L44.3292 12.5649C43.9999 12.2182 43.6402 11.9626 43.2502 11.7979C42.8602 11.6246 42.4355 11.5379 41.9762 11.5379C41.5342 11.5379 41.1312 11.6072 40.7672 11.7459C40.4032 11.8846 40.0869 12.0839 39.8182 12.3439C39.5582 12.6039 39.3545 12.9116 39.2072 13.2669C39.0685 13.6222 38.9992 14.0166 38.9992 14.4499C38.9992 14.8746 39.0685 15.2646 39.2072 15.6199C39.3545 15.9752 39.5582 16.2872 39.8182 16.5559C40.0869 16.8159 40.3989 17.0152 40.7542 17.1539C41.1182 17.2926 41.5169 17.3619 41.9502 17.3619C42.3662 17.3619 42.7692 17.2969 43.1592 17.1669C43.5579 17.0282 43.9435 16.7986 44.3162 16.4779L45.5122 17.9989C45.0182 18.3716 44.4419 18.6576 43.7832 18.8569C43.1332 19.0562 42.4832 19.1559 41.8332 19.1559ZM43.5882 17.7259V14.3069H45.5122V17.9989L43.5882 17.7259Z" fill="black"/>
<path fill-rule="evenodd" clip-rule="evenodd" d="M106 3H14C7.92487 3 3 7.92487 3 14C3 20.0751 7.92487 25 14 25H106C112.075 25 117 20.0751 117 14C117 7.92487 112.075 3 106 3ZM14 0C6.26801 0 0 6.26801 0 14C0 21.732 6.26801 28 14 28H106C113.732 28 120 21.732 120 14C120 6.26801 113.732 0 106 0H14Z" fill="black"/>
</svg>
