<svg width="47" height="47" viewBox="0 0 47 47" fill="none" xmlns="http://www.w3.org/2000/svg">
<path d="M43.1209 3.87412C40.5348 1.28783 37.139 -0.0052166 33.7486 1.58161e-05C30.3582 -0.0052166 26.9624 1.28783 24.376 3.87412L17.1484 11.1018L35.8878 29.8412L43.1156 22.6137C48.2934 17.4361 48.2935 9.0465 43.1209 3.87412ZM38.0484 5.0146C37.817 6.22375 36.6449 7.01761 35.4305 6.78096C34.7419 6.64969 34.0324 6.58121 33.3226 6.57588C32.6183 6.57588 31.9085 6.64436 31.2148 6.78096C30.463 6.92297 29.722 6.67594 29.212 6.16601C28.9074 5.86106 28.6917 5.46679 28.6022 5.00955C28.3711 3.80059 29.1594 2.63358 30.3736 2.39692C31.3411 2.20764 32.3397 2.11309 33.328 2.11309C34.3163 2.11309 35.3097 2.21296 36.282 2.39692C37.4912 2.62825 38.2851 3.8005 38.0484 5.0146Z" fill="black"/>
<path d="M13.2168 12.0786L13.2166 12.0788L13.2064 12.0686L4.49593 20.7791C1.59681 23.6782 0 27.5371 0 31.6446C0 35.7454 1.59681 39.6009 4.49575 42.4993C7.39433 45.3984 11.2489 46.9946 15.3493 46.9946C15.3496 46.9946 15.3494 46.9946 15.3494 46.9946C19.4519 46.9946 23.3098 45.3963 26.2116 42.4944L34.9223 33.784L13.5411 12.4033L13.2168 12.0786ZM15.3494 42.7856C12.3732 42.7856 9.5756 41.6272 7.4718 39.5234C5.36782 37.4188 4.20907 34.6212 4.20907 31.6446C4.20907 28.6612 5.36782 25.8592 7.47217 23.755L13.2064 18.0203L28.9699 33.784L23.2354 39.5185C21.1283 41.6257 18.3276 42.7856 15.3494 42.7856Z" fill="black"/>
</svg>
