<svg width="226" height="226" viewBox="0 0 226 226" fill="none" xmlns="http://www.w3.org/2000/svg">
<path d="M192.757 114.427C192.918 114.427 192.999 114.501 192.999 114.649C192.999 114.94 192.442 115.319 191.328 115.784C190.632 116.076 189.866 116.311 189.03 116.489C188.926 116.781 188.832 117.038 188.749 117.26C188.667 117.486 188.514 117.738 188.293 118.017C188.075 118.295 187.816 118.528 187.516 118.715C187.22 118.902 186.9 119.059 186.556 119.185C186.217 119.316 185.834 119.416 185.407 119.486C184.637 119.616 183.734 119.681 182.698 119.681C181.667 119.681 180.873 119.566 180.316 119.335C179.759 119.105 179.48 118.772 179.48 118.337C179.48 118.084 179.589 117.856 179.807 117.651C180.024 117.447 180.307 117.275 180.655 117.136C181.008 116.996 181.456 116.87 182 116.757C182.927 116.57 184.091 116.415 185.492 116.294C185.61 115.906 185.695 115.582 185.747 115.321C184.48 115.791 183.319 116.026 182.261 116.026C180.847 116.026 180.14 115.558 180.14 114.623C180.14 113.965 180.336 113.154 180.727 112.188C181.123 111.217 181.321 110.536 181.321 110.145L181.315 109.897C181.315 109.679 181.526 109.57 181.948 109.57L183.469 109.596L184.846 109.499C184.959 109.499 185.044 109.533 185.101 109.603C185.157 109.668 185.185 109.786 185.185 109.955C185.185 110.121 185.12 110.412 184.99 110.83C184.863 111.244 184.724 111.631 184.572 111.992C184.158 112.962 183.952 113.615 183.952 113.95C183.952 114.142 184.021 114.287 184.161 114.388C184.3 114.488 184.483 114.538 184.709 114.538C185.188 114.538 185.634 114.405 186.047 114.14C186.513 112.882 186.941 111.483 187.333 109.942C187.372 109.781 187.487 109.701 187.679 109.701C188.31 109.701 188.987 109.668 189.709 109.603C190.431 109.533 190.845 109.499 190.949 109.499C191.058 109.499 191.143 109.525 191.204 109.577C191.265 109.629 191.295 109.679 191.295 109.727C191.295 109.914 190.645 111.875 189.343 115.608C189.987 115.456 190.586 115.275 191.138 115.066C191.695 114.853 192.074 114.694 192.274 114.59C192.479 114.481 192.64 114.427 192.757 114.427ZM184.931 117.939C185.057 117.621 185.166 117.321 185.257 117.038C183.299 117.286 182.32 117.738 182.32 118.395C182.32 118.565 182.407 118.724 182.581 118.872C182.759 119.024 182.938 119.1 183.116 119.1C183.512 119.1 183.882 118.998 184.226 118.794C184.57 118.593 184.805 118.308 184.931 117.939Z" fill="#A8A8A8"/>
<path d="M180.507 114.427C180.668 114.427 180.749 114.503 180.749 114.655C180.749 114.803 180.668 114.934 180.507 115.047C180.35 115.16 180.118 115.291 179.809 115.439C179.5 115.582 179.115 115.741 178.653 115.915C178.196 116.089 177.665 116.237 177.061 116.359C176.46 116.485 175.886 116.548 175.337 116.548C174.045 116.548 173.399 116.252 173.399 115.661C173.399 115.278 173.616 114.594 174.051 113.611C174.491 112.623 174.711 111.957 174.711 111.614C174.711 111.226 174.408 111.033 173.803 111.033C173.529 111.033 173.218 111.067 172.87 111.137C172.705 111.72 172.409 112.647 171.982 113.918C171.56 115.188 171.321 115.911 171.264 116.085C171.212 116.259 171.097 116.346 170.918 116.346L167.557 116.418C167.509 116.418 167.454 116.387 167.393 116.326C167.337 116.27 167.309 116.202 167.309 116.124C167.309 116.041 167.4 115.756 167.583 115.269C167.77 114.777 167.974 114.251 168.196 113.689C168.423 113.124 168.627 112.503 168.81 111.829C168.997 111.15 169.091 110.589 169.091 110.145L169.084 109.897C169.084 109.679 169.295 109.57 169.717 109.57L172.811 109.499C172.924 109.499 173.009 109.533 173.066 109.603C173.122 109.668 173.151 109.751 173.151 109.851C173.151 109.947 173.127 110.104 173.079 110.321C174.611 109.681 175.868 109.362 176.852 109.362C177.269 109.362 177.65 109.477 177.994 109.708C178.377 109.964 178.568 110.354 178.568 110.876C178.568 111.411 178.366 112.112 177.961 112.978C177.557 113.844 177.354 114.379 177.354 114.584C177.354 114.988 177.515 115.191 177.837 115.191C178.042 115.191 178.39 115.114 178.882 114.962C179.378 114.805 179.743 114.677 179.978 114.577C180.218 114.477 180.394 114.427 180.507 114.427Z" fill="#A8A8A8"/>
<path d="M160.089 114.89C160.907 114.89 161.59 114.264 162.138 113.01C162.391 112.436 162.517 111.97 162.517 111.614C162.517 111.257 162.456 111.011 162.334 110.876C162.217 110.741 161.982 110.674 161.629 110.674C161.281 110.674 160.903 110.837 160.494 111.163C160.089 111.485 159.762 111.892 159.514 112.384C159.266 112.876 159.142 113.319 159.142 113.715C159.142 114.107 159.229 114.401 159.403 114.597C159.578 114.792 159.806 114.89 160.089 114.89ZM163.483 109.362L166.473 109.499C166.586 109.499 166.671 109.533 166.727 109.603C166.784 109.668 166.812 109.742 166.812 109.825C166.812 110.143 166.679 110.65 166.414 111.346C166.153 112.038 165.89 112.725 165.624 113.409C165.363 114.087 165.232 114.538 165.232 114.76C165.232 114.977 165.265 115.117 165.33 115.178C165.4 115.238 165.531 115.269 165.722 115.269C165.913 115.269 166.262 115.178 166.766 114.995C167.276 114.808 167.619 114.666 167.798 114.57C167.981 114.475 168.12 114.427 168.215 114.427C168.385 114.427 168.47 114.503 168.47 114.655C168.47 114.977 167.817 115.399 166.512 115.922C166.072 116.1 165.541 116.248 164.919 116.366C164.301 116.487 163.672 116.548 163.033 116.548C161.967 116.548 161.325 116.209 161.107 115.53C160.428 116.209 159.514 116.548 158.366 116.548C157.578 116.548 156.912 116.359 156.368 115.98C155.776 115.567 155.48 114.916 155.48 114.029C155.48 113.093 155.757 112.231 156.309 111.444C156.914 110.569 157.724 109.966 158.738 109.636C159.299 109.453 159.902 109.362 160.546 109.362C161.534 109.362 162.302 109.605 162.85 110.093C162.854 110.067 162.856 110.025 162.856 109.969L162.85 109.688C162.85 109.47 163.061 109.362 163.483 109.362Z" fill="#A8A8A8"/>
<path d="M145.057 109.57L148.02 109.499C148.133 109.499 148.218 109.533 148.275 109.603C148.331 109.668 148.36 109.745 148.36 109.832C148.36 109.914 148.344 110.06 148.314 110.269C148.284 110.473 148.268 110.624 148.268 110.719C149.069 109.814 150.137 109.362 151.473 109.362C152.287 109.362 152.927 109.57 153.392 109.988C153.862 110.402 154.097 110.989 154.097 111.751C154.097 113.23 153.516 114.44 152.354 115.38C153.703 115.284 154.739 115.034 155.462 114.629C155.701 114.494 155.877 114.427 155.99 114.427C156.138 114.427 156.212 114.507 156.212 114.668C156.212 114.782 156.132 114.897 155.971 115.014C155.231 115.532 154.278 115.915 153.112 116.163C151.95 116.411 150.699 116.535 149.358 116.535C149.193 116.544 149.069 116.548 148.986 116.548C148.525 116.548 148.064 116.479 147.602 116.339C147.141 116.2 146.758 116.004 146.454 115.752C146.153 116.67 146.003 117.73 146.003 118.931L146.01 119.12C146.01 119.338 145.799 119.446 145.377 119.446L142.341 119.525C142.237 119.525 142.154 119.492 142.093 119.427C142.032 119.366 142.002 119.296 142.002 119.218C142.002 118.474 142.409 117.031 143.223 114.89C144.036 112.745 144.443 111.309 144.443 110.582L144.417 110.04C144.417 109.879 144.456 109.762 144.535 109.688C144.617 109.61 144.791 109.57 145.057 109.57ZM149.548 111.02C148.73 111.02 148.046 111.646 147.498 112.899C147.246 113.474 147.119 113.939 147.119 114.296C147.119 114.653 147.178 114.899 147.296 115.034C147.418 115.169 147.653 115.236 148.001 115.236C148.353 115.236 148.732 115.075 149.136 114.753C149.545 114.427 149.874 114.018 150.122 113.526C150.37 113.034 150.494 112.593 150.494 112.201C150.494 111.805 150.407 111.509 150.233 111.313C150.059 111.117 149.831 111.02 149.548 111.02Z" fill="#A8A8A8"/>
<path d="M128.496 109.57L131.59 109.499C131.703 109.499 131.788 109.533 131.844 109.603C131.901 109.668 131.929 109.751 131.929 109.851C131.929 109.947 131.905 110.104 131.857 110.321C133.019 109.681 134.031 109.362 134.893 109.362C135.267 109.362 135.613 109.455 135.931 109.642C136.253 109.829 136.461 110.106 136.557 110.471C137.976 109.731 139.151 109.362 140.082 109.362C140.491 109.362 140.852 109.477 141.166 109.708C141.501 109.96 141.668 110.317 141.668 110.778C141.668 111.235 141.588 111.718 141.427 112.227C141.27 112.732 141.111 113.204 140.95 113.644C140.794 114.083 140.715 114.394 140.715 114.577C140.715 114.755 140.761 114.89 140.852 114.982C140.944 115.073 141.066 115.119 141.218 115.119C141.779 115.119 142.475 114.923 143.307 114.531C143.463 114.462 143.583 114.427 143.666 114.427C143.861 114.427 143.959 114.505 143.959 114.662C143.959 114.801 143.874 114.934 143.705 115.06C143.539 115.182 143.298 115.317 142.98 115.465C142.663 115.613 142.269 115.772 141.799 115.941C141.333 116.111 140.785 116.255 140.154 116.372C139.523 116.49 138.959 116.548 138.463 116.548C137.972 116.548 137.604 116.466 137.36 116.3C137.116 116.135 136.995 115.922 136.995 115.661C136.995 115.399 137.077 115.008 137.243 114.486C137.412 113.963 137.582 113.448 137.752 112.939C137.921 112.425 138.006 112.053 138.006 111.822C138.006 111.587 137.95 111.42 137.837 111.32C137.723 111.215 137.554 111.163 137.327 111.163C137.106 111.163 136.86 111.198 136.59 111.268C136.52 112.012 136.231 113.145 135.722 114.668C135.508 115.308 135.389 115.708 135.363 115.869C135.337 116.03 135.319 116.124 135.31 116.15C135.302 116.172 135.287 116.202 135.265 116.241C135.226 116.311 135.143 116.346 135.017 116.346C134.39 116.346 133.77 116.357 133.156 116.379C132.547 116.405 132.153 116.418 131.975 116.418C131.801 116.418 131.714 116.315 131.714 116.111C131.714 115.906 131.781 115.602 131.916 115.197C132.051 114.792 132.201 114.39 132.367 113.99C132.797 112.928 133.013 112.136 133.013 111.614C133.013 111.226 132.76 111.033 132.256 111.033C132.042 111.033 131.84 111.067 131.649 111.137C131.479 111.716 131.185 112.632 130.767 113.885C130.354 115.138 130.121 115.843 130.069 116C129.999 116.231 129.875 116.346 129.697 116.346L126.342 116.418C126.294 116.418 126.24 116.387 126.179 116.326C126.122 116.27 126.094 116.202 126.094 116.124C126.094 116.041 126.185 115.756 126.368 115.269C126.555 114.777 126.76 114.251 126.981 113.689C127.203 113.124 127.406 112.503 127.589 111.829C127.776 111.15 127.869 110.589 127.869 110.145L127.863 109.897C127.863 109.679 128.074 109.57 128.496 109.57Z" fill="#A8A8A8"/>
<path d="M116.485 115.85C115.667 115.358 115.258 114.612 115.258 113.611C115.258 113.089 115.364 112.599 115.578 112.142C115.795 111.681 116.091 111.283 116.465 110.948C116.844 110.613 117.283 110.325 117.784 110.086C118.785 109.603 119.931 109.362 121.224 109.362C123.765 109.362 125.138 110.167 125.343 111.777C125.647 111.877 125.961 111.927 126.283 111.927C126.609 111.927 126.881 111.903 127.099 111.855C127.316 111.807 127.521 111.735 127.712 111.64C127.908 111.544 128.047 111.496 128.13 111.496C128.295 111.496 128.378 111.577 128.378 111.738C128.378 111.899 128.25 112.066 127.993 112.24C127.51 112.571 126.87 112.736 126.074 112.736C125.774 112.736 125.53 112.721 125.343 112.691C125.203 113.787 124.638 114.699 123.646 115.426C123.171 115.774 122.588 116.048 121.896 116.248C121.209 116.448 120.495 116.548 119.755 116.548C119.02 116.548 118.389 116.49 117.862 116.372C117.336 116.259 116.877 116.085 116.485 115.85ZM118.854 114.185C118.854 114.99 119.148 115.393 119.736 115.393C120.11 115.393 120.458 115.188 120.78 114.779C121.106 114.37 121.359 113.863 121.537 113.258C121.72 112.654 121.811 112.038 121.811 111.411C121.811 110.78 121.592 110.465 121.152 110.465C120.769 110.465 120.397 110.645 120.036 111.006C119.679 111.368 119.392 111.838 119.174 112.416C118.961 112.991 118.854 113.58 118.854 114.185Z" fill="#A8A8A8"/>
<path d="M108.207 114.185C108.621 114.681 109.269 114.93 110.153 114.93C110.979 114.93 111.837 114.79 112.724 114.512C113.016 114.42 113.231 114.375 113.371 114.375C113.623 114.375 113.749 114.446 113.749 114.59C113.749 114.799 113.584 115.023 113.253 115.262C112.922 115.497 112.505 115.708 112 115.896C111.495 116.083 110.923 116.237 110.283 116.359C109.648 116.485 109.043 116.548 108.468 116.548C107.45 116.548 106.554 116.389 105.779 116.072C105.005 115.754 104.404 115.302 103.978 114.714C103.551 114.122 103.338 113.478 103.338 112.782C103.338 112.081 103.455 111.435 103.69 110.843C103.925 110.247 104.243 109.71 104.643 109.231C105.048 108.752 105.518 108.309 106.053 107.899C106.593 107.49 107.161 107.149 107.757 106.875C109.032 106.292 110.255 106 111.425 106C112.596 106 113.505 106.242 114.154 106.725C114.802 107.203 115.126 107.791 115.126 108.487C115.126 109.244 114.902 109.908 114.454 110.478C114.241 110.756 113.956 110.978 113.599 111.144C113.247 111.309 112.848 111.392 112.404 111.392C112.109 111.392 111.856 111.35 111.647 111.268C111.251 111.111 111.053 110.887 111.053 110.595C111.053 110.495 111.166 110.212 111.393 109.747C111.623 109.281 111.854 108.802 112.085 108.311C112.315 107.815 112.431 107.475 112.431 107.292C112.431 107.105 112.352 106.977 112.196 106.907C112.039 106.838 111.815 106.803 111.523 106.803C111.236 106.803 110.91 106.914 110.544 107.136C110.179 107.353 109.826 107.654 109.487 108.037C109.147 108.415 108.836 108.837 108.553 109.303C108.27 109.769 108.044 110.273 107.874 110.817C107.705 111.357 107.62 111.842 107.62 112.273C107.62 112.704 107.668 113.071 107.763 113.376C107.864 113.681 108.012 113.95 108.207 114.185Z" fill="#A8A8A8"/>
<path d="M103.622 114.427C103.774 114.427 103.85 114.499 103.85 114.642C103.85 114.782 103.746 114.912 103.537 115.034C103.332 115.151 103.078 115.28 102.773 115.419C102.468 115.554 102.049 115.715 101.513 115.902C100.282 116.333 98.8914 116.548 97.3422 116.548C94.4005 116.548 92.9297 115.643 92.9297 113.833C92.9297 112.949 93.2082 112.166 93.7652 111.483C94.3266 110.795 95.0772 110.271 96.0172 109.91C96.9571 109.544 97.9819 109.362 99.0916 109.362C100.201 109.362 101.013 109.533 101.526 109.877C102.044 110.221 102.303 110.693 102.303 111.294C102.303 111.912 102.055 112.416 101.559 112.808C101.067 113.2 100.412 113.491 99.5942 113.683C98.7717 113.874 97.8296 114.009 96.7678 114.087C96.8374 114.762 97.3205 115.182 98.2169 115.347C98.4475 115.386 98.6912 115.406 98.948 115.406C99.9663 115.406 101.435 115.099 103.354 114.486C103.471 114.446 103.561 114.427 103.622 114.427ZM96.7743 113.369C97.5315 113.161 98.1299 112.841 98.5694 112.41C99.0089 111.979 99.2287 111.459 99.2287 110.85C99.2287 110.689 99.1764 110.56 99.072 110.465C98.9676 110.369 98.8087 110.321 98.5955 110.321C98.3866 110.321 98.1669 110.412 97.9362 110.595C97.7099 110.778 97.5185 111.017 97.3618 111.313C97.0311 111.927 96.8353 112.612 96.7743 113.369Z" fill="#A8A8A8"/>
<path d="M89.3367 106.673L92.5351 106.601C92.6483 106.601 92.7331 106.636 92.7897 106.705C92.8463 106.77 92.8746 106.844 92.8746 106.927C92.8746 107.384 92.4568 108.703 91.6213 110.883C90.7901 113.063 90.3746 114.347 90.3746 114.734C90.3746 114.895 90.4072 115.017 90.4725 115.099C90.5378 115.178 90.6531 115.217 90.8184 115.217C91.3363 115.217 92.1392 114.978 93.2271 114.499C93.3358 114.451 93.4403 114.427 93.5404 114.427C93.7188 114.427 93.808 114.497 93.808 114.636C93.808 114.753 93.7188 114.875 93.5404 115.002C93.362 115.128 93.1161 115.267 92.8028 115.419C92.4895 115.572 92.1087 115.737 91.6605 115.915C91.2123 116.094 90.7031 116.244 90.1331 116.366C89.5673 116.488 88.9733 116.549 88.3511 116.549C87.7288 116.549 87.2305 116.464 86.8563 116.294C86.482 116.129 86.2949 115.822 86.2949 115.374C86.2949 115.06 86.6974 113.831 87.5025 111.686C87.8028 110.885 88.0791 110.054 88.3315 109.192C88.5839 108.326 88.7101 107.678 88.7101 107.247L88.7035 106.999C88.7035 106.781 88.9146 106.673 89.3367 106.673Z" fill="#A8A8A8"/>
<path d="M75.9709 109.57L78.9343 109.499C79.0475 109.499 79.1323 109.533 79.1889 109.603C79.2455 109.668 79.2737 109.745 79.2737 109.832C79.2737 109.914 79.2585 110.06 79.228 110.269C79.1976 110.473 79.1824 110.624 79.1824 110.719C79.9831 109.814 81.0514 109.362 82.3873 109.362C83.2011 109.362 83.8408 109.57 84.3064 109.988C84.7764 110.402 85.0114 110.989 85.0114 111.751C85.0114 113.23 84.4304 114.44 83.2685 115.38C84.6175 115.284 85.6532 115.034 86.3756 114.629C86.6149 114.494 86.7912 114.427 86.9043 114.427C87.0523 114.427 87.1262 114.507 87.1262 114.668C87.1262 114.782 87.0457 114.897 86.8847 115.014C86.1449 115.532 85.1919 115.915 84.0257 116.163C82.8638 116.411 81.6127 116.535 80.2724 116.535C80.1071 116.544 79.9831 116.548 79.9004 116.548C79.4391 116.548 78.9778 116.479 78.5166 116.339C78.0553 116.2 77.6723 116.004 77.3677 115.752C77.0675 116.67 76.9173 117.73 76.9173 118.931L76.9239 119.12C76.9239 119.338 76.7128 119.446 76.2907 119.446L73.2554 119.525C73.151 119.525 73.0683 119.492 73.0074 119.427C72.9465 119.366 72.916 119.296 72.916 119.218C72.916 118.474 73.3229 117.031 74.1366 114.89C74.9504 112.745 75.3573 111.309 75.3573 110.582L75.3312 110.04C75.3312 109.879 75.3703 109.762 75.4487 109.688C75.5313 109.61 75.7054 109.57 75.9709 109.57ZM80.4617 111.02C79.6436 111.02 78.9604 111.646 78.4121 112.899C78.1597 113.474 78.0335 113.939 78.0335 114.296C78.0335 114.653 78.0923 114.899 78.2098 115.034C78.3316 115.169 78.5666 115.236 78.9147 115.236C79.2672 115.236 79.6458 115.075 80.0505 114.753C80.4596 114.427 80.7881 114.018 81.0361 113.526C81.2842 113.034 81.4082 112.593 81.4082 112.201C81.4082 111.805 81.3212 111.509 81.1471 111.313C80.973 111.117 80.7446 111.02 80.4617 111.02Z" fill="#A8A8A8"/>
<path d="M59.4099 109.57L62.5039 109.499C62.6171 109.499 62.7019 109.533 62.7585 109.603C62.8151 109.668 62.8433 109.751 62.8433 109.851C62.8433 109.947 62.8194 110.104 62.7715 110.321C63.9334 109.681 64.9452 109.362 65.8068 109.362C66.181 109.362 66.527 109.455 66.8447 109.642C67.1667 109.829 67.3756 110.106 67.4713 110.471C68.8899 109.731 70.0649 109.362 70.9961 109.362C71.4052 109.362 71.7663 109.477 72.0797 109.708C72.4147 109.96 72.5823 110.317 72.5823 110.778C72.5823 111.235 72.5018 111.718 72.3408 112.227C72.1841 112.732 72.0253 113.204 71.8643 113.644C71.7076 114.083 71.6293 114.394 71.6293 114.577C71.6293 114.755 71.675 114.89 71.7663 114.982C71.8577 115.073 71.9796 115.119 72.1319 115.119C72.6932 115.119 73.3895 114.923 74.2207 114.531C74.3773 114.462 74.497 114.427 74.5797 114.427C74.7755 114.427 74.8734 114.505 74.8734 114.662C74.8734 114.801 74.7885 114.934 74.6188 115.06C74.4535 115.182 74.212 115.317 73.8943 115.465C73.5766 115.613 73.1828 115.772 72.7128 115.941C72.2472 116.111 71.6989 116.255 71.0679 116.372C70.4369 116.49 69.8734 116.548 69.3773 116.548C68.8856 116.548 68.5179 116.466 68.2742 116.3C68.0305 116.135 67.9086 115.922 67.9086 115.661C67.9086 115.399 67.9913 115.008 68.1567 114.486C68.3264 113.963 68.4961 113.448 68.6658 112.939C68.8355 112.425 68.9204 112.053 68.9204 111.822C68.9204 111.587 68.8638 111.42 68.7507 111.32C68.6375 111.215 68.4678 111.163 68.2415 111.163C68.0196 111.163 67.7737 111.198 67.5039 111.268C67.4343 112.012 67.1449 113.145 66.6358 114.668C66.4225 115.308 66.3029 115.708 66.2768 115.869C66.2507 116.03 66.2333 116.124 66.2245 116.15C66.2158 116.172 66.2006 116.202 66.1789 116.241C66.1397 116.311 66.057 116.346 65.9308 116.346C65.3042 116.346 64.6841 116.357 64.0705 116.379C63.4613 116.405 63.0674 116.418 62.889 116.418C62.715 116.418 62.6279 116.315 62.6279 116.111C62.6279 115.906 62.6954 115.602 62.8303 115.197C62.9652 114.792 63.1153 114.39 63.2807 113.99C63.7115 112.928 63.9269 112.136 63.9269 111.614C63.9269 111.226 63.6745 111.033 63.1697 111.033C62.9565 111.033 62.7541 111.067 62.5627 111.137C62.3929 111.716 62.0992 112.632 61.6815 113.885C61.2681 115.138 61.0352 115.843 60.983 116C60.9134 116.231 60.7894 116.346 60.611 116.346L57.2559 116.418C57.208 116.418 57.1536 116.387 57.0927 116.326C57.0361 116.27 57.0078 116.202 57.0078 116.124C57.0078 116.041 57.0992 115.756 57.282 115.269C57.4691 114.777 57.6736 114.251 57.8955 113.689C58.1175 113.124 58.3198 112.503 58.5026 111.829C58.6897 111.15 58.7833 110.589 58.7833 110.145L58.7767 109.897C58.7767 109.679 58.9878 109.57 59.4099 109.57Z" fill="#A8A8A8"/>
<path d="M49.7881 114.89C50.6062 114.89 51.2894 114.264 51.8377 113.01C52.0901 112.436 52.2163 111.97 52.2163 111.614C52.2163 111.257 52.1553 111.011 52.0335 110.876C51.916 110.741 51.681 110.674 51.3285 110.674C50.9804 110.674 50.6018 110.837 50.1928 111.163C49.7881 111.485 49.4617 111.892 49.2136 112.384C48.9656 112.876 48.8416 113.319 48.8416 113.715C48.8416 114.107 48.9286 114.401 49.1027 114.597C49.2767 114.792 49.5052 114.89 49.7881 114.89ZM53.1823 109.362L56.1719 109.499C56.285 109.499 56.3699 109.533 56.4265 109.603C56.483 109.668 56.5113 109.742 56.5113 109.825C56.5113 110.143 56.3786 110.65 56.1131 111.346C55.852 112.038 55.5888 112.725 55.3233 113.409C55.0622 114.087 54.9317 114.538 54.9317 114.76C54.9317 114.977 54.9643 115.117 55.0296 115.178C55.0992 115.238 55.2298 115.269 55.4212 115.269C55.6127 115.269 55.9608 115.178 56.4656 114.995C56.9748 114.808 57.3185 114.666 57.497 114.57C57.6797 114.475 57.819 114.427 57.9147 114.427C58.0844 114.427 58.1693 114.503 58.1693 114.655C58.1693 114.977 57.5165 115.399 56.2111 115.922C55.7715 116.1 55.2406 116.248 54.6184 116.366C54.0004 116.487 53.3716 116.548 52.7319 116.548C51.6658 116.548 51.0239 116.209 50.8063 115.53C50.1275 116.209 49.2136 116.548 48.0648 116.548C47.2772 116.548 46.6114 116.359 46.0674 115.98C45.4756 115.567 45.1797 114.916 45.1797 114.029C45.1797 113.093 45.456 112.231 46.0087 111.444C46.6135 110.569 47.4229 109.966 48.4369 109.636C48.9982 109.453 49.6009 109.362 50.245 109.362C51.2328 109.362 52.0009 109.605 52.5492 110.093C52.5535 110.067 52.5557 110.025 52.5557 109.969L52.5492 109.688C52.5492 109.47 52.7602 109.362 53.1823 109.362Z" fill="#A8A8A8"/>
<path d="M33.1632 115.778C33.0544 115.726 33 115.617 33 115.452C33 115.286 33.1327 114.934 33.3982 114.394C33.6636 113.85 33.8725 113.578 34.0248 113.578C34.1118 113.578 34.2467 113.639 34.4295 113.761C34.6123 113.879 34.8233 114.022 35.0627 114.192C35.3064 114.362 35.5696 114.529 35.8525 114.695C36.54 115.104 37.208 115.308 37.8564 115.308C38.1784 115.308 38.4091 115.243 38.5483 115.112C38.6876 114.982 38.7572 114.851 38.7572 114.721C38.7572 114.586 38.6832 114.436 38.5353 114.27C38.3873 114.101 38.1937 113.926 37.9543 113.748C37.7193 113.57 37.4582 113.383 37.171 113.187C36.8838 112.987 36.5966 112.775 36.3094 112.554C36.0222 112.332 35.7611 112.11 35.5261 111.888C34.9909 111.383 34.7232 110.891 34.7232 110.413C34.7232 110.073 34.8125 109.766 34.9909 109.492C35.1736 109.218 35.4043 108.996 35.6828 108.826C35.9656 108.657 36.2855 108.515 36.6423 108.402C37.282 108.193 37.9413 108.089 38.6201 108.089C38.8072 108.089 38.9465 108.117 39.0379 108.174C39.1293 108.23 39.175 108.295 39.175 108.369C39.175 108.443 39.1423 108.557 39.077 108.709C39.0118 108.857 38.9791 108.99 38.9791 109.107C38.9791 109.225 39.0575 109.375 39.2141 109.557C39.3751 109.74 39.5818 109.927 39.8342 110.119C40.0866 110.31 40.3651 110.515 40.6697 110.732C40.9743 110.95 41.279 111.181 41.5836 111.424C41.8882 111.668 42.1667 111.916 42.4191 112.168C42.9891 112.738 43.2742 113.291 43.2742 113.826C43.2742 114.357 43.1349 114.801 42.8564 115.158C42.5823 115.515 42.1993 115.791 41.7076 115.987C41.2159 116.183 40.6763 116.324 40.0888 116.411C39.5013 116.503 38.7855 116.548 37.9413 116.548C37.0971 116.548 36.1658 116.461 35.1475 116.287C34.1336 116.109 33.4722 115.939 33.1632 115.778ZM43.9726 109.388C43.4026 108.709 42.6954 108.204 41.8512 107.873C41.0113 107.538 40.1345 107.371 39.2206 107.371C37.5453 107.371 35.9308 107.686 34.3773 108.317C34.1684 108.4 34.0205 108.441 33.9334 108.441C33.7594 108.441 33.6723 108.359 33.6723 108.193C33.6723 108.058 33.7876 107.897 34.0183 107.71C34.2533 107.523 34.5883 107.332 35.0235 107.136C35.463 106.936 35.9591 106.751 36.5118 106.581C37.7737 106.194 39.1271 106 40.5718 106C42.7085 106 44.3207 106.3 45.4087 106.901C45.4696 106.936 45.4957 107.04 45.487 107.214C45.4826 107.384 45.4043 107.647 45.252 108.004C45.0997 108.361 44.9147 108.691 44.6972 108.996C44.4839 109.301 44.3012 109.453 44.1489 109.453C44.1097 109.409 44.0509 109.388 43.9726 109.388Z" fill="#A8A8A8"/>
<path fill-rule="evenodd" clip-rule="evenodd" d="M112.947 0H113.053C114.71 0.000756979 116.052 1.34452 116.051 3.00137C116.051 4.65822 114.707 6.00076 113.05 6H112.95C111.293 6.00076 109.949 4.65822 109.949 3.00137C109.948 1.34452 111.29 0.000756979 112.947 0ZM101.659 3.53649C101.872 5.17953 100.713 6.68458 99.0702 6.89813L98.9718 6.91097C97.3289 7.12604 95.8228 5.96861 95.6077 4.32577C95.3927 2.68293 96.5501 1.1768 98.1929 0.961734L98.2969 0.948171C99.9399 0.734626 101.445 1.89346 101.659 3.53649ZM124.341 3.53649C124.555 1.89346 126.06 0.734627 127.703 0.948172L127.807 0.961734C129.45 1.1768 130.607 2.68293 130.392 4.32577C130.177 5.96861 128.671 7.12604 127.028 6.91097L126.93 6.89813C125.287 6.68458 124.128 5.17953 124.341 3.53649ZM87.4676 5.93612C87.8947 7.53697 86.9432 9.18097 85.3423 9.60808L85.2462 9.63378C83.6457 10.0624 82.0008 9.11243 81.5722 7.51198C81.1436 5.91152 82.0936 4.26663 83.694 3.83802L83.7956 3.81087C85.3965 3.38376 87.0405 4.33526 87.4676 5.93612ZM138.532 5.93612C138.96 4.33526 140.604 3.38376 142.204 3.81087L142.306 3.83802C143.906 4.26664 144.856 5.91152 144.428 7.51198C143.999 9.11243 142.354 10.0624 140.754 9.63378L140.658 9.60808C139.057 9.18097 138.105 7.53698 138.532 5.93612ZM73.7121 10.1795C74.3461 11.7102 73.6191 13.4651 72.0883 14.099L71.9967 14.137C70.4665 14.7724 68.711 14.047 68.0756 12.5168C67.4402 10.9867 68.1656 9.23112 69.6958 8.59575L69.7926 8.55561C71.3233 7.92166 73.0782 8.64868 73.7121 10.1795ZM152.288 10.1795C152.922 8.64869 154.677 7.92167 156.207 8.55562L156.304 8.59575C157.834 9.23113 158.56 10.9867 157.924 12.5168C157.289 14.047 155.533 14.7724 154.003 14.137L153.912 14.099C152.381 13.4651 151.654 11.7102 152.288 10.1795ZM60.6328 16.1943C61.4619 17.6288 60.9711 19.4638 59.5366 20.2929L59.4506 20.3427C58.0169 21.1731 56.1815 20.684 55.351 19.2503C54.5206 17.8166 55.0097 15.9811 56.4434 15.1507L56.5342 15.0982C57.9687 14.2691 59.8037 14.7598 60.6328 16.1943ZM165.367 16.1943C166.196 14.7599 168.031 14.2691 169.466 15.0982L169.557 15.1507C170.99 15.9811 171.479 17.8166 170.649 19.2503C169.819 20.684 167.983 21.1731 166.549 20.3427L166.463 20.2929C165.029 19.4638 164.538 17.6288 165.367 16.1943ZM48.4539 23.8681C49.4628 25.1823 49.2154 27.0656 47.9011 28.0745L47.8223 28.1351C46.509 29.1453 44.6255 28.8995 43.6153 27.5863C42.6052 26.273 42.8509 24.3894 44.1642 23.3793L44.2474 23.3153C45.5616 22.3064 47.4449 22.5538 48.4539 23.8681ZM177.546 23.8681C178.555 22.5538 180.438 22.3064 181.753 23.3153L181.836 23.3793C183.149 24.3894 183.395 26.273 182.385 27.5863C181.374 28.8996 179.491 29.1453 178.178 28.1351L178.099 28.0745C176.785 27.0656 176.537 25.1823 177.546 23.8681ZM37.3767 33.0618C38.5477 34.2339 38.5468 36.1334 37.3747 37.3044L37.3045 37.3747C36.1334 38.5468 34.2339 38.5477 33.0618 37.3766C31.8897 36.2056 31.8888 34.3061 33.0599 33.134L33.134 33.0598C34.3061 31.8888 36.2056 31.8897 37.3767 33.0618ZM188.623 33.0618C189.794 31.8897 191.694 31.8888 192.866 33.0599L192.94 33.134C194.111 34.3061 194.11 36.2056 192.938 37.3767C191.766 38.5477 189.867 38.5468 188.696 37.3747L188.625 37.3045C187.453 36.1334 187.452 34.2339 188.623 33.0618ZM27.5863 43.6153C28.8996 44.6255 29.1453 46.509 28.1351 47.8223L28.0745 47.9011C27.0656 49.2153 25.1823 49.4628 23.8681 48.4538C22.5538 47.4449 22.3064 45.5616 23.3153 44.2474L23.3793 44.1642C24.3894 42.8509 26.273 42.6052 27.5863 43.6153ZM198.414 43.6153C199.727 42.6052 201.611 42.8509 202.621 44.1642L202.685 44.2474C203.694 45.5616 203.446 47.4449 202.132 48.4539C200.818 49.4628 198.934 49.2154 197.925 47.9011L197.865 47.8223C196.855 46.509 197.1 44.6255 198.414 43.6153ZM19.2503 55.351C20.684 56.1815 21.1731 58.0169 20.3427 59.4506L20.2929 59.5366C19.4638 60.9711 17.6288 61.4619 16.1943 60.6328C14.7599 59.8037 14.2691 57.9687 15.0982 56.5342L15.1507 56.4434C15.9811 55.0097 17.8166 54.5206 19.2503 55.351ZM206.75 55.351C208.183 54.5206 210.019 55.0097 210.849 56.4434L210.902 56.5342C211.731 57.9687 211.24 59.8037 209.806 60.6328C208.371 61.4619 206.536 60.9711 205.707 59.5366L205.657 59.4506C204.827 58.0169 205.316 56.1815 206.75 55.351ZM12.5168 68.0756C14.047 68.711 14.7724 70.4665 14.137 71.9967L14.099 72.0883C13.4651 73.6191 11.7102 74.3461 10.1795 73.7121C8.64869 73.0782 7.92167 71.3233 8.55562 69.7925L8.59575 69.6958C9.23113 68.1656 10.9867 67.4402 12.5168 68.0756ZM213.483 68.0756C215.013 67.4402 216.769 68.1656 217.404 69.6958L217.444 69.7926C218.078 71.3233 217.351 73.0782 215.821 73.7121C214.29 74.3461 212.535 73.6191 211.901 72.0883L211.863 71.9967C211.228 70.4665 211.953 68.711 213.483 68.0756ZM7.51198 81.5722C9.11243 82.0008 10.0624 83.6457 9.63378 85.2462L9.60808 85.3423C9.18097 86.9432 7.53698 87.8947 5.93612 87.4676C4.33526 87.0405 3.38376 85.3965 3.81087 83.7956L3.83802 83.694C4.26664 82.0936 5.91152 81.1436 7.51198 81.5722ZM218.488 81.5722C220.088 81.1436 221.733 82.0936 222.162 83.694L222.189 83.7956C222.616 85.3965 221.665 87.0405 220.064 87.4676C218.463 87.8947 216.819 86.9432 216.392 85.3423L216.366 85.2462C215.938 83.6457 216.888 82.0008 218.488 81.5722ZM4.32577 95.6077C5.96861 95.8228 7.12604 97.3289 6.91097 98.9718L6.89813 99.0702C6.68458 100.713 5.17953 101.872 3.53649 101.659C1.89346 101.445 0.734627 99.9399 0.948172 98.2969L0.961734 98.1929C1.1768 96.5501 2.68293 95.3927 4.32577 95.6077ZM221.674 95.6077C223.317 95.3927 224.823 96.5501 225.038 98.1929L225.052 98.2969C225.265 99.9399 224.107 101.445 222.463 101.659C220.82 101.872 219.315 100.713 219.102 99.0702L219.089 98.9718C218.874 97.3289 220.031 95.8228 221.674 95.6077ZM3.00137 109.949C4.65822 109.949 6.00076 111.293 6 112.95V113.05C6.00076 114.707 4.65822 116.051 3.00137 116.051C1.34452 116.052 0.000756979 114.71 0 113.053V112.947C0.000756979 111.29 1.34452 109.948 3.00137 109.949ZM222.999 109.949C224.655 109.948 225.999 111.29 226 112.947V113.053C225.999 114.71 224.655 116.052 222.999 116.051C221.342 116.051 219.999 114.707 220 113.05V112.95C219.999 111.293 221.342 109.949 222.999 109.949ZM3.53649 124.341C5.17953 124.128 6.68458 125.287 6.89813 126.93L6.91097 127.028C7.12604 128.671 5.96861 130.177 4.32577 130.392C2.68293 130.607 1.1768 129.45 0.961734 127.807L0.948171 127.703C0.734626 126.06 1.89346 124.555 3.53649 124.341ZM222.463 124.341C224.107 124.555 225.265 126.06 225.052 127.703L225.038 127.807C224.823 129.45 223.317 130.607 221.674 130.392C220.031 130.177 218.874 128.671 219.089 127.028L219.102 126.93C219.315 125.287 220.82 124.128 222.463 124.341ZM5.93612 138.532C7.53697 138.105 9.18097 139.057 9.60808 140.658L9.63378 140.754C10.0624 142.354 9.11243 143.999 7.51198 144.428C5.91152 144.856 4.26663 143.906 3.83802 142.306L3.81087 142.204C3.38376 140.604 4.33526 138.96 5.93612 138.532ZM220.064 138.532C221.665 138.96 222.616 140.604 222.189 142.204L222.162 142.306C221.733 143.906 220.088 144.856 218.488 144.428C216.888 143.999 215.938 142.354 216.366 140.754L216.392 140.658C216.819 139.057 218.463 138.105 220.064 138.532ZM10.1795 152.288C11.7102 151.654 13.4651 152.381 14.099 153.912L14.137 154.003C14.7724 155.533 14.047 157.289 12.5168 157.924C10.9867 158.56 9.23112 157.834 8.59575 156.304L8.55561 156.207C7.92166 154.677 8.64868 152.922 10.1795 152.288ZM215.821 152.288C217.351 152.922 218.078 154.677 217.444 156.207L217.404 156.304C216.769 157.834 215.013 158.56 213.483 157.924C211.953 157.289 211.228 155.533 211.863 154.003L211.901 153.912C212.535 152.381 214.29 151.654 215.821 152.288ZM16.1943 165.367C17.6288 164.538 19.4638 165.029 20.2929 166.463L20.3427 166.549C21.1731 167.983 20.684 169.818 19.2503 170.649C17.8166 171.479 15.9811 170.99 15.1507 169.557L15.0982 169.466C14.2691 168.031 14.7598 166.196 16.1943 165.367ZM209.806 165.367C211.24 166.196 211.731 168.031 210.902 169.466L210.849 169.557C210.019 170.99 208.183 171.479 206.75 170.649C205.316 169.819 204.827 167.983 205.657 166.549L205.707 166.463C206.536 165.029 208.371 164.538 209.806 165.367ZM23.8681 177.546C25.1823 176.537 27.0656 176.785 28.0745 178.099L28.1351 178.178C29.1453 179.491 28.8995 181.374 27.5863 182.385C26.273 183.395 24.3894 183.149 23.3793 181.836L23.3153 181.753C22.3064 180.438 22.5538 178.555 23.8681 177.546ZM202.132 177.546C203.446 178.555 203.694 180.438 202.685 181.753L202.621 181.836C201.611 183.149 199.727 183.395 198.414 182.385C197.1 181.374 196.855 179.491 197.865 178.178L197.925 178.099C198.934 176.785 200.818 176.537 202.132 177.546ZM33.0618 188.623C34.2339 187.452 36.1334 187.453 37.3044 188.625L37.3747 188.696C38.5468 189.867 38.5477 191.766 37.3766 192.938C36.2056 194.11 34.3061 194.111 33.134 192.94L33.0598 192.866C31.8888 191.694 31.8897 189.794 33.0618 188.623ZM192.938 188.623C194.11 189.794 194.111 191.694 192.94 192.866L192.866 192.94C191.694 194.111 189.794 194.11 188.623 192.938C187.452 191.766 187.453 189.867 188.625 188.696L188.696 188.625C189.867 187.453 191.766 187.452 192.938 188.623ZM43.6153 198.414C44.6255 197.1 46.509 196.855 47.8223 197.865L47.9011 197.925C49.2153 198.934 49.4628 200.818 48.4538 202.132C47.4449 203.446 45.5616 203.694 44.2474 202.685L44.1642 202.621C42.8509 201.611 42.6052 199.727 43.6153 198.414ZM182.385 198.414C183.395 199.727 183.149 201.611 181.836 202.621L181.753 202.685C180.438 203.694 178.555 203.446 177.546 202.132C176.537 200.818 176.785 198.934 178.099 197.925L178.178 197.865C179.491 196.855 181.374 197.1 182.385 198.414ZM55.351 206.75C56.1815 205.316 58.0169 204.827 59.4506 205.657L59.5366 205.707C60.9711 206.536 61.4619 208.371 60.6328 209.806C59.8037 211.24 57.9687 211.731 56.5342 210.902L56.4434 210.849C55.0097 210.019 54.5206 208.183 55.351 206.75ZM170.649 206.75C171.479 208.183 170.99 210.019 169.557 210.849L169.466 210.902C168.031 211.731 166.196 211.24 165.367 209.806C164.538 208.371 165.029 206.536 166.463 205.707L166.549 205.657C167.983 204.827 169.818 205.316 170.649 206.75ZM68.0756 213.483C68.711 211.953 70.4665 211.228 71.9967 211.863L72.0883 211.901C73.6191 212.535 74.3461 214.29 73.7121 215.821C73.0782 217.351 71.3233 218.078 69.7925 217.444L69.6958 217.404C68.1656 216.769 67.4402 215.013 68.0756 213.483ZM157.924 213.483C158.56 215.013 157.834 216.769 156.304 217.404L156.207 217.444C154.677 218.078 152.922 217.351 152.288 215.821C151.654 214.29 152.381 212.535 153.912 211.901L154.003 211.863C155.533 211.228 157.289 211.953 157.924 213.483ZM81.5722 218.488C82.0008 216.888 83.6457 215.938 85.2462 216.366L85.3423 216.392C86.9432 216.819 87.8947 218.463 87.4676 220.064C87.0405 221.665 85.3965 222.616 83.7956 222.189L83.694 222.162C82.0936 221.733 81.1436 220.088 81.5722 218.488ZM144.428 218.488C144.856 220.088 143.906 221.733 142.306 222.162L142.204 222.189C140.604 222.616 138.96 221.665 138.532 220.064C138.105 218.463 139.057 216.819 140.658 216.392L140.754 216.366C142.354 215.938 143.999 216.888 144.428 218.488ZM95.6077 221.674C95.8228 220.031 97.3289 218.874 98.9718 219.089L99.0702 219.102C100.713 219.315 101.872 220.82 101.659 222.463C101.445 224.107 99.9399 225.265 98.2969 225.052L98.1929 225.038C96.5501 224.823 95.3927 223.317 95.6077 221.674ZM130.392 221.674C130.607 223.317 129.45 224.823 127.807 225.038L127.703 225.052C126.06 225.265 124.555 224.107 124.341 222.463C124.128 220.82 125.287 219.315 126.93 219.102L127.028 219.089C128.671 218.874 130.177 220.031 130.392 221.674ZM109.949 222.999C109.949 221.342 111.293 219.999 112.95 220H113.05C114.707 219.999 116.051 221.342 116.051 222.999C116.052 224.655 114.71 225.999 113.053 226H112.947C111.29 225.999 109.948 224.655 109.949 222.999Z" fill="#A8A8A8"/>
</svg>
