<svg width="47" height="33" viewBox="0 0 47 33" fill="none" xmlns="http://www.w3.org/2000/svg">
<path d="M30.4022 0H1.79005C0.806074 0 0 0.806074 0 1.79143V25.2586C0 26.2426 0.806074 27.0487 1.79005 27.0487H10.092V30.5112H7.75835V32.2267H24.4354V30.5112H22.1002V27.0487H30.4022C31.3862 27.0487 32.1923 26.2426 32.1923 25.2586V1.79143C32.1923 0.806074 31.3861 0 30.4022 0ZM29.8629 24.005H2.32789V2.32789H29.8628L29.8629 24.005Z" fill="black"/>
<path d="M45.1719 0H35.9347C34.9264 0 34.1074 0.817548 34.1074 1.82732V30.3993C34.1074 31.4091 34.9264 32.2266 35.9347 32.2266H45.1719C46.1816 32.2266 46.9992 31.4091 46.9992 30.3993V1.82732C46.9992 0.817548 46.1816 0 45.1719 0ZM40.5533 24.17C39.3972 24.17 38.4591 23.2319 38.4591 22.0758C38.4591 20.9184 39.3972 19.9803 40.5533 19.9803C41.7094 19.9803 42.6488 20.9184 42.6488 22.0758C42.6488 23.2319 41.7094 24.17 40.5533 24.17ZM43.858 11.119H37.412V9.82949H43.858V11.119ZM43.858 7.25053H37.412V5.96252H43.858V7.25053Z" fill="black"/>
</svg>
