<svg width="120" height="28" viewBox="0 0 120 28" fill="none" xmlns="http://www.w3.org/2000/svg">
<path d="M87.8176 17.57L87.8696 15.1L91.1326 12.006H93.5506L90.4176 15.191L89.3646 16.049L87.8176 17.57ZM86.1406 19V9.354H88.1686V19H86.1406ZM91.3536 19L88.9876 16.062L90.2616 14.489L93.8106 19H91.3536Z" fill="black"/>
<path d="M80.9496 19.1041C80.2042 19.1041 79.5412 18.9481 78.9606 18.6361C78.3886 18.3241 77.9336 17.8994 77.5956 17.3621C77.2662 16.8161 77.1016 16.1964 77.1016 15.5031C77.1016 14.8011 77.2662 14.1814 77.5956 13.6441C77.9336 13.0981 78.3886 12.6734 78.9606 12.3701C79.5412 12.0581 80.2042 11.9021 80.9496 11.9021C81.6862 11.9021 82.3449 12.0581 82.9256 12.3701C83.5062 12.6734 83.9612 13.0938 84.2906 13.6311C84.6199 14.1684 84.7846 14.7924 84.7846 15.5031C84.7846 16.1964 84.6199 16.8161 84.2906 17.3621C83.9612 17.8994 83.5062 18.3241 82.9256 18.6361C82.3449 18.9481 81.6862 19.1041 80.9496 19.1041ZM80.9496 17.4401C81.2876 17.4401 81.5909 17.3621 81.8596 17.2061C82.1282 17.0501 82.3406 16.8291 82.4966 16.5431C82.6526 16.2484 82.7306 15.9018 82.7306 15.5031C82.7306 15.0958 82.6526 14.7491 82.4966 14.4631C82.3406 14.1771 82.1282 13.9561 81.8596 13.8001C81.5909 13.6441 81.2876 13.5661 80.9496 13.5661C80.6116 13.5661 80.3082 13.6441 80.0396 13.8001C79.7709 13.9561 79.5542 14.1771 79.3896 14.4631C79.2336 14.7491 79.1556 15.0958 79.1556 15.5031C79.1556 15.9018 79.2336 16.2484 79.3896 16.5431C79.5542 16.8291 79.7709 17.0501 80.0396 17.2061C80.3082 17.3621 80.6116 17.4401 80.9496 17.4401Z" fill="black"/>
<path d="M72.432 19.1041C71.6867 19.1041 71.0237 18.9481 70.443 18.6361C69.871 18.3241 69.416 17.8994 69.078 17.3621C68.7487 16.8161 68.584 16.1964 68.584 15.5031C68.584 14.8011 68.7487 14.1814 69.078 13.6441C69.416 13.0981 69.871 12.6734 70.443 12.3701C71.0237 12.0581 71.6867 11.9021 72.432 11.9021C73.1687 11.9021 73.8273 12.0581 74.408 12.3701C74.9887 12.6734 75.4437 13.0938 75.773 13.6311C76.1023 14.1684 76.267 14.7924 76.267 15.5031C76.267 16.1964 76.1023 16.8161 75.773 17.3621C75.4437 17.8994 74.9887 18.3241 74.408 18.6361C73.8273 18.9481 73.1687 19.1041 72.432 19.1041ZM72.432 17.4401C72.77 17.4401 73.0733 17.3621 73.342 17.2061C73.6107 17.0501 73.823 16.8291 73.979 16.5431C74.135 16.2484 74.213 15.9018 74.213 15.5031C74.213 15.0958 74.135 14.7491 73.979 14.4631C73.823 14.1771 73.6107 13.9561 73.342 13.8001C73.0733 13.6441 72.77 13.5661 72.432 13.5661C72.094 13.5661 71.7907 13.6441 71.522 13.8001C71.2533 13.9561 71.0366 14.1771 70.872 14.4631C70.716 14.7491 70.638 15.0958 70.638 15.5031C70.638 15.9018 70.716 16.2484 70.872 16.5431C71.0366 16.8291 71.2533 17.0501 71.522 17.2061C71.7907 17.3621 72.094 17.4401 72.432 17.4401Z" fill="black"/>
<path d="M64.261 19.104C63.6456 19.104 63.117 18.974 62.675 18.714C62.233 18.454 61.895 18.0597 61.661 17.531C61.427 16.9937 61.31 16.3177 61.31 15.503C61.31 14.6797 61.4313 14.0037 61.674 13.475C61.9253 12.9463 62.272 12.552 62.714 12.292C63.156 12.032 63.6716 11.902 64.261 11.902C64.9196 11.902 65.509 12.0493 66.029 12.344C66.5576 12.6387 66.9736 13.0547 67.277 13.592C67.589 14.1293 67.745 14.7663 67.745 15.503C67.745 16.231 67.589 16.8637 67.277 17.401C66.9736 17.9383 66.5576 18.3587 66.029 18.662C65.509 18.9567 64.9196 19.104 64.261 19.104ZM60.127 19V9.354H62.155V13.423L62.025 15.49L62.064 17.57V19H60.127ZM63.91 17.44C64.248 17.44 64.547 17.362 64.807 17.206C65.0756 17.05 65.288 16.829 65.444 16.543C65.6086 16.2483 65.691 15.9017 65.691 15.503C65.691 15.0957 65.6086 14.749 65.444 14.463C65.288 14.177 65.0756 13.956 64.807 13.8C64.547 13.644 64.248 13.566 63.91 13.566C63.572 13.566 63.2686 13.644 63 13.8C62.7313 13.956 62.519 14.177 62.363 14.463C62.207 14.749 62.129 15.0957 62.129 15.503C62.129 15.9017 62.207 16.2483 62.363 16.543C62.519 16.829 62.7313 17.05 63 17.206C63.2686 17.362 63.572 17.44 63.91 17.44Z" fill="black"/>
<path d="M55.3972 19.1041C54.5999 19.1041 53.8979 18.9481 53.2913 18.6361C52.6933 18.3241 52.2296 17.8994 51.9002 17.3621C51.5709 16.8161 51.4062 16.1964 51.4062 15.5031C51.4062 14.8011 51.5666 14.1814 51.8872 13.6441C52.2166 13.0981 52.6629 12.6734 53.2262 12.3701C53.7896 12.0581 54.4266 11.9021 55.1372 11.9021C55.8219 11.9021 56.4372 12.0494 56.9832 12.3441C57.5379 12.6301 57.9756 13.0461 58.2962 13.5921C58.6169 14.1294 58.7773 14.7751 58.7773 15.5291C58.7773 15.6071 58.7729 15.6981 58.7642 15.8021C58.7556 15.8974 58.7469 15.9884 58.7383 16.0751H53.0572V14.8921H57.6722L56.8923 15.2431C56.8923 14.8791 56.8186 14.5628 56.6712 14.2941C56.5239 14.0254 56.3202 13.8174 56.0602 13.6701C55.8002 13.5141 55.4969 13.4361 55.1502 13.4361C54.8036 13.4361 54.4959 13.5141 54.2272 13.6701C53.9672 13.8174 53.7636 14.0298 53.6162 14.3071C53.4689 14.5758 53.3953 14.8964 53.3953 15.2691V15.5811C53.3953 15.9624 53.4776 16.3004 53.6423 16.5951C53.8156 16.8811 54.0539 17.1021 54.3573 17.2581C54.6693 17.4054 55.0332 17.4791 55.4492 17.4791C55.8219 17.4791 56.1469 17.4228 56.4242 17.3101C56.7102 17.1974 56.9703 17.0284 57.2043 16.8031L58.2833 17.9731C57.9626 18.3371 57.5596 18.6188 57.0742 18.8181C56.5889 19.0088 56.0299 19.1041 55.3972 19.1041Z" fill="black"/>
<path d="M47.7145 19.1041C46.9605 19.1041 46.2888 18.9524 45.6995 18.6491C45.1101 18.3371 44.6465 17.9081 44.3085 17.3621C43.9791 16.8161 43.8145 16.1964 43.8145 15.5031C43.8145 14.8011 43.9791 14.1814 44.3085 13.6441C44.6465 13.0981 45.1101 12.6734 45.6995 12.3701C46.2888 12.0581 46.9605 11.9021 47.7145 11.9021C48.4511 11.9021 49.0925 12.0581 49.6385 12.3701C50.1845 12.6734 50.5875 13.1111 50.8475 13.6831L49.2745 14.5281C49.0925 14.1988 48.8628 13.9561 48.5855 13.8001C48.3168 13.6441 48.0221 13.5661 47.7015 13.5661C47.3548 13.5661 47.0428 13.6441 46.7655 13.8001C46.4881 13.9561 46.2671 14.1771 46.1025 14.4631C45.9465 14.7491 45.8685 15.0958 45.8685 15.5031C45.8685 15.9104 45.9465 16.2571 46.1025 16.5431C46.2671 16.8291 46.4881 17.0501 46.7655 17.2061C47.0428 17.3621 47.3548 17.4401 47.7015 17.4401C48.0221 17.4401 48.3168 17.3664 48.5855 17.2191C48.8628 17.0631 49.0925 16.8161 49.2745 16.4781L50.8475 17.3361C50.5875 17.8994 50.1845 18.3371 49.6385 18.6491C49.0925 18.9524 48.4511 19.1041 47.7145 19.1041Z" fill="black"/>
<path d="M40.5497 19.0001V17.6351L40.4197 17.3361V14.8921C40.4197 14.4588 40.2854 14.1208 40.0167 13.8781C39.7567 13.6354 39.3537 13.5141 38.8077 13.5141C38.435 13.5141 38.0667 13.5748 37.7027 13.6961C37.3474 13.8088 37.044 13.9648 36.7927 14.1641L36.0647 12.7471C36.446 12.4784 36.9054 12.2704 37.4427 12.1231C37.98 11.9758 38.526 11.9021 39.0807 11.9021C40.1467 11.9021 40.9744 12.1534 41.5637 12.6561C42.153 13.1588 42.4477 13.9431 42.4477 15.0091V19.0001H40.5497ZM38.4177 19.1041C37.8717 19.1041 37.4037 19.0131 37.0137 18.8311C36.6237 18.6404 36.3247 18.3848 36.1167 18.0641C35.9087 17.7434 35.8047 17.3838 35.8047 16.9851C35.8047 16.5691 35.9044 16.2051 36.1037 15.8931C36.3117 15.5811 36.6367 15.3384 37.0787 15.1651C37.5207 14.9831 38.097 14.8921 38.8077 14.8921H40.6667V16.0751H39.0287C38.552 16.0751 38.2227 16.1531 38.0407 16.3091C37.8674 16.4651 37.7807 16.6601 37.7807 16.8941C37.7807 17.1541 37.8804 17.3621 38.0797 17.5181C38.2877 17.6654 38.5694 17.7391 38.9247 17.7391C39.2627 17.7391 39.566 17.6611 39.8347 17.5051C40.1034 17.3404 40.2984 17.1021 40.4197 16.7901L40.7317 17.7261C40.5844 18.1768 40.3157 18.5191 39.9257 18.7531C39.5357 18.9871 39.033 19.1041 38.4177 19.1041Z" fill="black"/>
<path d="M30.241 13.9949H34.609V15.6849H30.241V13.9949ZM30.397 18.9999H28.291V9.8999H35.168V11.5899H30.397V18.9999Z" fill="black"/>
<path fill-rule="evenodd" clip-rule="evenodd" d="M106 3H14C7.92487 3 3 7.92487 3 14C3 20.0751 7.92487 25 14 25H106C112.075 25 117 20.0751 117 14C117 7.92487 112.075 3 106 3ZM14 0C6.26801 0 0 6.26801 0 14C0 21.732 6.26801 28 14 28H106C113.732 28 120 21.732 120 14C120 6.26801 113.732 0 106 0H14Z" fill="black"/>
</svg>
