<svg width="148" height="131" viewBox="0 0 148 131" fill="none" xmlns="http://www.w3.org/2000/svg">
<path d="M143.224 119.032C144.525 119.032 145.561 119.457 146.331 120.307C147.114 121.143 147.506 122.299 147.506 123.773V130.265H144.12V124.231C144.12 123.487 143.928 122.909 143.543 122.498C143.158 122.086 142.64 121.88 141.989 121.88C141.338 121.88 140.821 122.086 140.436 122.498C140.051 122.909 139.858 123.487 139.858 124.231V130.265H136.452V119.152H139.858V120.626C140.203 120.134 140.668 119.749 141.252 119.47C141.836 119.178 142.494 119.032 143.224 119.032Z" fill="black"/>
<path d="M128.832 130.425C127.743 130.425 126.76 130.192 125.884 129.728C125.021 129.263 124.337 128.599 123.833 127.736C123.341 126.873 123.096 125.864 123.096 124.708C123.096 123.566 123.348 122.564 123.853 121.701C124.357 120.825 125.048 120.154 125.924 119.689C126.8 119.225 127.783 118.992 128.872 118.992C129.96 118.992 130.943 119.225 131.819 119.689C132.696 120.154 133.386 120.825 133.891 121.701C134.395 122.564 134.648 123.566 134.648 124.708C134.648 125.85 134.389 126.859 133.871 127.736C133.366 128.599 132.669 129.263 131.78 129.728C130.903 130.192 129.921 130.425 128.832 130.425ZM128.832 127.477C129.482 127.477 130.033 127.238 130.485 126.76C130.95 126.282 131.182 125.598 131.182 124.708C131.182 123.819 130.956 123.135 130.505 122.657C130.067 122.179 129.522 121.94 128.872 121.94C128.208 121.94 127.657 122.179 127.219 122.657C126.78 123.122 126.561 123.805 126.561 124.708C126.561 125.598 126.774 126.282 127.199 126.76C127.637 127.238 128.181 127.477 128.832 127.477Z" fill="black"/>
<path d="M119.611 117.997C119.013 117.997 118.522 117.824 118.137 117.479C117.765 117.12 117.579 116.682 117.579 116.164C117.579 115.633 117.765 115.195 118.137 114.85C118.522 114.491 119.013 114.312 119.611 114.312C120.195 114.312 120.673 114.491 121.045 114.85C121.43 115.195 121.622 115.633 121.622 116.164C121.622 116.682 121.43 117.12 121.045 117.479C120.673 117.824 120.195 117.997 119.611 117.997ZM121.304 119.152V130.266H117.898V119.152H121.304Z" fill="black"/>
<path d="M116 127.378V130.266H114.267C113.032 130.266 112.07 129.967 111.379 129.369C110.689 128.759 110.344 127.769 110.344 126.402V121.98H108.989V119.152H110.344V116.443H113.749V119.152H115.98V121.98H113.749V126.442C113.749 126.773 113.829 127.012 113.988 127.159C114.148 127.305 114.413 127.378 114.785 127.378H116Z" fill="black"/>
<path d="M107.36 119.152V130.266H103.954V128.752C103.609 129.243 103.138 129.642 102.54 129.947C101.956 130.239 101.305 130.385 100.588 130.385C99.7384 130.385 98.9882 130.199 98.3376 129.827C97.687 129.442 97.1824 128.891 96.8239 128.174C96.4654 127.457 96.2861 126.614 96.2861 125.645V119.152H99.672V125.187C99.672 125.93 99.8646 126.508 100.25 126.92C100.635 127.331 101.153 127.537 101.803 127.537C102.467 127.537 102.992 127.331 103.377 126.92C103.762 126.508 103.954 125.93 103.954 125.187V119.152H107.36Z" fill="black"/>
<path d="M93.9176 115.527V130.266H90.5117V115.527H93.9176Z" fill="black"/>
<path d="M82.8904 130.425C81.8016 130.425 80.819 130.192 79.9427 129.728C79.0796 129.263 78.3958 128.599 77.8912 127.736C77.3999 126.873 77.1543 125.864 77.1543 124.708C77.1543 123.566 77.4066 122.564 77.9111 121.701C78.4157 120.825 79.1062 120.154 79.9825 119.689C80.8589 119.225 81.8415 118.992 82.9303 118.992C84.0191 118.992 85.0016 119.225 85.878 119.689C86.7543 120.154 87.4448 120.825 87.9494 121.701C88.4539 122.564 88.7062 123.566 88.7062 124.708C88.7062 125.85 88.4473 126.859 87.9295 127.736C87.4249 128.599 86.7278 129.263 85.8382 129.728C84.9618 130.192 83.9792 130.425 82.8904 130.425ZM82.8904 127.477C83.5411 127.477 84.0921 127.238 84.5436 126.76C85.0083 126.282 85.2406 125.598 85.2406 124.708C85.2406 123.819 85.0149 123.135 84.5635 122.657C84.1253 122.179 83.5809 121.94 82.9303 121.94C82.2664 121.94 81.7153 122.179 81.2771 122.657C80.839 123.122 80.6199 123.805 80.6199 124.708C80.6199 125.598 80.8323 126.282 81.2572 126.76C81.6954 127.238 82.2398 127.477 82.8904 127.477Z" fill="black"/>
<path d="M70.635 130.405C69.6126 130.405 68.6964 130.239 67.8865 129.907C67.0765 129.575 66.4259 129.084 65.9346 128.433C65.4566 127.783 65.2043 126.999 65.1777 126.083H68.8027C68.8558 126.601 69.035 126.999 69.3404 127.278C69.6458 127.544 70.0442 127.676 70.5354 127.676C71.04 127.676 71.4383 127.564 71.7305 127.338C72.0226 127.099 72.1686 126.774 72.1686 126.362C72.1686 126.017 72.0491 125.731 71.8101 125.506C71.5844 125.28 71.2989 125.094 70.9537 124.948C70.6217 124.802 70.1437 124.636 69.5197 124.45C68.6168 124.171 67.8798 123.892 67.3089 123.613C66.7379 123.335 66.2466 122.923 65.835 122.379C65.4234 121.834 65.2176 121.124 65.2176 120.247C65.2176 118.946 65.6889 117.93 66.6317 117.2C67.5744 116.457 68.8027 116.085 70.3164 116.085C71.8566 116.085 73.0981 116.457 74.0409 117.2C74.9836 117.93 75.4882 118.953 75.5546 120.267H71.8699C71.8433 119.816 71.6774 119.464 71.372 119.212C71.0666 118.946 70.6749 118.813 70.1968 118.813C69.7852 118.813 69.4533 118.926 69.201 119.152C68.9487 119.364 68.8226 119.676 68.8226 120.088C68.8226 120.54 69.035 120.891 69.4599 121.144C69.8848 121.396 70.5487 121.668 71.4516 121.96C72.3545 122.266 73.0848 122.558 73.6425 122.837C74.2135 123.115 74.7048 123.52 75.1164 124.052C75.528 124.583 75.7338 125.267 75.7338 126.103C75.7338 126.9 75.528 127.623 75.1164 128.274C74.718 128.925 74.1338 129.442 73.3637 129.828C72.5935 130.213 71.684 130.405 70.635 130.405Z" fill="black"/>
<path d="M47.1611 124.688C47.1611 123.547 47.3736 122.544 47.7985 121.681C48.2367 120.818 48.8275 120.154 49.5711 119.689C50.3147 119.225 51.1446 118.992 52.0607 118.992C52.8441 118.992 53.528 119.152 54.1122 119.47C54.7097 119.789 55.1678 120.207 55.4865 120.725V119.152H58.8923V130.265H55.4865V128.692C55.1545 129.21 54.6898 129.628 54.0923 129.947C53.5081 130.265 52.8242 130.425 52.0408 130.425C51.1379 130.425 50.3147 130.192 49.5711 129.728C48.8275 129.25 48.2367 128.579 47.7985 127.716C47.3736 126.84 47.1611 125.83 47.1611 124.688ZM55.4865 124.708C55.4865 123.859 55.2475 123.188 54.7695 122.697C54.3047 122.205 53.7338 121.96 53.0566 121.96C52.3794 121.96 51.8018 122.205 51.3238 122.697C50.8591 123.175 50.6267 123.839 50.6267 124.688C50.6267 125.538 50.8591 126.215 51.3238 126.72C51.8018 127.211 52.3794 127.457 53.0566 127.457C53.7338 127.457 54.3047 127.211 54.7695 126.72C55.2475 126.229 55.4865 125.558 55.4865 124.708Z" fill="black"/>
<path d="M42.7252 121.004C43.1235 120.393 43.6214 119.915 44.2189 119.57C44.8165 119.211 45.4804 119.032 46.2107 119.032V122.637H45.2746C44.4248 122.637 43.7874 122.823 43.3625 123.195C42.9376 123.553 42.7252 124.191 42.7252 125.107V130.265H39.3193V119.152H42.7252V121.004Z" fill="black"/>
<path d="M34.2056 121.004C34.604 120.393 35.1019 119.915 35.6994 119.57C36.2969 119.211 36.9608 119.032 37.6911 119.032V122.637H36.755C35.9052 122.637 35.2679 122.823 34.843 123.195C34.4181 123.553 34.2056 124.191 34.2056 125.107V130.265H30.7998V119.152H34.2056V121.004Z" fill="black"/>
<path d="M29.0022 124.529C29.0022 124.848 28.9823 125.18 28.9425 125.525H21.2345C21.2877 126.215 21.5067 126.747 21.8918 127.118C22.2902 127.477 22.7748 127.656 23.3458 127.656C24.1956 127.656 24.7864 127.298 25.1184 126.581H28.7433C28.5574 127.311 28.2188 127.968 27.7275 128.552C27.2495 129.137 26.6454 129.595 25.9151 129.927C25.1848 130.259 24.3682 130.425 23.4653 130.425C22.3765 130.425 21.4072 130.192 20.5574 129.728C19.7076 129.263 19.0437 128.599 18.5657 127.736C18.0876 126.873 17.8486 125.864 17.8486 124.708C17.8486 123.553 18.081 122.544 18.5457 121.681C19.0237 120.818 19.6876 120.154 20.5374 119.689C21.3872 119.225 22.3632 118.992 23.4653 118.992C24.5408 118.992 25.4968 119.218 26.3333 119.669C27.1698 120.121 27.8205 120.765 28.2852 121.601C28.7632 122.438 29.0022 123.414 29.0022 124.529ZM25.5167 123.633C25.5167 123.049 25.3176 122.584 24.9192 122.239C24.5209 121.893 24.0229 121.721 23.4254 121.721C22.8545 121.721 22.3698 121.887 21.9715 122.219C21.5864 122.551 21.3474 123.022 21.2545 123.633H25.5167Z" fill="black"/>
<path d="M14.3636 117.997C13.7661 117.997 13.2748 117.824 12.8897 117.479C12.5179 117.12 12.332 116.682 12.332 116.164C12.332 115.633 12.5179 115.195 12.8897 114.85C13.2748 114.491 13.7661 114.312 14.3636 114.312C14.9478 114.312 15.4258 114.491 15.7976 114.85C16.1827 115.195 16.3752 115.633 16.3752 116.164C16.3752 116.682 16.1827 117.12 15.7976 117.479C15.4258 117.824 14.9478 117.997 14.3636 117.997ZM16.0565 119.152V130.266H12.6507V119.152H16.0565Z" fill="black"/>
<path d="M5.45729 130.405C4.43488 130.405 3.51869 130.239 2.70873 129.907C1.89876 129.575 1.24814 129.084 0.75685 128.433C0.27884 127.783 0.0265562 126.999 0 126.083H3.62491C3.67803 126.601 3.85728 126.999 4.16268 127.278C4.46807 127.544 4.86642 127.676 5.3577 127.676C5.86227 127.676 6.26061 127.564 6.55273 127.338C6.84485 127.099 6.99091 126.774 6.99091 126.362C6.99091 126.017 6.8714 125.731 6.6324 125.506C6.40667 125.28 6.12119 125.094 5.77596 124.948C5.44401 124.802 4.966 124.636 4.34193 124.45C3.43902 124.171 2.70209 123.892 2.13113 123.613C1.56017 123.335 1.06889 122.923 0.657265 122.379C0.245644 121.834 0.0398343 121.124 0.0398343 120.247C0.0398343 118.946 0.511206 117.93 1.45395 117.2C2.39669 116.457 3.62491 116.085 5.13862 116.085C6.67887 116.085 7.92037 116.457 8.86312 117.2C9.80586 117.93 10.3104 118.953 10.3768 120.267H6.69215C6.66559 119.816 6.49962 119.464 6.19422 119.212C5.88883 118.946 5.49712 118.813 5.01911 118.813C4.60749 118.813 4.27554 118.926 4.02326 119.152C3.77097 119.364 3.64483 119.676 3.64483 120.088C3.64483 120.54 3.85728 120.891 4.28218 121.144C4.70708 121.396 5.37098 121.668 6.27389 121.96C7.1768 122.266 7.90709 122.558 8.46477 122.837C9.03573 123.115 9.52702 123.52 9.93864 124.052C10.3503 124.583 10.5561 125.267 10.5561 126.103C10.5561 126.9 10.3503 127.623 9.93864 128.274C9.5403 128.925 8.95606 129.442 8.18593 129.828C7.41581 130.213 6.50626 130.405 5.45729 130.405Z" fill="black"/>
<path fill-rule="evenodd" clip-rule="evenodd" d="M31.0615 42.2827L62.1262 11.2181L76.9682 26.0601L70.4101 32.6182L62.4713 24.6794L44.5229 42.6279L60.7455 58.8505L78.694 40.9021L85.2521 34.344L115.626 64.7183L84.5618 95.783L69.3746 80.5958L75.9327 74.0377L83.8714 81.9764L101.82 64.028L85.5973 47.8053L67.6488 65.7538L61.0907 72.3119L31.0615 42.2827Z" fill="#CC0033"/>
<path fill-rule="evenodd" clip-rule="evenodd" d="M31.0716 64.7079L31.0615 64.718L62.1262 95.7827L92.1553 65.7535L85.5973 59.1954L78.694 66.0987L62.4713 82.3213L44.8579 64.7079L31.0716 64.7079ZM67.6488 41.2469L83.8714 25.0243L101.127 42.2798L115.624 42.2798L84.5618 11.2178L54.1874 41.5921L60.7455 48.1502L67.6488 41.2469Z" fill="#82BE28"/>
</svg>
