<svg width="148" height="120" viewBox="0 0 148 120" fill="none" xmlns="http://www.w3.org/2000/svg">
<path d="M143.224 107.814C144.525 107.814 145.561 108.239 146.331 109.089C147.114 109.926 147.506 111.081 147.506 112.555V119.048H144.12V113.013C144.12 112.269 143.928 111.692 143.543 111.28C143.158 110.868 142.64 110.663 141.989 110.663C141.338 110.663 140.821 110.868 140.436 111.28C140.051 111.692 139.858 112.269 139.858 113.013V119.048H136.452V107.934H139.858V109.408C140.203 108.917 140.668 108.531 141.252 108.253C141.836 107.961 142.494 107.814 143.224 107.814Z" fill="black"/>
<path d="M128.832 119.207C127.743 119.207 126.76 118.974 125.884 118.51C125.021 118.045 124.337 117.381 123.833 116.518C123.341 115.655 123.096 114.646 123.096 113.491C123.096 112.349 123.348 111.346 123.853 110.483C124.357 109.607 125.048 108.936 125.924 108.472C126.8 108.007 127.783 107.774 128.872 107.774C129.96 107.774 130.943 108.007 131.819 108.472C132.696 108.936 133.386 109.607 133.891 110.483C134.395 111.346 134.648 112.349 134.648 113.491C134.648 114.633 134.389 115.642 133.871 116.518C133.366 117.381 132.669 118.045 131.78 118.51C130.903 118.974 129.921 119.207 128.832 119.207ZM128.832 116.259C129.482 116.259 130.033 116.02 130.485 115.542C130.95 115.064 131.182 114.38 131.182 113.491C131.182 112.601 130.956 111.917 130.505 111.439C130.067 110.961 129.522 110.722 128.872 110.722C128.208 110.722 127.657 110.961 127.219 111.439C126.78 111.904 126.561 112.588 126.561 113.491C126.561 114.38 126.774 115.064 127.199 115.542C127.637 116.02 128.181 116.259 128.832 116.259Z" fill="black"/>
<path d="M119.611 106.779C119.013 106.779 118.522 106.606 118.137 106.261C117.765 105.903 117.579 105.464 117.579 104.947C117.579 104.415 117.765 103.977 118.137 103.632C118.522 103.273 119.013 103.094 119.611 103.094C120.195 103.094 120.673 103.273 121.045 103.632C121.43 103.977 121.622 104.415 121.622 104.947C121.622 105.464 121.43 105.903 121.045 106.261C120.673 106.606 120.195 106.779 119.611 106.779ZM121.304 107.934V119.048H117.898V107.934H121.304Z" fill="black"/>
<path d="M116 116.16V119.048H114.267C113.032 119.048 112.07 118.749 111.379 118.152C110.689 117.541 110.344 116.552 110.344 115.184V110.762H108.989V107.934H110.344V105.225H113.749V107.934H115.98V110.762H113.749V115.224C113.749 115.556 113.829 115.795 113.988 115.941C114.148 116.087 114.413 116.16 114.785 116.16H116Z" fill="black"/>
<path d="M107.36 107.934V119.048H103.954V117.534C103.609 118.025 103.138 118.424 102.54 118.729C101.956 119.021 101.305 119.167 100.588 119.167C99.7384 119.167 98.9882 118.981 98.3376 118.61C97.687 118.225 97.1824 117.674 96.8239 116.957C96.4654 116.24 96.2861 115.396 96.2861 114.427V107.934H99.672V113.969C99.672 114.713 99.8646 115.29 100.25 115.702C100.635 116.113 101.153 116.319 101.803 116.319C102.467 116.319 102.992 116.113 103.377 115.702C103.762 115.29 103.954 114.713 103.954 113.969V107.934H107.36Z" fill="black"/>
<path d="M93.9176 104.309V119.048H90.5117V104.309H93.9176Z" fill="black"/>
<path d="M82.8904 119.207C81.8016 119.207 80.819 118.974 79.9427 118.51C79.0796 118.045 78.3958 117.381 77.8912 116.518C77.3999 115.655 77.1543 114.646 77.1543 113.491C77.1543 112.349 77.4066 111.346 77.9111 110.483C78.4157 109.607 79.1062 108.936 79.9825 108.472C80.8589 108.007 81.8415 107.774 82.9303 107.774C84.0191 107.774 85.0016 108.007 85.878 108.472C86.7543 108.936 87.4448 109.607 87.9494 110.483C88.4539 111.346 88.7062 112.349 88.7062 113.491C88.7062 114.633 88.4473 115.642 87.9295 116.518C87.4249 117.381 86.7278 118.045 85.8382 118.51C84.9618 118.974 83.9792 119.207 82.8904 119.207ZM82.8904 116.259C83.5411 116.259 84.0921 116.02 84.5436 115.542C85.0083 115.064 85.2406 114.38 85.2406 113.491C85.2406 112.601 85.0149 111.917 84.5635 111.439C84.1253 110.961 83.5809 110.722 82.9303 110.722C82.2664 110.722 81.7153 110.961 81.2771 111.439C80.839 111.904 80.6199 112.588 80.6199 113.491C80.6199 114.38 80.8323 115.064 81.2572 115.542C81.6954 116.02 82.2398 116.259 82.8904 116.259Z" fill="black"/>
<path d="M70.635 119.187C69.6126 119.187 68.6964 119.021 67.8865 118.689C67.0765 118.357 66.4259 117.866 65.9346 117.216C65.4566 116.565 65.2043 115.782 65.1777 114.865H68.8027C68.8558 115.383 69.035 115.782 69.3404 116.06C69.6458 116.326 70.0442 116.459 70.5354 116.459C71.04 116.459 71.4383 116.346 71.7305 116.12C72.0226 115.881 72.1686 115.556 72.1686 115.144C72.1686 114.799 72.0491 114.513 71.8101 114.288C71.5844 114.062 71.2989 113.876 70.9537 113.73C70.6217 113.584 70.1437 113.418 69.5197 113.232C68.6168 112.953 67.8798 112.674 67.3089 112.396C66.7379 112.117 66.2466 111.705 65.835 111.161C65.4234 110.616 65.2176 109.906 65.2176 109.03C65.2176 107.728 65.6889 106.713 66.6317 105.982C67.5744 105.239 68.8027 104.867 70.3164 104.867C71.8566 104.867 73.0981 105.239 74.0409 105.982C74.9836 106.713 75.4882 107.735 75.5546 109.05H71.8699C71.8433 108.598 71.6774 108.246 71.372 107.994C71.0666 107.728 70.6749 107.596 70.1968 107.596C69.7852 107.596 69.4533 107.708 69.201 107.934C68.9487 108.147 68.8226 108.459 68.8226 108.87C68.8226 109.322 69.035 109.674 69.4599 109.926C69.8848 110.178 70.5487 110.45 71.4516 110.742C72.3545 111.048 73.0848 111.34 73.6425 111.619C74.2135 111.898 74.7048 112.303 75.1164 112.834C75.528 113.365 75.7338 114.049 75.7338 114.885C75.7338 115.682 75.528 116.406 75.1164 117.056C74.718 117.707 74.1338 118.225 73.3637 118.61C72.5935 118.995 71.684 119.187 70.635 119.187Z" fill="black"/>
<path d="M47.1611 113.471C47.1611 112.329 47.3736 111.326 47.7985 110.463C48.2367 109.6 48.8275 108.936 49.5711 108.472C50.3147 108.007 51.1446 107.774 52.0607 107.774C52.8441 107.774 53.528 107.934 54.1122 108.252C54.7097 108.571 55.1678 108.989 55.4865 109.507V107.934H58.8923V119.048H55.4865V117.474C55.1545 117.992 54.6898 118.41 54.0923 118.729C53.5081 119.048 52.8242 119.207 52.0408 119.207C51.1379 119.207 50.3147 118.974 49.5711 118.51C48.8275 118.032 48.2367 117.361 47.7985 116.498C47.3736 115.622 47.1611 114.613 47.1611 113.471ZM55.4865 113.491C55.4865 112.641 55.2475 111.97 54.7695 111.479C54.3047 110.988 53.7338 110.742 53.0566 110.742C52.3794 110.742 51.8018 110.988 51.3238 111.479C50.8591 111.957 50.6267 112.621 50.6267 113.471C50.6267 114.321 50.8591 114.998 51.3238 115.502C51.8018 115.994 52.3794 116.239 53.0566 116.239C53.7338 116.239 54.3047 115.994 54.7695 115.502C55.2475 115.011 55.4865 114.34 55.4865 113.491Z" fill="black"/>
<path d="M42.7252 109.786C43.1235 109.175 43.6214 108.697 44.2189 108.352C44.8165 107.994 45.4804 107.814 46.2107 107.814V111.419H45.2746C44.4248 111.419 43.7874 111.605 43.3625 111.977C42.9376 112.336 42.7252 112.973 42.7252 113.889V119.048H39.3193V107.934H42.7252V109.786Z" fill="black"/>
<path d="M34.2056 109.786C34.604 109.175 35.1019 108.697 35.6994 108.352C36.2969 107.994 36.9608 107.814 37.6911 107.814V111.419H36.755C35.9052 111.419 35.2679 111.605 34.843 111.977C34.4181 112.336 34.2056 112.973 34.2056 113.889V119.048H30.7998V107.934H34.2056V109.786Z" fill="black"/>
<path d="M29.0022 113.311C29.0022 113.63 28.9823 113.962 28.9425 114.307H21.2345C21.2877 114.998 21.5067 115.529 21.8918 115.901C22.2902 116.259 22.7748 116.438 23.3458 116.438C24.1956 116.438 24.7864 116.08 25.1184 115.363H28.7433C28.5574 116.093 28.2188 116.75 27.7275 117.335C27.2495 117.919 26.6454 118.377 25.9151 118.709C25.1848 119.041 24.3682 119.207 23.4653 119.207C22.3765 119.207 21.4072 118.974 20.5574 118.51C19.7076 118.045 19.0437 117.381 18.5657 116.518C18.0876 115.655 17.8486 114.646 17.8486 113.491C17.8486 112.335 18.081 111.326 18.5457 110.463C19.0237 109.6 19.6876 108.936 20.5374 108.472C21.3872 108.007 22.3632 107.774 23.4653 107.774C24.5408 107.774 25.4968 108 26.3333 108.452C27.1698 108.903 27.8205 109.547 28.2852 110.384C28.7632 111.22 29.0022 112.196 29.0022 113.311ZM25.5167 112.415C25.5167 111.831 25.3176 111.366 24.9192 111.021C24.5209 110.676 24.0229 110.503 23.4254 110.503C22.8545 110.503 22.3698 110.669 21.9715 111.001C21.5864 111.333 21.3474 111.804 21.2545 112.415H25.5167Z" fill="black"/>
<path d="M14.3636 106.779C13.7661 106.779 13.2748 106.606 12.8897 106.261C12.5179 105.903 12.332 105.464 12.332 104.947C12.332 104.415 12.5179 103.977 12.8897 103.632C13.2748 103.273 13.7661 103.094 14.3636 103.094C14.9478 103.094 15.4258 103.273 15.7976 103.632C16.1827 103.977 16.3752 104.415 16.3752 104.947C16.3752 105.464 16.1827 105.903 15.7976 106.261C15.4258 106.606 14.9478 106.779 14.3636 106.779ZM16.0565 107.934V119.048H12.6507V107.934H16.0565Z" fill="black"/>
<path d="M5.45729 119.187C4.43488 119.187 3.51869 119.021 2.70873 118.689C1.89876 118.357 1.24814 117.866 0.75685 117.216C0.27884 116.565 0.0265562 115.782 0 114.865H3.62491C3.67803 115.383 3.85728 115.782 4.16268 116.06C4.46807 116.326 4.86642 116.459 5.3577 116.459C5.86227 116.459 6.26061 116.346 6.55273 116.12C6.84485 115.881 6.99091 115.556 6.99091 115.144C6.99091 114.799 6.8714 114.513 6.6324 114.288C6.40667 114.062 6.12119 113.876 5.77596 113.73C5.44401 113.584 4.966 113.418 4.34193 113.232C3.43902 112.953 2.70209 112.674 2.13113 112.396C1.56017 112.117 1.06889 111.705 0.657265 111.161C0.245644 110.616 0.0398343 109.906 0.0398343 109.03C0.0398343 107.728 0.511206 106.713 1.45395 105.982C2.39669 105.239 3.62491 104.867 5.13862 104.867C6.67887 104.867 7.92037 105.239 8.86312 105.982C9.80586 106.713 10.3104 107.735 10.3768 109.05H6.69215C6.66559 108.598 6.49962 108.246 6.19422 107.994C5.88883 107.728 5.49712 107.596 5.01911 107.596C4.60749 107.596 4.27554 107.708 4.02326 107.934C3.77097 108.147 3.64483 108.459 3.64483 108.87C3.64483 109.322 3.85728 109.674 4.28218 109.926C4.70708 110.178 5.37098 110.45 6.27389 110.742C7.1768 111.048 7.90709 111.34 8.46477 111.619C9.03573 111.898 9.52702 112.303 9.93864 112.834C10.3503 113.365 10.5561 114.049 10.5561 114.885C10.5561 115.682 10.3503 116.406 9.93864 117.056C9.5403 117.707 8.95606 118.225 8.18593 118.61C7.41581 118.995 6.50626 119.187 5.45729 119.187Z" fill="black"/>
<path fill-rule="evenodd" clip-rule="evenodd" d="M31.0615 31.0649L62.1262 0.000286351L76.9682 14.8423L70.4101 21.4004L62.4713 13.4616L44.5229 31.4101L60.7455 47.6328L78.694 29.6843L85.2521 23.1262L115.626 53.5005L84.5618 84.5652L69.3746 69.378L75.9327 62.8199L83.8714 70.7587L101.82 52.8102L85.5973 36.5875L67.6488 54.536L61.0907 61.0941L31.0615 31.0649Z" fill="#CC0033"/>
<path fill-rule="evenodd" clip-rule="evenodd" d="M31.0716 53.4901L31.0615 53.5002L62.1262 84.5649L92.1553 54.5357L85.5973 47.9776L78.694 54.8809L62.4713 71.1035L44.8579 53.4901L31.0716 53.4901ZM67.6488 30.0292L83.8714 13.8065L101.127 31.062L115.624 31.062L84.5618 -7.11022e-07L54.1874 30.3743L60.7455 36.9324L67.6488 30.0292Z" fill="#82BE28"/>
</svg>
