<svg width="100" height="12" viewBox="0 0 100 12" fill="none" xmlns="http://www.w3.org/2000/svg">
<path d="M91.8179 2.66357H94.8935L96.5859 6.94595L98.1163 3.41409H96.9391V2.66357H100V3.41409H98.9699L96.0267 10.3012C95.9384 10.517 95.8403 10.7084 95.7323 10.8751C95.6342 11.0517 95.5165 11.1989 95.3792 11.3166C95.2516 11.4442 95.0946 11.5374 94.9082 11.5962C94.7316 11.6649 94.5158 11.6992 94.2607 11.6992C93.986 11.6992 93.7653 11.6502 93.5985 11.5521C93.4415 11.4638 93.3189 11.351 93.2306 11.2136C93.1423 11.0861 93.0835 10.9487 93.054 10.8016C93.0344 10.6642 93.0246 10.5416 93.0246 10.4337V9.99217H93.8045V10.4484C93.8045 10.5661 93.834 10.6789 93.8928 10.7868C93.9615 10.8948 94.0841 10.9487 94.2607 10.9487C94.5256 10.9487 94.7267 10.8555 94.8641 10.6691C95.0113 10.4827 95.1388 10.262 95.2467 10.0069L95.4086 9.62427L92.5537 3.41409H91.8179V2.66357Z" fill="#CC0033"/>
<path d="M83.7568 2.92872H84.6251L86.8472 2.50195V3.53208C86.8668 3.50264 86.9208 3.43397 87.0091 3.32605C87.0974 3.21813 87.2298 3.11022 87.4064 3.0023C87.583 2.88457 87.8136 2.78156 88.0981 2.69326C88.3826 2.60497 88.7309 2.56082 89.1429 2.56082C89.3686 2.56082 89.5942 2.58044 89.8199 2.61968C90.0553 2.65892 90.2662 2.7325 90.4526 2.84042C90.6489 2.93853 90.8058 3.07588 90.9236 3.25247C91.0413 3.42906 91.1001 3.65962 91.1001 3.94413V8.52082H91.9684V9.27134H88.775V3.47321C88.7554 3.47321 88.726 3.46831 88.6867 3.4585C88.6082 3.43888 88.5003 3.42906 88.363 3.42906C88.1569 3.42906 87.9705 3.47321 87.8038 3.56151C87.6468 3.63999 87.5094 3.7332 87.3917 3.84111C87.274 3.94903 87.1759 4.06185 87.0974 4.17958C87.0287 4.2875 86.9796 4.37089 86.9502 4.42976V8.52082H87.8185V9.27134H83.7568V8.52082H84.6251V3.66452H83.7568V2.92872Z" fill="#CC0033"/>
<path d="M82.3204 8.53527H82.5117C82.6 8.53527 82.6883 8.53036 82.7766 8.52055L83.1003 8.49112V9.19749C82.9237 9.22692 82.752 9.25145 82.5853 9.27107C82.4479 9.29069 82.3008 9.30541 82.1438 9.31522C81.9868 9.32503 81.8593 9.32993 81.7612 9.32993C81.2804 9.32993 80.9174 9.24164 80.6722 9.06504C80.4269 8.88845 80.2503 8.69714 80.1424 8.49112C79.9266 8.76582 79.6764 8.98656 79.3919 9.15334C79.1172 9.31031 78.7983 9.3888 78.4353 9.3888C77.7682 9.3888 77.2728 9.26616 76.949 9.0209C76.6253 8.76582 76.4634 8.32924 76.4634 7.71117C76.4634 7.49533 76.4634 7.28931 76.4634 7.09309C76.4732 6.89688 76.4879 6.72519 76.5075 6.57803C76.5272 6.40144 76.5468 6.24447 76.5664 6.10712L79.9805 5.2683C79.9707 4.98379 79.9609 4.72381 79.9511 4.48835C79.9413 4.24308 79.9315 4.03706 79.9217 3.87028C79.902 3.67406 79.8873 3.49747 79.8775 3.3405C79.8481 3.33069 79.8039 3.32088 79.7451 3.31107C79.696 3.30125 79.6224 3.29144 79.5243 3.28163C79.4262 3.27182 79.3085 3.26692 79.1711 3.26692C79.0828 3.26692 78.9995 3.27182 78.921 3.28163C78.8425 3.28163 78.764 3.28654 78.6855 3.29635C78.6561 3.4337 78.607 3.60048 78.5383 3.7967C78.4697 3.9831 78.3618 4.1646 78.2146 4.34119C78.0674 4.50797 77.8712 4.65513 77.6259 4.78267C77.3905 4.9004 77.0864 4.95926 76.7136 4.95926V2.73714C77.0275 2.70771 77.3463 2.67828 77.6701 2.64884C77.9546 2.62922 78.2587 2.6096 78.5825 2.58998C78.9063 2.57036 79.2202 2.56055 79.5243 2.56055C80.162 2.56055 80.6624 2.61451 81.0254 2.72242C81.3982 2.83034 81.6778 3.01674 81.8642 3.28163C82.0604 3.54652 82.183 3.89971 82.2321 4.34119C82.2909 4.78267 82.3204 5.33207 82.3204 5.98939V8.53527ZM78.9062 8.59413C79.1025 8.54508 79.2889 8.42244 79.4655 8.22623C79.6519 8.0202 79.8285 7.77494 79.9952 7.49043V5.93052L78.8768 6.23956C78.8572 6.39653 78.8425 6.55841 78.8327 6.72519C78.8229 6.88216 78.8179 7.03913 78.8179 7.1961C78.8179 7.39232 78.8179 7.57382 78.8179 7.7406C78.8278 7.90738 78.8425 8.05454 78.8621 8.18208C78.8719 8.32924 78.8866 8.46659 78.9062 8.59413Z" fill="#CC0033"/>
<path d="M67.5874 2.92872H68.4556L70.6778 2.50195V3.42906C70.9623 3.16418 71.2762 2.95815 71.6196 2.81099C71.963 2.65402 72.326 2.57553 72.7086 2.57553C73.1108 2.57553 73.4689 2.6393 73.7829 2.76684C74.0968 2.88457 74.3568 3.08078 74.5628 3.35548C74.7786 3.62037 74.9405 3.97356 75.0484 4.41504C75.1564 4.84671 75.2103 5.37158 75.2103 5.98966C75.2103 6.61754 75.1515 7.15223 75.0337 7.59371C74.916 8.02538 74.7198 8.37857 74.4451 8.65327C74.1704 8.91815 73.8123 9.10946 73.3708 9.22719C72.9391 9.34492 72.4094 9.40378 71.7815 9.40378C71.6049 9.40378 71.4332 9.39397 71.2664 9.37435C71.0996 9.35473 70.9378 9.33511 70.7808 9.31549V11.6995H67.5874V10.949H68.4556V3.66452H67.5874V2.92872ZM72.532 3.3702C72.2082 3.3702 71.8943 3.47321 71.5902 3.67924C71.286 3.88526 71.0162 4.14034 70.7808 4.44447V8.60912C70.9476 8.65817 71.1193 8.69251 71.2959 8.71213C71.4724 8.73175 71.6343 8.74156 71.7815 8.74156C72.0169 8.74156 72.2033 8.72685 72.3407 8.69741C72.4192 8.6876 72.4829 8.67289 72.532 8.65327C72.5811 8.42762 72.6252 8.17745 72.6644 7.90275C72.6939 7.66729 72.7233 7.38768 72.7527 7.06393C72.7822 6.73037 72.7969 6.37228 72.7969 5.98966C72.7969 5.51875 72.7822 5.12141 72.7527 4.79766C72.7233 4.46409 72.6939 4.18939 72.6644 3.97356C72.6252 3.71848 72.5811 3.51736 72.532 3.3702Z" fill="#CC0033"/>
<path d="M55.0723 2.92872H55.9405L58.1626 2.50195V3.48793C58.2019 3.42906 58.2706 3.34567 58.3687 3.23776C58.4766 3.12984 58.6139 3.02683 58.7807 2.92872C58.9475 2.83061 59.1486 2.74722 59.3841 2.67855C59.6293 2.60006 59.9138 2.56082 60.2376 2.56082C60.424 2.56082 60.6153 2.57553 60.8115 2.60497C61.0077 2.6344 61.1892 2.68345 61.356 2.75213C61.5326 2.8208 61.6896 2.914 61.8269 3.03173C61.9643 3.14946 62.0624 3.30153 62.1213 3.48793C62.1507 3.44869 62.2096 3.38001 62.2978 3.2819C62.3861 3.17399 62.5088 3.06607 62.6658 2.95815C62.8325 2.85023 63.0386 2.75703 63.2838 2.67855C63.5291 2.60006 63.8234 2.56082 64.1668 2.56082C64.3924 2.56082 64.6181 2.58044 64.8437 2.61968C65.0792 2.65892 65.2901 2.7325 65.4765 2.84042C65.6727 2.93853 65.8297 3.07588 65.9474 3.25247C66.0652 3.42906 66.124 3.65962 66.124 3.94413V8.52082H66.9923V9.27134H63.7989V3.47321L63.7547 3.4585C63.7351 3.44869 63.7057 3.44378 63.6664 3.44378C63.6272 3.43397 63.5683 3.42906 63.4898 3.42906C63.3231 3.42906 63.1661 3.47321 63.0189 3.56151C62.8816 3.64981 62.754 3.75282 62.6363 3.87055C62.5284 3.97846 62.4352 4.09129 62.3567 4.20902C62.2782 4.31693 62.2243 4.39542 62.1948 4.44447V8.52082H63.0631V9.27134H59.8697V3.47321L59.8256 3.4585C59.8059 3.44869 59.7765 3.44378 59.7373 3.44378C59.698 3.43397 59.6391 3.42906 59.5607 3.42906C59.3939 3.42906 59.2369 3.47321 59.0898 3.56151C58.9524 3.64981 58.8249 3.75282 58.7071 3.87055C58.5992 3.97846 58.506 4.09129 58.4275 4.20902C58.349 4.31693 58.2951 4.39542 58.2656 4.44447V8.52082H59.1339V9.27134H55.0723V8.52082H55.9405V3.66452H55.0723V2.92872Z" fill="#CC0033"/>
<path d="M49.6693 5.98939C49.6693 6.37201 49.6791 6.7301 49.6987 7.06366C49.7282 7.38741 49.7625 7.66702 49.8017 7.90248C49.841 8.18699 49.8851 8.44207 49.9342 8.66771C49.9832 8.68733 50.047 8.70205 50.1255 8.71186C50.253 8.74129 50.4394 8.75601 50.6847 8.75601C50.9202 8.75601 51.1066 8.74129 51.2439 8.71186C51.3224 8.70205 51.3862 8.68733 51.4352 8.66771C51.4843 8.44207 51.5284 8.18699 51.5677 7.90248C51.5971 7.66702 51.6265 7.38741 51.656 7.06366C51.6854 6.7301 51.7001 6.37201 51.7001 5.98939C51.7001 5.60677 51.6854 5.25359 51.656 4.92983C51.6265 4.60608 51.5971 4.32157 51.5677 4.0763C51.5284 3.8016 51.4843 3.54652 51.4352 3.31107C51.3764 3.30125 51.3077 3.28654 51.2292 3.26692C51.1605 3.25711 51.0771 3.2473 50.979 3.23749C50.8907 3.22768 50.7926 3.22277 50.6847 3.22277C50.5572 3.22277 50.4492 3.22768 50.3609 3.23749C50.2727 3.2473 50.1942 3.25711 50.1255 3.26692C50.047 3.28654 49.9832 3.30125 49.9342 3.31107C49.8851 3.54652 49.841 3.8016 49.8017 4.0763C49.7625 4.32157 49.7282 4.60608 49.6987 4.92983C49.6791 5.25359 49.6693 5.60677 49.6693 5.98939ZM47.2559 5.98939C47.2559 5.3615 47.3147 4.83173 47.4325 4.40005C47.5502 3.95857 47.7464 3.60539 48.0211 3.3405C48.2958 3.0658 48.649 2.86958 49.0807 2.75186C49.5123 2.62432 50.047 2.56055 50.6847 2.56055C51.3126 2.56055 51.8424 2.62432 52.274 2.75186C52.7155 2.86958 53.0736 3.0658 53.3483 3.3405C53.623 3.60539 53.8192 3.95857 53.937 4.40005C54.0547 4.83173 54.1135 5.3615 54.1135 5.98939C54.1135 6.61727 54.0547 7.15196 53.937 7.59344C53.8192 8.02511 53.623 8.3783 53.3483 8.653C53.0736 8.91788 52.7155 9.1141 52.274 9.24164C51.8424 9.35937 51.3126 9.41823 50.6847 9.41823C50.047 9.41823 49.5123 9.35937 49.0807 9.24164C48.649 9.1141 48.2958 8.91788 48.0211 8.653C47.7464 8.3783 47.5502 8.02511 47.4325 7.59344C47.3147 7.15196 47.2559 6.61727 47.2559 5.98939Z" fill="#CC0033"/>
<path d="M45.9132 3.22282C45.3049 3.22282 44.8242 3.10509 44.471 2.86963C44.1178 2.63417 43.848 2.36929 43.6616 2.07496C43.485 1.78064 43.3673 1.50104 43.3085 1.23615C43.2496 0.97126 43.2202 0.804478 43.2202 0.735803C43.0534 0.745614 42.9013 0.755425 42.764 0.765236C42.6364 0.775046 42.5285 0.789762 42.4402 0.809383C42.3323 0.829005 42.2391 0.848627 42.1606 0.868248C42.0723 1.21162 41.9987 1.58933 41.9399 2.00138C41.8908 2.35457 41.8418 2.76662 41.7927 3.23753C41.7535 3.70845 41.7338 4.20879 41.7338 4.73857C41.7338 5.27816 41.7535 5.78341 41.7927 6.25432C41.8418 6.71543 41.8908 7.12257 41.9399 7.47576C41.9987 7.88781 42.0723 8.27042 42.1606 8.62361C42.2195 8.64323 42.298 8.66285 42.3961 8.68247C42.553 8.71191 42.8032 8.72662 43.1466 8.72662C43.4703 8.72662 43.7646 8.69228 44.0295 8.62361C44.3042 8.54512 44.5397 8.4274 44.7359 8.27042C44.9321 8.10364 45.0842 7.89271 45.1921 7.63763C45.3098 7.37274 45.3687 7.0588 45.3687 6.69581V6.23961H46.2222V6.65166C46.2222 7.152 46.1388 7.58367 45.9721 7.94667C45.8053 8.29986 45.5796 8.59418 45.2951 8.82963C45.0106 9.05528 44.682 9.22206 44.3091 9.32998C43.9461 9.4379 43.5586 9.49186 43.1466 9.49186C42.4402 9.49186 41.827 9.40847 41.3071 9.24168C40.7871 9.06509 40.3505 8.78549 39.9973 8.40287C39.654 8.02025 39.3989 7.52972 39.2321 6.93126C39.0653 6.323 38.9819 5.5921 38.9819 4.73857C38.9819 3.88504 39.0653 3.15905 39.2321 2.56059C39.4087 1.96214 39.6736 1.47161 40.0268 1.08899C40.3898 0.706371 40.846 0.431671 41.3954 0.264889C41.9546 0.0882964 42.6168 0 43.382 0C43.7156 0 44.0344 0.0147162 44.3386 0.0441485C44.6427 0.0637702 44.9125 0.088297 45.148 0.117729C45.4227 0.156972 45.6777 0.191309 45.9132 0.220742V3.22282Z" fill="#CC0033"/>
<path d="M32.2075 2.92872H33.0758L35.2979 2.50195V3.44378C35.3077 3.41435 35.342 3.35548 35.4009 3.26719C35.4696 3.16908 35.5726 3.07097 35.7099 2.97287C35.8571 2.86495 36.0435 2.77175 36.2692 2.69326C36.5046 2.60497 36.7989 2.56082 37.1521 2.56082C37.3679 2.56082 37.5347 2.56572 37.6525 2.57553C37.78 2.58534 37.8781 2.59515 37.9468 2.60497C38.0253 2.61478 38.0743 2.62459 38.0939 2.6344V5.4746C37.7408 5.4746 37.4464 5.40592 37.211 5.26857C36.9755 5.13122 36.7842 4.95953 36.6371 4.75351C36.4899 4.54749 36.3771 4.33165 36.2986 4.106C36.2201 3.88036 36.1661 3.67924 36.1367 3.50264C36.0484 3.5517 35.965 3.62037 35.8865 3.70867C35.808 3.78716 35.7345 3.87545 35.6658 3.97356C35.6069 4.06186 35.553 4.15015 35.5039 4.23845C35.4549 4.31693 35.4205 4.3807 35.4009 4.42976V8.52082H36.2692V9.27134H32.2075V8.52082H33.0758V3.66452H32.2075V2.92872Z" fill="#CC0033"/>
<path d="M28.4651 2.56055C29.0046 2.56055 29.451 2.61451 29.8042 2.72242C30.1574 2.82053 30.4419 2.98241 30.6577 3.20805C30.8736 3.4337 31.0257 3.73293 31.1139 4.10573C31.2022 4.46873 31.2464 4.92002 31.2464 5.45961C31.2464 5.62639 31.2415 5.77355 31.2317 5.90109C31.2219 6.01882 31.2121 6.11693 31.2022 6.19541C31.1924 6.29352 31.1826 6.3671 31.1728 6.41615H27.5379C27.5478 6.74972 27.5674 7.05385 27.5968 7.32855C27.6262 7.59344 27.6557 7.82399 27.6851 8.0202C27.7243 8.25566 27.7636 8.46169 27.8028 8.63828C27.8323 8.6579 27.8764 8.67262 27.9353 8.68243C27.9843 8.69224 28.053 8.70205 28.1413 8.71186C28.2394 8.71186 28.362 8.71186 28.5092 8.71186C28.7545 8.71186 28.985 8.69714 29.2009 8.66771C29.4265 8.62847 29.6227 8.5696 29.7895 8.49112C29.9563 8.41263 30.0838 8.30472 30.1721 8.16737C30.2702 8.0202 30.3193 7.84361 30.3193 7.63759H31.1139C31.1139 8.04964 31.0207 8.37339 30.8343 8.60885C30.6577 8.8443 30.4321 9.0258 30.1574 9.15334C29.8925 9.27107 29.6031 9.34465 29.2892 9.37408C28.9752 9.40351 28.6809 9.41823 28.4062 9.41823C27.8077 9.41823 27.2976 9.35937 26.8757 9.24164C26.4637 9.1141 26.1252 8.91788 25.8603 8.653C25.6052 8.3783 25.4188 8.02511 25.3011 7.59344C25.1834 7.15196 25.1245 6.61727 25.1245 5.98939C25.1245 5.3615 25.1736 4.83173 25.2717 4.40005C25.3796 3.95857 25.5611 3.60539 25.8162 3.3405C26.0712 3.0658 26.4097 2.86958 26.8316 2.75186C27.2632 2.62432 27.8077 2.56055 28.4651 2.56055ZM27.8028 3.31107C27.7538 3.5269 27.7096 3.76236 27.6704 4.01744C27.641 4.24308 27.6115 4.50797 27.5821 4.8121C27.5527 5.10642 27.5379 5.43018 27.5379 5.78336H28.9654C28.9458 5.37131 28.9213 5.01322 28.8918 4.70909C28.8624 4.39515 28.8281 4.13517 28.7888 3.92914C28.7496 3.68387 28.7054 3.47785 28.6564 3.31107C28.6269 3.30125 28.5926 3.28654 28.5534 3.26692C28.5141 3.25711 28.4651 3.2473 28.4062 3.23749C28.3571 3.22768 28.2983 3.22277 28.2296 3.22277C28.1609 3.22277 28.1021 3.22768 28.053 3.23749C28.004 3.2473 27.9598 3.25711 27.9206 3.26692C27.8813 3.28654 27.8421 3.30125 27.8028 3.31107Z" fill="#CC0033"/>
<path d="M16.4692 2.92872H17.3375L19.5596 2.50195V3.42906C19.8441 3.16418 20.1581 2.95815 20.5014 2.81099C20.8448 2.65402 21.2078 2.57553 21.5904 2.57553C21.9927 2.57553 22.3508 2.6393 22.6647 2.76684C22.9786 2.88457 23.2386 3.08078 23.4447 3.35548C23.6605 3.62037 23.8224 3.97356 23.9303 4.41504C24.0382 4.84671 24.0922 5.37158 24.0922 5.98966C24.0922 6.61754 24.0333 7.15223 23.9156 7.59371C23.7978 8.02538 23.6016 8.37857 23.3269 8.65327C23.0522 8.91815 22.6941 9.10946 22.2526 9.22719C21.821 9.34492 21.2912 9.40378 20.6633 9.40378C20.4867 9.40378 20.315 9.39397 20.1483 9.37435C19.9815 9.35473 19.8196 9.33511 19.6626 9.31549V11.6995H16.4692V10.949H17.3375V3.66452H16.4692V2.92872ZM21.4138 3.3702C21.0901 3.3702 20.7761 3.47321 20.472 3.67924C20.1679 3.88526 19.8981 4.14034 19.6626 4.44447V8.60912C19.8294 8.65817 20.0011 8.69251 20.1777 8.71213C20.3543 8.73175 20.5162 8.74156 20.6633 8.74156C20.8988 8.74156 21.0852 8.72685 21.2225 8.69741C21.301 8.6876 21.3648 8.67289 21.4138 8.65327C21.4629 8.42762 21.507 8.17745 21.5463 7.90275C21.5757 7.66729 21.6051 7.38768 21.6346 7.06393C21.664 6.73037 21.6787 6.37228 21.6787 5.98966C21.6787 5.51875 21.664 5.12141 21.6346 4.79766C21.6051 4.46409 21.5757 4.18939 21.5463 3.97356C21.507 3.71848 21.4629 3.51736 21.4138 3.3702Z" fill="#CC0033"/>
<path d="M15.1065 8.53527H15.2978C15.3861 8.53527 15.4744 8.53036 15.5627 8.52055L15.8865 8.49112V9.19749C15.7099 9.22692 15.5382 9.25145 15.3714 9.27107C15.234 9.29069 15.0869 9.30541 14.9299 9.31522C14.7729 9.32503 14.6454 9.32993 14.5473 9.32993C14.0666 9.32993 13.7036 9.24164 13.4583 9.06504C13.213 8.88845 13.0364 8.69714 12.9285 8.49112C12.7127 8.76582 12.4625 8.98656 12.178 9.15334C11.9033 9.31031 11.5845 9.3888 11.2215 9.3888C10.5543 9.3888 10.0589 9.26616 9.73514 9.0209C9.41139 8.76582 9.24951 8.32924 9.24951 7.71117C9.24951 7.49533 9.24951 7.28931 9.24951 7.09309C9.25932 6.89688 9.27404 6.72519 9.29366 6.57803C9.31328 6.40144 9.3329 6.24447 9.35252 6.10712L12.7667 5.2683C12.7568 4.98379 12.747 4.72381 12.7372 4.48835C12.7274 4.24308 12.7176 4.03706 12.7078 3.87028C12.6882 3.67406 12.6734 3.49747 12.6636 3.3405C12.6342 3.33069 12.5901 3.32088 12.5312 3.31107C12.4821 3.30125 12.4086 3.29144 12.3105 3.28163C12.2123 3.27182 12.0946 3.26692 11.9573 3.26692C11.869 3.26692 11.7856 3.27182 11.7071 3.28163C11.6286 3.28163 11.5501 3.28654 11.4716 3.29635C11.4422 3.4337 11.3932 3.60048 11.3245 3.7967C11.2558 3.9831 11.1479 4.1646 11.0007 4.34119C10.8536 4.50797 10.6573 4.65513 10.4121 4.78267C10.1766 4.9004 9.87249 4.95926 9.49968 4.95926V2.73714C9.81363 2.70771 10.1325 2.67828 10.4562 2.64884C10.7407 2.62922 11.0449 2.6096 11.3686 2.58998C11.6924 2.57036 12.0063 2.56055 12.3105 2.56055C12.9481 2.56055 13.4485 2.61451 13.8115 2.72242C14.1843 2.83034 14.4639 3.01674 14.6503 3.28163C14.8465 3.54652 14.9692 3.89971 15.0182 4.34119C15.0771 4.78267 15.1065 5.33207 15.1065 5.98939V8.53527ZM11.6924 8.59413C11.8886 8.54508 12.075 8.42244 12.2516 8.22623C12.438 8.0202 12.6146 7.77494 12.7814 7.49043V5.93052L11.6629 6.23956C11.6433 6.39653 11.6286 6.55841 11.6188 6.72519C11.609 6.88216 11.6041 7.03913 11.6041 7.1961C11.6041 7.39232 11.6041 7.57382 11.6041 7.7406C11.6139 7.90738 11.6286 8.05454 11.6482 8.18208C11.658 8.32924 11.6728 8.46659 11.6924 8.59413Z" fill="#CC0033"/>
<path d="M3.47299 0.220839C3.58091 0.220839 3.69864 0.220839 3.82618 0.220839C3.95371 0.211028 4.07144 0.206122 4.17936 0.206122C4.29709 0.206122 4.3952 0.206122 4.47368 0.206122C4.56198 0.196312 4.62084 0.191406 4.65027 0.191406C5.91586 0.191406 6.85278 0.397431 7.46104 0.809481C8.0693 1.22153 8.37344 1.9279 8.37344 2.92859C8.37344 3.91947 8.0693 4.62094 7.46104 5.03299C6.86259 5.44504 5.92567 5.65106 4.65027 5.65106H4.23823C4.09106 5.65106 3.939 5.64616 3.78203 5.63635V8.41768H5.09176V9.27121H0V8.41768H1.30973V1.07437H0V0.220839H3.47299ZM4.65027 0.941925C4.48349 0.941925 4.32652 0.946831 4.17936 0.956642C4.0322 0.966453 3.89976 0.981168 3.78203 1.00079V4.82696C4.02729 4.8564 4.31671 4.87111 4.65027 4.87111C4.87592 4.87111 5.05742 4.8564 5.19477 4.82696C5.27325 4.81715 5.34193 4.80244 5.40079 4.78282C5.44004 4.64547 5.47928 4.4885 5.51852 4.3119C5.54795 4.15493 5.57248 3.96362 5.5921 3.73798C5.62153 3.50252 5.63625 3.23763 5.63625 2.94331C5.63625 2.63918 5.62153 2.36938 5.5921 2.13393C5.57248 1.89847 5.54795 1.69735 5.51852 1.53057C5.47928 1.34416 5.44004 1.17738 5.40079 1.03022C5.34193 1.02041 5.27325 1.00569 5.19477 0.986073C5.12609 0.976263 5.0427 0.966453 4.9446 0.956642C4.8563 0.946831 4.75819 0.941925 4.65027 0.941925Z" fill="#CC0033"/>
</svg>
