<svg width="100" height="9" viewBox="0 0 100 9" fill="none" xmlns="http://www.w3.org/2000/svg">
<path d="M99.8488 5.26665C99.9494 5.26665 99.9997 5.31288 99.9997 5.40535C99.9997 5.58758 99.6516 5.8242 98.9553 6.11521C98.5202 6.29743 98.0415 6.4443 97.5193 6.55581C97.454 6.73804 97.3955 6.8985 97.3439 7.03721C97.2922 7.17864 97.197 7.33638 97.0583 7.51045C96.9223 7.68451 96.7605 7.83002 96.5728 7.94697C96.3879 8.06392 96.188 8.16183 95.9731 8.2407C95.761 8.32229 95.5216 8.38485 95.2551 8.42836C94.7737 8.50996 94.2093 8.55075 93.562 8.55075C92.9175 8.55075 92.4211 8.47868 92.073 8.33453C91.7248 8.19039 91.5508 7.98232 91.5508 7.71035C91.5508 7.5526 91.6188 7.40982 91.7548 7.28199C91.8908 7.15416 92.0675 7.04673 92.2851 6.9597C92.5054 6.87266 92.7856 6.79379 93.1255 6.72308C93.7048 6.60613 94.4324 6.50958 95.3081 6.43342C95.3816 6.19136 95.4346 5.98874 95.4672 5.82556C94.6758 6.11929 93.9496 6.26616 93.2887 6.26616C92.4048 6.26616 91.9628 5.97378 91.9628 5.38904C91.9628 4.97835 92.0852 4.47112 92.33 3.86733C92.5775 3.26083 92.7012 2.83519 92.7012 2.59041L92.6972 2.43538C92.6972 2.29939 92.8291 2.2314 93.0929 2.2314L94.0434 2.24772L94.9042 2.18652C94.975 2.18652 95.028 2.20828 95.0633 2.2518C95.0987 2.29259 95.1164 2.36603 95.1164 2.4721C95.1164 2.57545 95.0756 2.75767 94.994 3.01877C94.9151 3.27715 94.8281 3.5192 94.7329 3.74494C94.4745 4.35145 94.3453 4.75941 94.3453 4.96883C94.3453 5.0885 94.3888 5.17962 94.4759 5.24217C94.5629 5.30472 94.6771 5.336 94.8186 5.336C95.1177 5.336 95.3965 5.25305 95.6549 5.08714C95.9459 4.30113 96.2138 3.42673 96.4586 2.46394C96.4831 2.36331 96.5551 2.31299 96.6748 2.31299C97.0692 2.31299 97.4921 2.29259 97.9436 2.2518C98.395 2.20828 98.6534 2.18652 98.7187 2.18652C98.7867 2.18652 98.8397 2.20284 98.8778 2.23548C98.9159 2.26812 98.9349 2.29939 98.9349 2.32931C98.9349 2.44626 98.5283 3.67151 97.7151 6.00506C98.1176 5.90987 98.4916 5.797 98.837 5.66645C99.1851 5.53318 99.4218 5.43391 99.5469 5.36864C99.6747 5.30064 99.7753 5.26665 99.8488 5.26665ZM94.9573 7.46149C95.0361 7.26295 95.1041 7.07529 95.1613 6.8985C93.9374 7.05353 93.3254 7.33638 93.3254 7.74707C93.3254 7.85314 93.3798 7.95241 93.4886 8.04488C93.6001 8.14007 93.7116 8.18767 93.8231 8.18767C94.0706 8.18767 94.3018 8.12375 94.5167 7.99592C94.7315 7.87081 94.8784 7.69267 94.9573 7.46149Z" fill="#82BE28"/>
<path d="M92.1914 5.26687C92.292 5.26687 92.3423 5.31447 92.3423 5.40966C92.3423 5.50213 92.292 5.58372 92.1914 5.65444C92.0935 5.72515 91.948 5.80674 91.7549 5.89921C91.5618 5.98897 91.3211 6.08824 91.0328 6.19703C90.7472 6.30582 90.4154 6.39829 90.0374 6.47444C89.662 6.55332 89.303 6.59275 88.9603 6.59275C88.1526 6.59275 87.7487 6.40781 87.7487 6.03792C87.7487 5.79858 87.8847 5.37158 88.1566 4.75692C88.4313 4.13953 88.5687 3.72341 88.5687 3.50855C88.5687 3.26649 88.3797 3.14546 88.0016 3.14546C87.8303 3.14546 87.6358 3.16722 87.4182 3.21073C87.3149 3.57518 87.1299 4.15449 86.8634 4.94866C86.5996 5.74283 86.45 6.19431 86.4146 6.3031C86.382 6.41189 86.3099 6.46628 86.1984 6.46628L84.0974 6.51116C84.0675 6.51116 84.0335 6.49212 83.9954 6.45404C83.9601 6.41869 83.9424 6.37653 83.9424 6.32758C83.9424 6.2759 83.9995 6.09776 84.1137 5.79314C84.2307 5.48581 84.3585 5.15672 84.4972 4.80587C84.6386 4.4523 84.7665 4.06474 84.8807 3.64318C84.9976 3.21889 85.0561 2.86805 85.0561 2.59063L85.052 2.4356C85.052 2.29962 85.184 2.23162 85.4478 2.23162L87.3815 2.18675C87.4522 2.18675 87.5053 2.2085 87.5406 2.25202C87.576 2.29282 87.5937 2.34449 87.5937 2.40705C87.5937 2.46688 87.5787 2.56479 87.5488 2.70078C88.5061 2.30098 89.2921 2.10107 89.9068 2.10107C90.1679 2.10107 90.4059 2.17315 90.6207 2.31729C90.8601 2.47776 90.9798 2.72118 90.9798 3.04755C90.9798 3.38208 90.8533 3.81996 90.6003 4.36119C90.3474 4.90242 90.2209 5.23695 90.2209 5.36478C90.2209 5.61772 90.3216 5.74419 90.5228 5.74419C90.6507 5.74419 90.8682 5.69659 91.1756 5.6014C91.4856 5.50349 91.7141 5.42326 91.861 5.3607C92.0105 5.29815 92.1207 5.26687 92.1914 5.26687Z" fill="#82BE28"/>
<path d="M79.43 5.55652C79.9413 5.55652 80.3683 5.16488 80.711 4.38159C80.8688 4.02258 80.9477 3.73157 80.9477 3.50855C80.9477 3.28553 80.9096 3.13186 80.8334 3.04755C80.76 2.96324 80.6131 2.92108 80.3928 2.92108C80.1752 2.92108 79.9386 3.02307 79.683 3.22705C79.43 3.42832 79.226 3.68261 79.071 3.98995C78.916 4.29728 78.8385 4.57469 78.8385 4.82219C78.8385 5.06697 78.8929 5.25055 79.0017 5.37294C79.1105 5.49533 79.2532 5.55652 79.43 5.55652ZM81.5514 2.10107L83.4199 2.18675C83.4906 2.18675 83.5437 2.2085 83.579 2.25202C83.6144 2.29282 83.6321 2.33905 83.6321 2.39073C83.6321 2.58927 83.5491 2.90612 83.3832 3.34128C83.22 3.77372 83.0555 4.20345 82.8896 4.63045C82.7264 5.05473 82.6448 5.33622 82.6448 5.47493C82.6448 5.61092 82.6652 5.69795 82.706 5.73603C82.7495 5.77411 82.8311 5.79314 82.9508 5.79314C83.0704 5.79314 83.288 5.73603 83.6035 5.6218C83.9217 5.50485 84.1366 5.41646 84.2481 5.35662C84.3623 5.29679 84.4493 5.26687 84.5092 5.26687C84.6152 5.26687 84.6683 5.31447 84.6683 5.40966C84.6683 5.61092 84.2603 5.87474 83.4444 6.20111C83.1697 6.31262 82.8379 6.40509 82.449 6.47852C82.0628 6.55468 81.6697 6.59275 81.2699 6.59275C80.6036 6.59275 80.2024 6.38061 80.0664 5.95633C79.6422 6.38061 79.071 6.59275 78.353 6.59275C77.8607 6.59275 77.4446 6.47444 77.1046 6.23782C76.7347 5.97945 76.5498 5.57284 76.5498 5.01801C76.5498 4.43327 76.7225 3.89475 77.0679 3.40248C77.446 2.85581 77.9518 2.47912 78.5855 2.27242C78.9364 2.15819 79.3131 2.10107 79.7156 2.10107C80.333 2.10107 80.813 2.25338 81.1557 2.55799C81.1584 2.54167 81.1598 2.51584 81.1598 2.48048L81.1557 2.30506C81.1557 2.16907 81.2876 2.10107 81.5514 2.10107Z" fill="#82BE28"/>
<path d="M70.0352 2.23162L71.8874 2.18675C71.9581 2.18675 72.0111 2.2085 72.0465 2.25202C72.0819 2.29282 72.0995 2.34041 72.0995 2.39481C72.0995 2.44648 72.09 2.5376 72.071 2.66814C72.0519 2.79597 72.0424 2.8898 72.0424 2.94964C72.5429 2.38393 73.2106 2.10107 74.0455 2.10107C74.5541 2.10107 74.9539 2.23162 75.2449 2.49272C75.5387 2.7511 75.6855 3.11826 75.6855 3.59422C75.6855 4.51894 75.3225 5.27503 74.5963 5.8625C75.4394 5.80266 76.0867 5.64628 76.5382 5.39334C76.6878 5.30903 76.7979 5.26687 76.8686 5.26687C76.9611 5.26687 77.0073 5.31719 77.0073 5.41782C77.0073 5.48853 76.957 5.5606 76.8564 5.63404C76.394 5.95769 75.7984 6.19703 75.0695 6.35205C74.3433 6.50708 73.5614 6.58459 72.7237 6.58459C72.6204 6.59003 72.5429 6.59275 72.4912 6.59275C72.2029 6.59275 71.9146 6.54924 71.6263 6.4622C71.338 6.37517 71.0987 6.25278 70.9083 6.09504C70.7206 6.66891 70.6268 7.33117 70.6268 8.08182L70.6309 8.20013C70.6309 8.33612 70.499 8.40411 70.2351 8.40411L68.3381 8.45307C68.2728 8.45307 68.2212 8.43267 68.1831 8.39187C68.145 8.35379 68.126 8.31028 68.126 8.26132C68.126 7.79624 68.3803 6.89464 68.8889 5.55652C69.3975 4.21568 69.6518 3.31817 69.6518 2.86397L69.6354 2.52536C69.6354 2.42473 69.6599 2.35129 69.7089 2.30506C69.7606 2.2561 69.8693 2.23162 70.0352 2.23162ZM72.842 3.1373C72.3307 3.1373 71.9037 3.52895 71.561 4.31224C71.4033 4.67124 71.3244 4.96226 71.3244 5.18528C71.3244 5.4083 71.3611 5.56196 71.4346 5.64628C71.5107 5.73059 71.6576 5.77275 71.8752 5.77275C72.0955 5.77275 72.3321 5.67211 72.585 5.47085C72.8407 5.26687 73.046 5.01121 73.201 4.70388C73.3561 4.39655 73.4336 4.12049 73.4336 3.87572C73.4336 3.62822 73.3792 3.44327 73.2704 3.32088C73.1616 3.1985 73.0188 3.1373 72.842 3.1373Z" fill="#82BE28"/>
<path d="M59.6849 2.23162L61.6186 2.18675C61.6894 2.18675 61.7424 2.2085 61.7778 2.25202C61.8131 2.29282 61.8308 2.34449 61.8308 2.40705C61.8308 2.46688 61.8158 2.56479 61.7859 2.70078C62.5121 2.30098 63.1444 2.10107 63.6829 2.10107C63.9168 2.10107 64.1331 2.15955 64.3316 2.2765C64.5329 2.39345 64.6634 2.56615 64.7232 2.79461C65.6099 2.33225 66.3442 2.10107 66.9263 2.10107C67.1819 2.10107 67.4076 2.17315 67.6035 2.31729C67.8129 2.47504 67.9176 2.69806 67.9176 2.98635C67.9176 3.27193 67.8673 3.57382 67.7667 3.89203C67.6687 4.20753 67.5695 4.50262 67.4688 4.77731C67.3709 5.05201 67.322 5.24647 67.322 5.3607C67.322 5.47221 67.3505 5.55652 67.4076 5.61364C67.4648 5.67075 67.5409 5.69931 67.6361 5.69931C67.987 5.69931 68.4221 5.57692 68.9416 5.33214C69.0395 5.28863 69.1143 5.26687 69.166 5.26687C69.2884 5.26687 69.3496 5.31583 69.3496 5.41374C69.3496 5.50077 69.2965 5.58372 69.1904 5.6626C69.0871 5.73875 68.9361 5.82306 68.7376 5.91553C68.5391 6.008 68.2929 6.10728 67.9992 6.21335C67.7082 6.31942 67.3655 6.40917 66.9711 6.4826C66.5768 6.55604 66.2246 6.59275 65.9145 6.59275C65.6072 6.59275 65.3773 6.54108 65.225 6.43773C65.0727 6.33438 64.9966 6.20111 64.9966 6.03792C64.9966 5.87474 65.0483 5.62996 65.1516 5.30359C65.2577 4.97722 65.3638 4.65493 65.4698 4.33671C65.5759 4.01578 65.6289 3.78324 65.6289 3.6391C65.6289 3.49223 65.5936 3.38752 65.5229 3.32496C65.4521 3.25969 65.3461 3.22705 65.2046 3.22705C65.0659 3.22705 64.9123 3.24881 64.7436 3.29233C64.7001 3.75741 64.5193 4.4659 64.2011 5.41782C64.0678 5.81762 63.993 6.06784 63.9767 6.16847C63.9604 6.2691 63.9495 6.32758 63.944 6.34389C63.9386 6.35749 63.9291 6.37653 63.9155 6.40101C63.891 6.44453 63.8393 6.46628 63.7605 6.46628C63.3688 6.46628 62.9812 6.47308 62.5978 6.48668C62.217 6.503 61.9709 6.51116 61.8593 6.51116C61.7506 6.51116 61.6962 6.44725 61.6962 6.31942C61.6962 6.19159 61.7383 6.0012 61.8226 5.74827C61.9069 5.49533 62.0008 5.24375 62.1041 4.99354C62.3734 4.32991 62.508 3.83492 62.508 3.50855C62.508 3.26649 62.3503 3.14546 62.0348 3.14546C61.9015 3.14546 61.775 3.16722 61.6554 3.21073C61.5493 3.57246 61.3657 4.14497 61.1046 4.92826C60.8462 5.71155 60.7007 6.15215 60.6681 6.25006C60.6246 6.39421 60.5471 6.46628 60.4356 6.46628L58.3386 6.51116C58.3087 6.51116 58.2747 6.49212 58.2366 6.45404C58.2013 6.41869 58.1836 6.37653 58.1836 6.32758C58.1836 6.2759 58.2407 6.09776 58.3549 5.79314C58.4719 5.48581 58.5997 5.15672 58.7384 4.80587C58.8771 4.4523 59.0036 4.06474 59.1178 3.64318C59.2348 3.21889 59.2933 2.86805 59.2933 2.59063L59.2892 2.4356C59.2892 2.29962 59.4211 2.23162 59.6849 2.23162Z" fill="#82BE28"/>
<path d="M52.1786 6.15623C51.6673 5.8489 51.4116 5.38246 51.4116 4.75692C51.4116 4.43055 51.4783 4.12457 51.6115 3.839C51.7475 3.5507 51.9325 3.30185 52.1664 3.09243C52.403 2.883 52.6777 2.7035 52.9904 2.55391C53.616 2.25202 54.3326 2.10107 55.1404 2.10107C56.7287 2.10107 57.5868 2.60423 57.7147 3.61054C57.905 3.67309 58.1009 3.70437 58.3021 3.70437C58.5061 3.70437 58.6761 3.68941 58.8121 3.65949C58.9481 3.62958 59.0759 3.5847 59.1956 3.52487C59.318 3.46503 59.405 3.43511 59.4567 3.43511C59.56 3.43511 59.6117 3.48543 59.6117 3.58606C59.6117 3.68669 59.5315 3.7914 59.371 3.90019C59.0691 4.10689 58.6693 4.21025 58.1716 4.21025C57.9839 4.21025 57.8316 4.20073 57.7147 4.18169C57.6276 4.86707 57.2741 5.43686 56.654 5.89105C56.3575 6.10864 55.9931 6.27998 55.5606 6.40509C55.1309 6.5302 54.6848 6.59275 54.2225 6.59275C53.7629 6.59275 53.3685 6.55604 53.0394 6.4826C52.7103 6.41189 52.4234 6.3031 52.1786 6.15623ZM53.6595 5.11592C53.6595 5.61908 53.8431 5.87066 54.2103 5.87066C54.4441 5.87066 54.6617 5.74283 54.863 5.48717C55.067 5.23151 55.2247 4.91466 55.3362 4.53662C55.4505 4.15857 55.5076 3.77372 55.5076 3.38208C55.5076 2.98771 55.3702 2.79053 55.0955 2.79053C54.8562 2.79053 54.6237 2.9034 54.3979 3.12914C54.1749 3.35488 53.9954 3.64862 53.8594 4.01034C53.7261 4.36935 53.6595 4.73788 53.6595 5.11592Z" fill="#82BE28"/>
<path d="M47.0053 5.11586C47.2637 5.42591 47.6689 5.58094 48.2211 5.58094C48.7378 5.58094 49.2736 5.49391 49.8284 5.31984C50.0107 5.26273 50.1453 5.23417 50.2323 5.23417C50.3901 5.23417 50.4689 5.27905 50.4689 5.3688C50.4689 5.49935 50.3656 5.63941 50.1589 5.789C49.9522 5.93587 49.6911 6.06778 49.3756 6.18473C49.0601 6.30168 48.7024 6.39823 48.3026 6.47438C47.9056 6.55325 47.5275 6.59269 47.1685 6.59269C46.5321 6.59269 45.9718 6.49342 45.4877 6.29488C45.0036 6.09633 44.6283 5.81348 44.3617 5.44631C44.0952 5.07642 43.9619 4.6739 43.9619 4.23874C43.9619 3.80086 44.0353 3.39698 44.1822 3.02709C44.3291 2.65448 44.5276 2.31859 44.7778 2.01942C45.0308 1.72025 45.3245 1.44283 45.659 1.18717C45.9963 0.931517 46.3512 0.718016 46.7238 0.546671C47.5207 0.182224 48.285 0 49.0166 0C49.7482 0 50.3166 0.150946 50.7219 0.452839C51.1271 0.752013 51.3297 1.11918 51.3297 1.55434C51.3297 2.02758 51.1897 2.44234 50.9095 2.79863C50.7763 2.97269 50.5981 3.1114 50.3751 3.21475C50.1548 3.3181 49.9059 3.36978 49.6285 3.36978C49.4436 3.36978 49.2858 3.34394 49.1553 3.29226C48.9078 3.19435 48.784 3.05429 48.784 2.87206C48.784 2.80951 48.8548 2.63272 48.9962 2.34171C49.1403 2.0507 49.2845 1.75152 49.4286 1.44419C49.5728 1.13414 49.6448 0.921997 49.6448 0.807768C49.6448 0.690818 49.5959 0.610585 49.498 0.567069C49.4001 0.523553 49.26 0.501795 49.0778 0.501795C48.8983 0.501795 48.6943 0.571149 48.4658 0.709856C48.2374 0.845844 48.0171 1.03351 47.8049 1.27285C47.5928 1.50946 47.3983 1.77328 47.2215 2.06429C47.0448 2.35531 46.9033 2.6708 46.7973 3.01077C46.6912 3.34802 46.6382 3.65127 46.6382 3.92053C46.6382 4.18978 46.6681 4.4196 46.7279 4.60999C46.7905 4.80037 46.8829 4.96899 47.0053 5.11586Z" fill="#82BE28"/>
<path d="M44.1375 5.26687C44.2327 5.26687 44.2803 5.31175 44.2803 5.4015C44.2803 5.48853 44.215 5.57012 44.0845 5.64628C43.9567 5.71971 43.7975 5.79994 43.6072 5.88698C43.4168 5.97129 43.1543 6.07192 42.8198 6.18887C42.0501 6.45812 41.1811 6.59275 40.2129 6.59275C38.3744 6.59275 37.4551 6.02704 37.4551 4.89562C37.4551 4.34351 37.6291 3.85396 37.9773 3.42696C38.3281 2.99723 38.7973 2.6695 39.3847 2.44376C39.9722 2.2153 40.6127 2.10107 41.3063 2.10107C41.9998 2.10107 42.507 2.2085 42.828 2.42337C43.1516 2.63823 43.3134 2.93332 43.3134 3.30865C43.3134 3.69485 43.1584 4.01034 42.8484 4.25512C42.541 4.4999 42.1317 4.68212 41.6204 4.80179C41.1064 4.92146 40.5175 5.00577 39.8539 5.05473C39.8974 5.47629 40.1993 5.73875 40.7596 5.8421C40.9037 5.86658 41.056 5.87882 41.2165 5.87882C41.8529 5.87882 42.7708 5.68707 43.9703 5.30359C44.0437 5.27911 44.0994 5.26687 44.1375 5.26687ZM39.858 4.60597C40.3312 4.47542 40.7052 4.27552 40.9799 4.00626C41.2546 3.73701 41.3919 3.412 41.3919 3.03123C41.3919 2.9306 41.3593 2.85037 41.294 2.79053C41.2287 2.7307 41.1295 2.70078 40.9962 2.70078C40.8657 2.70078 40.7283 2.7579 40.5842 2.87213C40.4427 2.98635 40.3231 3.13594 40.2251 3.32088C40.0184 3.70437 39.8961 4.13273 39.858 4.60597Z" fill="#82BE28"/>
<path d="M35.2112 0.420364L37.2102 0.375488C37.2809 0.375488 37.3339 0.397246 37.3693 0.440762C37.4047 0.481559 37.4223 0.527795 37.4223 0.57947C37.4223 0.865044 37.1612 1.68913 36.639 3.05173C36.1196 4.41433 35.8598 5.21665 35.8598 5.45871C35.8598 5.55934 35.8802 5.6355 35.921 5.68717C35.9618 5.73613 36.0339 5.76061 36.1372 5.76061C36.4609 5.76061 36.9627 5.61102 37.6426 5.31185C37.7106 5.28193 37.7759 5.26697 37.8385 5.26697C37.95 5.26697 38.0057 5.31049 38.0057 5.39752C38.0057 5.47095 37.95 5.5471 37.8385 5.62598C37.7269 5.70485 37.5733 5.79188 37.3775 5.88707C37.1816 5.98227 36.9437 6.08562 36.6635 6.19713C36.3834 6.30864 36.0652 6.40247 35.7089 6.47862C35.3553 6.55477 34.9841 6.59285 34.5951 6.59285C34.2062 6.59285 33.8948 6.53982 33.6609 6.43375C33.427 6.33039 33.3101 6.13865 33.3101 5.85852C33.3101 5.66269 33.5616 4.89436 34.0648 3.55352C34.2525 3.05309 34.4252 2.53361 34.5829 1.9951C34.7407 1.45387 34.8195 1.04863 34.8195 0.779372L34.8154 0.624346C34.8154 0.488358 34.9474 0.420364 35.2112 0.420364Z" fill="#82BE28"/>
<path d="M26.856 2.23162L28.7082 2.18675C28.7789 2.18675 28.8319 2.2085 28.8673 2.25202C28.9027 2.29282 28.9203 2.34041 28.9203 2.39481C28.9203 2.44648 28.9108 2.5376 28.8918 2.66814C28.8727 2.79597 28.8632 2.8898 28.8632 2.94964C29.3637 2.38393 30.0314 2.10107 30.8663 2.10107C31.3749 2.10107 31.7747 2.23162 32.0657 2.49272C32.3595 2.7511 32.5063 3.11826 32.5063 3.59422C32.5063 4.51894 32.1433 5.27503 31.4171 5.8625C32.2602 5.80266 32.9075 5.64628 33.359 5.39334C33.5086 5.30903 33.6187 5.26687 33.6894 5.26687C33.7819 5.26687 33.8281 5.31719 33.8281 5.41782C33.8281 5.48853 33.7778 5.5606 33.6772 5.63404C33.2148 5.95769 32.6192 6.19703 31.8903 6.35205C31.1641 6.50708 30.3822 6.58459 29.5445 6.58459C29.4412 6.59003 29.3637 6.59275 29.312 6.59275C29.0237 6.59275 28.7354 6.54924 28.4471 6.4622C28.1588 6.37517 27.9195 6.25278 27.7291 6.09504C27.5414 6.66891 27.4476 7.33117 27.4476 8.08182L27.4517 8.20013C27.4517 8.33612 27.3198 8.40411 27.0559 8.40411L25.1589 8.45307C25.0936 8.45307 25.042 8.43267 25.0039 8.39187C24.9658 8.35379 24.9468 8.31028 24.9468 8.26132C24.9468 7.79624 25.2011 6.89464 25.7097 5.55652C26.2183 4.21568 26.4726 3.31817 26.4726 2.86397L26.4562 2.52536C26.4562 2.42473 26.4807 2.35129 26.5297 2.30506C26.5814 2.2561 26.6901 2.23162 26.856 2.23162ZM29.6628 3.1373C29.1515 3.1373 28.7245 3.52895 28.3818 4.31224C28.2241 4.67124 28.1452 4.96226 28.1452 5.18528C28.1452 5.4083 28.1819 5.56196 28.2554 5.64628C28.3315 5.73059 28.4784 5.77275 28.696 5.77275C28.9163 5.77275 29.1529 5.67211 29.4058 5.47085C29.6615 5.26687 29.8668 5.01121 30.0218 4.70388C30.1769 4.39655 30.2544 4.12049 30.2544 3.87572C30.2544 3.62822 30.2 3.44327 30.0912 3.32088C29.9824 3.1985 29.8396 3.1373 29.6628 3.1373Z" fill="#82BE28"/>
<path d="M16.5062 2.23162L18.4399 2.18675C18.5106 2.18675 18.5637 2.2085 18.599 2.25202C18.6344 2.29282 18.6521 2.34449 18.6521 2.40705C18.6521 2.46688 18.6371 2.56479 18.6072 2.70078C19.3334 2.30098 19.9657 2.10107 20.5042 2.10107C20.7381 2.10107 20.9543 2.15955 21.1529 2.2765C21.3542 2.39345 21.4847 2.56615 21.5445 2.79461C22.4312 2.33225 23.1655 2.10107 23.7475 2.10107C24.0032 2.10107 24.2289 2.17315 24.4248 2.31729C24.6342 2.47504 24.7389 2.69806 24.7389 2.98635C24.7389 3.27193 24.6886 3.57382 24.5879 3.89203C24.49 4.20753 24.3908 4.50262 24.2901 4.77731C24.1922 5.05201 24.1433 5.24647 24.1433 5.3607C24.1433 5.47221 24.1718 5.55652 24.2289 5.61364C24.2861 5.67075 24.3622 5.69931 24.4574 5.69931C24.8082 5.69931 25.2434 5.57692 25.7629 5.33214C25.8608 5.28863 25.9356 5.26687 25.9873 5.26687C26.1096 5.26687 26.1708 5.31583 26.1708 5.41374C26.1708 5.50077 26.1178 5.58372 26.0117 5.6626C25.9084 5.73875 25.7574 5.82306 25.5589 5.91553C25.3604 6.008 25.1142 6.10728 24.8205 6.21335C24.5295 6.31942 24.1868 6.40917 23.7924 6.4826C23.3981 6.55604 23.0458 6.59275 22.7358 6.59275C22.4285 6.59275 22.1986 6.54108 22.0463 6.43773C21.894 6.33438 21.8179 6.20111 21.8179 6.03792C21.8179 5.87474 21.8695 5.62996 21.9729 5.30359C22.079 4.97722 22.185 4.65493 22.2911 4.33671C22.3972 4.01578 22.4502 3.78324 22.4502 3.6391C22.4502 3.49223 22.4149 3.38752 22.3441 3.32496C22.2734 3.25969 22.1674 3.22705 22.0259 3.22705C21.8872 3.22705 21.7336 3.24881 21.5649 3.29233C21.5214 3.75741 21.3406 4.4659 21.0223 5.41782C20.8891 5.81762 20.8143 6.06784 20.798 6.16847C20.7816 6.2691 20.7708 6.32758 20.7653 6.34389C20.7599 6.35749 20.7504 6.37653 20.7368 6.40101C20.7123 6.44453 20.6606 6.46628 20.5817 6.46628C20.1901 6.46628 19.8025 6.47308 19.419 6.48668C19.0383 6.503 18.7921 6.51116 18.6806 6.51116C18.5718 6.51116 18.5174 6.44725 18.5174 6.31942C18.5174 6.19159 18.5596 6.0012 18.6439 5.74827C18.7282 5.49533 18.8221 5.24375 18.9254 4.99354C19.1947 4.32991 19.3293 3.83492 19.3293 3.50855C19.3293 3.26649 19.1715 3.14546 18.8561 3.14546C18.7228 3.14546 18.5963 3.16722 18.4767 3.21073C18.3706 3.57246 18.187 4.14497 17.9259 4.92826C17.6675 5.71155 17.522 6.15215 17.4894 6.25006C17.4459 6.39421 17.3684 6.46628 17.2568 6.46628L15.1599 6.51116C15.13 6.51116 15.096 6.49212 15.0579 6.45404C15.0226 6.41869 15.0049 6.37653 15.0049 6.32758C15.0049 6.2759 15.062 6.09776 15.1762 5.79314C15.2932 5.48581 15.421 5.15672 15.5597 4.80587C15.6984 4.4523 15.8249 4.06474 15.9391 3.64318C16.0561 3.21889 16.1145 2.86805 16.1145 2.59063L16.1105 2.4356C16.1105 2.29962 16.2424 2.23162 16.5062 2.23162Z" fill="#82BE28"/>
<path d="M10.493 5.55652C11.0043 5.55652 11.4313 5.16488 11.774 4.38159C11.9318 4.02258 12.0106 3.73157 12.0106 3.50855C12.0106 3.28553 11.9726 3.13186 11.8964 3.04755C11.823 2.96324 11.6761 2.92108 11.4558 2.92108C11.2382 2.92108 11.0016 3.02307 10.746 3.22705C10.493 3.42832 10.289 3.68261 10.134 3.98995C9.97898 4.29728 9.90147 4.57469 9.90147 4.82219C9.90147 5.06697 9.95586 5.25055 10.0647 5.37294C10.1734 5.49533 10.3162 5.55652 10.493 5.55652ZM12.6144 2.10107L14.4829 2.18675C14.5536 2.18675 14.6066 2.2085 14.642 2.25202C14.6774 2.29282 14.695 2.33905 14.695 2.39073C14.695 2.58927 14.6121 2.90612 14.4462 3.34128C14.283 3.77372 14.1185 4.20345 13.9525 4.63045C13.7894 5.05473 13.7078 5.33622 13.7078 5.47493C13.7078 5.61092 13.7282 5.69795 13.769 5.73603C13.8125 5.77411 13.8941 5.79314 14.0137 5.79314C14.1334 5.79314 14.351 5.73603 14.6665 5.6218C14.9847 5.50485 15.1996 5.41646 15.3111 5.35662C15.4253 5.29679 15.5123 5.26687 15.5722 5.26687C15.6782 5.26687 15.7313 5.31447 15.7313 5.40966C15.7313 5.61092 15.3233 5.87474 14.5074 6.20111C14.2327 6.31262 13.9009 6.40509 13.5119 6.47852C13.1257 6.55468 12.7327 6.59275 12.3329 6.59275C11.6666 6.59275 11.2654 6.38061 11.1294 5.95633C10.7052 6.38061 10.134 6.59275 9.41599 6.59275C8.92372 6.59275 8.50759 6.47444 8.16762 6.23782C7.79774 5.97945 7.61279 5.57284 7.61279 5.01801C7.61279 4.43327 7.7855 3.89475 8.13091 3.40248C8.50895 2.85581 9.01483 2.47912 9.64853 2.27242C9.99938 2.15819 10.3761 2.10107 10.7786 2.10107C11.396 2.10107 11.876 2.25338 12.2187 2.55799C12.2214 2.54167 12.2228 2.51584 12.2228 2.48048L12.2187 2.30506C12.2187 2.16907 12.3506 2.10107 12.6144 2.10107Z" fill="#82BE28"/>
<path d="M0.101991 6.11129C0.033997 6.07866 0 6.01066 0 5.90731C0 5.80396 0.0829526 5.58366 0.248858 5.24641C0.414763 4.90644 0.545311 4.73646 0.640503 4.73646C0.694898 4.73646 0.77921 4.77453 0.89344 4.85069C1.00767 4.92412 1.13958 5.01387 1.28916 5.11994C1.44147 5.22601 1.60602 5.33072 1.7828 5.43407C2.21252 5.68973 2.63 5.81756 3.03525 5.81756C3.23651 5.81756 3.38066 5.77676 3.46769 5.69517C3.55472 5.61358 3.59824 5.53198 3.59824 5.45039C3.59824 5.36608 3.552 5.27225 3.45953 5.1689C3.36706 5.06283 3.24603 4.95404 3.09644 4.84253C2.94958 4.73102 2.78639 4.61407 2.60689 4.49168C2.42738 4.36657 2.24788 4.23466 2.06837 4.09595C1.88887 3.95725 1.72569 3.81854 1.57882 3.67983C1.24429 3.36434 1.07702 3.05701 1.07702 2.75783C1.07702 2.54569 1.13278 2.35395 1.24429 2.1826C1.35852 2.01126 1.50267 1.87255 1.67673 1.76648C1.85351 1.66041 2.05342 1.57202 2.27644 1.50131C2.67624 1.37076 3.08828 1.30548 3.51257 1.30548C3.62951 1.30548 3.71655 1.32316 3.77366 1.35852C3.83078 1.39388 3.85933 1.43467 3.85933 1.48091C3.85933 1.52714 3.83894 1.59786 3.79814 1.69305C3.75734 1.78552 3.73695 1.86847 3.73695 1.94191C3.73695 2.01534 3.7859 2.10917 3.88381 2.2234C3.98444 2.33763 4.11363 2.45458 4.27138 2.57425C4.42912 2.69392 4.60319 2.82175 4.79357 2.95773C4.98395 3.09372 5.17434 3.23787 5.36472 3.39018C5.5551 3.54248 5.72917 3.69751 5.88691 3.85525C6.2432 4.21154 6.42134 4.55695 6.42134 4.89148C6.42134 5.22329 6.33431 5.50071 6.16025 5.72373C5.9889 5.94675 5.74956 6.11945 5.44223 6.24184C5.1349 6.36423 4.79765 6.45262 4.43048 6.50702C4.06332 6.56413 3.61592 6.59269 3.08828 6.59269C2.56065 6.59269 1.97862 6.53829 1.3422 6.4295C0.708496 6.31799 0.295094 6.21192 0.101991 6.11129ZM6.85787 2.11733C6.50158 1.69305 6.05962 1.37756 5.53198 1.17086C5.00707 0.961434 4.45904 0.856723 3.88789 0.856723C2.84079 0.856723 1.83176 1.05391 0.860803 1.44827C0.730255 1.49995 0.637783 1.52578 0.583388 1.52578C0.474597 1.52578 0.420202 1.47411 0.420202 1.37076C0.420202 1.28644 0.492276 1.18581 0.636423 1.06886C0.78329 0.951915 0.992711 0.832245 1.26469 0.709856C1.53938 0.584748 1.84943 0.469158 2.19484 0.363087C2.98357 0.121029 3.82942 0 4.73238 0C6.06778 0 7.07545 0.187663 7.75538 0.56299C7.79346 0.584748 7.80978 0.650022 7.80434 0.758812C7.80162 0.864882 7.75267 1.02943 7.65747 1.25245C7.56228 1.47547 7.44669 1.68217 7.3107 1.87255C7.17744 2.06294 7.06321 2.15813 6.96802 2.15813C6.94354 2.13093 6.90682 2.11733 6.85787 2.11733Z" fill="#82BE28"/>
</svg>
